<svg width="79" height="43" viewBox="0 0 79 43" fill="none" xmlns="http://www.w3.org/2000/svg">
<path d="M78.8227 36.0197L74.4909 31.7221H75.4174C75.6678 31.7221 75.8931 31.5731 75.9933 31.3495C76.0934 31.1259 76.0434 30.8527 75.8681 30.6788L71.5363 26.3813H74.2155C74.4659 26.3813 74.6912 26.2322 74.7914 26.0087C74.8915 25.7851 74.8415 25.5119 74.6662 25.338L70.2342 20.9411H72.8633C73.1137 20.9411 73.3391 20.792 73.4393 20.5685C73.5394 20.3449 73.4893 20.0716 73.3141 19.8978L68.9822 15.6002H70.6098C70.8352 15.6002 71.0355 15.476 71.1356 15.3021C71.2358 15.1283 71.2608 14.8798 71.1607 14.6811L63.5487 0.322935C63.4485 0.124206 63.2232 0 62.9978 0C62.7725 0 62.5471 0.124206 62.4469 0.322935L54.6096 14.6314C54.5095 14.8302 54.5095 15.0537 54.6096 15.2525C54.7348 15.4512 54.9351 15.5506 55.1354 15.5506H57.2888L53.8083 19.0035H9.43849C9.08793 19.0035 8.8125 19.2767 8.8125 19.6245V41.1866C8.8125 41.5344 9.08793 41.8076 9.43849 41.8076H15.5231H51.6049H57.8397H65.3265C65.677 41.8076 65.9525 41.5344 65.9525 41.1866V37.063H78.372C78.6224 37.063 78.8478 36.9139 78.9479 36.6904C79.0481 36.4668 78.998 36.1935 78.8227 36.0197ZM26.3651 40.5656H16.1491V26.2819H26.3902V40.5656H26.3651ZM39.1603 40.5656H27.6421V26.2819H39.1603V40.5656ZM50.9789 40.5656H40.4123V26.2819H50.9789V40.5656ZM57.2137 40.5656H52.2309V25.6609C52.2309 25.3131 51.9554 25.0399 51.6049 25.0399H15.5231C15.1725 25.0399 14.8971 25.3131 14.8971 25.6609V40.5656H10.0645V20.2455H57.2137V40.5656ZM60.4688 40.5656H58.4657V37.063H60.4688V40.5656ZM64.7005 40.5656H61.7208V37.063H64.7005V40.5656ZM65.3265 35.8458H61.0948H58.4657V19.6245C58.4657 19.2767 58.1902 19.0035 57.8397 19.0035H55.5861L59.2669 15.3518C59.4422 15.1779 59.4923 14.9047 59.3921 14.6811C59.292 14.4575 59.0666 14.3085 58.8162 14.3085H56.2121L62.9978 1.93761L69.5581 14.2837H67.4548C67.2044 14.2837 66.9791 14.4327 66.8789 14.6563C66.7788 14.8798 66.8288 15.1531 67.0041 15.327L71.361 19.6493H68.6818C68.4314 19.6493 68.206 19.7984 68.1059 20.022C68.0057 20.2455 68.0558 20.5188 68.2311 20.6927L72.663 25.0896H69.9838C69.7334 25.0896 69.5081 25.2386 69.4079 25.4622C69.3078 25.6857 69.3578 25.959 69.5331 26.1329L73.8649 30.4304H72.9385C72.6881 30.4304 72.4627 30.5794 72.3626 30.803C72.2624 31.0266 72.3125 31.2998 72.4878 31.4737L76.8196 35.7712H65.3265V35.8458Z" fill="#484C57"/>
<path d="M2.62914 30.2812L1.0767 34.4048H0.625986C0.275434 34.4048 0 34.6781 0 35.0258V40.5903C0 40.938 0.275434 41.2113 0.625986 41.2113H1.35213V41.7329C1.35213 42.4285 1.92804 42.9998 2.62914 42.9998H3.85607C4.55718 42.9998 5.13308 42.4285 5.13308 41.7329V41.2113H7.86238V39.9692H1.25197V35.6469H7.83734V34.4048H2.42882L3.65576 31.1009H7.83734V29.8589H3.23009C2.95465 29.8837 2.7293 30.0328 2.62914 30.2812ZM2.10331 41.2113H4.3819V41.7329C4.3819 42.031 4.15654 42.2546 3.85607 42.2546H2.62914C2.32867 42.2546 2.10331 42.031 2.10331 41.7329V41.2113Z" fill="#484C57"/>
<path d="M2.22852 37.982C2.22852 38.7272 2.8545 39.3482 3.60568 39.3482C4.35687 39.3482 4.98285 38.7272 4.98285 37.982C4.98285 37.2368 4.35687 36.6157 3.60568 36.6157C2.8545 36.6157 2.22852 37.2119 2.22852 37.982ZM4.23167 37.982C4.23167 38.3298 3.95624 38.603 3.60568 38.603C3.25513 38.603 2.9797 38.3298 2.9797 37.982C2.9797 37.6342 3.25513 37.361 3.60568 37.361C3.95624 37.361 4.23167 37.6342 4.23167 37.982Z" fill="#484C57"/>
</svg>
