<svg width="79" height="43" viewBox="0 0 79 43" fill="none" xmlns="http://www.w3.org/2000/svg">
<path d="M78.8227 36.0197L74.4909 31.7221H75.4174C75.6678 31.7221 75.8931 31.5731 75.9933 31.3495C76.0934 31.1259 76.0434 30.8527 75.8681 30.6788L71.5363 26.3813H74.2155C74.4659 26.3813 74.6912 26.2322 74.7914 26.0087C74.8915 25.7851 74.8415 25.5119 74.6662 25.338L70.2342 20.9411H72.8633C73.1137 20.9411 73.3391 20.792 73.4393 20.5685C73.5394 20.3449 73.4893 20.0716 73.3141 19.8978L68.9822 15.6002H70.6098C70.8352 15.6002 71.0355 15.476 71.1356 15.3021C71.2358 15.1283 71.2608 14.8798 71.1607 14.6811L63.5487 0.322935C63.4485 0.124206 63.2232 0 62.9978 0C62.7725 0 62.5471 0.124206 62.4469 0.322935L54.6096 14.6314C54.5095 14.8302 54.5095 15.0537 54.6096 15.2525C54.7348 15.4512 54.9351 15.5506 55.1354 15.5506H57.2888L53.8083 19.0035H9.43849C9.08793 19.0035 8.8125 19.2767 8.8125 19.6245V41.1866C8.8125 41.5344 9.08793 41.8076 9.43849 41.8076H15.5231H51.6049H57.8397H65.3265C65.677 41.8076 65.9525 41.5344 65.9525 41.1866V37.063H78.372C78.6224 37.063 78.8478 36.9139 78.9479 36.6904C79.0481 36.4668 78.998 36.1935 78.8227 36.0197ZM26.3651 40.5656H16.1491V26.2819H26.3902V40.5656H26.3651ZM39.1603 40.5656H27.6421V26.2819H39.1603V40.5656ZM50.9789 40.5656H40.4123V26.2819H50.9789V40.5656ZM57.2137 40.5656H52.2309V25.6609C52.2309 25.3131 51.9554 25.0399 51.6049 25.0399H15.5231C15.1725 25.0399 14.8971 25.3131 14.8971 25.6609V40.5656H10.0645V20.2455H57.2137V40.5656ZM60.4688 40.5656H58.4657V37.063H60.4688V40.5656ZM64.7005 40.5656H61.7208V37.063H64.7005V40.5656ZM65.3265 35.8458H61.0948H58.4657V19.6245C58.4657 19.2767 58.1902 19.0035 57.8397 19.0035H55.5861L59.2669 15.3518C59.4422 15.1779 59.4923 14.9047 59.3921 14.6811C59.292 14.4575 59.0666 14.3085 58.8162 14.3085H56.2121L62.9978 1.93761L69.5581 14.2837H67.4548C67.2044 14.2837 66.9791 14.4327 66.8789 14.6563C66.7788 14.8798 66.8288 15.1531 67.0041 15.327L71.361 19.6493H68.6818C68.4314 19.6493 68.206 19.7984 68.1059 20.022C68.0057 20.2455 68.0558 20.5188 68.2311 20.6927L72.663 25.0896H69.9838C69.7334 25.0896 69.5081 25.2386 69.4079 25.4622C69.3078 25.6857 69.3578 25.959 69.5331 26.1329L73.8649 30.4304H72.9385C72.6881 30.4304 72.4627 30.5794 72.3626 30.803C72.2624 31.0266 72.3125 31.2998 72.4878 31.4737L76.8196 35.7712H65.3265V35.8458Z" fill="#484C57"/>
<path d="M2.62914 30.2812L1.0767 34.4048H0.625986C0.275434 34.4048 0 34.6781 0 35.0258V40.5903C0 40.938 0.275434 41.2113 0.625986 41.2113H1.35213V41.7329C1.35213 42.4285 1.92804 42.9998 2.62914 42.9998H3.85607C4.55718 42.9998 5.13308 42.4285 5.13308 41.7329V41.2113H7.86238V39.9692H1.25197V35.6469H7.83734V34.4048H2.42882L3.65576 31.1009H7.83734V29.8589H3.23009C2.95465 29.8837 2.7293 30.0328 2.62914 30.2812ZM2.10331 41.2113H4.3819V41.7329C4.3819 42.031 4.15654 42.2546 3.85607 42.2546H2.62914C2.32867 42.2546 2.10331 42.031 2.10331 41.7329V41.2113Z" fill="#484C57"/>
<path d="M2.22852 37.982C2.22852 38.7272 2.8545 39.3482 3.60568 39.3482C4.35687 39.3482 4.98285 38.7272 4.98285 37.982C4.98285 37.2368 4.35687 36.6157 3.60568 36.6157C2.8545 36.6157 2.22852 37.2119 2.22852 37.982ZM4.23167 37.982C4.23167 38.3298 3.95624 38.603 3.60568 38.603C3.25513 38.603 2.9797 38.3298 2.9797 37.982C2.9797 37.6342 3.25513 37.361 3.60568 37.361C3.95624 37.361 4.23167 37.6342 4.23167 37.982Z" fill="#484C57"/>
<path d="M0.351097 3.15508C0.62653 3.62706 0.901964 4.12388 1.1774 4.59587C1.27756 4.76975 1.37771 4.81944 1.57803 4.79459C1.70323 4.76975 1.82842 4.76975 1.95362 4.74491C2.07882 4.72007 2.15394 4.74491 2.25409 4.84428C3.45599 6.03665 4.65788 7.22903 5.85977 8.4214C5.88481 8.44624 5.93489 8.47108 6.01001 8.52077C5.93489 8.57045 5.90985 8.59529 5.88481 8.62013C5.50922 8.99275 5.50922 9.41505 5.85977 9.8125C6.11016 10.1106 6.3856 10.2348 6.76119 10.1354C6.81127 10.1354 6.86135 10.1603 6.91143 10.1851C7.03662 10.2845 7.13678 10.3839 7.23694 10.5081C7.28702 10.5577 7.31206 10.6323 7.31206 10.6819C7.31206 11.0794 7.46229 11.4023 7.73773 11.6756C8.8645 12.7934 9.96624 13.9113 11.093 15.0043C11.2683 15.1534 11.4686 15.2776 11.6689 15.4018C11.7941 15.4763 11.9193 15.5011 12.0445 15.526C12.2699 15.526 12.4952 15.526 12.6955 15.526L12.7206 15.5011C13.1212 15.4266 13.4467 15.2279 13.7221 14.9049C14.273 14.2342 14.273 13.1661 13.647 12.5699C12.4952 11.4272 11.3434 10.2845 10.1916 9.14179C9.99128 8.94307 9.74088 8.79402 9.44041 8.79402C9.19001 8.79402 9.01474 8.71949 8.88954 8.52077C8.8645 8.47108 8.81442 8.44624 8.78938 8.4214C8.68923 8.34688 8.68923 8.27235 8.71426 8.14815C8.76434 7.92458 8.7393 7.70101 8.58907 7.52712C8.48891 7.40291 8.36371 7.30355 8.23852 7.20419C7.96308 7.00546 7.56245 7.0303 7.28702 7.25387C7.2119 7.30355 7.13678 7.37807 7.06166 7.4526C7.03662 7.40291 6.98654 7.37807 6.9615 7.35323C5.78465 6.1857 4.63284 5.04301 3.45599 3.87547C3.30575 3.72643 3.18055 3.60222 3.28071 3.35381C3.30575 3.27928 3.30575 3.20476 3.30575 3.13024C3.33079 2.85699 3.30575 2.83214 3.08039 2.6831C2.42937 2.2608 1.7533 1.88818 1.07724 1.49072C1.02716 1.49072 0.977082 1.49072 0.927004 1.49072C0.851885 1.5404 0.776767 1.59009 0.726688 1.63977C0.526373 1.8385 0.326057 2.03723 0.125742 2.23596C-0.0244946 2.385 -0.0244946 2.48437 0.0756631 2.6831C0.150781 2.83214 0.250939 3.00603 0.351097 3.15508ZM7.51237 7.77553C7.73773 7.55196 7.83788 7.55196 8.0382 7.77553C8.06324 7.80037 8.11332 7.85006 8.13836 7.8749C8.23852 7.97426 8.23851 8.07363 8.1634 8.19783C8.06324 8.37172 8.06324 8.47108 8.21348 8.59529C8.41379 8.79402 8.61411 8.99275 8.81442 9.19148C8.88954 9.24116 9.01474 9.29084 9.08986 9.29084C9.39033 9.266 9.64072 9.36536 9.86608 9.56409C10.9678 10.6571 12.0695 11.7501 13.1713 12.8431C13.4217 13.0915 13.5719 13.3896 13.5719 13.7622C13.5469 14.2591 13.3215 14.6565 12.8458 14.8553C12.3951 15.054 11.9444 14.9795 11.5938 14.6565C11.093 14.2094 10.6423 13.7374 10.1666 13.2654C9.49049 12.6196 8.83946 11.9488 8.1634 11.303C7.93804 11.0794 7.78781 10.8062 7.86292 10.4832C7.88796 10.4087 7.81285 10.3093 7.76277 10.2348C7.56245 10.0361 7.36214 9.83735 7.16182 9.63862C7.03662 9.51441 6.91143 9.48957 6.76119 9.58893C6.63599 9.66346 6.5108 9.66346 6.41064 9.56409C6.08513 9.29084 6.08512 9.19148 6.3856 8.89338C6.76119 8.52077 7.13678 8.14815 7.51237 7.77553ZM1.0522 2.13659C1.60307 2.45953 2.1289 2.75762 2.67976 3.08056C2.72984 3.1054 2.72984 3.20476 2.72984 3.25444C2.72984 3.37865 2.7048 3.5277 2.67976 3.6519C2.65472 3.77611 2.7048 3.87547 2.77992 3.95C3.63126 4.79459 4.4826 5.63919 5.3089 6.45895C5.75961 6.90609 6.21032 7.35323 6.68607 7.80037C6.58591 7.89974 6.48576 7.9991 6.36056 8.12331C6.23536 7.97426 6.11016 7.85005 5.95993 7.70101C4.83315 6.58316 3.68134 5.46531 2.57961 4.32261C2.42937 4.17357 2.27913 4.09904 2.05378 4.14873C1.92858 4.17357 1.7533 4.24809 1.65315 4.17357C1.55299 4.12388 1.50291 3.95 1.42779 3.85063C1.1774 3.40349 0.927004 2.98119 0.65157 2.53405C0.776767 2.40984 0.901964 2.2608 1.0522 2.13659Z" fill="#484C57"/>
<path d="M7.4104 6.70724C7.46048 6.6824 7.51056 6.63272 7.5356 6.58303C7.76095 6.35946 7.96127 6.16073 8.18662 5.93716C8.3619 5.76328 8.38694 5.66391 8.26174 5.44034C8.11151 5.16709 7.96127 4.89384 7.88615 4.5709C7.76095 3.97471 7.91119 3.47789 8.3619 3.08043C8.83765 2.65813 9.41356 2.36004 10.0395 2.16131C10.2899 2.08679 10.5654 2.06195 10.8158 2.01226C10.8158 2.03711 10.8158 2.03711 10.8408 2.06195C10.8158 2.08679 10.8158 2.11163 10.7907 2.11163C10.4903 2.40972 10.1647 2.73266 9.86427 3.03075C9.48867 3.40337 9.48867 3.90019 9.86427 4.27281C10.34 4.74479 10.8158 5.21677 11.2915 5.68875C11.6671 6.06137 12.1679 6.06137 12.5435 5.68875C12.7438 5.49002 12.9191 5.31614 13.1194 5.11741C13.2696 4.96836 13.3948 4.84415 13.52 4.69511C13.52 4.69511 13.5451 4.69511 13.5451 4.71995C13.52 4.869 13.52 5.01804 13.495 5.16709C13.3447 5.88748 13.0192 6.53335 12.5435 7.1047C12.1178 7.60152 11.592 7.77541 10.966 7.60152C10.6655 7.527 10.3901 7.37795 10.0896 7.25374C9.93938 7.17922 9.81419 7.15438 9.68899 7.27859C9.53875 7.42763 9.38852 7.57668 9.23828 7.72573C9.11308 7.84993 9.13812 8.02382 9.23828 8.12318C9.33844 8.22255 9.51371 8.22255 9.63891 8.09834C9.71403 8.02382 9.78915 7.9493 9.86427 7.87477C9.91434 7.80025 9.96442 7.80025 10.0646 7.84993C10.315 7.9493 10.5403 8.0735 10.7907 8.12318C11.6421 8.34676 12.3682 8.12318 12.9441 7.47731C13.4199 6.95565 13.7454 6.33462 13.9457 5.63907C14.121 5.11741 14.1961 4.5709 14.0458 4.0244C13.9707 3.7263 13.7203 3.65178 13.495 3.87535C13.0443 4.32249 12.5936 4.76963 12.1178 5.24161C11.9425 5.4155 11.7673 5.4155 11.617 5.24161C11.1663 4.79447 10.7156 4.34733 10.2899 3.92503C10.0896 3.7263 10.0896 3.57726 10.2899 3.37853C10.7406 2.93139 11.1914 2.4594 11.6671 2.01226C11.8424 1.83838 11.7673 1.51544 11.5169 1.4906C11.4668 1.4906 11.4167 1.46576 11.3666 1.44092C11.0662 1.44092 10.7657 1.44092 10.4903 1.44092C10.4652 1.44092 10.4652 1.46576 10.4402 1.46576C9.48867 1.63965 8.63733 2.03711 7.93623 2.68297C7.5356 3.05559 7.2852 3.55241 7.2852 4.09892C7.2852 4.5709 7.4104 4.9932 7.63576 5.39066C7.71087 5.51486 7.68584 5.56455 7.58568 5.66391C7.38536 5.8378 7.21009 6.03653 7.03481 6.23526C6.93465 6.33462 6.95969 6.50851 7.03481 6.60787C7.13497 6.78176 7.2852 6.78176 7.4104 6.70724Z" fill="#484C57"/>
<path d="M6.65917 11.1293C6.78436 11.0051 6.78436 10.8312 6.68421 10.707C6.55901 10.5828 6.38373 10.6076 6.25854 10.7318C5.93302 11.0796 5.58247 11.4025 5.25696 11.7503C5.1568 11.8497 5.13176 11.9739 5.1568 12.0981C5.282 12.4458 5.25696 12.7936 5.20688 13.1414C4.88137 14.6319 3.35396 15.3523 2.00183 14.7809C1.12545 14.4083 0.549547 13.5389 0.624665 12.5204C0.699783 11.5764 1.20057 10.9057 2.07695 10.5331C2.5527 10.3344 3.02845 10.3344 3.52924 10.4337C3.6294 10.4586 3.75459 10.4089 3.80467 10.3592C4.28042 9.88721 4.75617 9.41523 5.23192 8.94325C5.33208 8.81904 5.33208 8.67 5.20688 8.54579C5.10672 8.42159 4.98152 8.42159 4.83129 8.54579C4.78121 8.57063 4.75617 8.62031 4.73113 8.64515C4.35554 9.01777 3.95491 9.39039 3.57932 9.78785C3.5042 9.86237 3.42908 9.88721 3.32892 9.86237C2.57774 9.71332 1.87664 9.88721 1.27569 10.3344C0.349231 11.0051 -0.0764389 11.8993 0.0487582 13.042C0.198995 14.1599 0.82498 14.93 1.87664 15.3523C2.12703 15.4516 2.40246 15.4765 2.6779 15.551C2.85317 15.551 3.00341 15.551 3.17869 15.551C3.20373 15.551 3.20373 15.5262 3.22877 15.5262C3.95491 15.4516 4.58089 15.1287 5.08168 14.5822C5.68263 13.9115 5.93302 13.1166 5.73271 12.2223C5.70767 12.1229 5.73271 12.0732 5.80783 11.9987C6.08326 11.7006 6.38373 11.4025 6.65917 11.1293Z" fill="#484C57"/>
<path d="M3.50585 11.1783C3.43073 11.1038 3.33058 11.079 3.2805 11.0293C3.20538 11.0541 3.20538 11.0541 3.18034 11.0541C2.75467 11.1783 2.329 11.3025 1.90333 11.4019C1.77813 11.4516 1.67797 11.5261 1.65294 11.6503C1.52774 12.0726 1.42758 12.4701 1.30238 12.8924C1.2523 13.0166 1.27734 13.1408 1.3775 13.2402C1.70301 13.5631 2.00349 13.886 2.329 14.1841C2.40412 14.2586 2.50428 14.3083 2.60443 14.2835C3.05514 14.1593 3.50585 14.0351 3.93152 13.9109C4.05672 13.886 4.13184 13.7867 4.18192 13.6625C4.28207 13.2402 4.38223 12.8427 4.50743 12.4204C4.55751 12.2714 4.50743 12.172 4.40727 12.0726C4.1068 11.7745 3.80633 11.4516 3.50585 11.1783ZM3.88144 12.5943C3.83136 12.8179 3.75625 13.0414 3.70617 13.265C3.68113 13.3644 3.65609 13.3892 3.55593 13.414C3.2805 13.4886 3.00506 13.5631 2.72963 13.6376C2.67955 13.6376 2.62947 13.6376 2.60443 13.6128C2.37908 13.3892 2.15372 13.1905 1.95341 12.9669C1.92837 12.9421 1.90333 12.8675 1.92837 12.8427C2.00349 12.5446 2.07861 12.2714 2.15372 11.9981C2.15372 11.9484 2.2038 11.9236 2.25388 11.8987C2.55435 11.8242 2.82979 11.7497 3.13026 11.6752C3.1553 11.6752 3.20538 11.6752 3.23042 11.7C3.45577 11.9236 3.68113 12.1471 3.90648 12.3707C3.93152 12.3956 3.93152 12.4204 3.95656 12.4204C3.90648 12.4701 3.88144 12.5446 3.88144 12.5943Z" fill="#484C57"/>
<path d="M12.3458 13.3648C11.219 12.2469 10.0922 11.1291 8.96544 10.0112C8.84024 10.1354 8.71504 10.2596 8.58984 10.3838C9.71662 11.5017 10.8434 12.6195 11.9702 13.7374C12.0954 13.6132 12.2206 13.489 12.3458 13.3648Z" fill="#484C57"/>
</svg>
