<svg width="55" height="34" viewBox="0 0 55 34" fill="none" xmlns="http://www.w3.org/2000/svg">
<path d="M0 1.97107H55" stroke="#484C57" stroke-width="0.5"/>
<path d="M9.08203 27.5942V34" stroke="#484C57" stroke-width="0.5"/>
<path d="M45.918 27.5942V34" stroke="#484C57" stroke-width="0.5"/>
<path d="M52.346 5.91309H3.15958C2.80334 5.91309 2.52344 6.18609 2.52344 6.53355V28.0762C2.52344 28.4236 2.80334 28.6966 3.15958 28.6966H9.34287H46.01H52.346C52.7023 28.6966 52.9822 28.4236 52.9822 28.0762V6.53355C52.9822 6.18609 52.6768 5.91309 52.346 5.91309ZM33.3381 13.185V27.4557H21.6331V13.185H33.3381ZM20.3608 27.4557H9.97901V13.185H17.1292H20.3863V27.4557H20.3608ZM34.6104 27.4557V13.185H45.3485V27.4557H34.6104ZM51.7099 27.4557H46.6462V12.5645C46.6462 12.217 46.3663 11.944 46.01 11.944H9.34287C8.98663 11.944 8.70673 12.217 8.70673 12.5645V27.4557H3.79572V7.15402H51.7099V27.4557Z" fill="#484C57"/>
<path d="M36.8239 13.1849V27.4557H19.7753L17.1035 13.1849" fill="#FEFEFE"/>
<path d="M3.02734 7.88406V0" stroke="#484C57" stroke-width="0.5"/>
<path d="M52.4766 6.89855V0" stroke="#484C57" stroke-width="0.5"/>
<path d="M7.06445 32.0289H47.936" stroke="#484C57" stroke-width="0.5"/>
<rect x="20.6875" y="12.8116" width="1.00917" height="15.7681" fill="#484C57"/>
<rect x="20.6875" y="12.8116" width="1.00917" height="15.7681" fill="#484C57"/>
<rect x="33.8066" y="12.8116" width="1.00917" height="15.7681" fill="#484C57"/>
<rect x="33.8066" y="12.8116" width="1.00917" height="15.7681" fill="#484C57"/>
</svg>
