<svg width="50" height="48" viewBox="0 0 50 48" fill="none" xmlns="http://www.w3.org/2000/svg">
<path d="M49.3696 24.8816H0.630358C0.277358 24.8816 0 25.1586 0 25.5112V47.3706C0 47.7232 0.277358 48.0002 0.630358 48.0002H6.75744H43.0913H49.3696C49.7226 48.0002 50 47.7232 50 47.3706V25.5112C50 25.1586 49.6974 24.8816 49.3696 24.8816ZM30.5345 32.2604V46.741H18.936V32.2604H30.5345ZM17.6752 46.741H7.3878V32.2604H14.473H17.7005V46.741H17.6752ZM31.7953 46.741V32.2604H42.4357V46.741H31.7953ZM48.7393 46.741H43.7216V31.6308C43.7216 31.2782 43.4443 31.0012 43.0913 31.0012H6.75744C6.40444 31.0012 6.12708 31.2782 6.12708 31.6308V46.741H1.26072V26.1408H48.7393V46.741Z" fill="#484C57"/>
<path d="M17.2461 20.7765H19.2632L24.6087 15.4376H25.945L31.3661 20.8521H33.4841L27.3318 14.7072C28.2395 14.0777 28.8447 13.0451 28.8447 11.8615C28.8447 10.1994 27.6848 8.81427 26.1215 8.4617V5.91816H27.5335C27.937 5.91816 28.2648 5.61595 28.29 5.21301L28.6682 0.83106C28.6934 0.629591 28.6178 0.402938 28.4665 0.251836C28.3152 0.100735 28.1135 0 27.9118 0H22.415C22.2133 0 21.9864 0.100735 21.8603 0.251836C21.709 0.402938 21.6334 0.629591 21.6586 0.83106L22.0368 5.21301C22.062 5.61595 22.3898 5.91816 22.7932 5.91816H24.6087V9.16685C24.6087 9.59497 24.9617 9.92236 25.3651 9.92236C26.4493 9.92236 27.3318 10.8038 27.3318 11.8615C27.3318 12.9192 26.4493 13.8258 25.3651 13.8258C24.5078 13.8258 23.7514 13.2718 23.4992 12.4659C23.3732 12.063 22.9445 11.8363 22.5411 11.9622C22.1377 12.0881 21.9107 12.5163 22.0368 12.9192C22.2385 13.5992 22.6672 14.1532 23.1715 14.5813H23.0958L17.2461 20.7765ZM23.2471 1.51102H27.1049L26.8528 4.38195H23.4992L23.2471 1.51102Z" fill="#484C57"/>
<path d="M33.9884 32.2603V46.7408H17.0948L14.4473 32.2603" fill="#FEFEFE"/>
<path d="M32.0227 39.035H18.3061C17.9531 39.035 17.6758 38.758 17.6758 38.4054V22.0612C17.6758 21.7087 17.9531 21.4316 18.3061 21.4316H32.0227C32.3757 21.4316 32.6531 21.7087 32.6531 22.0612V38.4054C32.6531 38.7328 32.3505 39.035 32.0227 39.035ZM18.9365 37.7758H31.3672V22.6908H18.9365V37.7758Z" fill="#484C57"/>
<path d="M32.0231 21.4309C32.3761 21.4309 32.6535 21.7079 32.6535 22.0605V38.4047C32.6535 38.7573 32.3761 39.0343 32.0231 39.0343H18.3065C17.9535 39.0343 17.6762 38.7573 17.6762 38.4047V22.0605C17.6762 21.7079 17.9535 21.4309 18.3065 21.4309H32.0231ZM18.9369 37.7751H31.3675V22.6901H18.9369V37.7751ZM32.0231 20.9272H18.3065C17.6762 20.9272 17.1719 21.4309 17.1719 22.0605V38.4047C17.1719 39.0343 17.6762 39.538 18.3065 39.538H32.0231C32.6535 39.538 33.1578 39.0343 33.1578 38.4047V22.0605C33.1578 21.4309 32.6283 20.9272 32.0231 20.9272ZM19.4412 23.1938H30.8633V37.2714H19.4412V23.1938Z" fill="white"/>
</svg>
