<svg width="73" height="43" viewBox="0 0 73 43" fill="none" xmlns="http://www.w3.org/2000/svg">
<path d="M72.8051 37.0469L68.2987 32.6269H69.2625C69.523 32.6269 69.7574 32.4736 69.8616 32.2436C69.9658 32.0137 69.9137 31.7326 69.7314 31.5538L65.225 27.1337H68.0122C68.2727 27.1337 68.5071 26.9804 68.6113 26.7504C68.7155 26.5205 68.6634 26.2395 68.4811 26.0606L63.8445 21.4872H66.6316C66.8921 21.4872 67.1265 21.3339 67.2307 21.104C67.3349 20.874 67.2828 20.593 67.1005 20.4141L62.5941 15.9941H64.2873C64.5217 15.9941 64.7301 15.8663 64.8343 15.6875C64.9385 15.5086 64.9645 15.2531 64.8603 15.0487L56.9417 0.332145C56.8114 0.127748 56.603 0 56.3686 0C56.1341 0 55.8997 0.127748 55.7955 0.332145L47.6424 15.0487C47.5382 15.2531 47.5382 15.4831 47.6424 15.6875C47.7726 15.8919 47.981 15.9941 48.1894 15.9941H50.4296L46.8088 19.5455H0.651208C0.286532 19.5455 0 19.8265 0 20.1842V42.3613C0 42.719 0.286532 43 0.651208 43H6.98095H44.5166H51.0026H58.7911C59.1558 43 59.4423 42.719 59.4423 42.3613V38.12H72.3362C72.5967 38.12 72.8311 37.9667 72.9353 37.7368C73.0656 37.5068 72.9874 37.2258 72.8051 37.0469ZM18.2599 41.7225H7.63216V43H18.2599V41.7225ZM31.5706 41.7225H19.5883V43H31.5706V41.7225ZM43.8654 41.7225H32.873V43H43.8654V41.7225ZM50.3514 41.7225H45.1678C44.7075 41.7225 44.8813 41.7225 44.5166 41.7225H6.98095C6.61628 41.7225 6.83984 41.7225 6.32974 41.7225H1.30242V20.8229H50.3514V41.7225ZM53.7377 41.7225H51.6538V38.12H53.7377V41.7225ZM58.1399 41.7225H55.0401V38.12H58.1399V41.7225ZM58.7911 36.8681H54.3889H51.6538V20.1842C51.6538 19.8265 51.3673 19.5455 51.0026 19.5455H48.6583L52.4874 15.7897C52.6697 15.6108 52.7218 15.3298 52.6176 15.0998C52.5134 14.8699 52.279 14.7166 52.0185 14.7166H49.3095L56.3686 1.99287L63.1932 14.691H61.0052C60.7447 14.691 60.5103 14.8443 60.4061 15.0743C60.3019 15.3042 60.354 15.5853 60.5363 15.7641L65.0427 20.1842H62.2816C62.0211 20.1842 61.7866 20.3375 61.6824 20.5674C61.5783 20.7974 61.6304 21.0784 61.8127 21.2573L66.4232 25.7796H63.6361C63.3756 25.7796 63.1412 25.9329 63.037 26.1628C62.9328 26.3928 62.9849 26.6738 63.1672 26.8526L67.6736 31.2727H66.7098C66.4493 31.2727 66.2149 31.426 66.1107 31.656C66.0065 31.8859 66.0586 32.167 66.2409 32.3458L70.7473 36.7659H58.7911V36.8681Z" fill="#484C57"/>
</svg>
