<svg width="92" height="43" viewBox="0 0 92 43" fill="none" xmlns="http://www.w3.org/2000/svg">
<path d="M91.8051 37.0469L87.2987 32.6269H88.2625C88.523 32.6269 88.7574 32.4736 88.8616 32.2436C88.9658 32.0137 88.9137 31.7326 88.7314 31.5538L84.225 27.1337H87.0122C87.2727 27.1337 87.5071 26.9804 87.6113 26.7504C87.7155 26.5205 87.6634 26.2395 87.4811 26.0606L82.8445 21.4872H85.6316C85.8921 21.4872 86.1265 21.3339 86.2307 21.104C86.3349 20.874 86.2828 20.593 86.1005 20.4141L81.5941 15.9941H83.2873C83.5217 15.9941 83.7301 15.8663 83.8343 15.6875C83.9385 15.5086 83.9645 15.2531 83.8603 15.0487L75.9417 0.332145C75.8114 0.127748 75.603 0 75.3686 0C75.1341 0 74.8997 0.127748 74.7955 0.332145L66.6424 15.0487C66.5382 15.2531 66.5382 15.4831 66.6424 15.6875C66.7726 15.8919 66.981 15.9941 67.1894 15.9941H69.4296L65.8088 19.5455H19.6512C19.2865 19.5455 19 19.8265 19 20.1842V42.3613C19 42.719 19.2865 43 19.6512 43H25.981H63.5166H70.0026H77.7911C78.1558 43 78.4423 42.719 78.4423 42.3613V38.12H91.3362C91.5967 38.12 91.8311 37.9667 91.9353 37.7368C92.0656 37.5068 91.9874 37.2258 91.8051 37.0469ZM37.2599 41.7225H26.6322V27.0315H37.2599V41.7225ZM50.5706 41.7225H38.5883V27.0315H50.5706V41.7225ZM62.8654 41.7225H51.873V27.0315H62.8654V41.7225ZM69.3514 41.7225H64.1678V26.3928C64.1678 26.0351 63.8813 25.754 63.5166 25.754H25.981C25.6163 25.754 25.3297 26.0351 25.3297 26.3928V41.7225H20.3024V20.8229H69.3514V41.7225ZM72.7377 41.7225H70.6538V38.12H72.7377V41.7225ZM77.1399 41.7225H74.0401V38.12H77.1399V41.7225ZM77.7911 36.8681H73.3889H70.6538V20.1842C70.6538 19.8265 70.3673 19.5455 70.0026 19.5455H67.6583L71.4874 15.7897C71.6697 15.6108 71.7218 15.3298 71.6176 15.0998C71.5134 14.8699 71.279 14.7166 71.0185 14.7166H68.3095L75.3686 1.99287L82.1932 14.691H80.0052C79.7447 14.691 79.5103 14.8443 79.4061 15.0743C79.3019 15.3042 79.354 15.5853 79.5363 15.7641L84.0427 20.1842H81.2816C81.0211 20.1842 80.7866 20.3375 80.6824 20.5674C80.5783 20.7974 80.6304 21.0784 80.8127 21.2573L85.4232 25.7796H82.6361C82.3756 25.7796 82.1412 25.9329 82.037 26.1628C81.9328 26.3928 81.9849 26.6738 82.1672 26.8526L86.6736 31.2727H85.7098C85.4493 31.2727 85.2149 31.426 85.1107 31.656C85.0065 31.8859 85.0586 32.167 85.2409 32.3458L89.7473 36.7659H77.7911V36.8681Z" fill="#484C57"/>
<mask id="mask0" mask-type="alpha" maskUnits="userSpaceOnUse" x="0" y="31" width="20" height="12">
<path d="M19.5 43V31L1 34.5L0 43H19.5Z" fill="#C4C4C4"/>
</mask>
<g mask="url(#mask0)">
<mask id="mask1" mask-type="alpha" maskUnits="userSpaceOnUse" x="0" y="33" width="13" height="13">
<path d="M9 37.5V36L4 33L0 36V40.5L1.5 45L9 45.5L13 43H11L8.5 42L7.5 41L7 40L8 38.5L9 37.5Z" fill="#C4C4C4"/>
</mask>
<g mask="url(#mask1)">
<path d="M2.43263 38.4569C2.43263 38.4091 2.43263 38.3681 2.43263 38.3271C2.42551 36.4893 3.98605 35 5.89575 35C6.93611 35 7.91234 35.4441 8.56791 36.2092C8.71755 36.1819 8.87432 36.1682 9.03109 36.1682C10.3707 36.1682 11.461 37.2135 11.461 38.4979C11.461 38.5594 11.461 38.614 11.4538 38.6755C12.1807 39.0922 12.6367 39.8437 12.6367 40.6704C12.6367 41.9547 11.5465 43 10.2068 43H3.41599C3.39461 43 3.38036 43 3.35898 42.9932C2.03359 42.9249 1.00035 41.8933 1.00035 40.6157C1.00035 39.6729 1.56329 38.8463 2.43263 38.4569ZM3.43024 42.1802C3.43736 42.1802 3.44449 42.1802 3.45874 42.1802H10.2068C11.0762 42.1802 11.7816 41.5038 11.7816 40.6704C11.7816 40.0623 11.404 39.5158 10.8197 39.2835C10.6273 39.2084 10.5275 39.0102 10.5702 38.819C10.5916 38.7097 10.6059 38.6072 10.6059 38.4979C10.6059 37.6644 9.90043 36.988 9.03109 36.988C8.86007 36.988 8.69617 37.0154 8.53228 37.0632C8.35414 37.1178 8.15462 37.0564 8.04773 36.9061C7.56318 36.2229 6.75797 35.8198 5.89575 35.8198C4.45635 35.8198 3.2806 36.9402 3.2806 38.3271C3.2806 38.4432 3.28772 38.5594 3.3091 38.6755C3.3376 38.8736 3.20934 39.0649 3.00982 39.1264C2.31862 39.3313 1.85545 39.9325 1.85545 40.6225C1.85545 41.4629 2.54665 42.146 3.43024 42.1802Z" fill="#484C57"/>
<path d="M4.95 38.4635C4.67041 38.4002 4.49728 38.1316 4.5633 37.8636C4.62932 37.5955 4.90949 37.4295 5.18908 37.4928C5.46866 37.5561 5.64179 37.8247 5.57578 38.0928C5.50976 38.3608 5.22959 38.5268 4.95 38.4635Z" fill="#484C57"/>
<path d="M3.6524 40.6857C3.44926 40.4909 3.44926 40.1751 3.6524 39.9804C3.85554 39.7856 4.1849 39.7856 4.38804 39.9804C4.59118 40.1751 4.59118 40.4909 4.38804 40.6857C4.1849 40.8804 3.85554 40.8804 3.6524 40.6857Z" fill="#484C57"/>
<path d="M7.0308 39.3727C6.74722 39.3286 6.55464 39.0724 6.60066 38.8005C6.64669 38.5286 6.91388 38.344 7.19747 38.3881C7.48105 38.4322 7.67363 38.6884 7.6276 38.9603C7.58158 39.2322 7.31438 39.4168 7.0308 39.3727Z" fill="#484C57"/>
</g>
<path d="M20.847 36.7532C20.847 36.6874 20.847 36.6311 20.847 36.5747C20.8568 34.0478 18.7111 32 16.0852 32C14.6547 32 13.3124 32.6106 12.411 33.6627C12.2053 33.6251 11.9897 33.6063 11.7742 33.6063C9.93214 33.6063 8.43306 35.0436 8.43306 36.8096C8.43306 36.8941 8.43306 36.9693 8.44286 37.0538C7.44347 37.6268 6.81641 38.6601 6.81641 39.7968C6.81641 41.5628 8.31549 43 10.1575 43H19.4949C19.5243 43 19.5439 43 19.5733 42.9906C21.3957 42.8967 22.8164 41.4782 22.8164 39.7216C22.8164 38.4253 22.0424 37.2886 20.847 36.7532ZM19.4753 41.8728C19.4655 41.8728 19.4557 41.8728 19.4361 41.8728H10.1575C8.96215 41.8728 7.99216 40.9428 7.99216 39.7968C7.99216 38.9607 8.51145 38.2092 9.31488 37.8898C9.57942 37.7865 9.71659 37.5141 9.6578 37.2511C9.62841 37.1008 9.60881 36.9599 9.60881 36.8096C9.60881 35.6635 10.5788 34.7336 11.7742 34.7336C12.0093 34.7336 12.2347 34.7711 12.46 34.8369C12.705 34.912 12.9793 34.8275 13.1263 34.6208C13.7925 33.6815 14.8997 33.1272 16.0852 33.1272C18.0644 33.1272 19.6811 34.6678 19.6811 36.5747C19.6811 36.7344 19.6713 36.8941 19.6419 37.0538C19.6027 37.3262 19.7791 37.5892 20.0534 37.6738C21.0038 37.9556 21.6407 38.7822 21.6407 39.731C21.6407 40.8864 20.6903 41.8258 19.4753 41.8728Z" fill="#484C57"/>
<path d="M17.3861 36.7623C17.7706 36.6753 18.0086 36.306 17.9178 35.9374C17.8271 35.5688 17.4418 35.3406 17.0574 35.4276C16.673 35.5147 16.4349 35.884 16.5257 36.2526C16.6165 36.6211 17.0017 36.8494 17.3861 36.7623Z" fill="#484C57"/>
<path d="M12.5173 37.4546C12.7966 37.1868 12.7966 36.7526 12.5173 36.4848C12.2379 36.217 11.7851 36.217 11.5058 36.4848C11.2264 36.7526 11.2264 37.1868 11.5058 37.4546C11.7851 37.7224 12.2379 37.7224 12.5173 37.4546Z" fill="#484C57"/>
<path d="M13.9352 39.4637C14.3251 39.403 14.5899 39.0507 14.5266 38.6769C14.4633 38.3031 14.0959 38.0492 13.706 38.1099C13.3161 38.1705 13.0513 38.5228 13.1146 38.8966C13.1779 39.2705 13.5453 39.5243 13.9352 39.4637Z" fill="#484C57"/>
</g>
</svg>
