<svg width="44" height="40" viewBox="0 0 44 40" fill="none" xmlns="http://www.w3.org/2000/svg">
<path d="M16.4476 20.5272C15.8199 19.4868 15.1922 18.5168 14.6161 17.5117C13.5413 15.6335 12.7674 13.6232 12.4837 11.4541C12.0366 8.02411 12.9996 5.06146 15.4674 2.6543C17.3075 0.864367 19.5345 -0.0173755 22.0367 0.000259328C24.7796 0.0178942 27.1528 1.06717 29.0445 3.1569C30.919 5.22899 31.7702 7.70668 31.624 10.5018C31.5123 12.5739 30.9276 14.5578 29.9645 16.383C29.2938 17.6527 28.52 18.8607 27.7805 20.104C27.7117 20.2274 27.6257 20.3421 27.5053 20.5272C27.7203 20.5272 27.8751 20.5272 28.0213 20.5272C31.2199 20.5272 34.41 20.5272 37.6086 20.536C37.9182 20.536 38.2363 20.5889 38.5287 20.6859C39.0876 20.8711 39.3111 21.3649 39.4659 21.9027C40.4891 25.5884 41.521 29.2829 42.5528 32.9686C43.0171 34.6527 43.5072 36.3368 43.9372 38.0298C44.2123 39.1055 43.5588 39.9344 42.4668 39.9961C42.3636 40.0049 42.269 39.9961 42.1659 39.9961C28.7263 39.9961 15.2782 39.9961 1.8387 39.9873C1.54635 39.9873 1.2282 39.9608 0.95305 39.8638C0.256568 39.6257 -0.147563 38.8675 0.050203 38.1356C0.505926 36.3898 0.987444 34.6439 1.47756 32.9069C2.50079 29.23 3.52401 25.5531 4.55584 21.8851C4.82239 20.924 5.32971 20.5272 6.28415 20.5272C9.5086 20.5272 12.7331 20.5272 15.9575 20.5272C16.1123 20.5272 16.2671 20.5272 16.4476 20.5272ZM22.0023 22.4759C22.8105 21.5324 23.5672 20.6947 24.2723 19.8042C25.8544 17.8115 27.2388 15.6865 28.0728 13.2352C28.6576 11.507 28.9155 9.74351 28.4082 7.93594C27.5139 4.7793 24.4099 2.55731 20.9533 3.12163C18.3393 3.55368 16.1811 5.55523 15.5534 8.16519C15.0719 10.1756 15.476 12.0801 16.1983 13.9406C17.0323 16.0744 18.2791 17.9702 19.6893 19.7425C20.4115 20.6595 21.1854 21.5236 22.0023 22.4759ZM6.67968 25.2622C6.83445 25.3063 6.93763 25.3415 7.04942 25.3592C8.42518 25.6149 9.79235 25.8706 11.1681 26.1263C13.1114 26.4878 15.0633 26.8581 17.0065 27.2196C19.4743 27.6781 21.9335 28.1366 24.4013 28.5952C26.7143 29.0272 29.0273 29.4593 31.3403 29.8737C31.4693 29.9001 31.6498 29.8472 31.753 29.7591C33.3266 28.4276 34.8657 27.0257 36.4908 25.7559C37.2045 25.2004 37.2647 24.6714 36.9637 23.9219C36.8692 23.6927 36.7832 23.5869 36.5166 23.5869C32.7763 23.5957 29.0359 23.5869 25.2955 23.6045C25.1321 23.6045 24.943 23.6927 24.8226 23.8073C24.2207 24.3892 23.6446 24.9976 23.0341 25.5884C22.3892 26.2056 21.5981 26.2144 20.9619 25.5972C20.3772 25.0329 19.8268 24.4333 19.2507 23.869C19.1218 23.7368 18.924 23.6045 18.752 23.6045C14.9687 23.5869 11.1853 23.5869 7.40196 23.6045C7.29017 23.6045 7.10961 23.7279 7.07521 23.8337C6.92904 24.2746 6.81726 24.7419 6.67968 25.2622ZM28.5974 32.4572C22.7761 31.3726 17.0581 30.3057 11.3057 29.23C11.3057 31.8047 11.3057 34.3441 11.3057 36.9188C11.4949 36.9188 11.6668 36.9188 11.8302 36.9188C15.4846 36.9188 19.1304 36.91 22.7847 36.9276C23.1975 36.9276 23.507 36.8218 23.8252 36.5485C25.3815 35.1906 26.955 33.8592 28.5974 32.4572ZM28.0213 36.8923C32.2431 36.8923 36.3962 36.8923 40.5665 36.8923C39.7583 34.0002 38.9672 31.1434 38.1589 28.2336C34.7625 31.1346 31.4177 33.9914 28.0213 36.8923ZM3.44663 36.8923C5.09755 36.8923 6.70547 36.8923 8.3392 36.8923C8.3392 36.5396 8.3392 36.2134 8.3392 35.896C8.3392 33.6211 8.3392 31.3374 8.3306 29.0625C8.3306 28.9214 8.23601 28.6745 8.15863 28.6569C7.41055 28.4982 6.65388 28.3747 5.86282 28.2336C5.04596 31.1346 4.24629 33.9914 3.44663 36.8923Z" fill="#484C57"/>
<path d="M22.0038 22.4759C21.1869 21.5236 20.413 20.6595 19.6907 19.7513C18.2806 17.9702 17.0338 16.0833 16.1997 13.9495C15.4689 12.089 15.0647 10.1844 15.5548 8.17407C16.1825 5.56411 18.3408 3.56256 20.9547 3.13051C24.4027 2.55737 27.5068 4.78818 28.4097 7.94481C28.9256 9.75239 28.659 11.5159 28.0743 13.2441C27.2489 15.6953 25.8645 17.8203 24.2738 19.8131C23.5687 20.6948 22.812 21.5325 22.0038 22.4759ZM25.9677 9.87583C25.9677 7.61857 24.1964 5.78455 22.0124 5.78455C19.8283 5.78455 18.057 7.60975 18.0484 9.86701C18.0398 12.0185 19.6564 13.9583 22.0038 13.9583C24.3082 13.9671 25.9677 12.0714 25.9677 9.87583Z" fill="#484C57"/>
<path d="M6.67969 25.2621C6.81726 24.7419 6.92905 24.2746 7.08382 23.8249C7.11821 23.7191 7.29878 23.5956 7.41056 23.5956C11.1939 23.5868 14.9773 23.578 18.7606 23.5956C18.9326 23.5956 19.1304 23.7279 19.2594 23.8602C19.8441 24.4245 20.3944 25.0241 20.9705 25.5884C21.6068 26.2056 22.3978 26.1968 23.0427 25.5796C23.6446 24.9976 24.2207 24.3804 24.8312 23.7984C24.9516 23.6838 25.1494 23.5956 25.3041 23.5956C29.0445 23.5868 32.7849 23.5868 36.5252 23.578C36.7918 23.578 36.8778 23.6838 36.9723 23.9131C37.2733 24.6625 37.2131 25.1916 36.4994 25.7471C34.8743 27.0168 33.3438 28.4099 31.7616 29.7502C31.6585 29.8384 31.4779 29.8913 31.3489 29.8648C29.0359 29.4504 26.7229 29.0183 24.4099 28.5863C21.9421 28.1278 19.4743 27.6693 17.0151 27.2108C15.0719 26.8493 13.12 26.4789 11.1767 26.1174C9.80096 25.8617 8.43379 25.606 7.05802 25.3503C6.93764 25.3415 6.83446 25.3062 6.67969 25.2621Z" fill="white"/>
<path d="M28.5964 32.4573C26.954 33.8592 25.3805 35.1907 23.8242 36.5486C23.506 36.8307 23.1965 36.9277 22.7837 36.9277C19.1294 36.9101 15.4836 36.9189 11.8292 36.9189C11.6572 36.9189 11.4939 36.9189 11.3047 36.9189C11.3047 34.3354 11.3047 31.8048 11.3047 29.2301C17.0485 30.3058 22.7751 31.3727 28.5964 32.4573Z" fill="white"/>
<path d="M28.0234 36.8923C31.4199 33.9914 34.7647 31.1346 38.1611 28.2336C38.9694 31.1434 39.769 34.0002 40.5687 36.8923C36.3984 36.8923 32.2453 36.8923 28.0234 36.8923Z" fill="white"/>
<path d="M3.44141 36.8923C4.24967 34.0002 5.04933 31.1346 5.8576 28.2336C6.64866 28.3747 7.40533 28.4893 8.15341 28.6569C8.23939 28.6745 8.32538 28.9214 8.32538 29.0625C8.33398 31.3374 8.33398 33.6211 8.33398 35.896C8.33398 36.2134 8.33398 36.5396 8.33398 36.8923C6.69165 36.8923 5.08373 36.8923 3.44141 36.8923Z" fill="white"/>
<path d="M25.9662 9.87583C25.9662 12.0714 24.3066 13.9671 22.0022 13.9583C19.6548 13.9583 18.0383 12.0185 18.0469 9.86701C18.0555 7.60975 19.8182 5.78455 22.0108 5.78455C24.1949 5.78455 25.9662 7.61857 25.9662 9.87583ZM22.0108 10.9075C22.5525 10.9075 23.0341 10.4313 23.0341 9.88464C23.0341 9.33796 22.5268 8.8001 22.0022 8.8001C21.4777 8.80892 20.9704 9.34678 20.979 9.89346C20.9962 10.449 21.4691 10.9163 22.0108 10.9075Z" fill="white"/>
<path d="M22.0127 10.9074C21.471 10.9074 20.9981 10.4489 20.9809 9.89339C20.9637 9.34671 21.471 8.80885 22.0041 8.80003C22.5286 8.79122 23.0359 9.32908 23.0359 9.88457C23.0359 10.4313 22.5544 10.9074 22.0127 10.9074Z" fill="white"/>
</svg>
