<svg width="26" height="30" viewBox="0 0 26 30" fill="none" xmlns="http://www.w3.org/2000/svg">
<path d="M0.00964823 21.0564C8.69726 21.0564 17.3389 21.0564 25.9978 21.0564C25.9978 24.0337 25.9978 26.9936 25.9978 29.9826C25.8887 29.9884 25.7854 29.9942 25.6878 29.9942C17.2471 29.9942 8.8121 29.9942 0.371393 30C0.078552 30 0.00390625 29.9244 0.00390625 29.6278C0.0153902 26.8773 0.00964823 24.1268 0.00964823 21.3704C0.00964823 21.2832 0.00964823 21.1901 0.00964823 21.0564ZM5.2004 22.4288C4.25297 22.4288 3.34574 22.4288 2.4385 22.4288C2.4385 23.9407 2.4385 25.4235 2.4385 26.9355C3.28258 26.9355 4.10368 26.9238 4.91904 26.9413C5.16594 26.9471 5.21762 26.854 5.21762 26.6214C5.20614 25.313 5.21188 24.0105 5.21188 22.7021C5.21762 22.6148 5.20614 22.5276 5.2004 22.4288ZM10.305 22.4288C9.36907 22.4288 8.4561 22.4288 7.55461 22.4288C7.54312 22.4753 7.53164 22.4927 7.53164 22.5102C7.53164 23.9116 7.53164 25.3189 7.5259 26.7203C7.5259 26.9238 7.63499 26.9296 7.77854 26.9296C8.51352 26.9296 9.24849 26.918 9.9892 26.9355C10.2476 26.9413 10.3337 26.8715 10.3337 26.5982C10.3222 25.3014 10.328 24.0046 10.328 22.7079C10.3222 22.6148 10.3108 22.5218 10.305 22.4288ZM12.4755 26.9355C13.3196 26.9355 14.1292 26.9238 14.9388 26.9413C15.1914 26.9471 15.2661 26.8715 15.2661 26.6156C15.2546 25.3247 15.2603 24.0395 15.2603 22.7486C15.2603 22.6439 15.2489 22.5392 15.2489 22.4288C14.3129 22.4288 13.3999 22.4288 12.4812 22.4288C12.4755 23.9232 12.4755 25.4061 12.4755 26.9355Z" fill="#484C57"/>
<path d="M9.02671 12.0723C9.23917 12.7817 9.44588 13.4504 9.64685 14.125C9.77891 14.5728 9.91672 15.0147 10.0258 15.4625C10.0775 15.6718 10.1636 15.7067 10.3474 15.6311C10.9962 15.3636 11.6393 15.1019 12.2882 14.8402C14.3897 13.9912 16.4913 13.1364 18.5986 12.2874C18.7651 12.2176 18.9316 12.1537 19.1441 12.0723C19.236 12.4968 19.3221 12.898 19.4025 13.3051C19.546 14.0378 19.6896 14.7705 19.8159 15.5032C19.8503 15.7125 19.9652 15.73 20.1374 15.73C21.9576 15.7241 23.7721 15.73 25.5923 15.73C25.7244 15.73 25.8565 15.73 26 15.73C26 17.0325 26 18.3002 26 19.6144C25.8852 19.6144 25.7761 19.6144 25.667 19.6144C17.2263 19.6144 8.78555 19.6144 0.344842 19.6202C0.0634856 19.6202 -0.00541816 19.5388 0.000323817 19.2655C0.0175498 18.1781 0.0118078 17.0965 0.000323817 16.0091C0.000323817 15.7881 0.0749695 15.6951 0.275939 15.6137C2.53254 14.7065 4.78339 13.7877 7.03999 12.8747C7.68883 12.6073 8.33768 12.3514 9.02671 12.0723Z" fill="#484C57"/>
<path d="M4.43152 12.8338C4.43152 12.6884 4.43152 12.5837 4.43152 12.4791C4.43152 9.51337 4.43727 6.54768 4.42578 3.58198C4.42578 3.30867 4.48894 3.21563 4.77604 3.22145C5.7694 3.23889 6.76851 3.23308 7.76187 3.22145C7.9858 3.22145 8.06045 3.2796 8.06045 3.5122C8.05471 6.11154 8.05471 8.70507 8.06045 11.3044C8.06045 11.4905 8.00877 11.5719 7.83077 11.6359C6.80296 11.9964 5.77515 12.3744 4.75307 12.7407C4.65546 12.7756 4.56933 12.7931 4.43152 12.8338Z" fill="#484C57"/>
<path d="M14.375 12.8282C14.375 9.62407 14.375 6.44903 14.375 3.25073C15.5751 3.25073 16.7637 3.25073 17.981 3.25073C17.981 3.37866 17.981 3.48334 17.981 3.58801C17.981 6.13502 17.9752 8.68202 17.9867 11.229C17.9867 11.4675 17.9293 11.5838 17.6939 11.6652C16.6718 12.0141 15.6555 12.392 14.6391 12.7526C14.5587 12.7875 14.4726 12.8049 14.375 12.8282Z" fill="#484C57"/>
<path d="M0.68376 0C0.953633 0.401241 1.18331 0.761777 1.43022 1.1165C2.05035 1.99458 2.72216 2.16321 3.66385 1.65149C4.11746 1.40144 4.5194 1.06998 4.95579 0.796667C5.17399 0.66292 5.40941 0.540803 5.65631 0.494283C6.10419 0.412871 6.43148 0.63966 6.65542 1.01764C6.92529 1.47703 6.91955 1.97132 6.78174 2.52375C6.71858 2.43652 6.67264 2.39 6.64967 2.33767C6.58077 2.18647 6.52335 2.03528 6.4487 1.88409C6.02954 0.988565 5.33476 0.802482 4.53088 1.39562C4.2323 1.61659 3.9854 1.90735 3.70978 2.16321C3.07242 2.76798 2.10203 2.83195 1.48189 2.31441C0.907697 1.83175 0.551695 0.843188 0.68376 0Z" fill="#484C57"/>
<path d="M12.5625 0.790527C12.7175 0.976542 12.8783 1.16256 13.0218 1.3602C13.5845 2.13914 14.1415 2.16239 14.9798 1.64503C15.1636 1.52877 15.3243 1.37764 15.5023 1.24394C15.91 0.941664 16.3005 0.924226 16.5704 1.18C16.9149 1.50552 17.001 2.05775 16.7426 2.51698C16.6565 2.38328 16.5761 2.27283 16.5129 2.15657C16.111 1.44739 15.5311 1.38926 14.9683 1.99381C14.7559 2.22052 14.532 2.47629 14.2563 2.60417C13.4927 2.97039 12.6888 2.49373 12.5165 1.61016C12.4648 1.35439 12.4763 1.08699 12.4648 0.819592C12.4993 0.807966 12.5337 0.802153 12.5625 0.790527Z" fill="#484C57"/>
</svg>
