<svg width="30" height="30" viewBox="0 0 30 30" fill="none" xmlns="http://www.w3.org/2000/svg">
<g clip-path="url(#clip0)">
<path d="M12.6667 -0.000338544C13.1067 0.199661 13.5467 0.412995 14 0.599661C14.3867 0.746328 14.5733 0.986328 14.5333 1.39966C14.4667 2.10633 14.4267 2.81299 14.3467 3.51966C14.2267 4.49299 14.7067 5.07966 15.6933 5.03966C16.3733 5.01299 17.0667 4.91966 17.7467 4.82633C18.2533 4.74633 18.56 4.85299 18.7867 5.37299C19.4 6.87966 19.4267 6.87966 18.1733 7.93299C17.8667 8.18633 17.5467 8.42633 17.24 8.69299C16.5067 9.31966 16.52 10.1463 17.2933 10.7197C17.88 11.1597 18.4667 11.5997 19 12.1063C19.2667 12.3463 19.3467 12.5863 19.2 12.933C18.4133 14.773 18.7333 14.6663 16.92 14.453C16.52 14.3997 16.12 14.3597 15.7333 14.3197C14.8 14.2397 14.2 14.8663 14.3333 15.7863C14.44 16.493 14.56 17.1863 14.5733 17.9063C14.5733 18.333 14.44 18.5863 14.0267 18.773C12.5333 19.413 12.5333 19.4263 11.4533 18.213C11.2 17.933 10.9733 17.6263 10.7467 17.333C10.1067 16.533 9.36 16.5063 8.68 17.293C8.22667 17.8397 7.77333 18.3863 7.34667 18.9597C7.06667 19.333 6.77333 19.3597 6.37333 19.1997C4.85333 18.613 4.84 18.6263 4.92 17.0263C4.94667 16.5863 5.02667 16.1463 5.05333 15.7063C5.09333 14.7863 4.49333 14.2397 3.58667 14.373C2.88 14.4797 2.17333 14.5463 1.46667 14.5997C1 14.6397 0.773333 14.4663 0.613333 14.0663C0.426667 13.6263 0.306667 13.1597 0 12.7997C0 12.6663 0 12.533 0 12.3997C0.733333 11.7997 1.49333 11.2263 2.21333 10.613C2.8 10.1197 2.81333 9.31966 2.24 8.81299C1.52 8.19966 0.746667 7.65299 0 7.06633C0 6.93299 0 6.79966 0 6.66633C0.213333 6.19966 0.44 5.74633 0.64 5.27966C0.786667 4.94633 1.01333 4.79966 1.36 4.82633C2.02667 4.87966 2.69333 4.90633 3.34667 4.99966C4.54667 5.15966 5.13333 4.62633 5.02667 3.43966C4.97333 2.77299 4.89333 2.11966 4.8 1.45299C4.74667 1.03966 4.86667 0.772995 5.26667 0.612995C5.74667 0.426328 6.2 0.199661 6.66667 -0.0136719C6.76 -0.0136719 6.84 -0.0136719 6.93333 -0.0136719C7.45333 0.812995 8.14667 1.51966 8.77333 2.25299C9.29333 2.85299 10.1333 2.78633 10.6267 2.14633C11.1867 1.41299 11.7733 0.679661 12.4 -0.000338544C12.4933 -0.000338544 12.5733 -0.000338544 12.6667 -0.000338544ZM4.93333 9.71966C4.93333 12.4263 7.01333 14.5197 9.69333 14.5197C12.2933 14.5197 14.4667 12.3197 14.48 9.69299C14.4933 7.10633 12.3333 4.95966 9.70667 4.95966C7 4.94633 4.93333 7.01299 4.93333 9.71966Z" fill="#484C57"/>
<path d="M21.4673 30.0001C21.2807 29.3867 21.094 28.7734 20.894 28.1601C20.6407 27.3601 20.0273 27.1201 19.2807 27.5334C18.854 27.7601 18.4007 27.9734 17.9873 28.2267C17.374 28.6001 17.1207 28.0801 16.774 27.7734C16.4273 27.4801 16.2007 27.1734 16.494 26.6934C16.7607 26.2534 16.974 25.8001 17.1873 25.3334C17.534 24.5867 17.294 24.1067 16.494 23.8801C16.214 23.8001 15.934 23.7334 15.654 23.6534C14.6007 23.3334 14.6273 23.3334 14.614 22.2267C14.6007 21.7201 14.774 21.4267 15.254 21.3067C15.6807 21.1867 16.1073 21.0534 16.534 20.9334C17.3207 20.6934 17.574 20.1334 17.2007 19.4001C16.974 18.9601 16.7473 18.5334 16.5073 18.1067C16.1473 17.4134 16.8007 17.1867 17.1073 16.8001C17.3607 16.4667 17.654 16.4001 18.0273 16.6134C18.4673 16.8667 18.934 17.0934 19.3873 17.3067C20.0407 17.6134 20.574 17.4134 20.814 16.7201C20.9873 16.2134 21.1473 15.7067 21.2673 15.1867C21.414 14.6134 21.8407 14.6534 22.2673 14.6667C22.7073 14.6667 23.174 14.5867 23.334 15.1867C23.454 15.6801 23.614 16.1734 23.7873 16.6401C24.0807 17.4267 24.6407 17.6001 25.374 17.2001C25.7207 17.0001 26.0807 16.8401 26.4273 16.6267C26.894 16.3334 27.2273 16.4401 27.654 16.8134C28.2807 17.3467 28.3207 17.8267 27.9073 18.4667C27.7207 18.7467 27.5873 19.0534 27.4273 19.3467C27.0673 20.0134 27.2407 20.5734 27.9607 20.8401C28.6273 21.0934 29.3073 21.2667 29.9873 21.4801C29.9873 22.0534 29.9873 22.6401 29.9873 23.2134C29.3873 23.4267 28.774 23.6401 28.1607 23.8401C27.3073 24.1067 27.094 24.6267 27.5207 25.4134C27.7473 25.8401 27.974 26.2801 28.214 26.6934C28.3873 26.9867 28.3073 27.2134 28.0807 27.4667C27.2273 28.4001 27.2407 28.4134 26.0807 27.8267C25.8007 27.6801 25.534 27.5334 25.254 27.4001C24.6407 27.1201 24.0807 27.3467 23.8807 27.9734C23.6673 28.6534 23.494 29.3334 23.3073 30.0134C22.7073 30.0001 22.094 30.0001 21.4673 30.0001ZM19.2007 22.2667C19.2007 24.0534 20.5207 25.4401 22.2673 25.4534C24.0673 25.4667 25.454 24.1067 25.4673 22.3201C25.4807 20.5734 24.1207 19.2134 22.3473 19.2001C20.5073 19.1867 19.2007 20.4667 19.2007 22.2667Z" fill="#484C57"/>
</g>
<defs>
<clipPath id="clip0">
<rect width="30" height="30" fill="white"/>
</clipPath>
</defs>
</svg>
