<svg width="22" height="30" viewBox="0 0 22 30" fill="none" xmlns="http://www.w3.org/2000/svg">
<path d="M17.1079 3.01572C17.0884 3.53873 17.1519 4.03214 17.5475 4.42686C17.8504 4.73277 18.207 4.90053 18.6368 4.9104C18.9201 4.91533 19.2083 4.9104 19.4916 4.92026C20.4148 4.95974 20.9619 5.90214 20.5418 6.73106C20.4051 7.00243 20.2439 7.259 20.1022 7.53037C19.7261 8.24087 19.9752 9.16354 20.6591 9.58293C20.9082 9.73589 21.1622 9.88391 21.4113 10.0467C22.2075 10.5697 22.1929 11.6454 21.3869 12.1536C21.1524 12.3016 20.9131 12.4397 20.6737 12.5878C19.9508 13.0368 19.7163 13.9446 20.1218 14.6995C20.2536 14.9462 20.4002 15.1831 20.5223 15.4347C20.9619 16.3031 20.3953 17.2504 19.4281 17.2652C19.1595 17.2702 18.8908 17.2603 18.6222 17.2751C17.7674 17.3096 17.1324 17.9757 17.1177 18.8392C17.1128 19.1254 17.1177 19.4165 17.0982 19.7027C17.0347 20.6451 16.1115 21.1582 15.286 20.7141C15.0124 20.5661 14.7486 20.4033 14.4702 20.2701C13.7522 19.9198 12.9071 20.1763 12.487 20.8572C12.3259 21.1138 12.1793 21.3802 12.0132 21.6319C11.5101 22.3966 10.4648 22.3917 9.97145 21.6269C9.82491 21.4 9.69302 21.1631 9.55137 20.9312C9.0629 20.122 8.18366 19.8901 7.35816 20.3539C7.14323 20.4724 6.93319 20.5957 6.71827 20.7141C5.89276 21.1582 4.97445 20.6549 4.89629 19.7125C4.87187 19.4115 4.87675 19.1056 4.87187 18.7997C4.85233 17.956 4.1929 17.2948 3.35763 17.2751C3.0792 17.2702 2.80566 17.2751 2.52723 17.2652C1.56496 17.2406 1.01299 16.2587 1.48192 15.41C1.61869 15.1683 1.75546 14.9216 1.88246 14.6749C2.27323 13.9298 2.04365 13.0614 1.33538 12.6026C1.08626 12.4447 0.832259 12.2967 0.588026 12.1388C-0.188634 11.6404 -0.198403 10.5747 0.573372 10.0665C0.827374 9.89871 1.08626 9.74576 1.34026 9.58787C2.01923 9.15861 2.26346 8.30502 1.90688 7.58465C1.76523 7.29847 1.59915 7.0271 1.45261 6.74093C1.02765 5.91201 1.57961 4.9696 2.50281 4.94C2.77147 4.93013 3.04012 4.93013 3.30878 4.93013C4.18802 4.91533 4.83768 4.27884 4.86698 3.40058C4.87675 3.12921 4.87675 2.85784 4.88652 2.58646C4.93537 1.55525 5.87322 1.02237 6.76223 1.52071C6.97716 1.63913 7.1872 1.76248 7.39724 1.88583C8.13482 2.30522 9.07267 2.06345 9.51229 1.33322C9.65395 1.10132 9.78583 0.869417 9.9226 0.632583C10.4013 -0.186468 11.4955 -0.216072 12.0083 0.578308C12.1695 0.82501 12.3112 1.08158 12.4675 1.33815C12.9071 2.06345 13.8206 2.31016 14.5581 1.8957C14.7877 1.76741 15.0124 1.63419 15.2371 1.51084C16.0919 1.04211 17.0347 1.56512 17.0933 2.54699C17.1177 2.68514 17.1079 2.84797 17.1079 3.01572ZM10.3378 12.4151C10.2645 12.3065 10.2206 12.2128 10.1522 12.1437C9.60021 11.5763 9.04336 11.0089 8.48163 10.4464C8.04689 10.0171 7.43631 9.98259 7.00158 10.3477C6.4838 10.777 6.43984 11.5023 6.92831 12.0006C7.80266 12.8986 8.68678 13.7818 9.56602 14.6699C10.0691 15.1781 10.7041 15.1831 11.2073 14.6749C12.8534 13.017 14.4995 11.3543 16.1408 9.68655C16.5999 9.22275 16.6097 8.53198 16.175 8.09779C15.7207 7.64386 15.0515 7.65372 14.5826 8.12246C13.972 8.73428 13.3614 9.35103 12.7508 9.96779C11.9693 10.7572 11.1926 11.5516 10.3378 12.4151Z" fill="#484C57"/>
<path d="M11.9531 24.2963C12.9789 23.7979 13.0229 23.941 14.0633 22.5644C14.9279 23.0726 15.8462 23.2355 16.8231 22.9493C17.7903 22.668 18.479 22.0365 18.9724 21.1089C19.7881 23.0726 20.5794 24.9969 21.3952 26.9607C21.1558 26.9459 20.9555 26.936 20.7602 26.9163C19.6269 26.8176 18.4888 26.7189 17.3556 26.6103C17.1895 26.5955 17.0869 26.64 16.9794 26.7633C16.1393 27.7698 15.2942 28.7715 14.4541 29.7731C14.415 29.8224 14.3857 29.8816 14.3124 30C13.5016 28.0511 12.7298 26.1811 11.9531 24.2963Z" fill="#484C57"/>
<path d="M10.0495 24.2716C9.26303 26.1663 8.49126 28.0412 7.69994 29.9556C7.27986 29.4573 6.89398 28.9984 6.5032 28.5396C6.00497 27.9475 5.49696 27.3554 5.00361 26.7534C4.89615 26.6251 4.78869 26.5906 4.6275 26.6054C3.33795 26.7288 2.05328 26.8422 0.763735 26.9557C0.724657 26.9607 0.68558 26.9557 0.597656 26.9557C1.40362 25.0068 2.19982 23.0825 3.01556 21.1089C3.51868 22.0365 4.20742 22.673 5.17458 22.9493C6.14174 23.2256 7.06005 23.0776 7.94906 22.5447C8.42287 23.4082 9.11161 23.9854 10.0495 24.2716Z" fill="#484C57"/>
</svg>
