<svg width="24" height="30" viewBox="0 0 24 30" fill="none" xmlns="http://www.w3.org/2000/svg">
<path d="M20.8523 30C15.3814 30 9.91048 30 4.43955 30C4.39873 29.983 4.3579 29.9576 4.31707 29.9491C3.06774 29.7117 2.1777 28.9908 1.64693 27.8035C1.16517 26.7349 1.3938 25.5985 1.33664 24.4621C1.48362 24.4621 1.59794 24.4621 1.70409 24.4621C2.31651 24.4536 2.92893 24.4706 3.53318 24.4367C4.52938 24.3773 5.3296 23.4529 5.33777 22.3928C5.34593 21.3327 4.52938 20.3914 3.51685 20.3405C2.89626 20.3066 2.27568 20.3235 1.6551 20.315C1.55711 20.315 1.45913 20.315 1.35297 20.315C1.35297 19.221 1.35297 18.1694 1.35297 17.0754C1.46729 17.0754 1.56528 17.0754 1.66327 17.0754C2.27568 17.0669 2.8881 17.0839 3.49235 17.05C4.36606 16.9991 5.10096 16.3291 5.28061 15.4471C5.46841 14.5482 5.0683 13.6323 4.29257 13.1828C3.93329 12.9792 3.54951 12.9199 3.1494 12.9199C2.55331 12.9199 1.94906 12.9199 1.34481 12.9199C1.34481 11.8259 1.34481 10.7658 1.34481 9.68025C1.46729 9.68025 1.56528 9.68025 1.66327 9.68025C2.26752 9.67177 2.8636 9.69721 3.46785 9.66328C4.50488 9.60392 5.32143 8.688 5.32143 7.61096C5.32143 6.54239 4.52121 5.62647 3.49235 5.56711C2.87177 5.53318 2.25119 5.55015 1.6306 5.54167C1.53262 5.54167 1.43463 5.53318 1.32031 5.5247C1.32031 4.91409 1.32031 4.33741 1.32031 3.7692C1.35297 1.6151 2.8881 0.0122499 4.96215 0.0037692C10.0901 -0.0047115 15.2263 0.0037692 20.3542 0.0037692C20.64 0.0037692 20.9421 0.0292113 21.2198 0.0970569C22.91 0.512611 23.9879 1.94585 23.9961 3.80312C24.0042 5.43142 23.9961 7.05971 23.9961 8.69648C23.9961 14.5058 23.9961 20.315 23.9961 26.1158C23.9961 27.5915 23.4326 28.7533 22.1915 29.4912C21.7914 29.7371 21.3014 29.8304 20.8523 30ZM18.6558 21.214C18.6558 20.7052 18.6558 20.2133 18.6558 19.7129C18.6395 17.4146 16.9982 15.71 14.7853 15.7015C13.8218 15.6931 12.8501 15.6931 11.8865 15.7015C9.83699 15.71 8.27737 17.1263 8.0324 19.238C7.95891 19.891 8.02423 20.5525 8.02423 21.214C11.5681 21.214 15.0956 21.214 18.6558 21.214ZM13.291 14.5058C15.1446 14.5566 16.7042 12.9877 16.7532 11.0202C16.8022 9.07812 15.2997 7.44134 13.4298 7.39046C11.5599 7.33957 9.96764 8.88306 9.91048 10.7912C9.86148 12.8351 11.3231 14.4464 13.291 14.5058Z" fill="#484C57"/>
<path d="M2.22728 6.45752C2.59472 6.45752 2.96217 6.44056 3.32146 6.45752C3.90121 6.48296 4.31766 6.85611 4.42381 7.39888C4.51363 7.89076 4.2605 8.42504 3.81956 8.63706C3.65625 8.71339 3.46027 8.75579 3.27247 8.76427C2.57023 8.78123 1.86799 8.78123 1.15759 8.76427C0.60233 8.75579 0.185887 8.43352 0.0470725 7.94164C-0.0754108 7.49217 0.0634036 6.96636 0.45535 6.71194C0.67582 6.56777 0.953449 6.49992 1.21475 6.47448C1.54953 6.43208 1.89249 6.45752 2.22728 6.45752Z" fill="#484C57"/>
<path d="M2.21806 23.5292C1.82611 23.5292 1.426 23.5546 1.03405 23.5207C0.454298 23.4698 0.0623517 23.0543 0.00519284 22.4691C-0.0438005 21.9772 0.258325 21.4684 0.723762 21.3072C0.862576 21.2563 1.01772 21.2309 1.1647 21.2224C1.86694 21.2139 2.56918 21.2139 3.27958 21.2224C3.76951 21.2309 4.1533 21.4514 4.34927 21.9348C4.52891 22.3673 4.45542 22.7744 4.16146 23.1391C3.92466 23.4274 3.61437 23.5377 3.26325 23.5377C2.91213 23.5461 2.56918 23.5377 2.21806 23.5377C2.21806 23.5377 2.21806 23.5377 2.21806 23.5292Z" fill="#484C57"/>
<path d="M2.2189 16.151C1.83512 16.151 1.45134 16.1765 1.06755 16.1425C0.512298 16.1001 0.120351 15.7355 0.03053 15.2012C-0.0592911 14.6923 0.17751 14.175 0.634781 13.9715C0.798092 13.8951 0.994065 13.8527 1.18187 13.8443C1.88411 13.8273 2.58635 13.8358 3.29675 13.8443C3.78668 13.8527 4.17046 14.0732 4.36644 14.5566C4.54608 14.9892 4.46442 15.3962 4.17863 15.7609C3.94183 16.0493 3.63154 16.151 3.28042 16.1595C2.91297 16.1595 2.57002 16.1595 2.2189 16.151C2.2189 16.1595 2.2189 16.151 2.2189 16.151Z" fill="#484C57"/>
</svg>
