<svg width="41" height="40" viewBox="0 0 41 40" fill="none" xmlns="http://www.w3.org/2000/svg">
<path d="M29.321 39.9922C28.6878 39.8751 28.0468 39.7891 27.4293 39.6251C24.8027 38.9221 22.7937 37.3912 21.41 35.0479C20.1906 32.9858 19.745 30.7597 20.1671 28.4008C20.9019 24.3703 23.2471 21.6755 27.1322 20.4492C30.4702 19.4025 33.5814 20.0743 36.3096 22.2379C38.2873 23.8079 39.499 25.8856 39.8742 28.4086C40.4214 32.1344 39.2254 35.2432 36.4034 37.688C34.8791 39.008 33.042 39.7501 31.0096 39.9375C30.9392 39.9454 30.8688 39.9766 30.7985 40C30.306 39.9922 29.8135 39.9922 29.321 39.9922ZM22.5201 29.9708C22.5045 34.0949 25.8893 37.4849 30.009 37.4927C34.113 37.5005 37.5213 34.1262 37.5291 30.0411C37.5369 25.9013 34.1833 22.5191 30.0637 22.4957C25.9362 22.4801 22.5279 25.8544 22.5201 29.9708Z" fill="#484C57"/>
<path d="M6.57145 0C7.29845 0.304627 7.54078 0.859205 7.51733 1.63249C7.47824 3.14 7.50951 4.64752 7.50169 6.15503C7.50169 6.93613 6.97794 7.49852 6.25094 7.49852C5.53176 7.49852 5.00019 6.93613 5.00019 6.15503C5.00019 4.64752 5.02364 3.14 4.98456 1.63249C4.97674 0.859205 5.21907 0.304627 5.94607 0C6.14932 0 6.36038 0 6.57145 0Z" fill="#484C57"/>
<path d="M26.5845 0C27.3115 0.304627 27.5538 0.859205 27.5304 1.63249C27.4913 3.14 27.5226 4.64752 27.5226 6.15503C27.5226 6.93613 26.9988 7.49852 26.2718 7.49852C25.5448 7.49852 25.0211 6.93613 25.0211 6.15503C25.0211 4.64752 25.0445 3.14 25.0133 1.63249C24.9898 0.859205 25.2321 0.304627 25.9591 0C26.1624 0 26.3734 0 26.5845 0Z" fill="#484C57"/>
<path d="M2.50497 12.5287C2.50497 12.6849 2.50497 12.8177 2.50497 12.9427C2.50497 18.4338 2.50497 23.9327 2.50497 29.4238C2.50497 29.9862 2.51279 29.994 3.06781 29.994C7.7034 29.994 12.3468 29.994 16.9824 29.994C17.1387 29.994 17.2951 29.994 17.4827 29.994C17.4827 30.822 17.4827 31.6265 17.4827 32.4935C17.3498 32.4935 17.2169 32.4935 17.0762 32.4935C12.3312 32.4935 7.59396 32.4935 2.84893 32.4935C1.20732 32.4935 0.0034743 31.3297 0.0034743 29.6816C-0.00434288 24.8622 0.0034743 20.0507 0.0034743 15.2313C0.0034743 12.7943 0.0034743 10.3651 0.0034743 7.92805C0.0034743 6.13934 1.16042 4.99894 2.95837 4.99894C3.20852 4.99894 3.45085 4.99894 3.75572 4.99894C3.75572 5.41292 3.74791 5.81128 3.75572 6.20964C3.78699 7.5375 4.68597 8.56855 5.95235 8.73258C7.42198 8.92004 8.71182 7.77183 8.75872 6.23307C8.76654 5.84252 8.75872 5.45197 8.75872 5.03018C13.7539 5.03018 18.7334 5.03018 23.7677 5.03018C23.7677 5.3973 23.7677 5.76441 23.7677 6.13934C23.7755 7.24849 24.2758 8.06864 25.2764 8.52168C26.2614 8.97471 27.1995 8.76382 27.9812 8.05302C28.4971 7.58436 28.7629 6.95949 28.7707 6.24869C28.7707 5.85033 28.7707 5.44416 28.7707 5.0458C30.3576 4.81929 31.5927 5.21764 32.2181 6.52989C32.3901 6.88138 32.5073 7.29536 32.5073 7.68591C32.5308 10.8884 32.523 14.0909 32.5151 17.2934C32.5151 17.3402 32.5073 17.3949 32.4995 17.4652C31.6787 17.4652 30.8657 17.4652 30.0293 17.4652C30.0293 15.8171 30.0293 14.1846 30.0293 12.5209C20.8519 12.5287 11.698 12.5287 2.50497 12.5287Z" fill="#484C57"/>
<path d="M5.03125 15.0127C6.68849 15.0127 8.32228 15.0127 9.97953 15.0127C9.97953 16.6686 9.97953 18.3167 9.97953 19.9805C8.3301 19.9805 6.69631 19.9805 5.03125 19.9805C5.03125 18.3324 5.03125 16.6921 5.03125 15.0127Z" fill="#484C57"/>
<path d="M12.5352 15.0127C14.2002 15.0127 15.834 15.0127 17.4913 15.0127C17.4913 16.6608 17.4913 18.3011 17.4913 19.9648C15.8575 19.9648 14.208 19.9648 12.5352 19.9648C12.5352 18.3324 12.5352 16.6921 12.5352 15.0127Z" fill="#484C57"/>
<path d="M20.0273 15.0127C21.6924 15.0127 23.3262 15.0127 24.9834 15.0127C24.9834 16.6686 24.9834 18.3089 24.9834 19.9727C23.334 19.9727 21.6846 19.9727 20.0273 19.9727C20.0273 18.3245 20.0273 16.6921 20.0273 15.0127Z" fill="#484C57"/>
<path d="M9.97172 27.4791C8.30666 27.4791 6.67287 27.4791 5.01562 27.4791C5.01562 25.831 5.01562 24.1907 5.01562 22.527C6.64942 22.527 8.29884 22.527 9.97172 22.527C9.97172 24.1595 9.97172 25.7998 9.97172 27.4791Z" fill="#484C57"/>
<path d="M17.4991 22.527C17.4991 24.1907 17.4991 25.8232 17.4991 27.4791C15.8496 27.4791 14.208 27.4791 12.543 27.4791C12.543 25.8466 12.543 24.1985 12.543 22.527C14.1768 22.527 15.8184 22.527 17.4991 22.527Z" fill="#484C57"/>
<path d="M29.2093 30.9472C28.279 30.1583 27.341 29.3616 26.4107 28.5727C25.8166 28.065 25.7384 27.2917 26.2231 26.7449C26.6921 26.2138 27.4582 26.1747 28.0367 26.6668C29.905 28.2525 31.7655 29.8303 33.6338 31.4159C34.2279 31.9158 34.3061 32.6969 33.8214 33.2437C33.3602 33.7748 32.5863 33.8061 32.0078 33.3218C31.0776 32.5329 30.1395 31.7362 29.2093 30.9472Z" fill="#484C57"/>
</svg>
