<?xml version="1.0" encoding="UTF-8"?>
<!DOCTYPE svg PUBLIC "-//W3C//DTD SVG 1.1//EN" "http://www.w3.org/Graphics/SVG/1.1/DTD/svg11.dtd">
<!-- Creator: CorelDRAW X8 -->
<svg xmlns="http://www.w3.org/2000/svg" xml:space="preserve" width="400mm" height="400mm" version="1.1" style="shape-rendering:geometricPrecision; text-rendering:geometricPrecision; image-rendering:optimizeQuality; fill-rule:evenodd; clip-rule:evenodd"
viewBox="0 0 40000 40000"
 xmlns:xlink="http://www.w3.org/1999/xlink">
 <defs>
  <style type="text/css">
   <![CDATA[
    .fil0 {fill:#3F4452;fill-rule:nonzero}
   ]]>
  </style>
 </defs>
 <g id="Слой_x0020_1">
  <metadata id="CorelCorpID_0Corel-Layer"/>
  <g id="_811367792">
   <polygon class="fil0" points="10178,13966 8309,13966 8309,15555 10178,15555 10178,19988 8059,19988 8059,21577 10178,21577 10178,26011 8059,26011 8059,27600 10178,27600 10178,32832 13885,32832 13885,8734 10178,8734 "/>
   <path class="fil0" d="M15474 8734l0 24098 15094 0 0 -24098 -15094 0zm7547 7195c1291,0 2338,1047 2338,2338 0,1291 -1047,2337 -2338,2337 -1291,0 -2337,-1046 -2337,-2337 0,-1291 1046,-2338 2337,-2338zm-4237 9707c0,-2340 1897,-4237 4237,-4237 2340,0 4237,1897 4237,4237l-8474 0z"/>
  </g>
 </g>
</svg>
