<svg width="32" height="40" viewBox="0 0 32 40" fill="none" xmlns="http://www.w3.org/2000/svg">
<path d="M27.8044 40C20.5098 40 13.2153 40 5.92071 40C5.86627 39.9774 5.81183 39.9435 5.7574 39.9322C4.09162 39.6155 2.9049 38.6544 2.19722 37.0713C1.55486 35.6466 1.85971 34.1314 1.78349 32.6161C1.97947 32.6161 2.13189 32.6161 2.27343 32.6161C3.08998 32.6048 3.90654 32.6274 4.71221 32.5822C6.04047 32.5031 7.10744 31.2705 7.11832 29.8571C7.12921 28.4436 6.04047 27.1885 4.69043 27.1206C3.86299 27.0754 3.03555 27.098 2.2081 27.0867C2.07745 27.0867 1.9468 27.0867 1.80527 27.0867C1.80527 25.628 1.80527 24.2259 1.80527 22.7672C1.95769 22.7672 2.08834 22.7672 2.21899 22.7672C3.03555 22.7559 3.8521 22.7785 4.65777 22.7333C5.82272 22.6655 6.80259 21.7722 7.04211 20.5962C7.29252 19.3976 6.75904 18.1763 5.72474 17.577C5.24569 17.3057 4.73398 17.2265 4.2005 17.2265C3.40572 17.2265 2.60005 17.2265 1.79438 17.2265C1.79438 15.7678 1.79438 14.3544 1.79438 12.907C1.95769 12.907 2.08834 12.907 2.21899 12.907C3.02466 12.8957 3.81944 12.9296 4.62511 12.8844C6.00781 12.8052 7.09655 11.584 7.09655 10.1479C7.09655 8.72318 6.02958 7.50196 4.65777 7.42281C3.83033 7.37758 3.00288 7.40019 2.17544 7.38889C2.04479 7.38889 1.91414 7.37758 1.76172 7.36627C1.76172 6.55212 1.76172 5.78321 1.76172 5.0256C1.80527 2.15347 3.8521 0.0163332 6.6175 0.0050256C13.4548 -0.006282 20.303 0.0050256 27.1403 0.0050256C27.5213 0.0050256 27.9242 0.0389484 28.2943 0.129409C30.548 0.683482 31.9852 2.59447 31.996 5.07083C32.0069 7.24189 31.996 9.41295 31.996 11.5953C31.996 19.341 31.996 27.0867 31.996 34.8211C31.996 36.7886 31.2448 38.3378 29.5899 39.3215C29.0564 39.6495 28.4032 39.7738 27.8044 40ZM24.8757 28.2853C24.8757 27.6069 24.8757 26.951 24.8757 26.2839C24.8539 23.2195 22.6655 20.9467 19.7151 20.9354C18.4303 20.9241 17.1347 20.9241 15.85 20.9354C13.1173 20.9467 11.0378 22.8351 10.7112 25.6507C10.6132 26.5213 10.7003 27.4033 10.7003 28.2853C15.4254 28.2853 20.1288 28.2853 24.8757 28.2853ZM17.7227 19.341C20.1941 19.4089 22.2736 17.317 22.3389 14.6936C22.4042 12.1042 20.401 9.92179 17.9077 9.85394C15.4145 9.7861 13.2915 11.8441 13.2153 14.3883C13.1499 17.1134 15.0988 19.2619 17.7227 19.341Z" fill="#484C57"/>
<path d="M2.9684 8.61007C3.45833 8.61007 3.94826 8.58745 4.42731 8.61007C5.20031 8.64399 5.75557 9.14153 5.89711 9.86521C6.01687 10.5211 5.67936 11.2334 5.09144 11.5161C4.87369 11.6179 4.6124 11.6744 4.36199 11.6857C3.42567 11.7084 2.48935 11.7084 1.54215 11.6857C0.801805 11.6744 0.246547 11.2447 0.0614612 10.5889C-0.10185 9.9896 0.083236 9.28852 0.605831 8.9493C0.899791 8.75707 1.26996 8.66661 1.61836 8.63268C2.06474 8.57615 2.52201 8.61007 2.9684 8.61007Z" fill="#484C57"/>
<path d="M2.95741 31.3724C2.43482 31.3724 1.90133 31.4063 1.37874 31.361C0.605731 31.2932 0.0831356 30.7391 0.00692379 29.9589C-0.0584007 29.3031 0.344433 28.6246 0.965016 28.4098C1.1501 28.3419 1.35696 28.308 1.55294 28.2967C2.48925 28.2854 3.42557 28.2854 4.37277 28.2967C5.02602 28.308 5.53773 28.602 5.79902 29.2465C6.03855 29.8232 5.94056 30.366 5.54861 30.8522C5.23288 31.2367 4.81916 31.3837 4.351 31.3837C3.88284 31.395 3.42557 31.3837 2.95741 31.3837C2.95741 31.3837 2.95741 31.3837 2.95741 31.3724Z" fill="#484C57"/>
<path d="M2.95853 21.5349C2.44682 21.5349 1.93511 21.5688 1.42341 21.5236C0.683063 21.4671 0.160468 20.9808 0.0407066 20.2684C-0.0790548 19.59 0.23668 18.9002 0.846374 18.6288C1.06412 18.5271 1.32542 18.4705 1.57583 18.4592C2.51215 18.4366 3.44846 18.4479 4.39567 18.4592C5.04891 18.4705 5.56062 18.7645 5.82192 19.4091C6.06144 19.9858 5.95257 20.5285 5.57151 21.0147C5.25577 21.3992 4.84205 21.5349 4.37389 21.5462C3.88396 21.5462 3.42669 21.5462 2.95853 21.5349C2.95853 21.5462 2.95853 21.5349 2.95853 21.5349Z" fill="#484C57"/>
</svg>
