<?xml version="1.0" encoding="UTF-8"?>
<!DOCTYPE svg PUBLIC "-//W3C//DTD SVG 1.1//EN" "http://www.w3.org/Graphics/SVG/1.1/DTD/svg11.dtd">
<!-- Creator: CorelDRAW X8 -->
<svg xmlns="http://www.w3.org/2000/svg" xml:space="preserve" width="400mm" height="400mm" version="1.1" style="shape-rendering:geometricPrecision; text-rendering:geometricPrecision; image-rendering:optimizeQuality; fill-rule:evenodd; clip-rule:evenodd"
viewBox="0 0 40000 40000"
 xmlns:xlink="http://www.w3.org/1999/xlink">
 <defs>
  <style type="text/css">
   <![CDATA[
    .fil0 {fill:#3F4452;fill-rule:nonzero}
   ]]>
  </style>
 </defs>
 <g id="Слой_x0020_1">
  <metadata id="CorelCorpID_0Corel-Layer"/>
  <g id="_1016005616">
   <path class="fil0" d="M14884 9155c-931,468 -1241,1709 -622,2322 781,-1391 2013,-922 3874,622 1241,1088 2944,158 2944,158 0,0 310,1861 2632,2172 2640,309 3571,-1242 3571,-1242 0,0 613,1551 2943,619 1702,-619 1082,-1707 1082,-1707 0,0 1552,0 1552,-1083 0,-1393 -1703,-1242 -1703,-1242 0,0 302,-1549 -1401,-1702 -1551,-159 -2011,773 -2011,773 0,0 -462,-1703 -2791,-1703 -2164,0 -2945,2013 -2945,2013 0,0 -619,-930 -2473,-930 -1400,0 -2020,1088 -2020,1088 0,0 -1702,-778 -2632,-158z"/>
   <path class="fil0" d="M26664 25890l0 -3254 -6206 3254 0 -3254 -3714 0 -930 -10849 -3103 0 -922 10849 -3722 0 0 9299 24793 0 0 -9299 -6196 3254zm-9298 2942l-6196 0 0 -3093 6196 0 0 3093z"/>
  </g>
 </g>
</svg>
