<?xml version="1.0" encoding="UTF-8"?>
<!DOCTYPE svg PUBLIC "-//W3C//DTD SVG 1.1//EN" "http://www.w3.org/Graphics/SVG/1.1/DTD/svg11.dtd">
<!-- Creator: CorelDRAW X8 -->
<svg xmlns="http://www.w3.org/2000/svg" xml:space="preserve" width="400mm" height="400mm" version="1.1" style="shape-rendering:geometricPrecision; text-rendering:geometricPrecision; image-rendering:optimizeQuality; fill-rule:evenodd; clip-rule:evenodd"
viewBox="0 0 40000 40000"
 xmlns:xlink="http://www.w3.org/1999/xlink">
 <defs>
  <style type="text/css">
   <![CDATA[
    .fil0 {fill:#3F4452;fill-rule:nonzero}
   ]]>
  </style>
 </defs>
 <g id="Слой_x0020_1">
  <metadata id="CorelCorpID_0Corel-Layer"/>
  <path class="fil0" d="M25983 19593c-67,-87 -154,-139 -261,-155l-2275 -348c-124,-398 -294,-804 -509,-1218 149,-207 372,-499 670,-877 299,-377 510,-653 634,-826 66,-92 100,-186 100,-286 0,-116 -29,-207 -87,-274 -299,-423 -982,-1127 -2051,-2113 -99,-83 -203,-124 -311,-124 -124,0 -224,38 -298,112l-1765 1330c-340,-174 -713,-328 -1119,-460l-348 -2287c-8,-108 -56,-197 -143,-267 -87,-71 -188,-106 -304,-106l-2760 0c-240,0 -389,116 -446,348 -109,414 -229,1185 -361,2312 -390,125 -767,282 -1132,472l-1714 -1330c-108,-83 -216,-124 -324,-124 -182,0 -573,296 -1174,889 -601,592 -1009,1038 -1224,1336 -75,108 -112,203 -112,286 0,100 41,199 124,298 555,671 999,1243 1330,1715 -207,382 -369,763 -485,1144l-2311 348c-92,17 -170,70 -237,161 -67,92 -99,187 -99,286l0 2759c0,109 32,205 99,292 67,88 153,140 261,156l2275 336c116,406 285,816 510,1230 -150,207 -374,499 -671,876 -299,378 -511,653 -634,827 -67,91 -100,186 -100,286 0,107 29,202 87,285 323,448 1006,1144 2051,2089 90,91 195,136 310,136 125,0 228,-37 311,-111l1753 -1330c339,173 712,327 1119,459l348 2287c8,108 55,198 143,268 87,71 188,105 304,105l2759 0c241,0 390,-116 448,-347 107,-415 228,-1186 360,-2313 389,-124 767,-281 1131,-472l1716 1343c115,74 223,111 323,111 182,0 571,-293 1168,-882 597,-588 1007,-1036 1230,-1343 75,-83 112,-178 112,-285 0,-108 -41,-212 -124,-311 -597,-729 -1040,-1301 -1330,-1715 166,-307 327,-684 485,-1131l2299 -348c99,-17 183,-71 249,-162 66,-91 99,-187 99,-286l0 -2759c0,-108 -33,-205 -99,-292zm-7197 3897c-621,621 -1371,932 -2249,932 -879,0 -1629,-311 -2250,-932 -622,-622 -933,-1372 -933,-2250 0,-879 311,-1628 933,-2250 621,-621 1371,-932 2250,-932 878,0 1628,311 2249,932 622,622 932,1371 932,2250 0,878 -310,1628 -932,2250z"/>
  <path class="fil0" d="M34005 16941c-15,-56 -47,-99 -96,-129l-1039 -634c20,-219 20,-452 0,-698 114,-71 283,-167 506,-291 222,-123 381,-215 477,-274 51,-31 87,-71 107,-119 24,-57 29,-107 14,-151 -60,-268 -250,-751 -570,-1450 -32,-61 -74,-102 -127,-124 -60,-25 -117,-27 -168,-6l-1133 289c-130,-154 -281,-305 -452,-453l297 -1187c18,-54 13,-107 -16,-159 -28,-53 -70,-91 -127,-114l-1346 -563c-117,-49 -214,-23 -289,79 -138,180 -353,532 -648,1054 -216,-18 -432,-18 -649,0l-565 -999c-36,-62 -80,-104 -133,-126 -89,-37 -340,27 -754,194 -414,167 -704,301 -870,403 -58,37 -96,76 -113,116 -20,49 -20,106 0,171 134,441 234,811 299,1109 -179,144 -336,297 -470,459l-1199 -302c-48,-10 -97,0 -148,31 -52,31 -87,71 -107,119l-563 1347c-22,53 -26,107 -11,163 15,56 46,99 96,129l1042 628c-27,222 -28,456 -3,704 -115,71 -284,167 -506,291 -223,123 -382,214 -478,274 -51,31 -87,70 -107,119 -22,52 -27,105 -16,157 67,285 258,764 575,1438 26,63 68,106 124,130 61,25 119,28 175,9l1126 -292c131,154 281,305 453,453l-297 1187c-18,54 -13,107 15,159 28,53 71,90 127,114l1347 563c117,49 214,23 289,-79 137,-180 353,-532 648,-1055 215,19 432,19 648,1l564 1005c41,59 86,100 135,120 88,37 338,-27 750,-192 411,-166 702,-301 874,-405 53,-25 91,-64 113,-116 22,-53 23,-112 3,-177 -143,-478 -243,-847 -300,-1109 144,-116 300,-267 467,-453l1194 299c52,12 103,3 154,-28 51,-31 87,-71 107,-119l563 -1347c22,-53 25,-107 11,-163zm-4307 435c-430,176 -860,175 -1288,-4 -429,-180 -732,-484 -908,-914 -177,-431 -176,-860 3,-1288 180,-429 484,-732 914,-908 430,-177 860,-176 1288,4 429,179 732,483 908,913 177,431 175,860 -4,1289 -179,428 -483,731 -913,908z"/>
 </g>
</svg>
