<?xml version="1.0" encoding="UTF-8"?>
<!DOCTYPE svg PUBLIC "-//W3C//DTD SVG 1.1//EN" "http://www.w3.org/Graphics/SVG/1.1/DTD/svg11.dtd">
<!-- Creator: CorelDRAW X8 -->
<svg xmlns="http://www.w3.org/2000/svg" xml:space="preserve" width="400mm" height="400mm" version="1.1" style="shape-rendering:geometricPrecision; text-rendering:geometricPrecision; image-rendering:optimizeQuality; fill-rule:evenodd; clip-rule:evenodd"
viewBox="0 0 40000 40000"
 xmlns:xlink="http://www.w3.org/1999/xlink">
 <defs>
  <style type="text/css">
   <![CDATA[
    .fil0 {fill:#3F4452;fill-rule:nonzero}
   ]]>
  </style>
 </defs>
 <g id="Слой_x0020_1">
  <metadata id="CorelCorpID_0Corel-Layer"/>
  <g id="_806293264">
   <path class="fil0" d="M20497 21923c1439,0 4823,-1732 4823,-5882 0,-3248 -439,-5882 -4823,-5882 -4384,0 -4823,2634 -4823,5882 0,4150 3384,5882 4823,5882zm-4102 -6863c339,-656 1072,-1413 2648,-1379 0,0 939,2278 5550,1255 19,364 25,735 25,1105 0,2029 -896,3285 -1647,3983 -947,878 -1998,1197 -2474,1197 -475,0 -1527,-319 -2473,-1197 -752,-698 -1648,-1954 -1648,-3983 1,-328 5,-657 19,-981z"/>
   <path class="fil0" d="M29451 27955c-247,-1531 -754,-3503 -1770,-4204 -695,-478 -3117,-1773 -4151,-2325l-18 -10c-118,-63 -263,-50 -368,33 -542,425 -1135,712 -1764,852 -111,25 -202,104 -242,210l-641 1687 -640 -1687c-40,-106 -132,-185 -243,-210 -628,-140 -1222,-427 -1764,-852 -105,-83 -250,-96 -368,-33 -1022,546 -3474,1867 -4165,2333 -1171,788 -1682,3642 -1773,4206 -9,56 -4,113 15,167 42,118 1116,2896 8938,2896 7822,0 8896,-2778 8938,-2896 19,-54 25,-111 16,-167zm-3605 -934l-1531 477 -1531 -477 0 -824 3062 0 0 824z"/>
  </g>
  <g id="_806294736">
   <path class="fil0" d="M30762 19205c649,0 2174,-780 2174,-2651 0,-1464 -198,-2651 -2174,-2651 -1976,0 -2173,1187 -2173,2651 0,1871 1525,2651 2173,2651zm-1849 -3093c153,-295 483,-637 1194,-622 0,0 423,1027 2501,566 9,164 12,332 12,498 0,915 -404,1481 -743,1795 -427,396 -900,540 -1115,540 -214,0 -688,-144 -1115,-540 -338,-314 -742,-880 -742,-1795 0,-148 2,-296 8,-442z"/>
   <path class="fil0" d="M34798 21924c-111,-690 -340,-1579 -798,-1895 -313,-215 -1405,-799 -1871,-1048l-8 -4c-53,-28 -118,-23 -166,15 -244,191 -512,321 -795,384 -50,11 -91,46 -109,94l-289 761 -288 -761c-19,-48 -60,-83 -110,-94 -283,-63 -551,-193 -795,-384 -47,-38 -112,-43 -166,-15 -460,246 -1565,841 -1877,1052 -528,355 -758,1641 -799,1895 -4,25 -2,51 7,75 18,54 503,1306 4028,1306 3526,0 4010,-1252 4029,-1306 8,-24 11,-50 7,-75zm-1625 -421l-690 215 -690 -215 0 -371 1380 0 0 371z"/>
  </g>
  <g id="_806293904">
   <path class="fil0" d="M10192 19238c648,0 2173,-781 2173,-2651 0,-1464 -197,-2651 -2173,-2651 -1977,0 -2174,1187 -2174,2651 0,1870 1525,2651 2174,2651zm-1849 -3093c152,-296 483,-637 1193,-622 0,0 423,1027 2502,566 8,164 11,331 11,498 0,914 -404,1481 -743,1795 -426,396 -900,540 -1114,540 -215,0 -689,-144 -1115,-540 -339,-314 -743,-881 -743,-1795 0,-148 2,-296 9,-442z"/>
   <path class="fil0" d="M14227 21957c-111,-690 -340,-1579 -798,-1895 -313,-216 -1404,-799 -1871,-1048l-8 -4c-53,-29 -118,-23 -166,14 -244,192 -511,321 -795,384 -50,12 -91,47 -109,95l-288 761 -289 -761c-18,-48 -59,-83 -109,-95 -284,-63 -551,-192 -796,-384 -47,-37 -112,-43 -165,-14 -461,246 -1566,841 -1878,1051 -527,356 -758,1642 -799,1896 -4,25 -2,51 7,75 19,53 503,1305 4029,1305 3525,0 4009,-1252 4028,-1305 9,-24 11,-50 7,-75zm-1625 -421l-690 215 -690 -215 0 -371 1380 0 0 371z"/>
  </g>
 </g>
</svg>
