<svg width="31" height="30" viewBox="0 0 31 30" fill="none" xmlns="http://www.w3.org/2000/svg">
<path d="M15.5271 29.9971C13.1459 29.9971 10.7588 30.0033 8.37766 29.9971C7.49913 29.9971 6.65695 29.8151 5.90566 29.313C4.83325 28.5976 4.23948 27.5684 4.16678 26.2568C4.03954 24.0416 4.25766 21.8577 5.02713 19.7742C5.45731 18.6132 6.05713 17.5589 7.09319 16.8435C7.85054 16.3226 8.69877 16.0904 9.60154 16.0779C9.77119 16.0779 9.95295 16.1595 10.1044 16.2536C10.5225 16.5109 10.9224 16.787 11.3283 17.0569C12.7279 17.9982 14.2547 18.4814 15.9209 18.381C17.2538 18.2994 18.4959 17.8539 19.6168 17.0945C19.9197 16.8874 20.2408 16.7054 20.5195 16.467C21.0224 16.0528 21.5738 16.0277 22.1736 16.1406C23.6944 16.4356 24.7607 17.3393 25.4938 18.7262C26.2754 20.2072 26.6208 21.8137 26.7541 23.4768C26.8328 24.4118 26.8631 25.3532 26.8146 26.2882C26.7116 28.0956 25.4635 29.5264 23.7489 29.8653C23.3369 29.9469 22.9128 29.9908 22.4886 29.9908C20.1742 30.0033 17.8536 29.9971 15.5271 29.9971Z" fill="#484C57"/>
<path d="M21.7014 10.7124C21.7438 14.233 18.9325 16.9817 15.8486 17.1386C12.183 17.3269 9.29297 14.2581 9.29297 10.7438C9.29297 7.1981 12.0558 4.28624 15.4851 4.27369C18.9144 4.26742 21.7378 7.1981 21.7014 10.7124Z" fill="#484C57"/>
<path d="M22.6467 9.60799C23.4404 9.88412 24.2281 10.0096 25.0399 9.98453C25.9972 9.95315 26.8636 9.60799 27.7179 9.21891C28.0391 9.07457 28.3481 8.89258 28.6571 8.72942C29.0751 8.50977 29.4386 8.56625 29.7961 8.88003C30.1657 9.21263 30.3838 9.63937 30.5171 10.1163C30.9655 11.7354 31.0927 13.3922 30.9352 15.0677C30.8504 15.9526 30.2566 16.5048 29.4992 16.7998C29.0024 16.9943 28.4511 17.0822 27.9179 17.1261C27.2635 17.1826 26.6092 17.1512 25.9548 17.1324C25.8094 17.1261 25.6216 17.0445 25.5247 16.9316C24.7855 16.0969 23.9069 15.5007 22.8406 15.2246C22.3922 15.1117 21.9318 15.0552 21.4531 14.961C22.5134 13.3545 22.9072 11.5722 22.6467 9.60799Z" fill="#484C57"/>
<path d="M8.34923 9.61414C8.09476 11.5658 8.48253 13.3418 9.5307 14.9295C8.90664 15.0739 8.28259 15.1806 7.68882 15.3751C6.84059 15.6575 6.12565 16.1847 5.53794 16.875C5.38041 17.0632 5.21076 17.1448 4.96841 17.1323C4.102 17.0946 3.22953 17.126 2.36918 17.0507C1.69665 16.9942 1.09683 16.6867 0.606062 16.1909C0.139533 15.7203 -0.00587839 15.1115 0.00018043 14.4777C0.0122981 13.072 0.0425921 11.66 0.424298 10.2919C0.563651 9.79613 0.745415 9.32546 1.115 8.9552C1.53306 8.53474 1.91477 8.47826 2.42371 8.76066C3.25982 9.22505 4.11412 9.63297 5.04112 9.84633C6.01659 10.0723 6.97994 10.0158 7.93117 9.7271C8.05841 9.69572 8.1917 9.65807 8.34923 9.61414Z" fill="#484C57"/>
<path d="M28.9486 4.30505C28.9426 6.63956 27.0946 8.57243 24.8407 8.5787C22.5202 8.58498 20.6662 6.67721 20.6602 4.28622C20.6602 1.90779 22.5263 -0.00626017 24.8104 1.53876e-05C27.1067 0.00629095 28.9547 1.93289 28.9486 4.30505Z" fill="#484C57"/>
<path d="M2.04689 4.2925C2.05295 1.90151 3.91301 -0.00626012 6.22142 1.5438e-05C8.48741 0.006291 10.3475 1.93916 10.3354 4.29877C10.3172 6.72114 8.43894 8.59753 6.17294 8.5787C3.87059 8.5536 2.04083 6.63956 2.04689 4.2925Z" fill="#484C57"/>
</svg>
