<?xml version="1.0" encoding="UTF-8"?>
<!DOCTYPE svg PUBLIC "-//W3C//DTD SVG 1.1//EN" "http://www.w3.org/Graphics/SVG/1.1/DTD/svg11.dtd">
<!-- Creator: CorelDRAW X8 -->
<svg xmlns="http://www.w3.org/2000/svg" xml:space="preserve" width="400mm" height="400mm" version="1.1" style="shape-rendering:geometricPrecision; text-rendering:geometricPrecision; image-rendering:optimizeQuality; fill-rule:evenodd; clip-rule:evenodd"
viewBox="0 0 40000 40000"
 xmlns:xlink="http://www.w3.org/1999/xlink">
 <defs>
  <style type="text/css">
   <![CDATA[
    .fil0 {fill:#3F4452;fill-rule:nonzero}
   ]]>
  </style>
 </defs>
 <g id="Слой_x0020_1">
  <metadata id="CorelCorpID_0Corel-Layer"/>
  <g id="_1013207168">
   <path class="fil0" d="M18483 28929c-1237,1143 -2948,1399 -4466,668 -549,-264 -1012,-629 -1374,-1066l-2067 4571c-94,208 11,364 61,422 49,58 188,185 408,124l1504 -419c172,-47 345,-70 516,-70 721,0 1399,408 1726,1084l679 1406c97,199 274,224 356,224l7 0c76,-1 263,-25 357,-233l3287 -7271c-361,104 -703,291 -994,560z"/>
   <path class="fil0" d="M22086 28929c1237,1143 2948,1399 4466,668 548,-264 1011,-629 1374,-1066l2066 4571c94,208 -11,364 -60,422 -50,58 -189,185 -409,124l-1504 -419c-171,-47 -345,-70 -516,-70 -720,0 -1399,408 -1726,1084l-679 1406c-96,199 -274,224 -355,224l-8 0c-76,-1 -263,-25 -357,-233l-3287 -7271c362,104 704,291 995,560z"/>
   <path class="fil0" d="M20284 24960c-4498,0 -8157,-3659 -8157,-8157 0,-4498 3659,-8158 8157,-8158 4498,0 8158,3660 8158,8158 0,4498 -3660,8157 -8158,8157zm11331 -7941c-1716,-1175 -2248,-3508 -1212,-5312 623,-1084 299,-2155 -212,-2796 -512,-641 -1484,-1195 -2679,-829 -1989,609 -4145,-429 -4909,-2364 -459,-1163 -1499,-1578 -2319,-1578 -820,0 -1859,415 -2318,1578 -764,1935 -2920,2973 -4909,2364 -1196,-366 -2168,188 -2679,829 -511,641 -835,1712 -212,2796 1036,1804 503,4137 -1213,5312 -1031,707 -1204,1812 -1022,2612 183,799 818,1720 2054,1909 2056,314 3548,2185 3397,4260 -91,1247 666,2071 1405,2427 738,356 1855,433 2773,-415 764,-706 1744,-1059 2724,-1059 981,0 1960,353 2724,1059 919,848 2035,771 2774,415 738,-356 1495,-1180 1404,-2427 -151,-2075 1341,-3946 3397,-4260 1236,-189 1872,-1110 2054,-1909 183,-800 10,-1906 -1022,-2612z"/>
   <path class="fil0" d="M17434 16181c343,-242 818,-159 1059,185l790 1125 3505 -2560c339,-247 815,-174 1063,166 248,339 173,815 -166,1062l-4130 3017c-131,96 -289,147 -449,147 -41,0 -82,-4 -124,-11 -201,-33 -381,-146 -498,-313l-1236 -1759c-241,-344 -158,-818 186,-1059zm9487 622c0,-3660 -2977,-6637 -6637,-6637 -3659,0 -6636,2977 -6636,6637 0,3659 2977,6636 6636,6636 3660,0 6637,-2977 6637,-6636z"/>
  </g>
 </g>
</svg>
