<?xml version="1.0" encoding="UTF-8"?>
<!DOCTYPE svg PUBLIC "-//W3C//DTD SVG 1.1//EN" "http://www.w3.org/Graphics/SVG/1.1/DTD/svg11.dtd">
<!-- Creator: CorelDRAW X8 -->
<svg xmlns="http://www.w3.org/2000/svg" xml:space="preserve" width="400mm" height="400mm" version="1.1" style="shape-rendering:geometricPrecision; text-rendering:geometricPrecision; image-rendering:optimizeQuality; fill-rule:evenodd; clip-rule:evenodd"
viewBox="0 0 40000 40000"
 xmlns:xlink="http://www.w3.org/1999/xlink">
 <defs>
  <style type="text/css">
   <![CDATA[
    .fil0 {fill:#3F4452;fill-rule:nonzero}
   ]]>
  </style>
 </defs>
 <g id="Слой_x0020_1">
  <metadata id="CorelCorpID_0Corel-Layer"/>
  <path class="fil0" d="M17499 19479c0,273 -218,491 -490,491l-1841 0c-272,0 -490,-218 -490,-491l0 -1840c0,-272 218,-490 490,-490l1841 0c272,0 490,218 490,490l0 1840zm3843 -1834c0,-272 -218,-490 -490,-490l-1840 0c-272,0 -490,218 -490,490l0 1840c0,273 218,491 490,491l1840 0c272,0 490,-218 490,-491l0 -1840zm3844 0c0,-272 -218,-490 -490,-490l-1840 0c-273,0 -491,218 -491,490l0 1840c0,273 218,491 491,491l1840 0c272,0 490,-218 490,-491l0 -1840zm-7687 3741c0,-272 -218,-490 -490,-490l-1841 0c-272,0 -490,218 -490,490l0 1840c0,273 218,490 490,490l1841 0c272,0 490,-217 490,-490l0 -1840zm3843 0c0,-272 -218,-490 -490,-490l-1840 0c-272,0 -490,218 -490,490l0 1840c0,273 218,490 490,490l1840 0c272,0 490,-217 490,-490l0 -1840zm3354 -490l-1840 0c-273,0 -491,218 -491,490l0 1840c0,273 218,490 491,490l1840 0c272,0 490,-217 490,-490l0 -1840c0,-272 -218,-490 -490,-490zm-11537 3740l-1834 0c-273,0 -491,218 -491,491l0 1840c0,272 218,490 491,490l1840 0c272,0 490,-218 490,-490l0 -1840c0,-273 -224,-491 -496,-491zm496 -3250c0,-272 -218,-490 -490,-490l-1840 0c-273,0 -491,218 -491,490l0 1840c0,273 218,490 491,490l1840 0c272,0 490,-217 490,-490l0 -1840zm7197 3250l-1840 0c-272,0 -490,218 -490,491l0 1840c0,272 218,490 490,490l1840 0c272,0 490,-218 490,-490l0 -1840c0,-273 -218,-491 -490,-491zm-3843 0l-1841 0c-272,0 -490,218 -490,491l0 1840c0,272 218,490 490,490l1841 0c272,0 490,-218 490,-490l0 -1840c0,-273 -218,-491 -490,-491zm11530 -4660c273,0 491,-218 491,-491l0 -1840c0,-272 -218,-490 -491,-490l-1840 0c-272,0 -490,218 -490,490l0 1840c0,273 218,491 490,491l1840 0zm-18915 11476l13964 0c-224,-702 -351,-1453 -357,-2227l-13607 0c-363,0 -654,-297 -654,-654l0 -13153 21894 0 0 6119c775,6 1525,121 2227,345l0 -11071c0,-1592 -1295,-2887 -2887,-2887l-3232 0 0 -1779c0,-582 -473,-1054 -1054,-1054l-1640 0c-581,0 -1053,472 -1053,1054l0 1785 -6622 0 0 -1785c0,-582 -472,-1054 -1053,-1054l-1641 0c-581,0 -1053,472 -1053,1054l0 1785 -3232 0c-1592,0 -2888,1296 -2888,2887l0 17754c0,1586 1296,2881 2888,2881zm26724 -2312c0,3044 -2470,5514 -5515,5514 -3044,0 -5514,-2470 -5514,-5514 0,-3045 2470,-5514 5514,-5514 3045,0 5515,2469 5515,5514zm-2730 -1429c0,-175 -67,-345 -194,-466 -260,-260 -678,-260 -938,0l-2397 2397 -920 -920c-260,-260 -678,-260 -938,0 -128,127 -194,291 -194,466 0,176 66,345 194,466l1386 1387c260,260 678,260 938,0l2863 -2864c133,-121 200,-290 200,-466z"/>
 </g>
</svg>
