<svg width="31" height="30" viewBox="0 0 31 30" fill="none" xmlns="http://www.w3.org/2000/svg">
<path d="M21.9898 29.9942C21.5149 29.9064 21.0342 29.8419 20.571 29.7189C18.6011 29.1917 17.0943 28.0435 16.0566 26.286C15.1419 24.7394 14.8078 23.0698 15.1244 21.3006C15.6755 18.2778 17.4343 16.2567 20.3482 15.3369C22.8517 14.5519 25.1851 15.0557 27.2313 16.6785C28.7146 17.856 29.6233 19.4143 29.9048 21.3065C30.3152 24.1009 29.4181 26.4324 27.3016 28.2661C26.1584 29.2561 24.7806 29.8126 23.2562 29.9532C23.2034 29.9591 23.1507 29.9825 23.0979 30.0001C22.7286 29.9942 22.3592 29.9942 21.9898 29.9942ZM16.8891 22.4781C16.8774 25.5713 19.416 28.1138 22.5058 28.1196C25.5838 28.1255 28.14 25.5947 28.1459 22.5309C28.1517 19.426 25.6366 16.8894 22.5468 16.8718C19.4512 16.8601 16.895 19.3908 16.8891 22.4781Z" fill="#484C57"/>
<path d="M4.92859 0C5.47384 0.228471 5.65559 0.644406 5.638 1.22437C5.60869 2.35501 5.63214 3.48565 5.62628 4.61629C5.62628 5.20211 5.23346 5.62391 4.68821 5.62391C4.14882 5.62391 3.75014 5.20211 3.75014 4.61629C3.75014 3.48565 3.76773 2.35501 3.73842 1.22437C3.73256 0.644406 3.91431 0.228471 4.45956 0C4.61199 0 4.77029 0 4.92859 0Z" fill="#484C57"/>
<path d="M19.9374 0C20.4827 0.228471 20.6644 0.644406 20.6468 1.22437C20.6175 2.35501 20.641 3.48565 20.641 4.61629C20.641 5.20211 20.2481 5.62391 19.7029 5.62391C19.1576 5.62391 18.7648 5.20211 18.7648 4.61629C18.7648 3.48565 18.7824 2.35501 18.759 1.22437C18.7414 0.644406 18.9231 0.228471 19.4684 0C19.6208 0 19.7791 0 19.9374 0Z" fill="#484C57"/>
<path d="M1.87874 9.39667C1.87874 9.51383 1.87874 9.61342 1.87874 9.70715C1.87874 13.8255 1.87874 17.9497 1.87874 22.068C1.87874 22.4898 1.8846 22.4957 2.30087 22.4957C5.77757 22.4957 9.26014 22.4957 12.7368 22.4957C12.8541 22.4957 12.9714 22.4957 13.1121 22.4957C13.1121 23.1167 13.1121 23.7201 13.1121 24.3703C13.0124 24.3703 12.9127 24.3703 12.8072 24.3703C9.24841 24.3703 5.69549 24.3703 2.1367 24.3703C0.905494 24.3703 0.00260574 23.4974 0.00260574 22.2614C-0.00325717 18.6468 0.00260574 15.0381 0.00260574 11.4236C0.00260574 9.59585 0.00260574 7.77393 0.00260574 5.94616C0.00260574 4.60463 0.870316 3.74933 2.21879 3.74933C2.4064 3.74933 2.58815 3.74933 2.8168 3.74933C2.8168 4.05981 2.81094 4.35858 2.8168 4.65735C2.84025 5.65325 3.51449 6.42654 4.46428 6.54956C5.56651 6.69016 6.53389 5.829 6.56906 4.67493C6.57493 4.38202 6.56906 4.0891 6.56906 3.77276C10.3155 3.77276 14.0501 3.77276 17.8258 3.77276C17.8258 4.0481 17.8258 4.32343 17.8258 4.60463C17.8317 5.4365 18.2069 6.05161 18.9574 6.39139C19.6961 6.73117 20.3997 6.573 20.986 6.0399C21.3729 5.6884 21.5722 5.21974 21.5781 4.68664C21.5781 4.38787 21.5781 4.08324 21.5781 3.78447C22.7683 3.61459 23.6946 3.91336 24.1637 4.89754C24.2926 5.16116 24.3806 5.47165 24.3806 5.76456C24.3982 8.16644 24.3923 10.5683 24.3864 12.9702C24.3864 13.0053 24.3806 13.0463 24.3747 13.0991C23.7591 13.0991 23.1494 13.0991 22.522 13.0991C22.522 11.863 22.522 10.6386 22.522 9.39081C15.639 9.39667 8.77352 9.39667 1.87874 9.39667Z" fill="#484C57"/>
<path d="M3.77344 11.2595C5.01637 11.2595 6.24172 11.2595 7.48466 11.2595C7.48466 12.5015 7.48466 13.7376 7.48466 14.9854C6.24758 14.9854 5.02224 14.9854 3.77344 14.9854C3.77344 13.7493 3.77344 12.519 3.77344 11.2595Z" fill="#484C57"/>
<path d="M9.40234 11.2595C10.6511 11.2595 11.8765 11.2595 13.1194 11.2595C13.1194 12.4956 13.1194 13.7258 13.1194 14.9736C11.8941 14.9736 10.657 14.9736 9.40234 14.9736C9.40234 13.7493 9.40234 12.519 9.40234 11.2595Z" fill="#484C57"/>
<path d="M15.0195 11.2595C16.2683 11.2595 17.4937 11.2595 18.7366 11.2595C18.7366 12.5015 18.7366 13.7317 18.7366 14.9795C17.4995 14.9795 16.2625 14.9795 15.0195 14.9795C15.0195 13.7434 15.0195 12.519 15.0195 11.2595Z" fill="#484C57"/>
<path d="M7.4788 20.6094C6.23 20.6094 5.00466 20.6094 3.76172 20.6094C3.76172 19.3733 3.76172 18.1431 3.76172 16.8953C4.98707 16.8953 6.22414 16.8953 7.4788 16.8953C7.4788 18.1196 7.4788 19.3499 7.4788 20.6094Z" fill="#484C57"/>
<path d="M13.1233 16.8953C13.1233 18.1431 13.1233 19.3674 13.1233 20.6094C11.8863 20.6094 10.655 20.6094 9.40625 20.6094C9.40625 19.385 9.40625 18.1489 9.40625 16.8953C10.6316 16.8953 11.8628 16.8953 13.1233 16.8953Z" fill="#484C57"/>
<path d="M21.907 23.2105C21.2093 22.6188 20.5057 22.0213 19.808 21.4296C19.3625 21.0488 19.3038 20.4688 19.6673 20.0587C20.0191 19.6604 20.5937 19.6311 21.0275 20.0002C22.4288 21.1894 23.8241 22.3727 25.2254 23.562C25.671 23.9369 25.7296 24.5227 25.3661 24.9328C25.0202 25.3312 24.4397 25.3546 24.0059 24.9914C23.3082 24.3997 22.6047 23.8022 21.907 23.2105Z" fill="#484C57"/>
</svg>
