<svg width="67" height="40" viewBox="0 0 67 40" fill="none" xmlns="http://www.w3.org/2000/svg">
<path d="M66.8211 34.3443L62.6851 30.2467H63.5697C63.8088 30.2467 64.0239 30.1046 64.1196 29.8914C64.2152 29.6782 64.1674 29.4177 64 29.2519L59.8641 25.1542H62.4221C62.6612 25.1542 62.8764 25.0121 62.972 24.799C63.0676 24.5858 63.0198 24.3252 62.8525 24.1594L58.597 19.9197H61.1551C61.3941 19.9197 61.6093 19.7776 61.7049 19.5644C61.8006 19.3512 61.7527 19.0907 61.5854 18.9249L57.4494 14.8273H59.0034C59.2186 14.8273 59.4098 14.7088 59.5054 14.543C59.6011 14.3772 59.625 14.1404 59.5294 13.9509L52.2615 0.307914C52.142 0.118429 51.9507 0 51.7355 0C51.5204 0 51.3052 0.118429 51.2096 0.307914L43.7266 13.9509C43.631 14.1404 43.631 14.3536 43.7266 14.543C43.8461 14.7325 44.0374 14.8273 44.2286 14.8273H46.2847L42.9615 18.1196H0.597684C0.262981 18.1196 0 18.3801 0 18.7117V39.2709C0 39.6025 0.262981 39.8631 0.597684 39.8631H6.40718H40.8577H46.8106H53.9589C54.2936 39.8631 54.5566 39.6025 54.5566 39.2709V35.3391H66.3908C66.6298 35.3391 66.845 35.197 66.9406 34.9838C67.0602 34.7706 66.9885 34.5101 66.8211 34.3443ZM16.7591 38.6788H7.00486V25.0595H16.7591V38.6788ZM28.9757 38.6788H17.9783V25.0595H28.9757V38.6788ZM40.26 38.6788H30.1711V25.0595H40.26V38.6788ZM46.2129 38.6788H41.4554V24.4674C41.4554 24.1358 41.1924 23.8752 40.8577 23.8752H6.40718C6.07247 23.8752 5.80949 24.1358 5.80949 24.4674V38.6788H1.19537V19.3039H46.2129V38.6788ZM49.3209 38.6788H47.4083V35.3391H49.3209V38.6788ZM53.3613 38.6788H50.5163V35.3391H53.3613V38.6788ZM53.9589 34.1785H49.9186H47.4083V18.7117C47.4083 18.3801 47.1453 18.1196 46.8106 18.1196H44.659L48.1734 14.6378C48.3407 14.472 48.3885 14.2114 48.2929 13.9983C48.1973 13.7851 47.9821 13.643 47.743 13.643H45.2566L51.7355 1.84749L57.9993 13.6193H55.9911C55.752 13.6193 55.5368 13.7614 55.4412 13.9746C55.3456 14.1877 55.3934 14.4483 55.5607 14.6141L59.6967 18.7117H57.1625C56.9235 18.7117 56.7083 18.8538 56.6127 19.067C56.517 19.2802 56.5648 19.5407 56.7322 19.7065L60.9638 23.8989H58.4057C58.1666 23.8989 57.9515 24.041 57.8558 24.2542C57.7602 24.4674 57.808 24.7279 57.9754 24.8937L62.1114 28.9913H61.2268C60.9877 28.9913 60.7725 29.1334 60.6769 29.3466C60.5813 29.5598 60.6291 29.8203 60.7964 29.9861L64.9324 34.0838H53.9589V34.1785Z" fill="#484C57"/>
</svg>
