<svg width="66" height="40" viewBox="0 0 66 40" fill="none" xmlns="http://www.w3.org/2000/svg">
<path d="M45.4205 18.98H1.57341C1.24848 18.98 1 19.2198 1 19.5335V38.4265C1 38.7401 1.24848 38.98 1.57341 38.98H45.4205C45.7455 38.98 45.9939 38.7401 45.9939 38.4265V19.5335C45.9939 19.2198 45.7264 18.98 45.4205 18.98Z" fill="#82A4AD"/>
<path d="M15.2707 30.2258C15.61 30.2258 15.8695 29.9648 15.8695 29.6236V28.5399C15.8695 28.1987 15.61 27.9377 15.2707 27.9377C14.9314 27.9377 14.6719 28.1987 14.6719 28.5399V29.6236C14.6719 29.9648 14.9513 30.2258 15.2707 30.2258Z" fill="#484C57"/>
<path d="M15.2707 23.3617C15.61 23.3617 15.8695 23.1008 15.8695 22.7596V21.6758C15.8695 21.3346 15.61 21.0737 15.2707 21.0737C14.9314 21.0737 14.6719 21.3346 14.6719 21.6758V22.7596C14.6719 23.0808 14.9513 23.3617 15.2707 23.3617Z" fill="#484C57"/>
<path d="M15.2707 26.7939C15.61 26.7939 15.8695 26.533 15.8695 26.1918V25.108C15.8695 24.7668 15.61 24.5059 15.2707 24.5059C14.9314 24.5059 14.6719 24.7668 14.6719 25.108V26.1918C14.6719 26.5129 14.9513 26.7939 15.2707 26.7939Z" fill="#484C57"/>
<path d="M15.2707 33.6779C15.61 33.6779 15.8695 33.417 15.8695 33.0758V31.992C15.8695 31.6508 15.61 31.3899 15.2707 31.3899C14.9314 31.3899 14.6719 31.6508 14.6719 31.992V33.0758C14.6719 33.3969 14.9513 33.6779 15.2707 33.6779Z" fill="#484C57"/>
<path d="M15.2707 37.11C15.61 37.11 15.8695 36.8491 15.8695 36.5079V35.4241C15.8695 35.0829 15.61 34.822 15.2707 34.822C14.9314 34.822 14.6719 35.0829 14.6719 35.4241V36.5079C14.6719 36.829 14.9513 37.11 15.2707 37.11Z" fill="#484C57"/>
<path d="M31.8176 30.2258C32.1569 30.2258 32.4164 29.9648 32.4164 29.6236V28.5399C32.4164 28.1987 32.1569 27.9377 31.8176 27.9377C31.4782 27.9377 31.2188 28.1987 31.2188 28.5399V29.6236C31.2188 29.9648 31.4782 30.2258 31.8176 30.2258Z" fill="#484C57"/>
<path d="M31.8176 23.3617C32.1569 23.3617 32.4164 23.1008 32.4164 22.7596V21.6758C32.4164 21.3346 32.1569 21.0737 31.8176 21.0737C31.4782 21.0737 31.2188 21.3346 31.2188 21.6758V22.7596C31.2188 23.0808 31.4782 23.3617 31.8176 23.3617Z" fill="#484C57"/>
<path d="M31.8176 26.7939C32.1569 26.7939 32.4164 26.533 32.4164 26.1918V25.108C32.4164 24.7668 32.1569 24.5059 31.8176 24.5059C31.4782 24.5059 31.2188 24.7668 31.2188 25.108V26.1918C31.2188 26.5129 31.4782 26.7939 31.8176 26.7939Z" fill="#484C57"/>
<path d="M31.8176 37.11C32.1569 37.11 32.4164 36.8491 32.4164 36.5079V35.4241C32.4164 35.0829 32.1569 34.822 31.8176 34.822C31.4782 34.822 31.2188 35.0829 31.2188 35.4241V36.5079C31.2188 36.829 31.4782 37.11 31.8176 37.11Z" fill="#484C57"/>
<path d="M31.8176 33.6779C32.1569 33.6779 32.4164 33.417 32.4164 33.0758V31.992C32.4164 31.6508 32.1569 31.3899 31.8176 31.3899C31.4782 31.3899 31.2188 31.6508 31.2188 31.992V33.0758C31.2188 33.3969 31.4782 33.6779 31.8176 33.6779Z" fill="#484C57"/>
<path d="M65.8314 34.1796L61.979 30.2258H62.7774C63.0169 30.2258 63.2365 30.0853 63.3363 29.8445C63.4361 29.6237 63.3762 29.3628 63.1966 29.1821L58.9648 25.0677H61.5797C61.8193 25.0677 62.0388 24.9272 62.1386 24.6864C62.2385 24.4456 62.1786 24.2047 61.9989 24.0241L57.887 19.9498H60.1026C60.3422 19.9498 60.5617 19.8093 60.6416 19.5886C60.7414 19.3678 60.7015 19.1069 60.5418 18.9463L56.7891 14.8319H58.1464C58.3461 14.8319 58.5457 14.7316 58.6654 14.5509C58.7652 14.3703 58.7852 14.1495 58.6854 13.9689L51.7789 0.321124C51.6791 0.120421 51.4795 0 51.2599 0C51.0403 0 50.8407 0.120421 50.7409 0.321124L43.2755 14.009C43.1757 14.1897 43.1757 14.4305 43.2755 14.6111C43.3753 14.7918 43.5749 14.9122 43.7945 14.9122H45.7107L42.497 18.2439H0.598831C0.259493 18.2439 0 18.5048 0 18.846V39.3979C0 39.7391 0.259493 40 0.598831 40H46.3894H49.2039H53.236C53.5754 40 53.8349 39.7391 53.8349 39.3979V35.2434H65.3923C65.6318 35.2434 65.8514 35.1029 65.9512 34.8821C66.051 34.6613 65.9911 34.3603 65.8314 34.1796ZM1.19766 19.4079H14.6913C14.7312 19.6889 14.9907 19.9097 15.2702 19.9097C15.5496 19.9097 15.8091 19.6889 15.849 19.4079H31.219C31.259 19.6889 31.5184 19.9097 31.7979 19.9097C32.0774 19.9097 32.3368 19.6889 32.3768 19.4079H45.7706V38.7556H32.3768C32.3368 38.4747 32.0774 38.2539 31.7979 38.2539C31.5184 38.2539 31.259 38.4747 31.219 38.7556H15.849C15.8091 38.4747 15.5496 38.2539 15.2702 38.2539C14.9907 38.2539 14.7312 38.4747 14.6913 38.7556H1.19766V19.4079ZM46.9882 35.2032H48.6051V38.7556H46.9882V35.2032ZM52.6372 38.7757H49.8027V35.2233H52.6372V38.7757ZM53.236 33.999H49.2039H46.9882V18.8058C46.9882 18.4646 46.7287 18.2037 46.3894 18.2037H44.1538L47.5272 14.6914C47.6869 14.5108 47.7468 14.2699 47.6469 14.0291C47.5471 13.8083 47.3276 13.6678 47.088 13.6678H44.7726L51.2 1.86653L57.1684 13.6277H55.4318C55.1922 13.6277 54.9726 13.7682 54.8928 13.989C54.793 14.2097 54.8329 14.4706 54.9926 14.6312L58.7652 18.7456H56.4498C56.2102 18.7456 55.9907 18.8861 55.8909 19.1269C55.791 19.3477 55.8509 19.6086 56.0306 19.7893L60.1425 23.8836H57.4877C57.2482 23.8836 57.0286 24.0241 56.9288 24.2649C56.829 24.4857 56.8889 24.7466 57.0686 24.9272L61.3003 29.0617H60.5617C60.3222 29.0617 60.1026 29.2022 60.0028 29.423C59.903 29.6438 59.9629 29.9047 60.1226 30.0853L63.9751 34.0391H53.236V33.999Z" fill="#484C57"/>
</svg>
