<svg width="73" height="43" viewBox="0 0 73 43" fill="none" xmlns="http://www.w3.org/2000/svg">
<path d="M50.6066 43H0.653269C0.283083 43 0 42.7195 0 42.3527V20.2378C0 19.8711 0.283083 19.5906 0.653269 19.5906H50.6066C50.9768 19.5906 51.2599 19.8711 51.2599 20.2378V42.3312C51.2599 42.6979 50.955 43 50.6066 43ZM1.30654 41.7055H49.9533V20.8851H1.30654V41.7055Z" fill="#484C57"/>
<path d="M58.0777 42.9999H50.5869C50.2167 42.9999 49.9336 42.7194 49.9336 42.3526C49.9336 41.9858 50.2167 41.7053 50.5869 41.7053H58.0777C58.4479 41.7053 58.731 41.9858 58.731 42.3526C58.731 42.7194 58.4479 42.9999 58.0777 42.9999Z" fill="#484C57"/>
<path d="M58.0754 43H53.6767C53.3065 43 53.0234 42.7195 53.0234 42.3527V37.2393C53.0234 36.8725 53.3065 36.592 53.6767 36.592H58.0754C58.4456 36.592 58.7287 36.8725 58.7287 37.2393V42.3527C58.7287 42.6979 58.4456 43 58.0754 43ZM54.33 41.7054H57.4221V37.8866H54.33V41.7054Z" fill="#484C57"/>
<path d="M71.3382 37.865H50.6078C50.2376 37.865 49.9545 37.5845 49.9545 37.2178C49.9545 36.851 50.2376 36.5705 50.6078 36.5705H69.7922L65.5895 32.3201C65.4153 32.1259 65.3499 31.867 65.4588 31.6081C65.5677 31.3708 65.8072 31.2198 66.0685 31.2198H66.8742L62.2578 26.7752C62.0618 26.581 62.0183 26.3221 62.1054 26.0632C62.2142 25.8259 62.4538 25.6533 62.7151 25.6533H65.5895L61.1037 21.2519C60.9077 21.0577 60.8641 20.7988 60.9512 20.5399C61.0601 20.3026 61.2997 20.1299 61.561 20.1299H64.0869L59.9713 15.7501C59.7971 15.5559 59.7536 15.297 59.8625 15.0597C59.9713 14.8224 60.2109 14.6713 60.4504 14.6713H62.3449L55.8558 2.0281L48.844 14.7145H51.37C51.6313 14.7145 51.8708 14.8655 51.9797 15.1029C52.0886 15.3402 52.0232 15.6207 51.849 15.8148L47.0802 20.6909C46.8189 20.9498 46.4051 20.9498 46.1656 20.7125C45.9043 20.4536 45.9043 20.0436 46.1438 19.8063L49.8239 16.0306H47.7334C47.4939 16.0306 47.2979 15.9011 47.1673 15.707C47.0366 15.5128 47.0366 15.2755 47.1673 15.0597L55.3114 0.345208C55.4202 0.129453 55.638 0 55.8775 0C56.1171 0 56.3348 0.129453 56.4437 0.345208L63.9781 15.0166C64.0869 15.2107 64.0652 15.4481 63.9563 15.6422C63.8474 15.8364 63.6297 15.9443 63.3901 15.9443H61.9094L66.025 20.3673C66.1992 20.5615 66.2427 20.8204 66.1339 21.0577C66.025 21.295 65.7854 21.4461 65.5459 21.4461H63.1506L67.6364 25.8475C67.8324 26.0416 67.8759 26.3005 67.7888 26.5595C67.7017 26.8184 67.4404 26.9694 67.1791 26.9694H64.3265L68.9429 31.4139C69.1389 31.6081 69.1824 31.867 69.0953 32.1259C68.9865 32.3633 68.7469 32.5359 68.4856 32.5359H67.6146L71.8173 36.7862C71.9915 36.9804 72.0568 37.2393 71.9479 37.4982C71.8391 37.7571 71.5995 37.865 71.3382 37.865Z" fill="#484C57"/>
<path d="M8.9711 22.0933H2.80859V25.6964H8.9711V22.0933Z" fill="#B5B5B5"/>
<path d="M8.94883 25.8042H2.8081C2.74277 25.8042 2.69922 25.7611 2.69922 25.6963V22.0932C2.69922 22.0285 2.74277 21.9854 2.8081 21.9854H8.97061C9.03593 21.9854 9.07948 22.0285 9.07948 22.0932V25.6963C9.05771 25.7611 9.01416 25.8042 8.94883 25.8042ZM2.91698 25.5885H8.86173V22.2011H2.91698V25.5885Z" fill="#B5B5B5"/>
<path d="M8.9711 27.0559H2.80859V30.659H8.9711V27.0559Z" fill="#B5B5B5"/>
<path d="M8.94883 30.7451H2.8081C2.74277 30.7451 2.69922 30.702 2.69922 30.6373V27.0341C2.69922 26.9694 2.74277 26.9263 2.8081 26.9263H8.97061C9.03593 26.9263 9.07948 26.9694 9.07948 27.0341V30.6373C9.05771 30.702 9.01416 30.7451 8.94883 30.7451ZM2.91698 30.5294H8.86173V27.142H2.91698V30.5294Z" fill="#B5B5B5"/>
<path d="M8.9711 31.9104H2.80859V35.5135H8.9711V31.9104Z" fill="#B5B5B5"/>
<path d="M8.94883 35.6214H2.8081C2.74277 35.6214 2.69922 35.5782 2.69922 35.5135V31.9104C2.69922 31.8456 2.74277 31.8025 2.8081 31.8025H8.97061C9.03593 31.8025 9.07948 31.8456 9.07948 31.9104V35.5135C9.05771 35.5566 9.01416 35.6214 8.94883 35.6214ZM2.91698 35.4056H8.86173V32.0182H2.91698V35.4056Z" fill="#B5B5B5"/>
<path d="M8.9711 36.7432H2.80859V40.3463H8.9711V36.7432Z" fill="#B5B5B5"/>
<path d="M8.94883 40.4324H2.8081C2.74277 40.4324 2.69922 40.3892 2.69922 40.3245V36.7214C2.69922 36.6567 2.74277 36.6135 2.8081 36.6135H8.97061C9.03593 36.6135 9.07948 36.6567 9.07948 36.7214V40.3245C9.05771 40.3892 9.01416 40.4324 8.94883 40.4324ZM2.91698 40.2166H8.86173V36.8293H2.91698V40.2166Z" fill="#B5B5B5"/>
<path d="M16.5512 31.9104H10.3887V35.5135H16.5512V31.9104Z" fill="#B5B5B5"/>
<path d="M16.5507 35.6214H10.3882C10.3228 35.6214 10.2793 35.5782 10.2793 35.5135V31.9104C10.2793 31.8456 10.3228 31.8025 10.3882 31.8025H16.5507C16.616 31.8025 16.6596 31.8456 16.6596 31.9104V35.5135C16.6596 35.5566 16.616 35.6214 16.5507 35.6214ZM10.4971 35.4056H16.4418V32.0182H10.4971V35.4056Z" fill="#B5B5B5"/>
<path d="M16.5512 36.7432H10.3887V40.3463H16.5512V36.7432Z" fill="#B5B5B5"/>
<path d="M16.5507 40.4324H10.3882C10.3228 40.4324 10.2793 40.3892 10.2793 40.3245V36.7214C10.2793 36.6567 10.3228 36.6135 10.3882 36.6135H16.5507C16.616 36.6135 16.6596 36.6567 16.6596 36.7214V40.3245C16.6596 40.3892 16.616 40.4324 16.5507 40.4324ZM10.4971 40.2166H16.4418V36.8293H10.4971V40.2166Z" fill="#B5B5B5"/>
<path d="M24.0395 36.7432H17.877V40.3463H24.0395V36.7432Z" fill="#B5B5B5"/>
<path d="M24.039 40.4324H17.8765C17.8111 40.4324 17.7676 40.3892 17.7676 40.3245V36.7214C17.7676 36.6567 17.8111 36.6135 17.8765 36.6135H24.039C24.1043 36.6135 24.1478 36.6567 24.1478 36.7214V40.3245C24.1478 40.3892 24.0825 40.4324 24.039 40.4324ZM17.9853 40.2166H23.9301V36.8293H17.9853V40.2166Z" fill="#B5B5B5"/>
</svg>
