<svg width="50" height="50" viewBox="0 0 50 50" fill="none" xmlns="http://www.w3.org/2000/svg">
<path d="M49.2345 29.3127H46.8463L45.0704 5.40801C45.0398 5.0096 44.703 4.70312 44.305 4.70312H39.5591C39.161 4.70312 38.8242 5.0096 38.7936 5.40801L37.0178 29.3127H35.15V24.2559C35.15 23.9495 34.9663 23.7043 34.7214 23.5511C34.4764 23.3978 34.1396 23.4591 33.8947 23.643L26.6381 29.6192V24.2559C26.6381 23.9495 26.485 23.7043 26.2094 23.5511C25.9339 23.4285 25.6277 23.4591 25.4133 23.643L18.4629 29.1595V24.2559C18.4629 23.9495 18.3099 23.7043 18.0343 23.5817C17.7587 23.4591 17.4525 23.4898 17.2382 23.6736L10.1041 29.1901V24.2559C10.1041 23.9801 9.95101 23.7349 9.70606 23.5817C9.46111 23.4591 9.18555 23.4591 8.9406 23.5817L0.367422 28.5772C0.153092 28.7304 0 28.9756 0 29.2514V49.2333C0 49.6623 0.336803 49.9994 0.765462 49.9994H49.2345C49.6632 49.9994 50 49.6623 50 49.2333V30.0789C50 29.6498 49.6632 29.3127 49.2345 29.3127ZM40.2633 6.20483H43.6007L45.3154 29.282H38.5487L40.2633 6.20483ZM33.8334 48.4671H28.169V38.3536H33.8334V48.4671ZM48.4691 48.4671H35.395V37.5874C35.395 37.1583 35.0582 36.8212 34.6295 36.8212H27.4035C26.9749 36.8212 26.6381 37.1583 26.6381 37.5874V48.4671H1.53092V29.7111L8.57318 25.6044V30.7838C8.57318 31.0902 8.72627 31.3354 9.00184 31.458C9.2774 31.5806 9.58359 31.5499 9.79792 31.366L16.9014 25.8189V30.7225C16.9014 31.0289 17.0545 31.2741 17.3301 31.4273C17.6056 31.5499 17.9118 31.5193 18.1261 31.3354L25.1072 25.8496V31.2435C25.1072 31.5499 25.2909 31.7951 25.5358 31.9483C25.8114 32.0709 26.1176 32.0403 26.3625 31.8564L33.5885 25.9109V30.1095C33.5885 30.5386 33.9253 30.8757 34.3539 30.8757H48.4691V48.4671Z" fill="#484C57"/>
<path d="M9.67601 38.0479H6.00179C5.57313 38.0479 5.23633 38.385 5.23633 38.814V44.2079C5.23633 44.637 5.57313 44.9741 6.00179 44.9741H9.70663C10.1353 44.9741 10.4721 44.637 10.4721 44.2079V38.814C10.4415 38.385 10.1047 38.0479 9.67601 38.0479ZM8.91055 43.4417H6.73663V39.5802H8.91055V43.4417Z" fill="#484C57"/>
<path d="M16.2887 38.0479H12.5838C12.1552 38.0479 11.8184 38.385 11.8184 38.814V44.2079C11.8184 44.637 12.1552 44.9741 12.5838 44.9741H16.2887C16.7173 44.9741 17.0541 44.637 17.0541 44.2079V38.814C17.0541 38.385 16.7173 38.0479 16.2887 38.0479ZM15.5232 43.4417H13.3493V39.5802H15.5232V43.4417Z" fill="#484C57"/>
<path d="M23.0562 38.0479H19.3514C18.9227 38.0479 18.5859 38.385 18.5859 38.814V44.2079C18.5859 44.637 18.9227 44.9741 19.3514 44.9741H23.0562C23.4849 44.9741 23.8217 44.637 23.8217 44.2079V38.814C23.8217 38.385 23.4543 38.0479 23.0562 38.0479ZM22.2908 43.4417H20.1169V39.5802H22.2908V43.4417Z" fill="#484C57"/>
<path d="M28.078 1.54703H28.4454C28.5372 1.60832 28.7516 1.76156 29.119 2.06803C29.2415 2.19061 29.3639 2.3132 29.4864 2.43579C29.9151 2.86485 30.3743 3.3552 31.1398 3.38585C31.8134 3.38585 32.5176 2.98744 33.4362 2.06803C33.4362 2.06803 33.4668 2.03738 33.4974 2.00673C33.5893 1.91479 33.8649 1.66962 34.171 1.63897C34.416 1.63897 34.6916 1.76156 34.9671 2.03738C36.8349 3.90685 37.9065 3.14067 38.8251 2.22126C39.4374 1.60832 39.6518 1.39379 40.4478 2.22126C41.2745 3.04873 41.8563 3.38585 42.3768 3.38585H42.4074C42.683 3.38585 42.8973 3.26326 43.081 3.11003C43.3566 2.80356 43.3566 2.3132 43.0198 2.03738C42.8361 1.88414 42.6217 1.82285 42.3768 1.8535C42.2543 1.7922 41.9788 1.60832 41.5195 1.14862C39.6211 -0.7515 38.3045 0.566322 37.7228 1.14862C37.0492 1.82285 36.9573 1.91479 36.0082 0.964734C35.2427 0.198558 34.5385 0.0759695 34.0486 0.106617C33.0994 0.167911 32.487 0.811498 32.3033 0.995381C31.5072 1.7922 31.1704 1.8535 31.1092 1.8535C30.9867 1.8535 30.7418 1.60832 30.5581 1.39379C30.4356 1.24056 30.2825 1.11797 30.1294 0.964734C29.7007 0.566322 28.9659 -0.107913 28.3535 0.0146754H28.078C27.6493 0.0146754 27.3125 0.351793 27.3125 0.780851C27.3125 1.20991 27.6493 1.54703 28.078 1.54703Z" fill="#484C57"/>
</svg>
