<svg width="50" height="50" viewBox="0 0 50 50" fill="none" xmlns="http://www.w3.org/2000/svg">
<path d="M49.7689 2.70672L47.2701 0.208209C47.1213 0.0594884 46.9428 0 46.7346 0C46.5264 0 46.3479 0.0892326 46.1991 0.208209L39.6248 6.78168L39.5355 6.69245C39.1786 6.33552 38.6728 6.12731 38.1671 6.12731C37.6317 6.12731 37.1557 6.33552 36.7987 6.69245L36.0252 7.4658L35.341 6.78168C34.3593 5.80012 33.0207 5.23498 31.6225 5.23498C30.2243 5.23498 28.8857 5.77038 27.904 6.78168L21.7758 12.909C21.4784 13.2064 21.4784 13.6823 21.7758 13.95L36.055 28.2273C36.2037 28.376 36.3822 28.4355 36.5905 28.4355C36.7987 28.4355 36.9772 28.376 37.1259 28.2273L43.2541 22.0999C44.2358 21.1184 44.801 19.7799 44.801 18.3819C44.801 16.9839 44.2655 15.6455 43.2541 14.6639L42.5699 13.9798L43.3433 13.2064C43.7003 12.8495 43.9085 12.3438 43.9085 11.8382C43.9085 11.3325 43.7003 10.8269 43.3433 10.47L43.2541 10.3807L49.8284 3.80726C50.0664 3.48007 50.0664 3.00416 49.7689 2.70672ZM43.2838 18.3819C43.2838 19.3932 42.8971 20.345 42.1831 21.0589L36.5905 26.6508L23.3525 13.4146L28.9452 7.82273C29.6591 7.10886 30.6111 6.72219 31.6225 6.72219C32.6339 6.72219 33.5859 7.10886 34.2998 7.82273L35.5195 9.04224L40.9337 14.4557L42.1534 15.6752C42.8673 16.4188 43.2838 17.3706 43.2838 18.3819ZM37.0962 8.53659L37.8696 7.76324C38.0481 7.58477 38.3456 7.58477 38.5241 7.76324L42.2426 11.4515C42.3319 11.5408 42.3914 11.6597 42.3914 11.7787C42.3914 11.8977 42.3319 12.0167 42.2426 12.1059L41.4692 12.8792L40.1305 11.5408L37.0962 8.53659Z" fill="#484C57"/>
<path d="M33.6752 9.25081C33.1397 8.71541 32.396 8.41797 31.6226 8.41797C30.8491 8.41797 30.1351 8.71541 29.5699 9.25081L26.9223 11.898C26.6248 12.1955 26.6248 12.6714 26.9223 12.9391C27.2198 13.2365 27.6958 13.2365 27.9635 12.9391L30.6111 10.2919C30.8788 10.0242 31.2358 9.87544 31.5928 9.87544C31.9795 9.87544 32.3068 10.0242 32.5745 10.2919L35.3113 13.0283C35.4601 13.177 35.6386 13.2365 35.8468 13.2365C36.055 13.2365 36.2335 13.177 36.3823 13.0283C36.6797 12.7309 36.6797 12.255 36.3823 11.9873L33.6752 9.25081Z" fill="#484C57"/>
<path d="M14.3688 26.0258C14.0713 25.7284 13.5954 25.7284 13.3276 26.0258L8.80589 30.5469C8.65715 30.6957 8.59766 30.8741 8.59766 31.0823C8.59766 31.2905 8.6869 31.469 8.80589 31.6177L18.5931 41.4036C18.7418 41.5523 18.9203 41.6118 19.1285 41.6118C19.3368 41.6118 19.5153 41.5523 19.664 41.4036L24.1857 36.8825C24.3345 36.7337 24.394 36.5553 24.394 36.3471C24.394 36.1388 24.3047 35.9604 24.1857 35.8117L14.3688 26.0258ZM19.1285 39.7974L10.4123 31.0823L13.8631 27.632L22.5793 36.3471L19.1285 39.7974Z" fill="#484C57"/>
<path d="M13.8325 32.0942L18.1757 36.4369C18.3245 36.5856 18.503 36.6451 18.7112 36.6451C18.9194 36.6451 19.0979 36.5856 19.2467 36.4369C19.5441 36.1394 19.5441 35.6635 19.2467 35.3958L14.8737 31.0532C14.5762 30.7557 14.1002 30.7557 13.8325 31.0532C13.535 31.3209 13.535 31.7968 13.8325 32.0942Z" fill="#484C57"/>
<path d="M30.4027 24.9252C29.778 24.9252 29.183 25.1632 28.7368 25.6093L23.2631 31.0823L19.0984 26.9181L24.572 21.4452C25.0183 20.999 25.2562 20.4041 25.2562 19.7795C25.2562 19.1549 25.0183 18.56 24.572 18.1138C24.1258 17.6676 23.5308 17.4297 22.9061 17.4297C22.2814 17.4297 21.6865 17.6676 21.2402 18.1138L15.7666 23.5867L13.9519 21.7723C13.6544 21.4749 13.1785 21.4749 12.9107 21.7723L6.78259 27.8996C4.72997 29.952 4.72997 33.3131 6.78259 35.3654L7.4668 36.0496L6.69335 36.8229C5.9199 37.5963 5.9199 38.8158 6.69335 39.5891L6.78259 39.6783L0.208238 46.2221C0.0594964 46.3708 0 46.5493 0 46.7575C0 46.9657 0.0892447 47.1441 0.208238 47.2929L2.70709 49.7914C2.85583 49.9401 3.03432 49.9996 3.24256 49.9996C3.45079 49.9996 3.62928 49.9401 3.77802 49.7914L10.3524 43.2179L10.4416 43.3071C10.7986 43.6641 11.3043 43.8723 11.81 43.8723C12.3455 43.8723 12.8215 43.6641 13.1785 43.3071L13.9519 42.5338L14.6361 43.2179C15.6773 44.259 17.016 44.7646 18.3547 44.7646C19.6933 44.7646 21.0617 44.259 22.0732 43.2179L28.2013 37.0906C28.4988 36.7932 28.4988 36.3173 28.2013 36.0496L26.5652 34.4136L32.0388 28.9407C32.4851 28.4945 32.723 27.8996 32.723 27.275C32.723 26.6504 32.4851 26.0555 32.0388 25.6093C31.6224 25.1929 31.0274 24.9252 30.4027 24.9252ZM22.2814 19.1846C22.6087 18.8574 23.1739 18.8574 23.5011 19.1846C23.6498 19.3333 23.7391 19.5713 23.7391 19.8092C23.7391 20.0472 23.6498 20.2256 23.5011 20.4041L18.0274 25.8473L16.8077 24.6278L22.2814 19.1846ZM3.24256 48.1852L1.78489 46.7575L7.82378 40.7194L9.28145 42.1769L3.24256 48.1852ZM12.1373 42.2364C11.9588 42.4148 11.6613 42.4148 11.4828 42.2364L10.8878 41.6415L8.389 39.143L7.79403 38.5481C7.61555 38.3696 7.61555 38.0722 7.79403 37.8937L8.56749 37.1203L12.9405 41.4927L12.1373 42.2364ZM21.0617 42.1471C19.5743 43.6343 17.1945 43.6343 15.7071 42.1471L14.4874 40.9276L9.07321 35.5142L7.85353 34.2947C6.36612 32.8074 6.36612 30.4279 7.85353 28.9407L13.4462 23.3488L15.2608 25.1632L17.5217 27.4237L22.7574 32.6587L25.0183 34.9193L26.6544 36.5552L21.0617 42.1471ZM30.9976 27.8996L25.524 33.3726L24.3043 32.1531L29.778 26.6801C30.1052 26.3529 30.6704 26.3529 30.9976 26.6801C31.1464 26.8289 31.2356 27.0668 31.2356 27.3048C31.2654 27.513 31.1761 27.7212 30.9976 27.8996Z" fill="#484C57"/>
</svg>
