<svg width="56" height="50" viewBox="0 0 56 50" fill="none" xmlns="http://www.w3.org/2000/svg">
<path d="M18.7209 36.516L7.10778 48.0876L1.96806 42.9663L20.8029 24.1989L21.7462 25.1389C21.9089 25.3009 22.1041 25.3658 22.3318 25.3658C22.5595 25.3658 22.7547 25.2685 22.9173 25.1389L32.6437 15.4472C32.8064 15.2852 32.8715 15.0907 32.8715 14.8638C32.8715 14.6369 32.7739 14.4424 32.6437 14.2803L31.863 13.5024L38.5317 6.85766L43.3461 2.06047L49.0063 7.70041L50.2749 10.8121C50.4376 11.2335 50.9255 11.428 51.3159 11.2659C51.7388 11.1038 51.934 10.6176 51.7713 10.1962L50.4701 6.92249C50.4376 6.82525 50.3725 6.72801 50.2749 6.66318L43.8991 0.374964C43.6063 0.0832429 43.0533 0.0832429 42.7605 0.374964L41.5895 1.54185C36.2871 -1.40778 32.8389 0.763926 32.6763 0.861166C32.4811 0.99082 32.351 1.21771 32.3184 1.44461C32.2859 1.6715 32.3835 1.93081 32.5462 2.09288L36.775 6.30663L30.692 12.368L22.8848 4.58872C22.6245 4.32941 22.2342 4.26458 21.9089 4.45906C21.5836 4.65354 21.4209 5.01009 21.5185 5.36664L24.186 15.901L18.9161 21.1844C18.5908 21.5086 18.5908 22.0272 18.9161 22.3189L19.6643 23.0644L0.243974 42.3828C-0.0813247 42.707 -0.0813247 43.2256 0.243974 43.5173L6.52224 49.7731C6.68489 49.9352 6.88007 50 7.10778 50C7.33549 50 7.53067 49.9028 7.69332 49.7731L19.8595 37.6505C20.1848 37.3263 20.1848 36.8077 19.8595 36.516C19.5667 36.1919 19.0462 36.1919 18.7209 36.516ZM34.563 1.80116C35.669 1.50944 37.6859 1.34737 40.3859 2.74115L37.9461 5.17216L34.563 1.80116ZM25.6823 16.7114C25.8775 16.5169 25.9751 16.2252 25.9101 15.9334L23.8281 7.83006L30.9197 14.8638L22.3318 23.4209L21.3884 22.481L20.6402 21.7354L25.6823 16.7114Z" fill="#484C57"/>
<path d="M55.967 23.6799L52.8441 13.4372C52.714 13.0158 52.2586 12.7565 51.8357 12.8862C51.4128 13.0158 51.1525 13.4696 51.2827 13.891L53.4622 21.022L44.549 12.1407C44.2562 11.8489 43.7032 11.8489 43.4104 12.1407L36.9695 18.5585L36.0261 17.6185C35.7008 17.2944 35.1804 17.2944 34.8876 17.6185L25.1286 27.3426C24.966 27.5047 24.9009 27.6991 24.9009 27.926C24.9009 28.1529 24.9985 28.3474 25.1286 28.5095L26.0395 29.417L21.16 34.2467C20.8347 34.5708 20.8347 35.0894 21.16 35.3811C21.3226 35.5432 21.5178 35.608 21.7455 35.608C21.9732 35.608 22.1684 35.5432 22.3311 35.3811L27.178 30.5515L27.9587 31.3294C28.1214 31.4915 28.3166 31.5563 28.5443 31.5563C28.772 31.5563 28.9672 31.4915 29.1298 31.3294L34.4322 26.046L45.0044 28.704C45.3622 28.8012 45.7201 28.6391 45.9152 28.315C46.1104 27.9909 46.0454 27.6019 45.7851 27.3426L38.1406 19.7254L44.0285 13.8586L54.6658 24.4578C54.8284 24.6199 55.0236 24.6847 55.2513 24.6847C55.3814 24.6847 55.5441 24.6523 55.6742 24.555C55.9344 24.4254 56.0646 24.0364 55.967 23.6799ZM34.3671 24.3605C34.0744 24.2957 33.7816 24.3605 33.5864 24.5874L28.5117 29.6115L26.8202 27.926L35.4081 19.3689L42.4671 26.4026L34.3671 24.3605Z" fill="#484C57"/>
<path d="M41.8503 11.2338C42.0455 11.2338 42.2732 11.169 42.4359 11.007C42.7612 10.6828 42.7612 10.1642 42.4359 9.87248L40.4841 7.92767C40.1588 7.60354 39.6383 7.60354 39.3455 7.92767C39.0202 8.25181 39.0202 8.77042 39.3455 9.06214L41.2973 11.007C41.4274 11.169 41.6552 11.2338 41.8503 11.2338Z" fill="#484C57"/>
<path d="M39.3132 13.7622C39.5084 13.7622 39.7361 13.6973 39.8988 13.5353C40.2241 13.2111 40.2241 12.6925 39.8988 12.4008L37.947 10.456C37.6217 10.1319 37.1012 10.1319 36.8084 10.456C36.4831 10.7801 36.4831 11.2987 36.8084 11.5905L38.7602 13.5353C38.8903 13.6973 39.1181 13.7622 39.3132 13.7622Z" fill="#484C57"/>
<path d="M34.2049 12.9834C33.8796 13.3076 33.8796 13.8262 34.2049 14.1179L36.1567 16.0627C36.3194 16.2248 36.5145 16.2896 36.7422 16.2896C36.97 16.2896 37.1651 16.2248 37.3278 16.0627C37.6531 15.7386 37.6531 15.22 37.3278 14.9282L35.376 12.9834C35.0182 12.6917 34.5302 12.6917 34.2049 12.9834Z" fill="#484C57"/>
<path d="M20.4451 26.9218C20.1198 27.2459 20.1198 27.7646 20.4451 28.0563L22.3969 30.0011C22.5596 30.1632 22.7548 30.228 22.9825 30.228C23.2102 30.228 23.4054 30.1632 23.568 30.0011C23.8933 29.677 23.8933 29.1583 23.568 28.8666L21.6162 26.9218C21.2584 26.5977 20.7379 26.5977 20.4451 26.9218Z" fill="#484C57"/>
<path d="M21.0296 31.3627L19.0778 29.4179C18.7525 29.0938 18.2321 29.0938 17.9393 29.4179C17.614 29.742 17.614 30.2607 17.9393 30.5524L19.8911 32.4972C20.0537 32.6593 20.2489 32.7241 20.4766 32.7241C20.7043 32.7241 20.8995 32.6593 21.0622 32.4972C21.3549 32.2055 21.3549 31.6868 21.0296 31.3627Z" fill="#484C57"/>
<path d="M17.907 35.2846C18.1022 35.2846 18.3299 35.2198 18.4925 35.0577C18.8178 34.7336 18.8178 34.215 18.4925 33.9233L16.5407 31.9785C16.2154 31.6543 15.6949 31.6543 15.4022 31.9785C15.0769 32.3026 15.0769 32.8212 15.4022 33.1129L17.354 35.0577C17.4841 35.2198 17.7118 35.2846 17.907 35.2846Z" fill="#484C57"/>
<path d="M15.4031 37.7797C15.5983 37.7797 15.826 37.7149 15.9886 37.5529C16.3139 37.2287 16.3139 36.7101 15.9886 36.4184L14.0368 34.4736C13.7115 34.1494 13.191 34.1494 12.8983 34.4736C12.573 34.7977 12.573 35.3163 12.8983 35.608L14.8501 37.5529C14.9802 37.7149 15.2079 37.7797 15.4031 37.7797Z" fill="#484C57"/>
<path d="M12.866 40.3081C13.0611 40.3081 13.2889 40.2432 13.4515 40.0812C13.7768 39.757 13.7768 39.2384 13.4515 38.9467L11.4997 37.0019C11.1744 36.6778 10.6539 36.6778 10.3612 37.0019C10.0359 37.326 10.0359 37.8446 10.3612 38.1364L12.313 40.0812C12.4431 40.2432 12.6708 40.3081 12.866 40.3081Z" fill="#484C57"/>
<path d="M10.3289 42.8686C10.524 42.8686 10.7517 42.8038 10.9144 42.6417C11.2397 42.3176 11.2397 41.799 10.9144 41.5072L8.9626 39.5624C8.6373 39.2383 8.11682 39.2383 7.82405 39.5624C7.49875 39.8866 7.49875 40.4052 7.82405 40.6969L9.77585 42.6417C9.90596 42.7714 10.1011 42.8686 10.3289 42.8686Z" fill="#484C57"/>
<path d="M5.28499 42.0263C4.95969 42.3504 4.95969 42.8691 5.28499 43.1608L7.23678 45.1056C7.39943 45.2677 7.59461 45.3325 7.82232 45.3325C8.05003 45.3325 8.24521 45.2677 8.40786 45.1056C8.73316 44.7814 8.73316 44.2628 8.40786 43.9711L6.45607 42.0263C6.09824 41.7022 5.57776 41.7022 5.28499 42.0263Z" fill="#484C57"/>
</svg>
