<svg width="49" height="50" viewBox="0 0 49 50" fill="none" xmlns="http://www.w3.org/2000/svg">
<path d="M48.3823 27.5547H0.617751C0.27181 27.5547 0 27.8236 0 28.1659V49.3884C0 49.7307 0.27181 49.9997 0.617751 49.9997H6.62229H42.2295H48.3823C48.7282 49.9997 49 49.7307 49 49.3884V28.1659C49 27.8236 48.7035 27.5547 48.3823 27.5547ZM29.9239 34.6941V48.7527H18.5572V34.6941H29.9239ZM17.3217 48.7527H7.24004V34.6941H17.3464V48.7527H17.3217ZM31.1594 48.7527V34.6941H41.587V48.7527H31.1594ZM47.7645 48.7527H42.8472V34.0828C42.8472 33.7405 42.5754 33.4716 42.2295 33.4716H6.62229C6.27635 33.4716 6.00454 33.7405 6.00454 34.0828V48.7527H1.2355V28.7527H47.7645V48.7527Z" fill="#484C57"/>
<path d="M14.332 26.7237H16.9513L23.8701 19.8778H25.6245L32.6669 26.846H35.4097L27.4283 18.9487C28.6144 18.1418 29.3804 16.7971 29.3804 15.2812C29.3804 13.154 27.8731 11.3692 25.8469 10.9291V7.60391H27.6754C28.1944 7.60391 28.6144 7.21272 28.6639 6.69927L29.1581 1.05134C29.1828 0.782396 29.0839 0.513448 28.911 0.317848C28.7133 0.122249 28.4415 0 28.1697 0H21.0037C20.7319 0 20.4601 0.122249 20.2871 0.317848C20.0895 0.513448 20.0153 0.782396 20.04 1.05134L20.5342 6.69927C20.5837 7.21272 21.0037 7.60391 21.5227 7.60391H23.8948V11.7848C23.8948 12.3227 24.3396 12.7628 24.8832 12.7628C26.2917 12.7628 27.4283 13.8875 27.4283 15.2812C27.4283 16.6748 26.2917 17.7995 24.8832 17.7995C23.7713 17.7995 22.8076 17.0905 22.4616 16.0391C22.2887 15.5257 21.745 15.2323 21.2261 15.4034C20.7072 15.5746 20.4107 16.1125 20.5837 16.6259C20.8555 17.4817 21.3991 18.2152 22.0663 18.7531H21.9427L14.332 26.7237ZM22.091 1.95599H27.1071L26.7859 5.64792H22.4122L22.091 1.95599Z" fill="#484C57"/>
</svg>
