<svg width="68" height="46" viewBox="0 0 68 46" fill="none" xmlns="http://www.w3.org/2000/svg">
<g clip-path="url(#clip0)">
<path d="M67.8306 40.3534L63.6664 36.1605H64.557C64.7977 36.1605 65.0143 36.0151 65.1106 35.797C65.2069 35.5789 65.1588 35.3123 64.9903 35.1426L60.826 30.9498H63.4016C63.6423 30.9498 63.8589 30.8044 63.9552 30.5862C64.0515 30.3681 64.0034 30.1015 63.8349 29.9319L59.5743 25.6421H62.1018C62.3425 25.6421 62.5591 25.4967 62.6554 25.2785C62.7517 25.0604 62.7035 24.7938 62.535 24.6242L58.3708 20.3586H59.9354C60.152 20.3586 60.3446 20.2374 60.4409 20.0678C60.5372 19.8981 60.5612 19.6558 60.4649 19.4619L53.6048 6.37443L54.4713 6.83492C54.5917 6.90763 54.7361 6.88339 54.8564 6.81068C54.9768 6.73797 55.0249 6.59256 55.0009 6.44714L54.6639 4.41131L56.1322 2.98139C56.2285 2.88444 56.2766 2.73903 56.2285 2.61785C56.1803 2.49667 56.0841 2.39972 55.9396 2.37549L53.9177 2.08466L53.003 0.242716C52.9308 0.121536 52.8104 0.0488281 52.6901 0.0488281C52.5697 0.0488281 52.4253 0.121536 52.3772 0.242716L51.4625 2.08466L49.4405 2.37549C49.2961 2.39972 49.1998 2.49667 49.1517 2.61785C49.1035 2.73903 49.1517 2.88444 49.248 2.98139L50.7163 4.41131L50.3793 6.44714C50.3552 6.59256 50.4033 6.71374 50.5237 6.81068C50.5959 6.85915 50.6681 6.88339 50.7403 6.88339C50.7885 6.88339 50.8607 6.85915 50.9088 6.83492L51.6791 6.42291L44.6264 19.4861C44.5301 19.68 44.5301 19.8981 44.6264 20.092C44.7467 20.2859 44.9393 20.3829 45.1318 20.3829H47.2019L43.808 23.7517H1.1545C0.817513 23.7517 0.552734 24.0183 0.552734 24.3576V45.3945C0.552734 45.7338 0.817513 46.0004 1.1545 46.0004H6.97964H41.6657H47.6593H54.8805C55.2175 46.0004 55.4823 45.7338 55.4823 45.3945V41.3713H67.3973C67.638 41.3713 67.8547 41.2259 67.951 41.0077C68.0472 40.7896 67.9991 40.523 67.8306 40.3534ZM51.294 4.02354L50.2108 2.95715L51.7032 2.73903C51.8235 2.71479 51.9198 2.64208 51.9679 2.54514L52.6419 1.18792L53.3159 2.54514C53.3641 2.64208 53.4603 2.71479 53.5807 2.73903L55.0731 2.95715L53.9899 4.02354C53.8936 4.09625 53.8695 4.21743 53.8936 4.33861L54.1584 5.84124L52.8104 5.1384C52.7141 5.08992 52.5697 5.08992 52.4734 5.1384L51.1255 5.84124L51.3903 4.33861C51.4384 4.24166 51.3903 4.12048 51.294 4.02354ZM1.75627 24.9635H47.0816V44.7886H42.2915V30.2469C42.2915 29.9076 42.0267 29.641 41.6897 29.641H6.97964C6.64265 29.641 6.37787 29.9076 6.37787 30.2469V44.7886H1.75627V24.9635ZM29.7025 30.8528V44.7886H18.6299V30.8528H29.7025ZM7.58141 30.8528H17.4264V44.7886H7.58141V30.8528ZM30.906 44.7886V30.8528H41.0639V44.7886H30.906ZM48.261 44.7886V41.3713H50.1867V44.7886H48.261ZM54.2787 44.7886H51.4143V41.3713H54.2787V44.7886ZM54.8805 40.1595H50.8126H48.2851V24.3576C48.2851 24.0183 48.0203 23.7517 47.6833 23.7517H45.517L49.0554 20.189C49.2239 20.0193 49.272 19.7527 49.1757 19.5346C49.0795 19.3165 48.8628 19.1711 48.6221 19.1711H46.1188L52.6419 7.10151L58.9244 19.1468H56.9025C56.6618 19.1468 56.4451 19.2922 56.3488 19.5104C56.2526 19.7285 56.3007 19.9951 56.4692 20.1647L60.6334 24.3576H58.0579C57.8172 24.3576 57.6005 24.503 57.5042 24.7211C57.408 24.9392 57.4561 25.2058 57.6246 25.3755L61.8851 29.6653H59.3095C59.0688 29.6653 58.8522 29.8107 58.7559 30.0288C58.6596 30.2469 58.7078 30.5135 58.8763 30.6832L63.0405 34.876H62.1499C61.9092 34.876 61.6926 35.0214 61.5963 35.2396C61.5 35.4577 61.5481 35.7243 61.7166 35.8939L65.8809 40.0868H54.8805V40.1595Z" fill="#484C57"/>
<path d="M55.5554 14.9779C55.5554 14.275 54.9777 13.6934 54.2797 13.6934C53.5816 13.6934 53.0039 14.275 53.0039 14.9779C53.0039 15.6807 53.5816 16.2624 54.2797 16.2624C54.9777 16.2624 55.5554 15.705 55.5554 14.9779ZM54.2556 15.9231C53.7501 15.9231 53.3409 15.5111 53.3409 15.0021C53.3409 14.4932 53.7501 14.0811 54.2556 14.0811C54.7611 14.0811 55.1703 14.4932 55.1703 15.0021C55.1703 15.5111 54.7851 15.9231 54.2556 15.9231Z" fill="#484C57"/>
<path d="M50.766 19.6803C51.464 19.6803 52.0417 19.0987 52.0417 18.3958C52.0417 17.693 51.464 17.1113 50.766 17.1113C50.0679 17.1113 49.4902 17.693 49.4902 18.3958C49.4902 19.0987 50.0679 19.6803 50.766 19.6803ZM50.766 17.4506C51.2715 17.4506 51.6807 17.8626 51.6807 18.3716C51.6807 18.8806 51.2715 19.2926 50.766 19.2926C50.2605 19.2926 49.8513 18.8806 49.8513 18.3716C49.8513 17.8626 50.2605 17.4506 50.766 17.4506Z" fill="#484C57"/>
<path d="M55.002 23.4369C55.002 24.1397 55.5797 24.7214 56.2777 24.7214C56.9758 24.7214 57.5535 24.1397 57.5535 23.4369C57.5535 22.734 56.9758 22.1523 56.2777 22.1523C55.5797 22.1523 55.002 22.734 55.002 23.4369ZM56.2777 22.5159C56.7832 22.5159 57.1924 22.9279 57.1924 23.4369C57.1924 23.9458 56.7832 24.3578 56.2777 24.3578C55.7722 24.3578 55.363 23.9458 55.363 23.4369C55.363 22.9279 55.7722 22.5159 56.2777 22.5159Z" fill="#484C57"/>
<path d="M51.1508 26.0059C50.4527 26.0059 49.875 26.5875 49.875 27.2904C49.875 27.9932 50.4527 28.5749 51.1508 28.5749C51.8488 28.5749 52.4265 27.9932 52.4265 27.2904C52.4265 26.5875 51.8729 26.0059 51.1508 26.0059ZM51.1508 28.2356C50.6453 28.2356 50.2361 27.8236 50.2361 27.3146C50.2361 26.8056 50.6453 26.3936 51.1508 26.3936C51.6562 26.3936 52.0654 26.8056 52.0654 27.3146C52.0654 27.8236 51.6803 28.2356 51.1508 28.2356Z" fill="#484C57"/>
<path d="M56.1566 29.7383C55.4586 29.7383 54.8809 30.3199 54.8809 31.0228C54.8809 31.7256 55.4586 32.3073 56.1566 32.3073C56.8547 32.3073 57.4324 31.7256 57.4324 31.0228C57.4324 30.3199 56.8547 29.7383 56.1566 29.7383ZM56.1566 31.968C55.6511 31.968 55.2419 31.556 55.2419 31.047C55.2419 30.5381 55.6511 30.1261 56.1566 30.1261C56.6621 30.1261 57.0713 30.5381 57.0713 31.047C57.0713 31.556 56.6621 31.968 56.1566 31.968Z" fill="#484C57"/>
<path d="M50.5961 35.4092C49.898 35.4092 49.3203 35.9908 49.3203 36.6937C49.3203 37.3965 49.898 37.9782 50.5961 37.9782C51.2941 37.9782 51.8718 37.3965 51.8718 36.6937C51.8718 35.9908 51.3182 35.4092 50.5961 35.4092ZM50.5961 37.6389C50.0906 37.6389 49.6814 37.2269 49.6814 36.7179C49.6814 36.209 50.0906 35.797 50.5961 35.797C51.1016 35.797 51.5108 36.209 51.5108 36.7179C51.5108 37.2269 51.1016 37.6389 50.5961 37.6389Z" fill="#484C57"/>
<path d="M2.35884 15.5353L1.94964 17.353C1.9015 17.5469 2.02185 17.7408 2.21442 17.7893C2.23849 17.7893 2.26256 17.7893 2.28663 17.7893C2.45513 17.7893 2.59955 17.6681 2.64769 17.4985L3.20132 15.0506L3.89937 14.6628L5.24734 15.4384V16.2867L3.39389 17.959C3.24946 18.1044 3.22539 18.3225 3.36982 18.4679C3.44203 18.5406 3.53831 18.5891 3.6346 18.5891C3.73088 18.5891 3.80309 18.5649 3.8753 18.4921L5.24734 17.2561V19.2677C5.24734 19.4616 5.41583 19.6312 5.6084 19.6312C5.80097 19.6312 5.96946 19.4616 5.96946 19.2677V17.2561L7.36557 18.5164C7.43778 18.5891 7.50999 18.6133 7.60628 18.6133C7.70256 18.6133 7.79884 18.5649 7.87106 18.4921C8.01548 18.3467 7.99141 18.1044 7.84698 17.9832L5.96946 16.2867V15.4384L7.31743 14.6628L8.01548 15.0506L8.56911 17.4985C8.61725 17.6681 8.76167 17.7893 8.93017 17.7893C8.95424 17.7893 8.97831 17.7893 9.00238 17.7893C9.19495 17.7408 9.3153 17.5469 9.26716 17.353L8.85796 15.5353L10.5911 16.529C10.6392 16.5533 10.7114 16.5775 10.7596 16.5775C10.8799 16.5775 11.0003 16.5048 11.0725 16.3836C11.1688 16.214 11.0965 15.9958 10.928 15.8989L9.19495 14.9052L10.9521 14.2993C11.1447 14.2266 11.241 14.0327 11.1688 13.8388C11.0965 13.6449 10.904 13.548 10.7114 13.6207L8.3284 14.4447L7.60628 14.0327V12.6028L8.30433 12.215L10.6633 13.0633C10.7114 13.0875 10.7355 13.0875 10.7836 13.0875C10.928 13.0875 11.0725 12.9906 11.1206 12.8451C11.1928 12.6513 11.0965 12.4574 10.904 12.3847L9.14681 11.7545L10.904 10.8093C11.0725 10.7124 11.1447 10.4943 11.0484 10.3246C10.9521 10.1549 10.7355 10.0822 10.567 10.1792L8.80982 11.1486L9.24309 9.33092C9.29123 9.13703 9.17088 8.94315 8.97831 8.89467C8.78574 8.8462 8.59318 8.96738 8.54504 9.16127L7.96734 11.6091L7.24521 11.9969L5.96946 11.2456V10.3973L7.82291 8.72502C7.96734 8.5796 7.99141 8.36148 7.84698 8.21606C7.70256 8.07065 7.48592 8.04641 7.3415 8.19183L5.96946 9.42787V7.41627C5.96946 7.22239 5.80097 7.05273 5.6084 7.05273C5.41583 7.05273 5.24734 7.22239 5.24734 7.41627V9.42787L3.85123 8.16759C3.70681 8.02218 3.4661 8.04641 3.34575 8.19183C3.20132 8.33724 3.22539 8.5796 3.36982 8.70079L5.24734 10.3973V11.2456L3.94752 11.9969L3.20132 11.5849L2.64769 9.1128C2.59955 8.91891 2.40698 8.79773 2.21442 8.8462C2.02185 8.89467 1.9015 9.08856 1.94964 9.28245L2.38291 11.1002L0.625746 10.1307C0.45725 10.0338 0.240613 10.1065 0.14433 10.2761C0.0480465 10.4458 0.120259 10.6639 0.288754 10.7608L2.04592 11.7061L0.288754 12.3604C0.096188 12.4331 -9.51442e-05 12.627 0.0721172 12.8209C0.120259 12.9663 0.264684 13.0633 0.409108 13.0633C0.45725 13.0633 0.481321 13.0633 0.529462 13.039L2.8884 12.1908L3.61052 12.6028V13.9842L2.84026 14.4205L0.481321 13.6207C0.288754 13.548 0.096188 13.6692 0.0239757 13.8388C-0.0482367 14.0327 0.0480465 14.2266 0.240613 14.2993L1.99778 14.9052L0.264684 15.8989C0.096188 15.9958 0.0239756 16.214 0.120259 16.3836C0.192471 16.5048 0.312825 16.5775 0.433179 16.5775C0.481321 16.5775 0.553533 16.5533 0.601675 16.529L2.35884 15.5353ZM4.33265 12.5786L5.6084 11.8272L6.88415 12.5786V14.0812L5.6084 14.8325L4.33265 14.0812V12.5786Z" fill="#484C57"/>
</g>
<defs>
<clipPath id="clip0">
<rect width="68" height="46" fill="white"/>
</clipPath>
</defs>
</svg>
