<svg width="76" height="41" viewBox="0 0 76 41" fill="none" xmlns="http://www.w3.org/2000/svg">
<path d="M75.82 34.3443L71.6743 30.2467H72.5609C72.8005 30.2467 73.0162 30.1046 73.1121 29.8914C73.2079 29.6782 73.16 29.4177 72.9923 29.2519L68.8466 25.1542H71.4107C71.6503 25.1542 71.866 25.0121 71.9618 24.799C72.0577 24.5858 72.0097 24.3252 71.842 24.1594L67.5765 19.9197H70.1406C70.3802 19.9197 70.5959 19.7776 70.6917 19.5644C70.7876 19.3512 70.7397 19.0907 70.5719 18.9249L66.4262 14.8273H67.9839C68.1995 14.8273 68.3912 14.7088 68.4871 14.543C68.583 14.3772 68.6069 14.1404 68.5111 13.9509L61.2261 0.307914C61.1063 0.118429 60.9146 0 60.6989 0C60.4833 0 60.2676 0.118429 60.1717 0.307914L52.6712 13.9509C52.5753 14.1404 52.5753 14.3536 52.6712 14.543C52.791 14.7325 52.9827 14.8273 53.1744 14.8273H55.2353L51.9043 18.1196H9.44089C9.1054 18.1196 8.8418 18.3801 8.8418 18.7117V39.2709C8.8418 39.6025 9.1054 39.8631 9.44089 39.8631H15.264H49.7955H55.7624H62.9276C63.2631 39.8631 63.5266 39.6025 63.5266 39.2709V35.3391H75.3886C75.6282 35.3391 75.8439 35.197 75.9398 34.9838C76.0596 34.7706 75.9877 34.5101 75.82 34.3443ZM25.6403 38.6788H15.8631V25.0595H25.6403V38.6788ZM37.8856 38.6788H26.8624V25.0595H37.8856V38.6788ZM49.1964 38.6788H39.0838V25.0595H49.1964V38.6788ZM55.1634 38.6788H50.3946V24.4674C50.3946 24.1358 50.131 23.8752 49.7955 23.8752H15.264C14.9285 23.8752 14.6649 24.1358 14.6649 24.4674V38.6788H10.04V19.3039H55.1634V38.6788ZM58.2786 38.6788H56.3615V35.3391H58.2786V38.6788ZM62.3285 38.6788H59.4768V35.3391H62.3285V38.6788ZM62.9276 34.1785H58.8777H56.3615V18.7117C56.3615 18.3801 56.0979 18.1196 55.7624 18.1196H53.6057L57.1284 14.6378C57.2961 14.472 57.344 14.2114 57.2482 13.9983C57.1523 13.7851 56.9367 13.643 56.697 13.643H54.2048L60.6989 1.84749L66.9774 13.6193H64.9645C64.7248 13.6193 64.5091 13.7614 64.4133 13.9746C64.3174 14.1877 64.3654 14.4483 64.5331 14.6141L68.6788 18.7117H66.1387C65.899 18.7117 65.6834 18.8538 65.5875 19.067C65.4917 19.2802 65.5396 19.5407 65.7073 19.7065L69.9489 23.8989H67.3848C67.1451 23.8989 66.9295 24.041 66.8336 24.2542C66.7378 24.4674 66.7857 24.7279 66.9534 24.8937L71.0991 28.9913H70.2125C69.9728 28.9913 69.7572 29.1334 69.6613 29.3466C69.5655 29.5598 69.6134 29.8203 69.7811 29.9861L73.9268 34.0838H62.9276V34.1785Z" fill="#484C57"/>
<path d="M6.99642 11.4162C8.81766 11.4162 10.3034 9.94765 10.3034 8.14754C10.3034 6.34742 8.81766 4.87891 6.99642 4.87891C5.17519 4.87891 3.68945 6.34742 3.68945 8.14754C3.68945 9.94765 5.17519 11.4162 6.99642 11.4162ZM6.99642 5.58948C8.43424 5.58948 9.60845 6.75008 9.60845 8.17122C9.60845 9.59237 8.43424 10.753 6.99642 10.753C5.55861 10.753 4.3844 9.59237 4.3844 8.17122C4.3844 6.72639 5.55861 5.58948 6.99642 5.58948Z" fill="#484C57"/>
<path d="M6.80477 4.0737C6.99647 4.0737 7.16422 3.9079 7.16422 3.71841V1.77618C7.16422 1.5867 6.99647 1.4209 6.80477 1.4209C6.61306 1.4209 6.44531 1.5867 6.44531 1.77618V3.7421C6.44531 3.93159 6.61306 4.0737 6.80477 4.0737Z" fill="#484C57"/>
<path d="M6.44531 12.577V14.5429C6.44531 14.7324 6.61306 14.8982 6.80477 14.8982C6.99647 14.8982 7.16422 14.7324 7.16422 14.5429V12.577C7.16422 12.3875 6.99647 12.2217 6.80477 12.2217C6.61306 12.2217 6.44531 12.3875 6.44531 12.577Z" fill="#484C57"/>
<path d="M9.96909 5.37719C10.0649 5.37719 10.1608 5.3535 10.2087 5.28245L11.5986 3.90867C11.7424 3.76656 11.7424 3.55339 11.5986 3.41127C11.4548 3.26916 11.2392 3.26916 11.0954 3.41127L9.70549 4.78505C9.56171 4.92716 9.56171 5.14033 9.70549 5.28245C9.77738 5.3535 9.87324 5.37719 9.96909 5.37719Z" fill="#484C57"/>
<path d="M3.40202 11.0382L2.01213 12.412C1.86835 12.5541 1.86835 12.7673 2.01213 12.9094C2.08402 12.9805 2.17988 13.0041 2.25177 13.0041C2.34762 13.0041 2.44348 12.9805 2.4914 12.9094L3.88129 11.5356C4.02507 11.3935 4.02507 11.1803 3.88129 11.0382C3.76147 10.8961 3.52184 10.8961 3.40202 11.0382Z" fill="#484C57"/>
<path d="M10.9277 8.14825C10.9277 8.33774 11.0955 8.50354 11.2872 8.50354H13.2762C13.4679 8.50354 13.6356 8.33774 13.6356 8.14825C13.6356 7.95877 13.4679 7.79297 13.2762 7.79297H11.2872C11.0955 7.81665 10.9277 7.95877 10.9277 8.14825Z" fill="#484C57"/>
<path d="M2.68392 8.14825C2.68392 7.95877 2.51617 7.79297 2.32447 7.79297H0.359453C0.167745 7.81665 0 7.95877 0 8.14825C0 8.33774 0.167745 8.50354 0.359453 8.50354H2.34843C2.51617 8.50354 2.68392 8.33774 2.68392 8.14825Z" fill="#484C57"/>
<path d="M9.72893 11.0382C9.58515 11.1803 9.58515 11.3935 9.72893 11.5356L11.1188 12.9094C11.1907 12.9805 11.2866 13.0041 11.3585 13.0041C11.4543 13.0041 11.5502 12.9805 11.5981 12.9094C11.7419 12.7673 11.7419 12.5541 11.5981 12.412L10.2082 11.0382C10.0884 10.8961 9.84875 10.8961 9.72893 11.0382Z" fill="#484C57"/>
<path d="M3.40255 5.28245C3.47444 5.3535 3.57029 5.37719 3.64218 5.37719C3.71407 5.37719 3.83389 5.3535 3.88182 5.28245C4.0256 5.14033 4.0256 4.92716 3.88182 4.78505L2.49193 3.41127C2.34815 3.26916 2.13248 3.26916 1.9887 3.41127C1.84491 3.55339 1.84491 3.76656 1.9887 3.90867L3.40255 5.28245Z" fill="#484C57"/>
<path d="M2.92438 28.8734L1.43864 32.8052H1.00729C0.671802 32.8052 0.408203 33.0657 0.408203 33.3973V38.7029C0.408203 39.0345 0.671802 39.2951 1.00729 39.2951H1.70224V39.7925C1.70224 40.4557 2.2534 41.0005 2.92438 41.0005H4.09859C4.76957 41.0005 5.32073 40.4557 5.32073 39.7925V39.2951H7.9088V38.1108H1.60638V33.9895H7.9088V32.8052H2.73267L3.90688 29.655H7.9088V28.4707H3.47554C3.2359 28.4944 3.02023 28.6365 2.92438 28.8734ZM4.60183 39.7925C4.60183 40.0767 4.38615 40.2899 4.09859 40.2899H2.92438C2.63681 40.2899 2.42114 40.0767 2.42114 39.7925V39.2951H4.60183V39.7925Z" fill="#484C57"/>
<path d="M2.51562 36.2148C2.51562 36.9254 3.11471 37.5175 3.83362 37.5175C4.55253 37.5175 5.15162 36.9254 5.15162 36.2148C5.15162 35.5043 4.55253 34.9121 3.83362 34.9121C3.11471 34.9121 2.51562 35.4806 2.51562 36.2148ZM4.45667 36.2148C4.45667 36.5464 4.19307 36.807 3.85758 36.807C3.52209 36.807 3.2585 36.5464 3.2585 36.2148C3.2585 35.8832 3.52209 35.6227 3.85758 35.6227C4.19307 35.6227 4.45667 35.8832 4.45667 36.2148Z" fill="#484C57"/>
</svg>
