<svg width="76" height="41" viewBox="0 0 76 41" fill="none" xmlns="http://www.w3.org/2000/svg">
<path d="M75.8218 34.3443L71.6761 30.2467H72.5627C72.8024 30.2467 73.018 30.1046 73.1139 29.8914C73.2097 29.6782 73.1618 29.4177 72.9941 29.2519L68.8484 25.1542H71.4125C71.6521 25.1542 71.8678 25.0121 71.9636 24.799C72.0595 24.5858 72.0116 24.3252 71.8438 24.1594L67.5783 19.9197H70.1424C70.3821 19.9197 70.5977 19.7776 70.6936 19.5644C70.7894 19.3512 70.7415 19.0907 70.5738 18.9249L66.4281 14.8273H67.9857C68.2014 14.8273 68.3931 14.7088 68.4889 14.543C68.5848 14.3772 68.6087 14.1404 68.5129 13.9509L61.228 0.307914C61.1082 0.118429 60.9165 0 60.7008 0C60.4851 0 60.2695 0.118429 60.1736 0.307914L52.673 13.9509C52.5772 14.1404 52.5772 14.3536 52.673 14.543C52.7928 14.7325 52.9845 14.8273 53.1762 14.8273H55.2371L51.9062 18.1196H48.6471V3.90815C48.6471 3.57655 48.3835 3.316 48.0481 3.316H16.1047C15.7692 3.316 15.5056 3.57655 15.5056 3.90815V18.1196H9.44284C9.10735 18.1196 8.84375 18.3801 8.84375 18.7117V39.2709C8.84375 39.6025 9.10735 39.8631 9.44284 39.8631H15.266H49.7974H55.7643H62.9294C63.2649 39.8631 63.5285 39.6025 63.5285 39.2709V35.3391H75.3904C75.6301 35.3391 75.8457 35.197 75.9416 34.9838C76.0614 34.7706 75.9895 34.5101 75.8218 34.3443ZM16.7038 4.52397H47.4729V18.1433H42.4885V7.50838C42.4885 7.17678 42.2249 6.91623 41.8894 6.91623H22.1914C21.8559 6.91623 21.5923 7.17678 21.5923 7.50838V18.1196H16.7038V4.52397ZM22.7905 18.1196V8.10052H41.2903V18.1196H22.7905ZM25.6422 38.6788H15.8651V25.0595H25.6422V38.6788ZM37.8875 38.6788H26.8643V25.0595H37.8875V38.6788ZM49.1983 38.6788H39.0857V25.0595H49.1983V38.6788ZM55.1652 38.6788H50.3965V24.4674C50.3965 24.1358 50.1329 23.8752 49.7974 23.8752H15.266C14.9305 23.8752 14.6669 24.1358 14.6669 24.4674V38.6788H10.0419V19.3039H15.8651C15.9369 19.3276 16.0088 19.3512 16.1047 19.3512C16.2005 19.3512 16.2724 19.3276 16.3443 19.3039H21.9758C22.0476 19.3276 22.1195 19.3512 22.2154 19.3512C22.3112 19.3512 22.3831 19.3276 22.455 19.3039H41.6977C41.7696 19.3276 41.8415 19.3512 41.9374 19.3512C42.0332 19.3512 42.1051 19.3276 42.177 19.3039H47.8803C47.9522 19.3276 48.0241 19.3512 48.1199 19.3512C48.2158 19.3512 48.2877 19.3276 48.3596 19.3039H55.2371V38.6788H55.1652ZM58.2805 38.6788H56.3634V35.3391H58.2805V38.6788ZM62.3303 38.6788H59.4786V35.3391H62.3303V38.6788ZM62.9294 34.1785H58.8796H56.3634V18.7117C56.3634 18.3801 56.0998 18.1196 55.7643 18.1196H53.6076L57.1302 14.6378C57.298 14.472 57.3459 14.2114 57.25 13.9983C57.1542 13.7851 56.9385 13.643 56.6989 13.643H54.2067L60.7008 1.84749L66.9792 13.6193H64.9663C64.7267 13.6193 64.511 13.7614 64.4151 13.9746C64.3193 14.1878 64.3672 14.4483 64.535 14.6141L68.6806 18.7117H66.1405C65.9009 18.7117 65.6852 18.8538 65.5894 19.067C65.4935 19.2802 65.5414 19.5407 65.7092 19.7065L69.9507 23.8989H67.3866C67.147 23.8989 66.9313 24.041 66.8354 24.2542C66.7396 24.4674 66.7875 24.7279 66.9553 24.8937L71.101 28.9913H70.2143C69.9747 28.9913 69.759 29.1334 69.6632 29.3466C69.5673 29.5598 69.6152 29.8203 69.783 29.9861L73.9286 34.0838H62.9294V34.1785Z" fill="#484C57"/>
<path d="M6.99642 11.4162C8.81765 11.4162 10.3034 9.94765 10.3034 8.14754C10.3034 6.34742 8.81765 4.87891 6.99642 4.87891C5.17519 4.87891 3.68945 6.34742 3.68945 8.14754C3.68945 9.94765 5.17519 11.4162 6.99642 11.4162ZM6.99642 5.58948C8.43423 5.58948 9.60844 6.75008 9.60844 8.17122C9.60844 9.59237 8.43423 10.753 6.99642 10.753C5.55861 10.753 4.38439 9.59237 4.38439 8.17122C4.38439 6.72639 5.55861 5.58948 6.99642 5.58948Z" fill="#484C57"/>
<path d="M6.80666 4.0737C6.99834 4.0737 7.16605 3.9079 7.16605 3.71841V1.77618C7.16605 1.5867 6.99834 1.4209 6.80666 1.4209C6.61498 1.4209 6.44727 1.5867 6.44727 1.77618V3.7421C6.44727 3.93159 6.61498 4.0737 6.80666 4.0737Z" fill="#484C57"/>
<path d="M6.44727 12.577V14.5429C6.44727 14.7324 6.61498 14.8982 6.80666 14.8982C6.99834 14.8982 7.16605 14.7324 7.16605 14.5429V12.577C7.16605 12.3875 6.99834 12.2217 6.80666 12.2217C6.61498 12.2217 6.44727 12.3875 6.44727 12.577Z" fill="#484C57"/>
<path d="M9.96903 5.37719C10.0649 5.37719 10.1607 5.3535 10.2086 5.28245L11.5983 3.90867C11.742 3.76656 11.742 3.55339 11.5983 3.41127C11.4545 3.26916 11.2389 3.26916 11.0951 3.41127L9.70547 4.78505C9.56172 4.92716 9.56172 5.14033 9.70547 5.28245C9.77735 5.3535 9.87319 5.37719 9.96903 5.37719Z" fill="#484C57"/>
<path d="M3.40177 11.0372L2.01212 12.411C1.86836 12.5531 1.86836 12.7663 2.01212 12.9084C2.08399 12.9795 2.17983 13.0032 2.25171 13.0032C2.34755 13.0032 2.44339 12.9795 2.49131 12.9084L3.88097 11.5347C4.02472 11.3925 4.02472 11.1794 3.88097 11.0372C3.76117 10.8951 3.52157 10.8951 3.40177 11.0372Z" fill="#484C57"/>
<path d="M10.9277 8.14826C10.9277 8.33774 11.0955 8.50354 11.2871 8.50354H13.2758C13.4675 8.50354 13.6352 8.33774 13.6352 8.14826C13.6352 7.95877 13.4675 7.79297 13.2758 7.79297H11.2871C11.0955 7.81665 10.9277 7.95877 10.9277 8.14826Z" fill="#484C57"/>
<path d="M2.68348 8.14826C2.68348 7.95877 2.51576 7.79297 2.32409 7.79297H0.359395C0.167718 7.81665 0 7.95877 0 8.14826C0 8.33774 0.167718 8.50354 0.359395 8.50354H2.34805C2.51576 8.50354 2.68348 8.33774 2.68348 8.14826Z" fill="#484C57"/>
<path d="M9.72696 11.0372C9.5832 11.1794 9.5832 11.3925 9.72696 11.5347L11.1166 12.9084C11.1885 12.9795 11.2843 13.0032 11.3562 13.0032C11.4281 13.0032 11.5479 12.9795 11.5958 12.9084C11.7396 12.7663 11.7396 12.5531 11.5958 12.411L10.2062 11.0372C10.0864 10.8951 9.84676 10.8951 9.72696 11.0372Z" fill="#484C57"/>
<path d="M3.4023 5.28245C3.47418 5.3535 3.57001 5.37719 3.64189 5.37719C3.71377 5.37719 3.83357 5.3535 3.88149 5.28245C4.02525 5.14033 4.02525 4.92716 3.88149 4.78505L2.49183 3.41127C2.34807 3.26916 2.13244 3.26916 1.98868 3.41127C1.84492 3.55339 1.84492 3.76656 1.98868 3.90867L3.4023 5.28245Z" fill="#484C57"/>
<path d="M2.92242 28.8734L1.43668 32.8052H1.00534C0.669849 32.8052 0.40625 33.0657 0.40625 33.3973V38.7029C0.40625 39.0345 0.669849 39.2951 1.00534 39.2951H1.70028V39.7925C1.70028 40.4557 2.25144 41.0005 2.92242 41.0005H4.09663C4.76761 41.0005 5.31877 40.4557 5.31877 39.7925V39.2951H7.90683V38.1108H1.60443V33.9895H7.90683V32.8052H2.73071L3.90492 29.655H7.90683V28.4707H3.47358C3.23394 28.4944 3.01827 28.6365 2.92242 28.8734ZM4.59986 39.7925C4.59986 40.0767 4.38419 40.2899 4.09663 40.2899H2.92242C2.63486 40.2899 2.41919 40.0767 2.41919 39.7925V39.2951H4.59986V39.7925Z" fill="#484C57"/>
<path d="M2.51562 36.2158C2.51562 36.9264 3.11462 37.5185 3.83341 37.5185C4.55219 37.5185 5.15119 36.9264 5.15119 36.2158C5.15119 35.5052 4.55219 34.9131 3.83341 34.9131C3.11462 34.9131 2.51562 35.4815 2.51562 36.2158ZM4.45636 36.2158C4.45636 36.5474 4.1928 36.8079 3.85737 36.8079C3.52193 36.8079 3.25837 36.5474 3.25837 36.2158C3.25837 35.8842 3.52193 35.6237 3.85737 35.6237C4.1928 35.6237 4.45636 35.8842 4.45636 36.2158Z" fill="#484C57"/>
</svg>
