<svg width="68" height="40" viewBox="0 0 68 40" fill="none" xmlns="http://www.w3.org/2000/svg">
<path d="M67.8215 34.4623L63.6853 30.3506H64.5699C64.809 30.3506 65.0242 30.208 65.1198 29.9941C65.2155 29.7802 65.1676 29.5187 65.0003 29.3523L60.8642 25.2406H63.4223C63.6614 25.2406 63.8766 25.098 63.9722 24.8841C64.0679 24.6702 64.0201 24.4088 63.8527 24.2424L59.597 19.9881H62.1552C62.3943 19.9881 62.6095 19.8455 62.7051 19.6316C62.8007 19.4177 62.7529 19.1563 62.5856 18.9899L58.4494 14.8782H60.0035C60.2187 14.8782 60.4099 14.7594 60.5055 14.593C60.6012 14.4266 60.6251 14.1889 60.5295 13.9988L53.2614 0.308972C53.1418 0.118835 52.9506 0 52.7354 0C52.5202 0 52.305 0.118835 52.2094 0.308972L44.7261 13.9988C44.6305 14.1889 44.6305 14.4029 44.7261 14.593C44.8457 14.7831 45.0369 14.8782 45.2282 14.8782H47.2843L43.9611 18.1818H1.59575C1.26104 18.1818 0.998047 18.4433 0.998047 18.776V39.4058C0.998047 39.7386 1.26104 40 1.59575 40H7.40544H41.8572H47.8103H54.9589C55.2936 40 55.5566 39.7386 55.5566 39.4058V35.4605H67.3911C67.6302 35.4605 67.8454 35.3179 67.941 35.104C68.0605 34.8901 67.9888 34.6286 67.8215 34.4623ZM17.7577 38.8116H8.00315V25.1456H17.7577V38.8116ZM29.9748 38.8116H18.977V25.1456H29.9748V38.8116ZM41.2594 38.8116H31.1702V25.1456H41.2594V38.8116ZM47.2126 38.8116H42.4549V24.5514C42.4549 24.2187 42.1919 23.9572 41.8572 23.9572H7.40544C7.07073 23.9572 6.80774 24.2187 6.80774 24.5514V38.8116H2.19346V19.3702H47.2126V38.8116ZM50.3207 38.8116H48.408V35.4605H50.3207V38.8116ZM54.3611 38.8116H51.5161V35.4605H54.3611V38.8116ZM54.9589 34.2959H50.9184H48.408V18.776C48.408 18.4433 48.145 18.1818 47.8103 18.1818H45.6586L49.1731 14.6881C49.3404 14.5217 49.3882 14.2602 49.2926 14.0463C49.197 13.8324 48.9818 13.6898 48.7427 13.6898H46.2563L52.7354 1.85383L58.9993 13.6661H56.991C56.752 13.6661 56.5368 13.8087 56.4412 14.0226C56.3455 14.2365 56.3933 14.4979 56.5607 14.6643L60.6968 18.776H58.1625C57.9235 18.776 57.7083 18.9186 57.6127 19.1325C57.517 19.3464 57.5648 19.6078 57.7322 19.7742L61.9639 23.981H59.4058C59.1667 23.981 58.9515 24.1236 58.8559 24.3375C58.7603 24.5514 58.8081 24.8128 58.9754 24.9792L63.1115 29.0909H62.2269C61.9879 29.0909 61.7727 29.2335 61.6771 29.4474C61.5814 29.6613 61.6292 29.9228 61.7966 30.0891L65.9327 34.2008H54.9589V34.2959Z" fill="#484C57"/>
</svg>
