<svg width="67" height="40" viewBox="0 0 67 40" fill="none" xmlns="http://www.w3.org/2000/svg">
<path d="M40.4027 25H6.59727C6.25882 25 6 25.2255 6 25.5204V38.4796C6 38.7745 6.25882 39 6.59727 39H40.4027C40.7412 39 41 38.7745 41 38.4796V25.5204C41 25.2255 40.7213 25 40.4027 25Z" fill="#B5B5B5"/>
<path d="M66.8211 34.4623L62.6851 30.3506H63.5697C63.8088 30.3506 64.0239 30.208 64.1196 29.9941C64.2152 29.7802 64.1674 29.5187 64 29.3523L59.8641 25.2406H62.4221C62.6612 25.2406 62.8764 25.098 62.972 24.8841C63.0676 24.6702 63.0198 24.4088 62.8525 24.2424L58.597 19.9881H61.1551C61.3941 19.9881 61.6093 19.8455 61.7049 19.6316C61.8006 19.4177 61.7527 19.1563 61.5854 18.9899L57.4494 14.8782H59.0034C59.2186 14.8782 59.4098 14.7594 59.5054 14.593C59.6011 14.4266 59.625 14.1889 59.5294 13.9988L52.2615 0.308972C52.142 0.118835 51.9507 0 51.7355 0C51.5204 0 51.3052 0.118835 51.2096 0.308972L43.7266 13.9988C43.631 14.1889 43.631 14.4029 43.7266 14.593C43.8461 14.7831 44.0374 14.8782 44.2286 14.8782H46.2847L42.9615 18.1818H0.597684C0.262981 18.1818 0 18.4433 0 18.776V39.4058C0 39.7386 0.262981 40 0.597684 40H6.40718H40.8577H46.8106H53.9589C54.2936 40 54.5566 39.7386 54.5566 39.4058V35.4605H66.3908C66.6298 35.4605 66.845 35.3179 66.9406 35.104C67.0602 34.8901 66.9885 34.6286 66.8211 34.4623ZM16.7591 38.8116H7.00486V25.1456H16.7591V38.8116ZM28.9757 38.8116H17.9783V25.1456H28.9757V38.8116ZM40.26 38.8116H30.1711V25.1456H40.26V38.8116ZM46.2129 38.8116H41.4554V24.5514C41.4554 24.2187 41.1924 23.9572 40.8577 23.9572H6.40718C6.07247 23.9572 5.80949 24.2187 5.80949 24.5514V38.8116H1.19537V19.3702H46.2129V38.8116ZM49.3209 38.8116H47.4083V35.4605H49.3209V38.8116ZM53.3613 38.8116H50.5163V35.4605H53.3613V38.8116ZM53.9589 34.2959H49.9186H47.4083V18.776C47.4083 18.4433 47.1453 18.1818 46.8106 18.1818H44.659L48.1734 14.6881C48.3407 14.5217 48.3885 14.2602 48.2929 14.0463C48.1973 13.8324 47.9821 13.6898 47.743 13.6898H45.2566L51.7355 1.85383L57.9993 13.6661H55.9911C55.752 13.6661 55.5368 13.8087 55.4412 14.0226C55.3456 14.2365 55.3934 14.4979 55.5607 14.6643L59.6967 18.776H57.1625C56.9235 18.776 56.7083 18.9186 56.6127 19.1325C56.517 19.3464 56.5648 19.6078 56.7322 19.7742L60.9638 23.981H58.4057C58.1666 23.981 57.9515 24.1236 57.8558 24.3375C57.7602 24.5514 57.808 24.8128 57.9754 24.9792L62.1114 29.0909H61.2268C60.9877 29.0909 60.7725 29.2335 60.6769 29.4474C60.5813 29.6613 60.6291 29.9228 60.7964 30.0891L64.9324 34.2008H53.9589V34.2959Z" fill="#484C57"/>
<path d="M32 33H34" stroke="#484C57" stroke-linecap="round" stroke-linejoin="round"/>
</svg>
