<svg width="69" height="42" viewBox="0 0 69 42" fill="none" xmlns="http://www.w3.org/2000/svg">
<g clip-path="url(#clip0)">
<path d="M48.5045 42H0.626134C0.271325 42 0 41.7261 0 41.3678V19.7672C0 19.409 0.271325 19.135 0.626134 19.135H48.5045C48.8593 19.135 49.1307 19.409 49.1307 19.7672V41.3467C49.1307 41.705 48.8385 42 48.5045 42ZM1.25227 40.7356H47.8784V20.3994H1.25227V40.7356Z" fill="#484C57"/>
<path d="M55.6632 42H48.4836C48.1287 42 47.8574 41.7261 47.8574 41.3678C47.8574 41.0096 48.1287 40.7356 48.4836 40.7356H55.6632C56.018 40.7356 56.2894 41.0096 56.2894 41.3678C56.2894 41.7261 56.018 42 55.6632 42Z" fill="#484C57"/>
<path d="M55.6644 41.9999H51.4484C51.0936 41.9999 50.8223 41.7259 50.8223 41.3677V36.3732C50.8223 36.0149 51.0936 35.741 51.4484 35.741H55.6644C56.0192 35.741 56.2905 36.0149 56.2905 36.3732V41.3677C56.2905 41.7048 56.0192 41.9999 55.6644 41.9999ZM52.0745 40.7355H55.0382V37.0054H52.0745V40.7355Z" fill="#484C57"/>
<path d="M68.3742 36.9844H48.5049C48.1501 36.9844 47.8788 36.7105 47.8788 36.3522C47.8788 35.994 48.1501 35.72 48.5049 35.72H66.8924L62.8642 31.5685C62.6973 31.3788 62.6346 31.1259 62.739 30.8731C62.8434 30.6412 63.0729 30.4937 63.3234 30.4937H64.0956L59.6709 26.1525C59.4831 25.9629 59.4414 25.71 59.5248 25.4571C59.6292 25.2253 59.8588 25.0567 60.1092 25.0567H62.8642L58.5648 20.7576C58.3769 20.568 58.3352 20.3151 58.4187 20.0622C58.523 19.8304 58.7526 19.6618 59.0031 19.6618H61.4241L57.4795 15.3838C57.3125 15.1942 57.2708 14.9413 57.3751 14.7095C57.4795 14.4777 57.7091 14.3302 57.9386 14.3302H59.7544L53.5348 1.98093L46.8143 14.3723H49.2354C49.4858 14.3723 49.7154 14.5198 49.8198 14.7516C49.9241 14.9834 49.8615 15.2574 49.6945 15.4471L45.1238 20.2097C44.8733 20.4626 44.4768 20.4626 44.2472 20.2308C43.9967 19.9779 43.9967 19.5775 44.2263 19.3457L47.7535 15.6578H45.7499C45.5203 15.6578 45.3325 15.5314 45.2072 15.3417C45.082 15.152 45.082 14.9202 45.2072 14.7095L53.0131 0.33718C53.1174 0.126443 53.3261 0 53.5557 0C53.7853 0 53.994 0.126443 54.0984 0.33718L61.3198 14.6673C61.4241 14.857 61.4033 15.0888 61.2989 15.2785C61.1945 15.4681 60.9858 15.5735 60.7562 15.5735H59.337L63.2817 19.8936C63.4486 20.0833 63.4904 20.3362 63.386 20.568C63.2817 20.7998 63.0521 20.9473 62.8225 20.9473H60.5267L64.8261 25.2464C65.014 25.436 65.0557 25.6889 64.9722 25.9418C64.8887 26.1947 64.6383 26.3422 64.3878 26.3422H61.6537L66.0784 30.6834C66.2662 30.8731 66.308 31.1259 66.2245 31.3788C66.1201 31.6106 65.8905 31.7792 65.6401 31.7792H64.8052L68.8334 35.9308C69.0003 36.1204 69.063 36.3733 68.9586 36.6262C68.8542 36.8791 68.6247 36.9844 68.3742 36.9844Z" fill="#484C57"/>
<path d="M42.18 39.0285H7.05387C6.69906 39.0285 6.42773 38.7546 6.42773 38.3963V17.3436C6.42773 16.9854 6.69906 16.7114 7.05387 16.7114C7.40868 16.7114 7.68 16.9854 7.68 17.3436V37.7641H41.5539V17.3436C41.5539 16.9854 41.8252 16.7114 42.18 16.7114C42.5348 16.7114 42.8061 16.9854 42.8061 17.3436V38.3963C42.8061 38.7546 42.5139 39.0285 42.18 39.0285Z" fill="#B5B5B5"/>
<path d="M8.57823 17.9758H5.55192C5.19711 17.9758 4.92578 17.7019 4.92578 17.3436C4.92578 16.9854 5.19711 16.7114 5.55192 16.7114H8.57823C8.93304 16.7114 9.20436 16.9854 9.20436 17.3436C9.20436 17.7019 8.91217 17.9758 8.57823 17.9758Z" fill="#B5B5B5"/>
<path d="M43.6837 17.9758H40.6574C40.3026 17.9758 40.0312 17.7019 40.0312 17.3436C40.0312 16.9854 40.3026 16.7114 40.6574 16.7114H43.6837C44.0385 16.7114 44.3098 16.9854 44.3098 17.3436C44.3098 17.7019 44.0385 17.9758 43.6837 17.9758Z" fill="#B5B5B5"/>
</g>
<defs>
<clipPath id="clip0">
<rect width="69" height="42" fill="white"/>
</clipPath>
</defs>
</svg>
