<svg width="73" height="49" viewBox="0 0 73 49" fill="none" xmlns="http://www.w3.org/2000/svg">
<path d="M50.6066 48H0.653269C0.283083 48 0 47.7195 0 47.3527V25.2378C0 24.8711 0.283083 24.5906 0.653269 24.5906H50.6066C50.9768 24.5906 51.2599 24.8711 51.2599 25.2378V47.3312C51.2599 47.6979 50.955 48 50.6066 48ZM1.30654 46.7055H49.9533V25.8851H1.30654V46.7055Z" fill="#484C57"/>
<path d="M58.0777 47.9999H50.5869C50.2167 47.9999 49.9336 47.7194 49.9336 47.3526C49.9336 46.9858 50.2167 46.7053 50.5869 46.7053H58.0777C58.4479 46.7053 58.731 46.9858 58.731 47.3526C58.731 47.7194 58.4479 47.9999 58.0777 47.9999Z" fill="#484C57"/>
<path d="M58.0754 48H53.6767C53.3065 48 53.0234 47.7195 53.0234 47.3527V42.2393C53.0234 41.8725 53.3065 41.592 53.6767 41.592H58.0754C58.4456 41.592 58.7287 41.8725 58.7287 42.2393V47.3527C58.7287 47.6979 58.4456 48 58.0754 48ZM54.33 46.7054H57.4221V42.8866H54.33V46.7054Z" fill="#484C57"/>
<path d="M71.3382 42.865H50.6078C50.2376 42.865 49.9545 42.5845 49.9545 42.2178C49.9545 41.851 50.2376 41.5705 50.6078 41.5705H69.7922L65.5895 37.3201C65.4153 37.1259 65.3499 36.867 65.4588 36.6081C65.5677 36.3708 65.8072 36.2198 66.0685 36.2198H66.8742L62.2578 31.7752C62.0618 31.581 62.0183 31.3221 62.1054 31.0632C62.2142 30.8259 62.4538 30.6533 62.7151 30.6533H65.5895L61.1037 26.2519C60.9077 26.0577 60.8641 25.7988 60.9512 25.5399C61.0601 25.3026 61.2997 25.1299 61.561 25.1299H64.0869L59.9713 20.7501C59.7971 20.5559 59.7536 20.297 59.8625 20.0597C59.9713 19.8224 60.2109 19.6713 60.4504 19.6713H62.3449L55.8558 7.0281L48.844 19.7145H51.37C51.6313 19.7145 51.8708 19.8655 51.9797 20.1029C52.0886 20.3402 52.0232 20.6207 51.849 20.8148L47.0802 25.6909C46.8189 25.9498 46.4051 25.9498 46.1656 25.7125C45.9043 25.4536 45.9043 25.0436 46.1438 24.8063L49.8239 21.0306H47.7334C47.4939 21.0306 47.2979 20.9011 47.1673 20.707C47.0366 20.5128 47.0366 20.2755 47.1673 20.0597L55.3114 5.34521C55.4202 5.12945 55.638 5 55.8775 5C56.1171 5 56.3348 5.12945 56.4437 5.34521L63.9781 20.0166C64.0869 20.2107 64.0652 20.4481 63.9563 20.6422C63.8474 20.8364 63.6297 20.9443 63.3901 20.9443H61.9094L66.025 25.3673C66.1992 25.5615 66.2427 25.8204 66.1339 26.0577C66.025 26.295 65.7854 26.4461 65.5459 26.4461H63.1506L67.6364 30.8475C67.8324 31.0416 67.8759 31.3005 67.7888 31.5595C67.7017 31.8184 67.4404 31.9694 67.1791 31.9694H64.3265L68.9429 36.4139C69.1389 36.6081 69.1824 36.867 69.0953 37.1259C68.9865 37.3633 68.7469 37.5359 68.4856 37.5359H67.6146L71.8173 41.7862C71.9915 41.9804 72.0568 42.2393 71.9479 42.4982C71.8391 42.7571 71.5995 42.865 71.3382 42.865Z" fill="#484C57"/>
<path d="M18.1562 20.7765H20.1825L25.5521 15.4376H26.8945L32.34 20.8521H34.4676L28.2875 14.7072C29.1993 14.0777 29.8072 13.0451 29.8072 11.8615C29.8072 10.1994 28.6421 8.81427 27.0718 8.4617V5.91816H28.4902C28.8954 5.91816 29.2247 5.61595 29.25 5.21301L29.6299 0.83106C29.6552 0.629591 29.5793 0.402938 29.4273 0.251836C29.2753 0.100735 29.0727 0 28.8701 0H23.3485C23.1459 0 22.9179 0.100735 22.7913 0.251836C22.6393 0.402938 22.5634 0.629591 22.5887 0.83106L22.9686 5.21301C22.9939 5.61595 23.3232 5.91816 23.7285 5.91816H25.5521V9.16685C25.5521 9.59497 25.9067 9.92236 26.3119 9.92236C27.401 9.92236 28.2875 10.8038 28.2875 11.8615C28.2875 12.9192 27.401 13.8258 26.3119 13.8258C25.4508 13.8258 24.6909 13.2718 24.4376 12.4659C24.311 12.063 23.8804 11.8363 23.4752 11.9622C23.0699 12.0881 22.842 12.5163 22.9686 12.9192C23.1712 13.5992 23.6018 14.1532 24.1084 14.5813H24.0324L18.1562 20.7765ZM24.1844 1.51102H28.0596L27.8063 4.38195H24.4376L24.1844 1.51102Z" fill="#B5B5B5"/>
<path d="M8.03516 47.5V31.5H44.7V47.5" stroke="#484C57" stroke-width="1.2" stroke-linecap="round" stroke-linejoin="round"/>
<path d="M32.9996 39.035H19.2211C18.8665 39.035 18.5879 38.758 18.5879 38.4054V22.0612C18.5879 21.7087 18.8665 21.4316 19.2211 21.4316H32.9996C33.3542 21.4316 33.6328 21.7087 33.6328 22.0612V38.4054C33.6328 38.7328 33.3289 39.035 32.9996 39.035ZM19.8543 37.7758H32.3411V22.6908H19.8543V37.7758Z" fill="#B5B5B5"/>
<path d="M33.0003 21.4309C33.3549 21.4309 33.6335 21.7079 33.6335 22.0605V38.4047C33.6335 38.7573 33.3549 39.0343 33.0003 39.0343H19.2218C18.8672 39.0343 18.5886 38.7573 18.5886 38.4047V22.0605C18.5886 21.7079 18.8672 21.4309 19.2218 21.4309H33.0003ZM19.855 37.7751H32.3418V22.6901H19.855V37.7751ZM33.0003 20.9272H19.2218C18.5886 20.9272 18.082 21.4309 18.082 22.0605V38.4047C18.082 39.0343 18.5886 39.538 19.2218 39.538H33.0003C33.6335 39.538 34.1401 39.0343 34.1401 38.4047V22.0605C34.1401 21.4309 33.6082 20.9272 33.0003 20.9272ZM20.3616 23.1938H31.8352V37.2714H20.3616V23.1938Z" fill="white"/>
<path d="M32.3033 22H19.588C19.2061 22 18.9141 22.2784 18.9141 22.6426V37.3574C18.9141 37.7216 19.2061 38 19.588 38H32.3033C32.6852 38 32.9773 37.7216 32.9773 37.3574V22.6426C32.9773 22.2784 32.6628 22 32.3033 22Z" fill="#B5B5B5"/>
</svg>
