<?xml version="1.0" encoding="UTF-8"?>
<!DOCTYPE svg PUBLIC "-//W3C//DTD SVG 1.1//EN" "http://www.w3.org/Graphics/SVG/1.1/DTD/svg11.dtd">
<!-- Creator: CorelDRAW X8 -->
<svg xmlns="http://www.w3.org/2000/svg" xml:space="preserve" width="400mm" height="400mm" version="1.1" style="shape-rendering:geometricPrecision; text-rendering:geometricPrecision; image-rendering:optimizeQuality; fill-rule:evenodd; clip-rule:evenodd"
viewBox="0 0 40000 40000"
 xmlns:xlink="http://www.w3.org/1999/xlink">
 <defs>
  <style type="text/css">
   <![CDATA[
    .fil0 {fill:#3F4452;fill-rule:nonzero}
    .fil2 {fill:#E0E0E0;fill-rule:nonzero}
    .fil1 {fill:white;fill-rule:nonzero}
   ]]>
  </style>
 </defs>
 <g id="Слой_x0020_1">
  <metadata id="CorelCorpID_0Corel-Layer"/>
  <path class="fil0" d="M38319 20137c0,10209 -8277,18486 -18486,18486 -10209,0 -18486,-8277 -18486,-18486 0,-10209 8277,-18485 18486,-18485 10209,0 18486,8276 18486,18485z"/>
  <path class="fil0" d="M28405 11250c-2209,279 -4512,270 -6829,49 -3237,-249 -7967,-1743 -9710,1245 -2799,4783 -1419,10906 -766,16324l9729 9727c9415,-499 16961,-8044 17462,-17459l-9886 -9886z"/>
  <path class="fil1" d="M24109 9556l-8553 0c-3476,0 -6304,2828 -6304,6304l0 8554c0,3476 2828,6304 6304,6304l8554 0c3476,0 6304,-2828 6304,-6304l0 -8554c0,-3476 -2828,-6304 -6305,-6304zm4176 14858c0,2306 -1869,4175 -4175,4175l-8554 0c-2306,0 -4175,-1869 -4175,-4175l0 -8554c0,-2306 1869,-4175 4175,-4175l8554 0c2306,0 4175,1869 4175,4175l0 8554z"/>
  <path class="fil1" d="M19833 14664c-3018,0 -5474,2455 -5474,5473 0,3018 2456,5473 5474,5473 3018,0 5473,-2455 5473,-5473 0,-3018 -2455,-5473 -5473,-5473zm0 8817c-1847,0 -3345,-1497 -3345,-3344 0,-1847 1498,-3345 3345,-3345 1847,0 3344,1498 3344,3345 0,1847 -1497,3344 -3344,3344z"/>
  <path class="fil2" d="M26628 14705c0,724 -587,1311 -1312,1311 -724,0 -1311,-587 -1311,-1311 0,-724 587,-1311 1311,-1311 725,0 1312,587 1312,1311z"/>
  <path class="fil2" d="M24110 9556l-4319 0 0 2129 4319 0c2306,0 4175,1869 4175,4175l0 8554c0,2306 -1869,4175 -4175,4175l-4319 0 0 2129 4319 0c3476,0 6304,-2828 6304,-6304l0 -8554c0,-3476 -2828,-6304 -6304,-6304z"/>
  <path class="fil2" d="M19833 14664c-14,0 -28,1 -42,1l0 2129c14,0 28,-2 42,-2 1847,0 3344,1498 3344,3345 0,1847 -1497,3344 -3344,3344 -14,0 -28,-1 -42,-1l0 2129c14,0 28,1 42,1 3018,0 5473,-2455 5473,-5473 0,-3018 -2455,-5473 -5473,-5473z"/>
 </g>
</svg>
