<svg width="21" height="21" viewBox="0 0 21 21" fill="none" xmlns="http://www.w3.org/2000/svg">
<path d="M0 5C0 2.23858 2.23858 0 5 0H16C18.7614 0 21 2.23858 21 5V16C21 18.7614 18.7614 21 16 21H5C2.23858 21 0 18.7614 0 16V5Z" fill="white"/>
<path d="M2.80431 10.5022C2.80431 9.47019 2.80431 8.43821 2.80431 7.40624C2.80781 5.08692 4.41733 3.20138 6.70914 2.85506C7.12202 2.79209 7.54539 2.80608 7.96527 2.80608C9.88269 2.80258 11.8001 2.79559 13.7175 2.80608C15.8169 2.82007 17.6574 4.32781 18.0877 6.38126C18.1507 6.68561 18.1927 7.00394 18.1927 7.31529C18.1997 9.47019 18.2067 11.6286 18.1927 13.7835C18.1787 15.8824 16.5237 17.803 14.4488 18.1143C13.8645 18.2017 13.2627 18.1913 12.6714 18.1948C10.9219 18.2052 9.1724 18.1982 7.42643 18.1982C6.06533 18.1982 4.91068 17.705 3.99046 16.7045C3.23468 15.8754 2.8288 14.8924 2.81131 13.7695C2.79032 12.6816 2.80781 11.5901 2.80431 10.5022ZM3.5041 10.4812C3.5041 11.0829 3.5006 11.6811 3.5041 12.2828C3.5076 12.888 3.48311 13.4966 3.54259 14.0983C3.72104 15.9874 5.38304 17.4846 7.28297 17.4916C9.40683 17.4986 11.5272 17.4986 13.6511 17.4951C15.7924 17.4881 17.4929 15.7915 17.4999 13.6471C17.5069 11.5376 17.5034 9.42471 17.4964 7.31529C17.4964 7.05642 17.4649 6.79055 17.4089 6.53518C17.024 4.74409 15.4705 3.50223 13.6161 3.50223C11.6567 3.50223 9.69725 3.49873 7.73783 3.50572C7.40193 3.50572 7.05904 3.50572 6.72664 3.5617C4.81271 3.89053 3.5076 5.45773 3.5041 7.40624C3.5041 8.43122 3.5041 9.4562 3.5041 10.4812Z" fill="#484C57"/>
<path d="M6.65239 10.4851C6.66639 8.3302 8.39837 6.64055 10.5852 6.65105C12.6426 6.66154 14.3676 8.43164 14.3536 10.5131C14.3361 12.6575 12.6006 14.3646 10.4558 14.3471C8.35638 14.3296 6.64189 12.584 6.65239 10.4851ZM13.6503 10.4991C13.6433 8.73599 12.2402 7.3437 10.4732 7.3472C8.75176 7.35419 7.34169 8.77797 7.35218 10.4991C7.36268 12.2692 8.76576 13.6475 10.5537 13.6405C12.2472 13.637 13.6573 12.2062 13.6503 10.4991Z" fill="#484C57"/>
<path d="M15.3996 6.30605C15.3996 6.69085 15.0777 7.00569 14.6963 7.00219C14.3114 6.99869 13.9965 6.68036 14 6.29905C14.0035 5.91425 14.3184 5.60291 14.7033 5.60291C15.0882 5.60291 15.4031 5.92124 15.3996 6.30605Z" fill="#484C57"/>
</svg>
