<svg width="22" height="16" viewBox="0 0 22 16" fill="none" xmlns="http://www.w3.org/2000/svg">
<path d="M12.7911 4.13256C12.7911 4.87568 12.7796 5.6188 12.7988 6.36191C12.8065 6.65452 12.8487 6.96105 12.9332 7.23507C13.1175 7.82492 13.5284 7.94104 13.8663 7.4673C14.3348 6.80778 14.7879 6.12504 15.1834 5.40051C15.7709 4.32299 16.2164 3.14794 16.608 1.94502C16.6349 1.85677 16.6733 1.77317 16.7002 1.68492C16.8461 1.24834 17.1187 1.07185 17.4989 1.07185C18.3744 1.0765 19.2538 1.07185 20.1293 1.07185C20.3827 1.07185 20.64 1.07185 20.8934 1.0765C21.0048 1.0765 21.12 1.08114 21.2313 1.09972C21.8112 1.21119 21.9648 1.51772 21.792 2.19117C21.5731 3.0504 21.1776 3.80281 20.7475 4.5227C20.0947 5.6188 19.4227 6.69632 18.7584 7.78312C18.647 7.9689 18.5395 8.16397 18.4474 8.36368C18.2439 8.79562 18.2631 9.22291 18.5357 9.59911C18.793 9.95209 19.0694 10.2819 19.3498 10.607C20.0448 11.4105 20.7475 12.2093 21.312 13.1568C21.4848 13.4447 21.6499 13.7513 21.7612 14.081C21.8342 14.2854 21.8342 14.5501 21.8112 14.7777C21.7728 15.14 21.5385 15.414 21.2352 15.414C20.0486 15.4279 18.8621 15.4419 17.6755 15.4047C16.9959 15.3861 16.4621 14.9403 16.009 14.3551C15.5521 13.7606 15.0989 13.1614 14.6381 12.5716C14.523 12.423 14.3886 12.2929 14.2542 12.1722C13.8126 11.7913 13.3633 11.9121 13.1675 12.5158C13.0254 12.9524 12.9524 13.4308 12.8718 13.8906C12.8257 14.1553 12.8295 14.434 12.7911 14.7034C12.7412 15.061 12.5607 15.3025 12.2651 15.3443C11.8888 15.3954 11.5048 15.4326 11.1246 15.4279C8.42897 15.4001 6.33237 13.9556 4.68887 11.443C3.05306 8.9396 1.7974 6.16685 0.695337 3.28263C0.53406 2.86462 0.365103 2.45126 0.223026 2.02397C0.0348686 1.46663 0.184626 1.17403 0.676138 1.10436C0.856615 1.0765 1.04477 1.08114 1.22525 1.08114C2.09307 1.08114 2.96474 1.08579 3.83257 1.08114C4.24344 1.08114 4.53911 1.29943 4.71191 1.7453C5.03447 2.56273 5.31094 3.40803 5.67574 4.19294C6.12885 5.16364 6.6434 6.09718 7.15795 7.02607C7.30003 7.28152 7.51507 7.49052 7.72626 7.66701C8.02194 7.91317 8.29841 7.82028 8.42897 7.41621C8.53649 7.08645 8.61713 6.73347 8.64785 6.38049C8.74384 5.17757 8.75537 3.97465 8.58257 2.77638C8.49425 2.15402 8.18322 1.75459 7.6725 1.59668C7.30003 1.48057 7.29619 1.41554 7.54963 1.06256C7.80306 0.714229 8.12178 0.574894 8.49041 0.574894C9.63471 0.57025 10.779 0.57025 11.9272 0.574894C12.4686 0.579539 12.7758 1.01148 12.7835 1.77317C12.7911 2.55809 12.7873 3.34765 12.7873 4.13256C12.7873 4.13256 12.7873 4.13256 12.7911 4.13256Z" fill="white"/>
</svg>
