<svg width="10" height="18" viewBox="0 0 10 18" fill="none" xmlns="http://www.w3.org/2000/svg">
<path d="M6.01375 17.5675C4.70996 17.5675 3.49988 17.5597 2.28979 17.5714C1.89865 17.5753 1.94347 17.326 1.94347 17.0923C1.94347 15.0785 1.94754 13.0647 1.94754 11.0509C1.94754 10.3849 1.94754 9.71491 1.94754 9.0021C1.27935 9.0021 0.655971 9.0021 0 9.0021C0 8.02442 0 7.08959 0 6.08854C0.619302 6.08854 1.2549 6.08854 1.95162 6.08854C1.95162 5.28614 1.98421 4.54996 1.94754 3.82156C1.83346 1.6286 3.50395 0.463957 5.43519 0.436691C6.6412 0.42111 7.85129 0.432796 9.09397 0.432796C9.09397 1.38321 9.09397 2.33362 9.09397 3.37752C8.53171 3.37752 7.96129 3.37752 7.39496 3.37752C6.25414 3.37752 6.0056 3.61902 6.00153 4.71355C6.00153 5.14591 6.00153 5.57827 6.00153 6.05737C7.06494 6.05737 8.07538 6.05737 9.14286 6.05737C9.01248 7.05063 8.89025 7.98547 8.75987 8.96704C7.84721 8.96704 6.959 8.96704 6.01375 8.96704C6.01375 11.8378 6.01375 14.6656 6.01375 17.5675Z" fill="white"/>
</svg>
