<svg width="20" height="18" viewBox="0 0 20 18" fill="none" xmlns="http://www.w3.org/2000/svg">
<path d="M0.285156 8.27527C0.285156 8.18682 0.285156 8.09452 0.285156 8.00606C0.391385 7.78685 0.5697 7.67148 0.79354 7.58687C2.09105 7.08691 3.38478 6.57926 4.6785 6.07161C8.01333 4.76788 11.3444 3.46414 14.6792 2.1604C16.0868 1.61045 17.4905 1.0605 18.898 0.510543C19.0612 0.44901 19.2357 0.375939 19.3874 0.483622C19.5164 0.575922 19.6075 0.729755 19.7137 0.852822C19.7137 0.941276 19.7137 1.03358 19.7137 1.12203C19.7023 1.14511 19.6834 1.16433 19.6796 1.18741C19.3837 2.63729 19.0915 4.08716 18.7918 5.53704C18.4314 7.30612 18.0634 9.07136 17.6992 10.8404C17.2705 12.9326 16.8417 15.0247 16.4092 17.1168C16.3561 17.3784 16.1626 17.586 15.9236 17.5706C15.7605 17.5591 15.5822 17.4783 15.4456 17.3784C14.0267 16.3438 12.6115 15.2978 11.2002 14.2555C10.7677 13.9363 10.468 13.9479 10.0582 14.2863C9.28049 14.9286 8.49895 15.5708 7.7212 16.2169C7.56186 16.3515 7.39113 16.4054 7.19385 16.3515C6.92448 16.2784 6.84481 16.0438 6.77273 15.8054C6.2302 14.0363 5.68767 12.2672 5.14135 10.502C5.11479 10.4212 5.03133 10.3289 4.95165 10.302C3.5555 9.76361 2.15555 9.23288 0.755601 8.70985C0.531761 8.6214 0.372416 8.49448 0.285156 8.27527ZM6.13915 10.2251C6.14674 10.2713 6.14673 10.3366 6.1657 10.3982C6.4806 11.5288 6.79549 12.6595 7.11418 13.7902C7.14832 13.9171 7.22799 13.9863 7.36457 13.9709C7.50874 13.9556 7.55048 13.8517 7.56945 13.7325C7.63774 13.221 7.70982 12.7095 7.76673 12.1942C7.82364 11.6827 8.00195 11.2481 8.39652 10.9097C8.69624 10.652 8.9694 10.3712 9.25773 10.102C10.7032 8.74062 12.1449 7.38304 13.5904 6.02546C14.205 5.44474 14.8196 4.86402 15.4342 4.2833C15.5139 4.21023 15.5898 4.11408 15.4873 4.02948C15.438 3.98717 15.309 3.99486 15.2445 4.02948C15.0055 4.16023 14.7779 4.31022 14.5464 4.45252C12.585 5.67934 10.6235 6.90231 8.66209 8.12913C7.94125 8.57909 7.22041 9.02905 6.50715 9.48671C6.24917 9.65208 6.15053 9.90975 6.13915 10.2251Z" fill="white"/>
</svg>
