<svg width="41" height="41" viewBox="0 0 41 41" fill="none" xmlns="http://www.w3.org/2000/svg">
<path d="M40.8101 2.21951L38.7611 0.170732C38.6391 0.0487805 38.4927 0 38.322 0C38.1512 0 38.0049 0.0731707 37.8829 0.170732L32.4919 5.56098L32.4187 5.48781C32.126 5.19512 31.7113 5.02439 31.2966 5.02439C30.8576 5.02439 30.4673 5.19512 30.1745 5.48781L29.5403 6.12195L28.9793 5.56098C28.1743 4.7561 27.0766 4.29268 25.9301 4.29268C24.7836 4.29268 23.6859 4.73171 22.8809 5.56098L17.8558 10.5854C17.6119 10.8293 17.6119 11.2195 17.8558 11.439L29.5647 23.1463C29.6867 23.2683 29.833 23.3171 30.0038 23.3171C30.1745 23.3171 30.3209 23.2683 30.4429 23.1463L35.4679 18.122C36.2729 17.3171 36.7364 16.2195 36.7364 15.0732C36.7364 13.9268 36.2973 12.8293 35.4679 12.0244L34.9069 11.4634L35.5411 10.8293C35.8338 10.5366 36.0046 10.122 36.0046 9.70732C36.0046 9.29268 35.8338 8.87805 35.5411 8.58537L35.4679 8.5122L40.8589 3.12195C41.0541 2.85366 41.0541 2.46342 40.8101 2.21951ZM35.4923 15.0732C35.4923 15.9024 35.1752 16.6829 34.5898 17.2683L30.0038 21.8537L19.1487 11L23.7346 6.41463C24.3201 5.82927 25.1007 5.5122 25.9301 5.5122C26.7594 5.5122 27.54 5.82927 28.1255 6.41463L29.1256 7.41464L33.5652 11.8537L34.5654 12.8537C35.1508 13.4634 35.4923 14.2439 35.4923 15.0732ZM30.4185 7L31.0527 6.36585C31.1991 6.21951 31.443 6.21951 31.5894 6.36585L34.6386 9.39025C34.7117 9.46342 34.7605 9.56098 34.7605 9.65854C34.7605 9.7561 34.7117 9.85366 34.6386 9.92683L34.0043 10.561L32.9066 9.46342L30.4185 7Z" fill="#484C57"/>
<path d="M27.6138 7.58527C27.1748 7.14625 26.5649 6.90234 25.9307 6.90234C25.2965 6.90234 24.711 7.14625 24.2475 7.58527L22.0765 9.756C21.8326 9.99991 21.8326 10.3901 22.0765 10.6097C22.3204 10.8536 22.7107 10.8536 22.9303 10.6097L25.1013 8.43893C25.3208 8.21942 25.6136 8.09747 25.9063 8.09747C26.2234 8.09747 26.4917 8.21942 26.7113 8.43893L28.9555 10.6828C29.0775 10.8048 29.2238 10.8536 29.3946 10.8536C29.5653 10.8536 29.7117 10.8048 29.8337 10.6828C30.0776 10.4389 30.0776 10.0487 29.8337 9.82917L27.6138 7.58527Z" fill="#484C57"/>
<path d="M11.7822 21.3416C11.5382 21.0977 11.1479 21.0977 10.9284 21.3416L7.22056 25.0489C7.09859 25.1709 7.0498 25.3172 7.0498 25.488C7.0498 25.6587 7.12299 25.805 7.22056 25.927L15.246 33.9514C15.368 34.0733 15.5144 34.1221 15.6851 34.1221C15.8559 34.1221 16.0022 34.0733 16.1242 33.9514L19.832 30.2441C19.954 30.1221 20.0028 29.9758 20.0028 29.805C20.0028 29.6343 19.9296 29.488 19.832 29.366L11.7822 21.3416ZM15.6851 32.6343L8.53781 25.488L11.3675 22.6587L18.5148 29.805L15.6851 32.6343Z" fill="#484C57"/>
<path d="M11.3431 26.3169L14.9046 29.8778C15.0265 29.9998 15.1729 30.0486 15.3436 30.0486C15.5144 30.0486 15.6608 29.9998 15.7827 29.8778C16.0267 29.6339 16.0267 29.2437 15.7827 29.0242L12.1969 25.4632C11.9529 25.2193 11.5626 25.2193 11.3431 25.4632C11.0992 25.6827 11.0992 26.073 11.3431 26.3169Z" fill="#484C57"/>
<path d="M24.9302 20.4388C24.4179 20.4388 23.9301 20.6339 23.5642 20.9998L19.0758 25.4876L15.6607 22.073L20.1491 17.5852C20.515 17.2193 20.7101 16.7315 20.7101 16.2193C20.7101 15.7071 20.515 15.2193 20.1491 14.8535C19.7832 14.4876 19.2953 14.2925 18.783 14.2925C18.2708 14.2925 17.7829 14.4876 17.417 14.8535L12.9286 19.3413L11.4406 17.8535C11.1966 17.6096 10.8063 17.6096 10.5868 17.8535L5.56173 22.8778C3.87857 24.5608 3.87857 27.3169 5.56173 28.9998L6.12278 29.5608L5.48855 30.1949C4.85432 30.8291 4.85432 31.8291 5.48855 32.4632L5.56173 32.5364L0.170755 37.9022C0.0487871 38.0242 0 38.1705 0 38.3413C0 38.512 0.0731806 38.6583 0.170755 38.7803L2.21981 40.8291C2.34178 40.951 2.48814 40.9998 2.6589 40.9998C2.82965 40.9998 2.97601 40.951 3.09798 40.8291L8.48895 35.4388L8.56213 35.512C8.85486 35.8047 9.26955 35.9754 9.68424 35.9754C10.1233 35.9754 10.5136 35.8047 10.8063 35.512L11.4406 34.8778L12.0016 35.4388C12.8554 36.2925 13.9531 36.7071 15.0508 36.7071C16.1485 36.7071 17.2706 36.2925 18.1 35.4388L23.1251 30.4144C23.369 30.1705 23.369 29.7803 23.1251 29.5608L21.7834 28.2193L26.2718 23.7315C26.6377 23.3657 26.8329 22.8778 26.8329 22.3657C26.8329 21.8535 26.6377 21.3657 26.2718 20.9998C25.9303 20.6583 25.4425 20.4388 24.9302 20.4388ZM18.2708 15.7315C18.5391 15.4632 19.0026 15.4632 19.2709 15.7315C19.3929 15.8535 19.466 16.0486 19.466 16.2437C19.466 16.4388 19.3929 16.5852 19.2709 16.7315L14.7825 21.1949L13.7824 20.1949L18.2708 15.7315ZM2.6589 39.512L1.46361 38.3413L6.4155 33.39L7.61079 34.5852L2.6589 39.512ZM9.95257 34.6339C9.8062 34.7803 9.56227 34.7803 9.41591 34.6339L8.92804 34.1461L6.87898 32.0974L6.39111 31.6096C6.24475 31.4632 6.24475 31.2193 6.39111 31.073L7.02534 30.4388L10.6112 34.0242L9.95257 34.6339ZM17.2706 34.5608C16.051 35.7803 14.0995 35.7803 12.8798 34.5608L11.8797 33.5608L7.44003 29.1218L6.4399 28.1218C5.22022 26.9022 5.22022 24.951 6.4399 23.7315L11.0259 19.1461L12.5139 20.6339L14.3678 22.4876L18.6611 26.7803L20.515 28.6339L21.8566 29.9754L17.2706 34.5608ZM25.4181 22.8778L20.9297 27.3657L19.9295 26.3657L24.4179 21.8778C24.6863 21.6096 25.1497 21.6096 25.4181 21.8778C25.54 21.9998 25.6132 22.1949 25.6132 22.39C25.6376 22.5608 25.5644 22.7315 25.4181 22.8778Z" fill="#484C57"/>
</svg>
