<svg width="46" height="41" viewBox="0 0 46 41" fill="none" xmlns="http://www.w3.org/2000/svg">
<path d="M15.3512 29.9431L5.82838 39.4318L1.61381 35.2323L17.0583 19.8431L17.8319 20.6139C17.9653 20.7468 18.1253 20.7999 18.312 20.7999C18.4988 20.7999 18.6588 20.7202 18.7922 20.6139L26.7679 12.6667C26.9012 12.5338 26.9546 12.3744 26.9546 12.1883C26.9546 12.0023 26.8746 11.8428 26.7679 11.7099L26.1277 11.072L31.596 5.62328L35.5438 1.68958L40.1851 6.31434L41.2254 8.86593C41.3588 9.21145 41.7589 9.37093 42.079 9.23803C42.4258 9.10514 42.5858 8.70645 42.4525 8.36092L41.3855 5.67644C41.3588 5.5967 41.3055 5.51696 41.2254 5.46381L35.9972 0.307471C35.7572 0.0682592 35.3037 0.0682592 35.0636 0.307471L34.1034 1.26432C29.7554 -1.15438 26.9279 0.626419 26.7945 0.706156C26.6345 0.812473 26.5278 0.998526 26.5011 1.18458C26.4744 1.37063 26.5545 1.58327 26.6878 1.71616L30.1555 5.17144L25.1674 10.1417L18.7655 3.76275C18.5521 3.55011 18.232 3.49696 17.9653 3.65643C17.6985 3.81591 17.5652 4.10828 17.6452 4.40064L19.8325 13.0388L15.5112 17.3712C15.2445 17.637 15.2445 18.0623 15.5112 18.3015L16.1247 18.9128L0.200059 34.7539C-0.0666863 35.0197 -0.0666863 35.445 0.200059 35.6842L5.34824 40.8139C5.48161 40.9468 5.64166 41 5.82838 41C6.0151 41 6.17515 40.9203 6.30852 40.8139L16.2848 30.8734C16.5515 30.6076 16.5515 30.1823 16.2848 29.9431C16.0447 29.6773 15.6179 29.6773 15.3512 29.9431ZM28.3417 1.47695C29.2486 1.23774 30.9024 1.10484 33.1164 2.24774L31.1158 4.24117L28.3417 1.47695ZM21.0595 13.7033C21.2196 13.5438 21.2996 13.3046 21.2462 13.0654L19.5391 6.42065L25.3541 12.1883L18.312 19.2052L17.5385 18.4344L16.925 17.8231L21.0595 13.7033Z" fill="#484C57"/>
<path d="M45.8941 19.4179L43.3334 11.0189C43.2267 10.6734 42.8532 10.4608 42.5065 10.5671C42.1597 10.6734 41.9463 11.0455 42.053 11.391L43.8402 17.2384L36.5314 9.95578C36.2913 9.71656 35.8378 9.71656 35.5978 9.95578L30.3162 15.2184L29.5427 14.4476C29.2759 14.1818 28.8491 14.1818 28.609 14.4476L20.6067 22.4214C20.4733 22.5542 20.42 22.7137 20.42 22.8998C20.42 23.0858 20.5 23.2453 20.6067 23.3782L21.3536 24.1224L17.3524 28.0827C17.0857 28.3485 17.0857 28.7737 17.3524 29.013C17.4858 29.1458 17.6458 29.199 17.8325 29.199C18.0193 29.199 18.1793 29.1458 18.3127 29.013L22.2872 25.0527L22.9274 25.6906C23.0607 25.8235 23.2208 25.8766 23.4075 25.8766C23.5942 25.8766 23.7543 25.8235 23.8877 25.6906L28.2356 21.3582L36.9048 23.5377C37.1982 23.6174 37.4917 23.4845 37.6517 23.2187C37.8118 22.9529 37.7584 22.634 37.545 22.4214L31.2765 16.1753L36.1046 11.3645L44.8271 20.0558C44.9605 20.1887 45.1206 20.2419 45.3073 20.2419C45.414 20.2419 45.5474 20.2153 45.6541 20.1356C45.8675 20.0292 45.9741 19.7103 45.8941 19.4179ZM28.1823 19.9761C27.9422 19.9229 27.7021 19.9761 27.5421 20.1621L23.3808 24.2819L21.9938 22.8998L29.0358 15.8829L34.8242 21.6506L28.1823 19.9761Z" fill="#484C57"/>
<path d="M34.3165 9.21168C34.4765 9.21168 34.6633 9.15852 34.7966 9.02562C35.0634 8.75983 35.0634 8.33457 34.7966 8.09536L33.1962 6.50061C32.9294 6.23482 32.5026 6.23482 32.2626 6.50061C31.9958 6.7664 31.9958 7.19167 32.2626 7.43088L33.863 9.02562C33.9697 9.15852 34.1565 9.21168 34.3165 9.21168Z" fill="#484C57"/>
<path d="M32.2364 11.2844C32.3965 11.2844 32.5832 11.2313 32.7166 11.0984C32.9833 10.8326 32.9833 10.4073 32.7166 10.1681L31.1161 8.57337C30.8493 8.30758 30.4226 8.30758 30.1825 8.57337C29.9157 8.83916 29.9157 9.26442 30.1825 9.50363L31.783 11.0984C31.8896 11.2313 32.0764 11.2844 32.2364 11.2844Z" fill="#484C57"/>
<path d="M28.0477 10.6467C27.781 10.9125 27.781 11.3377 28.0477 11.577L29.6482 13.1717C29.7816 13.3046 29.9416 13.3578 30.1283 13.3578C30.315 13.3578 30.4751 13.3046 30.6085 13.1717C30.8752 12.9059 30.8752 12.4806 30.6085 12.2414L29.008 10.6467C28.7146 10.4075 28.3145 10.4075 28.0477 10.6467Z" fill="#484C57"/>
<path d="M16.7655 22.0758C16.4987 22.3416 16.4987 22.7669 16.7655 23.0061L18.366 24.6008C18.4993 24.7337 18.6594 24.7869 18.8461 24.7869C19.0328 24.7869 19.1929 24.7337 19.3262 24.6008C19.593 24.335 19.593 23.9098 19.3262 23.6706L17.7258 22.0758C17.4324 21.81 17.0056 21.81 16.7655 22.0758Z" fill="#484C57"/>
<path d="M17.2449 25.7169L15.6444 24.1222C15.3777 23.8564 14.9509 23.8564 14.7108 24.1222C14.4441 24.388 14.4441 24.8132 14.7108 25.0525L16.3113 26.6472C16.4446 26.7801 16.6047 26.8333 16.7914 26.8333C16.9781 26.8333 17.1382 26.7801 17.2716 26.6472C17.5116 26.408 17.5116 25.9827 17.2449 25.7169Z" fill="#484C57"/>
<path d="M14.6837 28.9334C14.8437 28.9334 15.0305 28.8802 15.1638 28.7473C15.4306 28.4815 15.4306 28.0562 15.1638 27.817L13.5634 26.2223C13.2966 25.9565 12.8698 25.9565 12.6297 26.2223C12.363 26.4881 12.363 26.9133 12.6297 27.1526L14.2302 28.7473C14.3369 28.8802 14.5236 28.9334 14.6837 28.9334Z" fill="#484C57"/>
<path d="M12.6309 30.9797C12.791 30.9797 12.9777 30.9266 13.1111 30.7937C13.3778 30.5279 13.3778 30.1026 13.1111 29.8634L11.5106 28.2687C11.2439 28.0029 10.8171 28.0029 10.577 28.2687C10.3103 28.5345 10.3103 28.9597 10.577 29.1989L12.1775 30.7937C12.2842 30.9266 12.4709 30.9797 12.6309 30.9797Z" fill="#484C57"/>
<path d="M10.5499 33.053C10.7099 33.053 10.8967 32.9998 11.03 32.8669C11.2968 32.6011 11.2968 32.1759 11.03 31.9367L9.42956 30.3419C9.16282 30.0761 8.73603 30.0761 8.49596 30.3419C8.22921 30.6077 8.22921 31.033 8.49596 31.2722L10.0964 32.8669C10.2031 32.9998 10.3898 33.053 10.5499 33.053Z" fill="#484C57"/>
<path d="M8.46884 35.1526C8.62889 35.1526 8.81561 35.0994 8.94898 34.9665C9.21573 34.7008 9.21573 34.2755 8.94898 34.0363L7.34851 32.4415C7.08177 32.1757 6.65497 32.1757 6.4149 32.4415C6.14816 32.7073 6.14816 33.1326 6.4149 33.3718L8.01537 34.9665C8.12207 35.0729 8.28212 35.1526 8.46884 35.1526Z" fill="#484C57"/>
<path d="M4.33482 34.4615C4.06808 34.7273 4.06808 35.1526 4.33482 35.3918L5.93529 36.9866C6.06867 37.1195 6.22871 37.1726 6.41544 37.1726C6.60216 37.1726 6.7622 37.1195 6.89558 36.9866C7.16232 36.7208 7.16232 36.2955 6.89558 36.0563L5.29511 34.4615C5.00169 34.1958 4.57489 34.1958 4.33482 34.4615Z" fill="#484C57"/>
</svg>
