<svg width="41" height="41" viewBox="0 0 41 41" fill="none" xmlns="http://www.w3.org/2000/svg">
<path d="M39.8252 24.0368H37.9137L36.4923 4.43494C36.4678 4.10824 36.1982 3.85693 35.8796 3.85693H32.081C31.7624 3.85693 31.4928 4.10824 31.4683 4.43494L30.0469 24.0368H28.552V19.8902C28.552 19.6389 28.405 19.4379 28.2089 19.3122C28.0128 19.1866 27.7433 19.2368 27.5472 19.3876L21.7391 24.2881V19.8902C21.7391 19.6389 21.6165 19.4379 21.396 19.3122C21.1754 19.2117 20.9303 19.2368 20.7588 19.3876L15.1957 23.9111V19.8902C15.1957 19.6389 15.0732 19.4379 14.8526 19.3374C14.632 19.2368 14.387 19.262 14.2154 19.4128L8.50528 23.9363V19.8902C8.50528 19.6641 8.38274 19.463 8.18669 19.3374C7.99063 19.2368 7.77007 19.2368 7.57401 19.3374L0.712053 23.4336C0.540504 23.5593 0.417969 23.7603 0.417969 23.9865V40.3717C0.417969 40.7235 0.687546 40.9999 1.03064 40.9999H39.8252C40.1683 40.9999 40.4379 40.7235 40.4379 40.3717V24.665C40.4379 24.3132 40.1683 24.0368 39.8252 24.0368ZM32.6447 5.08833H35.3159L36.6883 24.0117H31.2723L32.6447 5.08833ZM27.4982 39.7434H22.9644V31.4503H27.4982V39.7434ZM39.2125 39.7434H28.7481V30.822C28.7481 30.4702 28.4785 30.1938 28.1354 30.1938H22.3517C22.0086 30.1938 21.7391 30.4702 21.7391 30.822V39.7434H1.64332V24.3635L7.27993 20.996V25.243C7.27993 25.4944 7.40246 25.6954 7.62302 25.7959C7.84359 25.8964 8.08866 25.8713 8.26021 25.7205L13.9458 21.1719V25.1928C13.9458 25.4441 14.0684 25.6451 14.2889 25.7708C14.5095 25.8713 14.7546 25.8462 14.9261 25.6954L20.5137 21.197V25.62C20.5137 25.8713 20.6607 26.0724 20.8568 26.198C21.0774 26.2985 21.3224 26.2734 21.5185 26.1226L27.3021 21.2473V24.6902C27.3021 25.042 27.5717 25.3184 27.9148 25.3184H39.2125V39.7434Z" fill="#484C57"/>
<path d="M8.16191 31.1992H5.22107C4.87798 31.1992 4.6084 31.4757 4.6084 31.8275V36.2505C4.6084 36.6023 4.87798 36.8787 5.22107 36.8787H8.18642C8.52952 36.8787 8.79909 36.6023 8.79909 36.2505V31.8275C8.77459 31.4757 8.50501 31.1992 8.16191 31.1992ZM7.54924 35.6222H5.80924V32.4557H7.54924V35.6222Z" fill="#484C57"/>
<path d="M13.456 31.1992H10.4906C10.1475 31.1992 9.87793 31.4757 9.87793 31.8275V36.2505C9.87793 36.6023 10.1475 36.8787 10.4906 36.8787H13.456C13.799 36.8787 14.0686 36.6023 14.0686 36.2505V31.8275C14.0686 31.4757 13.799 31.1992 13.456 31.1992ZM12.8433 35.6222H11.1033V32.4557H12.8433V35.6222Z" fill="#484C57"/>
<path d="M18.871 31.1992H15.9056C15.5625 31.1992 15.293 31.4757 15.293 31.8275V36.2505C15.293 36.6023 15.5625 36.8787 15.9056 36.8787H18.871C19.2141 36.8787 19.4837 36.6023 19.4837 36.2505V31.8275C19.4837 31.4757 19.1896 31.1992 18.871 31.1992ZM18.2583 35.6222H16.5183V32.4557H18.2583V35.6222Z" fill="#484C57"/>
<path d="M22.891 1.26856H23.1851C23.2586 1.31882 23.4301 1.44448 23.7242 1.69578C23.8223 1.7963 23.9203 1.89683 24.0183 1.99735C24.3614 2.34918 24.729 2.75127 25.3417 2.7764C25.8808 2.7764 26.4445 2.4497 27.1797 1.69578C27.1797 1.69578 27.2042 1.67065 27.2287 1.64552C27.3023 1.57013 27.5228 1.36908 27.7679 1.34395C27.9639 1.34395 28.1845 1.44448 28.4051 1.67065C29.9 3.20362 30.7577 2.57535 31.493 1.82143C31.9831 1.31882 32.1546 1.14291 32.7918 1.82143C33.4535 2.49996 33.9191 2.7764 34.3358 2.7764H34.3603C34.5808 2.7764 34.7524 2.67587 34.8994 2.55022C35.12 2.29892 35.12 1.89683 34.8504 1.67065C34.7034 1.545 34.5318 1.49474 34.3358 1.51987C34.2377 1.46961 34.0172 1.31882 33.6496 0.941865C32.1301 -0.61623 31.0763 0.464384 30.6107 0.941865C30.0715 1.49474 29.998 1.57013 29.2383 0.791081C28.6256 0.162817 28.062 0.062295 27.6699 0.0874255C26.9101 0.137687 26.42 0.665429 26.273 0.816212C25.6358 1.46961 25.3662 1.51987 25.3172 1.51987C25.2192 1.51987 25.0231 1.31882 24.8761 1.14291C24.778 1.01726 24.6555 0.916734 24.533 0.791081C24.1899 0.464384 23.6017 -0.0884884 23.1116 0.0120338H22.891C22.5479 0.0120338 22.2783 0.28847 22.2783 0.640298C22.2783 0.992126 22.5479 1.26856 22.891 1.26856Z" fill="#484C57"/>
</svg>
