<svg width="42" height="41" viewBox="0 0 42 41" fill="none" xmlns="http://www.w3.org/2000/svg">
<path d="M21 0C9.69761 0 0.5 9.19761 0.5 20.5C0.5 31.8024 9.69761 41 21 41C32.3024 41 41.5 31.8024 41.5 20.5C41.5 9.19761 32.3024 0 21 0ZM21 39.5584C10.4761 39.5584 1.94163 30.9951 1.94163 20.5C1.94163 9.97609 10.4761 1.44163 21 1.44163C31.4951 1.44163 40.0584 9.97609 40.0584 20.5C40.0584 30.9951 31.4951 39.5584 21 39.5584Z" fill="#484C57"/>
<path d="M21 4.46924C11.9754 4.46924 4.62305 11.8216 4.62305 20.8462C4.62305 29.8708 11.9754 37.2231 21 37.2231C30.0246 37.2231 37.3769 29.8708 37.3769 20.8462C37.3769 11.8216 30.0246 4.46924 21 4.46924ZM21 35.8103C12.7538 35.8103 6.06468 29.1211 6.06468 20.875C6.06468 12.6289 12.7538 5.9397 21 5.9397C29.2461 5.9397 35.9353 12.6289 35.9353 20.875C35.9353 29.1211 29.2461 35.8103 21 35.8103Z" fill="#484C57"/>
<path d="M21.0001 8.62085C21.8074 8.62085 22.6436 8.70735 23.4221 8.85152C23.4797 8.85152 23.5086 8.88035 23.5662 8.88035C23.9122 8.88035 24.2005 8.64969 24.2582 8.3037C24.3447 7.90004 24.0852 7.52521 23.7104 7.43872C22.8166 7.26572 21.8939 7.15039 21.0001 7.15039C20.5965 7.15039 20.2793 7.46755 20.2793 7.87121C20.2793 8.27486 20.5965 8.62085 21.0001 8.62085Z" fill="#484C57"/>
<path d="M18.0606 8.96679C18.4354 8.88029 18.6949 8.47663 18.5795 8.10181C18.493 7.72698 18.0894 7.46749 17.7146 7.58282C11.6885 9.08212 7.50781 14.4738 7.50781 20.6728C7.50781 21.0765 7.82497 21.3936 8.22863 21.3936C8.63228 21.3936 8.94944 21.0765 8.94944 20.6728C8.94944 15.137 12.6977 10.3219 18.0606 8.96679Z" fill="#484C57"/>
<path d="M20.0194 19.4041C18.8373 19.7501 18.2895 20.7592 18.2318 20.8746C18.0588 21.2206 18.1742 21.6531 18.5201 21.8549C18.6355 21.9125 18.7508 21.9414 18.8661 21.9414C19.1256 21.9414 19.3851 21.7972 19.5005 21.5666C19.5005 21.5666 19.8176 20.9899 20.4231 20.8169C20.7979 20.7016 21.0286 20.2979 20.9133 19.9231C20.7979 19.5483 20.3943 19.2888 20.0194 19.4041Z" fill="#484C57"/>
<path d="M32.7354 16.2618C32.7066 16.1464 32.6489 16.0311 32.5624 15.9446C32.5336 15.9158 32.4759 15.8869 32.4471 15.8581C32.3894 15.8293 32.3606 15.8004 32.3029 15.7716C31.784 15.5698 24.2586 12.6865 19.1264 13.4938C16.099 13.9551 13.5041 15.8581 12.3796 18.453C11.4281 20.6443 11.63 23.0374 12.9563 25.2575C11.9183 26.1802 11.4858 27.6795 11.4281 27.8813C11.3128 28.2561 11.5435 28.6598 11.9471 28.7751C12.0048 28.8039 12.0624 28.8039 12.1201 28.8039C12.4373 28.8039 12.7256 28.6021 12.8121 28.2561C12.8986 27.9101 13.2446 26.9875 13.7924 26.4397C15.0322 27.8236 16.6757 28.5445 18.6075 28.5445C19.0399 28.5445 19.4724 28.5156 19.9049 28.4291C21.952 28.112 23.8838 27.074 25.3255 25.4882C26.0174 24.7385 26.7383 23.8736 27.4591 22.9798C28.5259 21.6246 32.4183 17.0691 32.5336 16.8961C32.5624 16.8672 32.5624 16.8672 32.5624 16.8384C32.6489 16.7231 32.6778 16.5789 32.7066 16.4636C32.7643 16.4059 32.7354 16.3194 32.7354 16.2618ZM26.3634 22.0859C25.6714 22.9798 24.9795 23.7871 24.3163 24.5367C23.0765 25.8918 21.4619 26.7857 19.7319 27.0452C17.656 27.3623 15.9837 26.7857 14.7727 25.344C14.7727 25.2864 14.7439 25.1999 14.715 25.1422C14.6285 24.9692 14.5132 24.8539 14.3402 24.7674C13.1293 22.9221 12.8986 20.875 13.7059 19.0585C14.6574 16.9249 16.8198 15.3391 19.3571 14.9355C19.9049 14.849 20.5104 14.8201 21.1159 14.8201C23.7685 14.8201 26.8247 15.5698 28.9872 16.2041C25.3831 16.9826 21.8367 18.453 21.6637 18.5395C21.2889 18.6837 21.1159 19.1162 21.2889 19.491C21.433 19.8658 21.8655 20.0388 22.2404 19.8658C22.298 19.837 26.5364 18.0782 30.3135 17.4151C29.016 18.8855 27.0842 21.1921 26.3634 22.0859Z" fill="#484C57"/>
</svg>
