<svg width="88" height="145" viewBox="0 0 88 145" fill="none" xmlns="http://www.w3.org/2000/svg">
<path d="M87.0664 145H3.27734V125.469L41.7539 76.543C46.6367 69.7721 50.2174 63.8477 52.4961 58.7695C54.8398 53.6263 56.0117 48.7109 56.0117 44.0234C56.0117 37.7083 54.9049 32.7604 52.6914 29.1797C50.543 25.599 47.418 23.8086 43.3164 23.8086C38.8242 23.8086 35.2435 25.8919 32.5742 30.0586C29.9701 34.2253 28.668 40.0846 28.668 47.6367H0.933594C0.933594 38.9128 2.72396 30.9375 6.30469 23.7109C9.95052 16.4844 15.0286 10.8854 21.5391 6.91406C28.1146 2.8776 35.5365 0.859375 43.8047 0.859375C56.5 0.859375 66.3307 4.375 73.2969 11.4062C80.3281 18.3724 83.8438 28.3008 83.8438 41.1914C83.8438 49.1992 81.8906 57.3372 77.9844 65.6055C74.1432 73.8086 67.1445 83.9323 56.9883 95.9766L38.7266 122.051H87.0664V145Z" fill="#DDE7E9"/>
</svg>
