<svg width="138" height="231" viewBox="0 0 138 231" fill="none" xmlns="http://www.w3.org/2000/svg">
<path d="M137.906 231H3.84375V199.75L65.4062 121.469C73.2188 110.635 78.9479 101.156 82.5938 93.0312C86.3438 84.8021 88.2188 76.9375 88.2188 69.4375C88.2188 59.3333 86.4479 51.4167 82.9062 45.6875C79.4688 39.9583 74.4688 37.0938 67.9062 37.0938C60.7188 37.0938 54.9896 40.4271 50.7188 47.0938C46.5521 53.7604 44.4688 63.1354 44.4688 75.2188H0.09375C0.09375 61.2604 2.95833 48.5 8.6875 36.9375C14.5208 25.375 22.6458 16.4167 33.0625 10.0625C43.5833 3.60417 55.4583 0.375 68.6875 0.375C89 0.375 104.729 6 115.875 17.25C127.125 28.3958 132.75 44.2812 132.75 64.9062C132.75 77.7188 129.625 90.7396 123.375 103.969C117.229 117.094 106.031 133.292 89.7812 152.562L60.5625 194.281H137.906V231Z" fill="#DDE7E9"/>
</svg>
