<svg width="86" height="147" viewBox="0 0 86 147" fill="none" xmlns="http://www.w3.org/2000/svg">
<path d="M28.3008 61.3086H41.6797C46.7578 61.3086 50.4688 59.5508 52.8125 56.0352C55.2214 52.4544 56.4258 47.7018 56.4258 41.7773C56.4258 36.1133 55.1888 31.7188 52.7148 28.5938C50.306 25.4036 47.0508 23.8086 42.9492 23.8086C39.1081 23.8086 35.9505 25.306 33.4766 28.3008C31.0677 31.2956 29.8633 35.0716 29.8633 39.6289H2.22656C2.22656 32.207 3.91927 25.5664 7.30469 19.707C10.7552 13.7826 15.5404 9.16016 21.6602 5.83984C27.8451 2.51953 34.681 0.859375 42.168 0.859375C55.2539 0.859375 65.5078 4.47266 72.9297 11.6992C80.3516 18.9258 84.0625 28.8216 84.0625 41.3867C84.0625 47.832 82.3698 53.8216 78.9844 59.3555C75.6641 64.8242 71.2695 69.0234 65.8008 71.9531C72.5065 74.8177 77.487 79.1146 80.7422 84.8438C84.0625 90.5729 85.7227 97.3438 85.7227 105.156C85.7227 117.786 81.6862 127.91 73.6133 135.527C65.6055 143.145 55.0586 146.953 41.9727 146.953C29.7982 146.953 19.9023 143.21 12.2852 135.723C4.73307 128.171 0.957031 118.275 0.957031 106.035H28.5938C28.5938 111.113 29.9284 115.378 32.5977 118.828C35.2669 122.279 38.6523 124.004 42.7539 124.004C47.5065 124.004 51.25 122.246 53.9844 118.73C56.7839 115.215 58.1836 110.527 58.1836 104.668C58.1836 90.6706 52.7474 83.6393 41.875 83.5742H28.3008V61.3086Z" fill="#DDE7E9"/>
</svg>
