<svg width="136" height="235" viewBox="0 0 136 235" fill="none" xmlns="http://www.w3.org/2000/svg">
<path d="M43.7812 97.0938H65.1875C73.3125 97.0938 79.25 94.2812 83 88.6562C86.8542 82.9271 88.7812 75.3229 88.7812 65.8438C88.7812 56.7812 86.8021 49.75 82.8438 44.75C78.9896 39.6458 73.7812 37.0938 67.2188 37.0938C61.0729 37.0938 56.0208 39.4896 52.0625 44.2812C48.2083 49.0729 46.2812 55.1146 46.2812 62.4062H2.0625C2.0625 50.5312 4.77083 39.9062 10.1875 30.5312C15.7083 21.0521 23.3646 13.6562 33.1562 8.34375C43.0521 3.03125 53.9896 0.375 65.9688 0.375C86.9062 0.375 103.312 6.15625 115.188 17.7188C127.062 29.2812 133 45.1146 133 65.2188C133 75.5312 130.292 85.1146 124.875 93.9688C119.562 102.719 112.531 109.438 103.781 114.125C114.51 118.708 122.479 125.583 127.688 134.75C133 143.917 135.656 154.75 135.656 167.25C135.656 187.458 129.198 203.656 116.281 215.844C103.469 228.031 86.5938 234.125 65.6562 234.125C46.1771 234.125 30.3438 228.135 18.1562 216.156C6.07292 204.073 0.03125 188.24 0.03125 168.656H44.25C44.25 176.781 46.3854 183.604 50.6562 189.125C54.9271 194.646 60.3438 197.406 66.9062 197.406C74.5104 197.406 80.5 194.594 84.875 188.969C89.3542 183.344 91.5938 175.844 91.5938 166.469C91.5938 144.073 82.8958 132.823 65.5 132.719H43.7812V97.0938Z" fill="#DDE7E9"/>
</svg>
