<svg width="695" height="255" viewBox="0 0 695 255" fill="none" xmlns="http://www.w3.org/2000/svg">
<path d="M127.257 76.219C127.257 69.1942 123.713 63.3402 116.623 58.657C109.534 53.7397 100.672 51.281 90.0373 51.281C70.6592 51.281 57.7799 57.7204 51.3993 70.5992L2.83582 50.2273C10.6343 35.0069 22.4502 22.8306 38.2836 13.6984C54.1169 4.56612 72.0771 0 92.1642 0C118.396 0 140.137 7.14188 157.388 21.4256C174.639 35.7094 183.265 53.6226 183.265 75.1653C183.265 94.6006 175.112 110.406 158.806 122.583C179.602 135.93 190 154.077 190 177.025C190 199.036 180.902 217.652 162.705 232.872C144.745 247.624 121.94 255 94.291 255C71.1318 255 51.1629 249.614 34.3843 238.843C17.3694 227.837 5.90796 213.554 0 195.992L51.3993 178.43C53.2898 185.923 58.0162 192.011 65.5784 196.694C73.3769 201.377 82.5933 203.719 93.2276 203.719C105.044 203.719 114.733 201.026 122.295 195.64C129.857 190.255 133.638 183.464 133.638 175.269C133.638 167.073 129.857 160.399 122.295 155.248C114.733 149.862 105.28 147.169 93.9366 147.169H75.1493V102.562H87.556C98.8993 102.562 108.352 100.103 115.914 95.186C123.476 90.2686 127.257 83.9463 127.257 76.219Z" fill="#DDE7E9"/>
<path d="M272.991 182H235V106.254H257.118C261.455 99.6368 263.624 84.8358 263.624 61.8507V7H380.46V106.254H404.4V182H366.409V142.821H272.991V182ZM295.63 106.254H342.469V43.306H301.615V64.9851C301.615 81.005 299.62 94.7612 295.63 106.254Z" fill="#DDE7E9"/>
<path d="M456.665 92.1493V142.821H418.674V7H456.665V55.5821H510.53V7H548.521V142.821H510.53V92.1493H456.665Z" fill="#DDE7E9"/>
<path d="M609.91 142.821H565.413L596.899 98.4179C588.398 94.5871 581.633 88.8408 576.602 81.1791C571.745 73.5174 569.316 64.8109 569.316 55.0597C569.316 41.4776 574 30.0721 583.368 20.8433C592.909 11.6144 604.705 7 618.757 7H695V142.821H657.009V103.119H638.013L609.91 142.821ZM619.277 66.5522H657.009V43.306H619.277C615.114 42.9577 612.078 44.8731 610.17 49.0522C608.435 53.0572 608.435 57.0622 610.17 61.0672C612.078 65.0721 615.114 66.9005 619.277 66.5522Z" fill="#DDE7E9"/>
</svg>
