<svg width="720" height="290" viewBox="0 0 720 290" fill="none" xmlns="http://www.w3.org/2000/svg">
<path d="M144.002 86.6805C144.002 78.6915 139.991 72.034 131.968 66.708C123.946 61.1157 113.918 58.3196 101.884 58.3196C79.9565 58.3196 65.3825 65.6428 58.1623 80.2893L3.20895 57.1212C12.0336 39.8118 25.4042 25.9642 43.3209 15.5785C61.2376 5.19284 81.5609 0 104.291 0C133.974 0 158.576 8.12214 178.097 24.3664C197.618 40.6107 207.379 60.9826 207.379 85.4821C207.379 107.585 198.153 125.56 179.701 139.408C203.234 154.587 215 175.225 215 201.322C215 226.354 204.705 247.525 184.114 264.835C163.79 281.612 137.985 290 106.698 290C80.4913 290 57.8949 283.875 38.9086 271.625C19.6549 259.109 6.68532 242.865 0 222.893L58.1623 202.92C60.3016 211.442 65.6499 218.365 74.2071 223.691C83.0317 229.017 93.4608 231.68 105.494 231.68C118.865 231.68 129.829 228.618 138.386 222.493C146.943 216.368 151.222 208.646 151.222 199.325C151.222 190.005 146.943 182.415 138.386 176.556C129.829 170.432 119.132 167.369 106.297 167.369H85.0373V116.639H99.0765C111.912 116.639 122.609 113.843 131.166 108.251C139.723 102.658 144.002 95.4683 144.002 86.6805Z" fill="#DDE7E9"/>
<path d="M275.056 196H235V113.761H258.32C262.893 106.577 265.179 90.5075 265.179 65.5522V6H388.366V113.761H413.607V196H373.551V153.463H275.056V196ZM298.925 113.761H348.31V45.4179H305.236V68.9552C305.236 86.3483 303.132 101.284 298.925 113.761Z" fill="#DDE7E9"/>
<path d="M468.712 98.4478V153.463H428.656V6H468.712V58.7463H525.504V6H565.56V153.463H525.504V98.4478H468.712Z" fill="#DDE7E9"/>
<path d="M630.285 153.463H583.37L616.567 105.254C607.605 101.095 600.472 94.8557 595.167 86.5373C590.046 78.2189 587.485 68.7662 587.485 58.1791C587.485 43.4328 592.424 31.0498 602.301 21.0299C612.36 11.01 624.798 6 639.613 6H720V153.463H679.944V110.358H659.916L630.285 153.463ZM640.162 70.6567H679.944V45.4179H640.162C635.772 45.0398 632.571 47.1194 630.559 51.6567C628.73 56.005 628.73 60.3532 630.559 64.7015C632.571 69.0498 635.772 71.0348 640.162 70.6567Z" fill="#DDE7E9"/>
</svg>
