<svg width="768" height="401" viewBox="0 0 768 401" fill="none" xmlns="http://www.w3.org/2000/svg">
<path d="M75.1613 165.922H111.937C125.895 165.922 136.096 161.097 142.538 151.447C149.159 141.619 152.47 128.574 152.47 112.312C152.47 96.7654 149.07 84.7032 142.27 76.1257C135.648 67.3694 126.7 62.9913 115.426 62.9913C104.868 62.9913 96.1886 67.1014 89.3882 75.3215C82.7669 83.5417 79.4562 93.9062 79.4562 106.415H3.48963C3.48963 86.0434 8.14247 67.8162 17.4482 51.7333C26.9328 35.4717 40.086 22.7841 56.9078 13.6705C73.9086 4.55682 92.6989 0 113.279 0C149.249 0 177.434 9.91778 197.835 29.7533C218.236 49.5889 228.437 76.7511 228.437 111.24C228.437 128.931 223.784 145.371 214.478 160.561C205.351 175.572 193.272 187.098 178.24 195.139C196.672 203.002 210.362 214.796 219.31 230.521C228.437 246.247 233 264.832 233 286.275C233 320.943 221.905 348.731 199.714 369.638C177.703 390.546 148.712 401 112.742 401C79.2773 401 52.076 390.725 31.1382 370.174C10.3794 349.445 0 322.283 0 288.688H75.9666C75.9666 302.626 79.6352 314.331 86.9724 323.802C94.3095 333.273 103.615 338.009 114.889 338.009C127.953 338.009 138.243 333.184 145.759 323.534C153.454 313.884 157.302 301.018 157.302 284.935C157.302 246.515 142.359 227.215 112.474 227.037H75.1613V165.922Z" fill="#DDE7E9"/>
<path d="M445.63 279H407.354V228.477H309.678V278.859H270.268L268 194.043H281.751C287.8 188.492 292.572 179.554 296.069 167.229C299.566 154.904 302.023 138.769 303.441 118.824L309.253 23H427.909V194.043H449.316L445.63 279ZM326.548 194.043H386.373V57.5755H348.947L345.545 114.166C343.182 148.13 336.85 174.756 326.548 194.043Z" fill="#DDE7E9"/>
<path d="M615.604 228.477H574.068V140.557H512.542V228.477H470.864V23H512.542V106.122H574.068V23H615.604V228.477Z" fill="#DDE7E9"/>
<path d="M726.18 228.477V154.528H704.348L673.869 228.477H628.93L665.505 139.569C648.493 127.809 639.988 110.121 639.988 86.5061C639.988 66.1841 645.705 50.5193 657.141 39.5116C668.671 28.5039 684.974 23 706.049 23H768V228.477H726.18ZM681.808 89.7519C681.808 101.136 683.84 109.415 687.904 114.59C691.967 119.67 698.3 122.211 706.9 122.211H726.18V57.5755H705.482C689.699 57.5755 681.808 68.301 681.808 89.7519Z" fill="#DDE7E9"/>
</svg>
