<svg width="134" height="232" viewBox="0 0 134 232" fill="none" xmlns="http://www.w3.org/2000/svg">
<path d="M4.9375 116.125L16.1875 0.5H126.344V38.3125H52.4375L48.375 87.0625C56.9167 81.3333 65.7188 78.4688 74.7812 78.4688C93.5312 78.4688 107.958 85.1354 118.062 98.4688C128.271 111.802 133.375 130.656 133.375 155.031C133.375 177.844 127.333 196.229 115.25 210.188C103.167 224.146 87.0208 231.125 66.8125 231.125C54.8333 231.125 43.7396 228.312 33.5312 222.688C23.3229 216.958 15.25 209.042 9.3125 198.938C3.47917 188.833 0.510417 177.375 0.40625 164.562H44.1562C44.8854 174.042 47.2292 181.385 51.1875 186.594C55.1458 191.802 60.25 194.406 66.5 194.406C73.7917 194.406 79.4167 190.917 83.375 183.938C87.3333 176.854 89.3125 166.333 89.3125 152.375C89.3125 139.25 86.9167 129.354 82.125 122.688C77.4375 116.021 70.8229 112.688 62.2812 112.688C53.9479 112.688 47.4896 115.552 42.9062 121.281L40.0938 125.188L4.9375 116.125Z" fill="#DDE7E9"/>
</svg>
