<svg width="661" height="192" viewBox="0 0 661 192" fill="none" xmlns="http://www.w3.org/2000/svg">
<path d="M67.6651 192C51.4122 192 37.2324 187.416 25.1257 178.248C13.1847 169.08 4.80953 156.915 0 141.752L38.0616 130.909C40.5493 137.961 44.3638 143.515 49.505 147.57C54.8121 151.449 60.8654 153.388 67.6651 153.388C75.6257 153.388 82.2596 151.008 87.5666 146.248C92.8737 141.311 95.5272 135.317 95.5272 128.264C95.5272 120.683 92.3762 114.336 86.074 109.223C79.9377 104.11 72.2259 101.554 62.9385 101.554H13.4335L22.8867 3.43802H119.409V40.1983H53.9828L51.7439 64.5289H68.6602C87.5666 64.5289 103.322 70.6116 115.926 82.7769C128.696 94.9422 135.081 110.105 135.081 128.264C135.081 146.424 128.613 161.587 115.678 173.752C102.907 185.917 86.9032 192 67.6651 192Z" fill="#DDE7E9"/>
<path d="M151.646 125.091V66.9091C151.646 47.8678 158.114 32 171.05 19.3058C184.152 6.43526 200.405 0 219.809 0C239.544 0 255.797 6.43526 268.567 19.3058C281.669 32 288.22 47.8678 288.22 66.9091V125.091C288.22 144.132 281.669 160.088 268.567 172.959C255.631 185.653 239.378 192 219.809 192C200.405 192 184.152 185.653 171.05 172.959C158.114 160.088 151.646 144.132 151.646 125.091ZM189.459 66.3802V125.62C189.459 133.377 192.361 139.989 198.166 145.455C203.97 150.744 211.185 153.388 219.809 153.388C228.433 153.388 235.647 150.744 241.452 145.455C247.256 139.989 250.158 133.377 250.158 125.62V66.3802C250.158 58.4463 247.256 51.8347 241.452 46.5455C235.647 41.2562 228.433 38.6116 219.809 38.6116C211.185 38.6116 203.97 41.2562 198.166 46.5455C192.361 51.8347 189.459 58.4463 189.459 66.3802Z" fill="#DDE7E9"/>
<path d="M305.426 125.091V66.9091C305.426 47.8678 311.894 32 324.83 19.3058C337.932 6.43526 354.185 0 373.589 0C393.324 0 409.577 6.43526 422.347 19.3058C435.449 32 442 47.8678 442 66.9091V125.091C442 144.132 435.449 160.088 422.347 172.959C409.411 185.653 393.158 192 373.589 192C354.185 192 337.932 185.653 324.83 172.959C311.894 160.088 305.426 144.132 305.426 125.091ZM343.239 66.3802V125.62C343.239 133.377 346.141 139.989 351.946 145.455C357.75 150.744 364.965 153.388 373.589 153.388C382.213 153.388 389.427 150.744 395.231 145.455C401.036 139.989 403.938 133.377 403.938 125.62V66.3802C403.938 58.4463 401.036 51.8347 395.231 46.5455C389.427 41.2562 382.213 38.6116 373.589 38.6116C364.965 38.6116 357.75 41.2562 351.946 46.5455C346.141 51.8347 343.239 58.4463 343.239 66.3802Z" fill="#DDE7E9"/>
<path d="M469.26 53.5334H462V43.5896H471.479C474.101 36.6256 478.538 30.9673 484.79 26.6148C490.975 22.3293 498.134 20.1865 506.269 20.1865C513.731 20.1865 520.42 22.028 526.336 25.7108C532.319 29.3268 536.823 34.215 539.848 40.3754L524.218 46.1006C522.537 42.8195 520.084 40.2415 516.857 38.3666C513.697 36.4247 510.168 35.4537 506.269 35.4537C499.344 35.4537 493.899 38.1657 489.933 43.5896H508.89V53.5334H486C485.865 55.2744 485.798 56.3123 485.798 56.6471C485.798 56.9149 485.865 57.9193 486 59.6603H508.89V69.6041H489.832C493.731 75.0949 499.21 77.8404 506.269 77.8404C510.168 77.8404 513.697 76.9029 516.857 75.028C520.084 73.0861 522.537 70.4746 524.218 67.1935L539.848 72.9187C536.823 79.0122 532.319 83.9339 526.336 87.6837C520.42 91.2996 513.731 93.1076 506.269 93.1076C498.067 93.1076 490.874 90.9648 484.689 86.6793C478.437 82.3268 474 76.6351 471.378 69.6041H462V59.6603H469.26C469.193 59.1916 469.16 58.1872 469.16 56.6471C469.16 55.04 469.193 54.0021 469.26 53.5334Z" fill="#DDE7E9"/>
<path d="M562.989 91.8018H547.157V21.4923H562.989L586.686 63.2763L610.282 21.4923H626.114V91.8018H610.282V51.2232L591.93 84.2687H581.341L562.989 51.2232V91.8018Z" fill="#DDE7E9"/>
<path d="M651.219 12.4548C651.219 11.3835 650.748 10.513 649.807 9.84335C648.933 9.10677 647.857 8.73849 646.58 8.73849C643.756 8.73849 641.639 10.379 640.227 13.6602L631.857 9.54202C633.202 6.59572 635.185 4.28555 637.807 2.61151C640.429 0.870516 643.353 1.67903e-05 646.58 1.67903e-05C650.614 1.67903e-05 653.975 1.20532 656.664 3.61594C659.42 5.95959 660.798 8.77197 660.798 12.0531C660.798 16.0708 657.941 20.5907 652.227 25.6128L646.983 30.5344H661V39.1725H632.967V32.5433L646.782 19.6867C649.74 16.9413 651.219 14.5306 651.219 12.4548Z" fill="#DDE7E9"/>
</svg>
