<svg width="885" height="333" viewBox="0 0 885 333" fill="none" xmlns="http://www.w3.org/2000/svg">
<path d="M6.54834 168.928L22.5444 4.52344H179.173V58.2881H74.0874L68.311 127.604C80.4562 119.458 92.9717 115.385 105.857 115.385C132.518 115.385 153.031 124.864 167.398 143.823C181.913 162.781 189.17 189.589 189.17 224.248C189.17 256.684 180.58 282.826 163.399 302.673C146.218 322.52 123.261 332.443 94.5269 332.443C77.494 332.443 61.7201 328.444 47.2051 320.446C32.6901 312.3 21.2114 301.044 12.769 286.677C4.47477 272.31 0.253581 256.018 0.105469 237.8H62.3125C63.3493 251.278 66.6818 261.72 72.3101 269.125C77.9383 276.531 85.1958 280.234 94.0825 280.234C104.45 280.234 112.448 275.272 118.077 265.349C123.705 255.277 126.519 240.318 126.519 220.471C126.519 201.809 123.112 187.738 116.299 178.259C109.634 168.78 100.229 164.04 88.084 164.04C76.235 164.04 67.0521 168.113 60.5352 176.259L56.5361 181.813L6.54834 168.928Z" fill="#DDE7E9"/>
<path d="M418.226 194.255C418.226 238.985 410.079 273.199 393.787 296.896C377.643 320.594 354.537 332.443 324.471 332.443C294.7 332.443 271.669 320.965 255.376 298.007C239.232 274.902 230.864 241.873 230.271 198.92V137.824C230.271 93.2425 238.344 59.1768 254.488 35.627C270.632 11.929 293.812 0.0800781 324.026 0.0800781C354.241 0.0800781 377.421 11.7809 393.565 35.1826C409.709 58.5843 417.929 91.9836 418.226 135.38V194.255ZM355.13 128.715C355.13 103.24 352.612 84.1336 347.576 71.396C342.54 58.6584 334.69 52.2896 324.026 52.2896C304.031 52.2896 293.663 75.6172 292.923 122.272V202.919C292.923 228.987 295.441 248.39 300.477 261.127C305.66 273.865 313.659 280.234 324.471 280.234C334.69 280.234 342.244 274.309 347.132 262.46C352.168 250.463 354.834 232.172 355.13 207.585V128.715Z" fill="#DDE7E9"/>
<path d="M648.392 194.255C648.392 238.985 640.245 273.199 623.953 296.896C607.809 320.594 584.703 332.443 554.637 332.443C524.866 332.443 501.835 320.965 485.542 298.007C469.398 274.902 461.03 241.873 460.438 198.92V137.824C460.438 93.2425 468.51 59.1768 484.654 35.627C500.798 11.929 523.978 0.0800781 554.192 0.0800781C584.407 0.0800781 607.587 11.7809 623.731 35.1826C639.875 58.5843 648.095 91.9836 648.392 135.38V194.255ZM585.296 128.715C585.296 103.24 582.778 84.1336 577.742 71.396C572.706 58.6584 564.856 52.2896 554.192 52.2896C534.197 52.2896 523.829 75.6172 523.089 122.272V202.919C523.089 228.987 525.607 248.39 530.643 261.127C535.826 273.865 543.825 280.234 554.637 280.234C564.856 280.234 572.41 274.309 577.298 262.46C582.334 250.463 585 232.172 585.296 207.585V128.715Z" fill="#DDE7E9"/>
<path d="M700.724 127.938C700.724 123.75 699.866 120.445 698.151 118.023C696.435 115.601 693.61 113.331 689.674 111.211C681.955 107.78 676.228 104.501 672.494 101.373C668.811 98.1938 666.061 94.5863 664.245 90.5498C662.428 86.4629 661.52 81.6191 661.52 76.0186C661.52 67.6429 663.841 60.7305 668.483 55.2812C673.125 49.7816 679.255 46.5272 686.874 45.5181V29.3218H698.302V45.8208C705.871 47.284 711.749 51.1187 715.937 57.3247C720.175 63.5308 722.294 71.4019 722.294 80.938H700.875C700.875 74.8833 699.993 70.3675 698.227 67.3906C696.511 64.4137 694.266 62.9253 691.491 62.9253C688.817 62.9253 686.723 64.0858 685.209 66.4067C683.695 68.7277 682.938 71.9569 682.938 76.0942C682.938 79.6766 683.721 82.6535 685.285 85.0249C686.849 87.3963 689.826 89.8687 694.215 92.4419C702.288 96.2765 708.091 99.7832 711.623 102.962C715.205 106.09 717.854 109.647 719.569 113.633C721.285 117.619 722.143 122.337 722.143 127.786C722.143 136.313 719.872 143.251 715.331 148.599C710.84 153.947 704.609 157.151 696.637 158.211V173.272H685.285V158.211C676.556 156.95 669.82 153.241 665.077 147.085C660.334 140.879 657.963 132.63 657.963 122.337H679.381C679.381 128.291 680.34 132.882 682.257 136.111C684.175 139.29 687.051 140.879 690.885 140.879C693.963 140.879 696.36 139.744 698.075 137.474C699.841 135.153 700.724 131.974 700.724 127.938Z" fill="#DDE7E9"/>
<path d="M767.326 46.8047L788.139 126.5L808.876 46.8047H837.938V157H815.612V127.181L817.655 81.2407L795.631 157H780.495L758.471 81.2407L760.514 127.181V157H738.263V46.8047H767.326Z" fill="#DDE7E9"/>
<path d="M884.092 69.519H843.752V59.0747L861.917 39.624C864.086 37.1517 865.65 34.856 866.609 32.7368C867.568 30.6177 868.047 28.9779 868.047 27.8174C868.047 23.5791 866.432 21.46 863.203 21.46C861.488 21.46 860.125 22.242 859.116 23.8062C858.158 25.3198 857.678 27.3128 857.678 29.7852H842.617C842.617 23.8314 844.484 18.8867 848.218 14.9512C851.951 10.9652 856.72 8.97217 862.522 8.97217C869.132 8.97217 874.177 10.612 877.659 13.8916C881.191 17.1208 882.957 21.7375 882.957 27.7417C882.957 31.6268 882.048 35.1082 880.232 38.186C878.466 41.2134 874.606 45.3507 868.652 50.5981L863.43 57.0312H884.092V69.519Z" fill="#DDE7E9"/>
</svg>
