<svg width="136" height="234" viewBox="0 0 136 234" fill="none" xmlns="http://www.w3.org/2000/svg">
<path d="M105.312 0.15625V37.6562H102.812C86.25 37.7604 73.0729 42.7604 63.2812 52.6562C53.5938 62.4479 47.7083 76.1979 45.625 93.9062C55.1042 83.0729 66.9792 77.6562 81.25 77.6562C97.7083 77.6562 110.833 84.6875 120.625 98.75C130.521 112.812 135.469 131.562 135.469 155C135.469 169.896 132.656 183.333 127.031 195.312C121.406 207.292 113.49 216.615 103.281 223.281C93.1771 229.844 81.7188 233.125 68.9062 233.125C48.2812 233.125 31.7188 224.844 19.2188 208.281C6.82292 191.719 0.625 169.427 0.625 141.406V125C0.625 99.8958 4.53125 77.9167 12.3438 59.0625C20.2604 40.2083 31.6146 25.7292 46.4062 15.625C61.3021 5.41667 78.6458 0.260417 98.4375 0.15625H105.312ZM67.3438 114.219C61.7188 114.219 56.9792 115.99 53.125 119.531C49.375 123.073 46.5625 127.448 44.6875 132.656V148.594C44.6875 164.635 46.8229 176.615 51.0938 184.531C55.3646 192.448 60.9896 196.406 67.9688 196.406C75.0521 196.406 80.7292 192.604 85 185C89.2708 177.292 91.4062 167.448 91.4062 155.469C91.4062 143.281 89.1667 133.385 84.6875 125.781C80.3125 118.073 74.5312 114.219 67.3438 114.219Z" fill="#DDE7E9"/>
</svg>
