<svg width="8" height="15" viewBox="0 0 8 15" fill="none" xmlns="http://www.w3.org/2000/svg">
<path d="M5.26203 14.9966C4.12121 14.9966 3.06239 14.9897 2.00357 15C1.66132 15.0034 1.70054 14.7852 1.70054 14.5807C1.70054 12.8187 1.7041 11.0566 1.7041 9.29456C1.7041 8.71175 1.7041 8.12553 1.7041 7.50182C1.11943 7.50182 0.573975 7.50182 0 7.50182C0 6.64635 0 5.82837 0 4.95245C0.541889 4.95245 1.09804 4.95245 1.70767 4.95245C1.70767 4.25035 1.73619 3.6062 1.7041 2.96885C1.60428 1.05001 3.06595 0.0309468 4.75579 0.00708913C5.81105 -0.00654385 6.86988 0.00368094 7.95722 0.00368094C7.95722 0.835293 7.95722 1.6669 7.95722 2.58031C7.46524 2.58031 6.96613 2.58031 6.47059 2.58031C5.47237 2.58031 5.2549 2.79163 5.25134 3.74934C5.25134 4.12766 5.25134 4.50597 5.25134 4.92519C6.18182 4.92519 7.06595 4.92519 8 4.92519C7.88592 5.79429 7.77896 6.61227 7.66488 7.47115C6.86631 7.47115 6.08912 7.47115 5.26203 7.47115C5.26203 9.98302 5.26203 12.4574 5.26203 14.9966Z" fill="white"/>
</svg>
