<svg width="18" height="23" viewBox="0 0 18 23" fill="none" xmlns="http://www.w3.org/2000/svg">
<path d="M9.65405 12.3249C9.33547 12.1739 9.03549 12.0041 8.71458 11.8814C7.40304 11.3837 5.77525 11.8224 4.85438 12.8933C4.32186 13.5114 4.01258 14.2237 3.93816 15.0375C3.79864 16.5778 4.66137 18.0521 6.0729 18.6961C7.5449 19.3683 9.31222 18.9461 10.3331 17.6794C10.8865 16.993 11.1586 16.2051 11.1609 15.3229C11.1656 13.443 11.1633 11.5653 11.1633 9.68534C11.1633 7.0812 11.1633 4.47469 11.1633 1.87055C11.1633 1.29735 11.1633 0.721801 11.1633 0.148606C11.1633 0.10143 11.1633 0.054253 11.1633 0C12.4655 0 13.7608 0 15.0723 0C15.0746 0.0424589 15.0793 0.0872766 15.0793 0.132094C15.0816 0.492995 15.0769 0.856254 15.0886 1.21715C15.1141 1.90829 15.5141 2.27863 16.0722 2.46497C16.4861 2.60179 16.9117 2.63717 17.3419 2.64896C17.5535 2.65368 17.7675 2.64896 17.9977 2.64896C17.9977 2.78577 17.9977 2.91551 17.9977 3.0476C17.9977 3.29528 17.9977 3.5406 17.9977 3.78828C17.9977 4.68935 17.9953 5.58806 18 6.48913C18 6.6 17.9651 6.63538 17.8651 6.65425C17.0233 6.81701 16.1815 6.8406 15.3351 6.69435C15.256 6.6802 15.1769 6.6684 15.0816 6.65189C15.0793 6.70143 15.0746 6.74153 15.0746 6.78399C15.0746 9.63109 15.0746 12.4758 15.0746 15.3229C15.0746 17.1204 14.5281 18.7314 13.4189 20.1302C12.2516 21.6045 10.74 22.5221 8.90527 22.8665C7.26584 23.1731 5.68921 22.9514 4.19396 22.2036C2.89172 21.5502 1.85691 20.5878 1.10347 19.3259C0.910463 19.0027 0.761636 18.6512 0.598856 18.3092C0.352361 17.7879 0.21051 17.2359 0.112843 16.6698C-0.00807943 15.9693 -0.0313337 15.2663 0.0407545 14.5563C0.119819 13.7685 0.312829 13.0113 0.626761 12.2895C1.20114 10.9615 2.07783 9.88348 3.24984 9.05554C4.24512 8.35261 5.34737 7.9233 6.55194 7.7629C7.54722 7.63081 8.52855 7.69921 9.50058 7.95396C9.61917 7.98463 9.65638 8.03181 9.65405 8.15918C9.64708 8.82437 9.6494 9.4872 9.6494 10.1524C9.6494 10.8482 9.6494 11.5417 9.6494 12.2376C9.65405 12.2753 9.65405 12.3084 9.65405 12.3249Z" fill="white"/>
</svg>
