<svg width="50" height="50" viewBox="0 0 50 50" fill="none" xmlns="http://www.w3.org/2000/svg">
<path d="M49.2345 29.3132H46.8463L45.0704 5.4085C45.0398 5.01008 44.703 4.70361 44.305 4.70361H39.5591C39.161 4.70361 38.8242 5.01008 38.7936 5.4085L37.0178 29.3132H35.15V24.2564C35.15 23.9499 34.9663 23.7048 34.7214 23.5515C34.4764 23.3983 34.1396 23.4596 33.8947 23.6435L26.6381 29.6196V24.2564C26.6381 23.9499 26.485 23.7048 26.2094 23.5515C25.9339 23.429 25.6277 23.4596 25.4133 23.6435L18.4629 29.1599V24.2564C18.4629 23.9499 18.3099 23.7048 18.0343 23.5822C17.7587 23.4596 17.4525 23.4902 17.2382 23.6741L10.1041 29.1906V24.2564C10.1041 23.9806 9.95101 23.7354 9.70606 23.5822C9.46111 23.4596 9.18555 23.4596 8.9406 23.5822L0.367422 28.5777C0.153092 28.7309 0 28.9761 0 29.2519V49.2338C0 49.6628 0.336803 49.9999 0.765462 49.9999H49.2345C49.6632 49.9999 50 49.6628 50 49.2338V30.0794C50 29.6503 49.6632 29.3132 49.2345 29.3132ZM40.2633 6.20532H43.6007L45.3154 29.2825H38.5487L40.2633 6.20532ZM33.8334 48.4676H28.169V38.3541H33.8334V48.4676ZM48.4691 48.4676H35.395V37.5879C35.395 37.1588 35.0582 36.8217 34.6295 36.8217H27.4035C26.9749 36.8217 26.6381 37.1588 26.6381 37.5879V48.4676H1.53092V29.7116L8.57318 25.6049V30.7842C8.57318 31.0907 8.72627 31.3359 9.00184 31.4585C9.2774 31.5811 9.58359 31.5504 9.79792 31.3665L16.9014 25.8194V30.7229C16.9014 31.0294 17.0545 31.2746 17.3301 31.4278C17.6056 31.5504 17.9118 31.5198 18.1261 31.3359L25.1072 25.8501V31.2439C25.1072 31.5504 25.2909 31.7956 25.5358 31.9488C25.8114 32.0714 26.1176 32.0408 26.3625 31.8569L33.5885 25.9114V30.11C33.5885 30.5391 33.9253 30.8762 34.3539 30.8762H48.4691V48.4676Z" fill="#484C57"/>
<path d="M9.67503 38.0477H6.00081C5.57215 38.0477 5.23535 38.3848 5.23535 38.8139V44.2078C5.23535 44.6368 5.57215 44.974 6.00081 44.974H9.70565C10.1343 44.974 10.4711 44.6368 10.4711 44.2078V38.8139C10.4405 38.3848 10.1037 38.0477 9.67503 38.0477ZM8.90957 43.4416H6.73566V39.5801H8.90957V43.4416Z" fill="#484C57"/>
<path d="M16.2887 38.0477H12.5838C12.1552 38.0477 11.8184 38.3848 11.8184 38.8139V44.2078C11.8184 44.6368 12.1552 44.974 12.5838 44.974H16.2887C16.7173 44.974 17.0541 44.6368 17.0541 44.2078V38.8139C17.0541 38.3848 16.7173 38.0477 16.2887 38.0477ZM15.5232 43.4416H13.3493V39.5801H15.5232V43.4416Z" fill="#484C57"/>
<path d="M23.0553 38.0477H19.3504C18.9218 38.0477 18.585 38.3848 18.585 38.8139V44.2078C18.585 44.6368 18.9218 44.974 19.3504 44.974H23.0553C23.4839 44.974 23.8207 44.6368 23.8207 44.2078V38.8139C23.8207 38.3848 23.4533 38.0477 23.0553 38.0477ZM22.2898 43.4416H20.1159V39.5801H22.2898V43.4416Z" fill="#484C57"/>
<path d="M28.077 1.54703H28.4444C28.5363 1.60832 28.7506 1.76156 29.118 2.06803C29.2405 2.19061 29.363 2.3132 29.4854 2.43579C29.9141 2.86485 30.3734 3.3552 31.1388 3.38585C31.8124 3.38585 32.5167 2.98744 33.4352 2.06803C33.4352 2.06803 33.4658 2.03738 33.4965 2.00673C33.5883 1.91479 33.8639 1.66962 34.1701 1.63897C34.415 1.63897 34.6906 1.76156 34.9661 2.03738C36.8339 3.90685 37.9055 3.14067 38.8241 2.22126C39.4364 1.60832 39.6508 1.39379 40.4469 2.22126C41.2736 3.04873 41.8553 3.38585 42.3758 3.38585H42.4064C42.682 3.38585 42.8963 3.26326 43.08 3.11003C43.3556 2.80356 43.3556 2.3132 43.0188 2.03738C42.8351 1.88414 42.6208 1.82285 42.3758 1.8535C42.2533 1.7922 41.9778 1.60832 41.5185 1.14862C39.6202 -0.7515 38.3036 0.566322 37.7218 1.14862C37.0482 1.82285 36.9563 1.91479 36.0072 0.964734C35.2417 0.198558 34.5375 0.0759695 34.0476 0.106617C33.0984 0.167911 32.486 0.811498 32.3023 0.995381C31.5063 1.7922 31.1695 1.8535 31.1082 1.8535C30.9857 1.8535 30.7408 1.60832 30.5571 1.39379C30.4346 1.24056 30.2815 1.11797 30.1284 0.964734C29.6998 0.566322 28.9649 -0.107913 28.3526 0.0146754H28.077C27.6483 0.0146754 27.3115 0.351793 27.3115 0.780851C27.3115 1.20991 27.6483 1.54703 28.077 1.54703Z" fill="#484C57"/>
</svg>
