<svg width="50" height="50" viewBox="0 0 50 50" fill="none" xmlns="http://www.w3.org/2000/svg">
<path d="M49.7689 2.70672L47.2701 0.208209C47.1213 0.0594884 46.9428 0 46.7346 0C46.5264 0 46.3479 0.0892326 46.1991 0.208209L39.6248 6.78168L39.5355 6.69245C39.1786 6.33552 38.6728 6.12731 38.1671 6.12731C37.6317 6.12731 37.1557 6.33552 36.7987 6.69245L36.0252 7.4658L35.341 6.78168C34.3593 5.80012 33.0207 5.23498 31.6225 5.23498C30.2243 5.23498 28.8857 5.77038 27.904 6.78168L21.7758 12.909C21.4784 13.2064 21.4784 13.6823 21.7758 13.95L36.055 28.2273C36.2037 28.376 36.3822 28.4355 36.5905 28.4355C36.7987 28.4355 36.9772 28.376 37.1259 28.2273L43.2541 22.0999C44.2358 21.1184 44.801 19.7799 44.801 18.3819C44.801 16.9839 44.2655 15.6455 43.2541 14.6639L42.5699 13.9798L43.3433 13.2064C43.7003 12.8495 43.9085 12.3438 43.9085 11.8382C43.9085 11.3325 43.7003 10.8269 43.3433 10.47L43.2541 10.3807L49.8284 3.80726C50.0664 3.48007 50.0664 3.00416 49.7689 2.70672ZM43.2838 18.3819C43.2838 19.3932 42.8971 20.345 42.1831 21.0589L36.5905 26.6508L23.3525 13.4146L28.9452 7.82273C29.6591 7.10886 30.6111 6.72219 31.6225 6.72219C32.6339 6.72219 33.5859 7.10886 34.2998 7.82273L35.5195 9.04224L40.9337 14.4557L42.1534 15.6752C42.8673 16.4188 43.2838 17.3706 43.2838 18.3819ZM37.0962 8.53659L37.8696 7.76324C38.0481 7.58477 38.3456 7.58477 38.5241 7.76324L42.2426 11.4515C42.3319 11.5408 42.3914 11.6597 42.3914 11.7787C42.3914 11.8977 42.3319 12.0167 42.2426 12.1059L41.4692 12.8792L40.1305 11.5408L37.0962 8.53659Z" fill="#484C57"/>
<path d="M33.6752 9.25044C33.1397 8.71504 32.396 8.4176 31.6226 8.4176C30.8491 8.4176 30.1351 8.71504 29.5699 9.25044L26.9223 11.8977C26.6248 12.1951 26.6248 12.671 26.9223 12.9387C27.2198 13.2362 27.6958 13.2362 27.9635 12.9387L30.6111 10.2915C30.8788 10.0238 31.2358 9.87507 31.5928 9.87507C31.9795 9.87507 32.3068 10.0238 32.5745 10.2915L35.3113 13.028C35.4601 13.1767 35.6386 13.2362 35.8468 13.2362C36.055 13.2362 36.2335 13.1767 36.3823 13.028C36.6797 12.7305 36.6797 12.2546 36.3823 11.9869L33.6752 9.25044Z" fill="#484C57"/>
<path d="M14.3688 26.0262C14.0713 25.7287 13.5954 25.7287 13.3276 26.0262L8.80589 30.5473C8.65715 30.696 8.59766 30.8745 8.59766 31.0827C8.59766 31.2909 8.6869 31.4694 8.80589 31.6181L18.5931 41.4039C18.7418 41.5527 18.9203 41.6121 19.1285 41.6121C19.3368 41.6121 19.5153 41.5527 19.664 41.4039L24.1857 36.8828C24.3345 36.7341 24.394 36.5556 24.394 36.3474C24.394 36.1392 24.3047 35.9607 24.1857 35.812L14.3688 26.0262ZM19.1285 39.7977L10.4123 31.0827L13.8631 27.6324L22.5793 36.3474L19.1285 39.7977Z" fill="#484C57"/>
<path d="M13.8335 32.094L18.1767 36.4366C18.3254 36.5853 18.5039 36.6448 18.7122 36.6448C18.9204 36.6448 19.0989 36.5853 19.2476 36.4366C19.5451 36.1392 19.5451 35.6633 19.2476 35.3956L14.8747 31.0529C14.5772 30.7555 14.1012 30.7555 13.8335 31.0529C13.536 31.3206 13.536 31.7965 13.8335 32.094Z" fill="#484C57"/>
<path d="M30.4027 24.9256C29.778 24.9256 29.183 25.1635 28.7368 25.6097L23.2631 31.0826L19.0984 26.9185L24.572 21.4455C25.0183 20.9994 25.2562 20.4045 25.2562 19.7798C25.2562 19.1552 25.0183 18.5603 24.572 18.1142C24.1258 17.668 23.5308 17.4301 22.9061 17.4301C22.2814 17.4301 21.6865 17.668 21.2402 18.1142L15.7666 23.5871L13.9519 21.7727C13.6544 21.4753 13.1785 21.4753 12.9107 21.7727L6.78259 27.9C4.72997 29.9524 4.72997 33.3135 6.78259 35.3658L7.4668 36.0499L6.69335 36.8233C5.9199 37.5966 5.9199 38.8161 6.69335 39.5895L6.78259 39.6787L0.208238 46.2224C0.0594964 46.3712 0 46.5496 0 46.7578C0 46.966 0.0892447 47.1445 0.208238 47.2932L2.70709 49.7917C2.85583 49.9405 3.03432 50 3.24256 50C3.45079 50 3.62928 49.9405 3.77802 49.7917L10.3524 43.2183L10.4416 43.3075C10.7986 43.6644 11.3043 43.8727 11.81 43.8727C12.3455 43.8727 12.8215 43.6644 13.1785 43.3075L13.9519 42.5342L14.6361 43.2183C15.6773 44.2593 17.016 44.765 18.3547 44.765C19.6933 44.765 21.0617 44.2593 22.0732 43.2183L28.2013 37.091C28.4988 36.7935 28.4988 36.3176 28.2013 36.0499L26.5652 34.414L32.0388 28.9411C32.4851 28.4949 32.723 27.9 32.723 27.2754C32.723 26.6508 32.4851 26.0559 32.0388 25.6097C31.6224 25.1933 31.0274 24.9256 30.4027 24.9256ZM22.2814 19.185C22.6087 18.8578 23.1739 18.8578 23.5011 19.185C23.6498 19.3337 23.7391 19.5716 23.7391 19.8096C23.7391 20.0475 23.6498 20.226 23.5011 20.4045L18.0274 25.8477L16.8077 24.6282L22.2814 19.185ZM3.24256 48.1856L1.78489 46.7578L7.82378 40.7198L9.28145 42.1772L3.24256 48.1856ZM12.1373 42.2367C11.9588 42.4152 11.6613 42.4152 11.4828 42.2367L10.8878 41.6418L8.389 39.1433L7.79403 38.5484C7.61555 38.37 7.61555 38.0725 7.79403 37.8941L8.56749 37.1207L12.9405 41.4931L12.1373 42.2367ZM21.0617 42.1475C19.5743 43.6347 17.1945 43.6347 15.7071 42.1475L14.4874 40.928L9.07321 35.5145L7.85353 34.295C6.36612 32.8078 6.36612 30.4283 7.85353 28.9411L13.4462 23.3492L15.2608 25.1635L17.5217 27.4241L22.7574 32.6591L25.0183 34.9196L26.6544 36.5556L21.0617 42.1475ZM30.9976 27.9L25.524 33.3729L24.3043 32.1534L29.778 26.6805C30.1052 26.3533 30.6704 26.3533 30.9976 26.6805C31.1464 26.8292 31.2356 27.0672 31.2356 27.3051C31.2654 27.5133 31.1761 27.7215 30.9976 27.9Z" fill="#484C57"/>
</svg>
