<svg width="50" height="50" viewBox="0 0 50 50" fill="none" xmlns="http://www.w3.org/2000/svg">
<path d="M25 0C11.2166 0 0 11.2166 0 25C0 38.7834 11.2166 50 25 50C38.7834 50 50 38.7834 50 25C50 11.2166 38.7834 0 25 0ZM25 48.2419C12.166 48.2419 1.75809 37.7989 1.75809 25C1.75809 12.166 12.166 1.75809 25 1.75809C37.7989 1.75809 48.2419 12.166 48.2419 25C48.2419 37.7989 37.7989 48.2419 25 48.2419Z" fill="#484C57"/>
<path d="M24.9992 5.45007C13.9936 5.45007 5.02734 14.4163 5.02734 25.4219C5.02734 36.4276 13.9936 45.3938 24.9992 45.3938C36.0048 45.3938 44.9711 36.4276 44.9711 25.4219C44.9711 14.4163 36.0048 5.45007 24.9992 5.45007ZM24.9992 43.6709C14.943 43.6709 6.78543 35.5134 6.78543 25.4571C6.78543 15.4008 14.943 7.24332 24.9992 7.24332C35.0555 7.24332 43.213 15.4008 43.213 25.4571C43.213 35.5134 35.0555 43.6709 24.9992 43.6709Z" fill="#484C57"/>
<path d="M25.0001 10.5133C25.9847 10.5133 27.0044 10.6188 27.9537 10.7946C28.024 10.7946 28.0592 10.8298 28.1295 10.8298C28.5515 10.8298 28.9031 10.5485 28.9734 10.1266C29.0789 9.6343 28.7624 9.1772 28.3053 9.07171C27.2153 8.86074 26.0902 8.72009 25.0001 8.72009C24.5079 8.72009 24.1211 9.10687 24.1211 9.59914C24.1211 10.0914 24.5079 10.5133 25.0001 10.5133Z" fill="#484C57"/>
<path d="M21.4141 10.9353C21.8712 10.8299 22.1877 10.3376 22.047 9.88049C21.9415 9.42339 21.4493 9.10693 20.9922 9.24758C13.6434 11.076 8.54492 17.6512 8.54492 25.211C8.54492 25.7033 8.9317 26.0901 9.42397 26.0901C9.91623 26.0901 10.303 25.7033 10.303 25.211C10.303 18.46 14.874 12.5879 21.4141 10.9353Z" fill="#484C57"/>
<path d="M23.8043 23.6638C22.3627 24.0858 21.6946 25.3164 21.6243 25.4571C21.4133 25.879 21.5539 26.4065 21.9759 26.6526C22.1165 26.7229 22.2572 26.7581 22.3978 26.7581C22.7143 26.7581 23.0307 26.5823 23.1714 26.301C23.1714 26.301 23.5582 25.5977 24.2966 25.3868C24.7537 25.2461 25.035 24.7539 24.8943 24.2967C24.7537 23.8396 24.2614 23.5232 23.8043 23.6638Z" fill="#484C57"/>
<path d="M39.3117 19.8312C39.2766 19.6906 39.2063 19.5499 39.1008 19.4445C39.0656 19.4093 38.9953 19.3741 38.9601 19.339C38.8898 19.3038 38.8546 19.2687 38.7843 19.2335C38.1514 18.9874 28.9742 15.4712 22.7154 16.4557C19.0234 17.0183 15.8589 19.339 14.4876 22.5035C13.3272 25.1758 13.5734 28.0942 15.1908 30.8017C13.925 31.9269 13.3975 33.7553 13.3272 34.0014C13.1866 34.4585 13.4679 34.9508 13.9601 35.0914C14.0305 35.1266 14.1008 35.1266 14.1711 35.1266C14.5579 35.1266 14.9095 34.8805 15.015 34.4585C15.1205 34.0366 15.5424 32.9114 16.2105 32.2433C17.7224 33.9311 19.7267 34.8101 22.0825 34.8101C22.6099 34.8101 23.1373 34.775 23.6648 34.6695C26.1613 34.2827 28.5171 33.0169 30.2752 31.083C31.1191 30.1688 31.9981 29.1139 32.8771 28.0239C34.1781 26.3713 38.925 20.8158 39.0656 20.6048C39.1008 20.5696 39.1008 20.5696 39.1008 20.5345C39.2063 20.3938 39.2414 20.218 39.2766 20.0774C39.3469 20.007 39.3117 19.9016 39.3117 19.8312ZM31.541 26.9339C30.6971 28.0239 29.8532 29.0085 29.0445 29.9227C27.5326 31.5753 25.5635 32.6653 23.4538 32.9817C20.9222 33.3685 18.8828 32.6653 17.406 30.9072C17.406 30.8369 17.3708 30.7314 17.3357 30.6611C17.2302 30.4501 17.0895 30.3094 16.8786 30.204C15.4018 27.9536 15.1205 25.4571 16.105 23.2419C17.2653 20.64 19.9025 18.7061 22.9967 18.2138C23.6648 18.1083 24.4032 18.0732 25.1416 18.0732C28.3764 18.0732 32.1036 18.9874 34.7407 19.7609C30.3455 20.7103 26.0206 22.5035 25.8096 22.609C25.3525 22.7848 25.1416 23.3123 25.3525 23.7694C25.5283 24.2265 26.0558 24.4374 26.5129 24.2265C26.5832 24.1913 31.752 22.0464 36.3582 21.2377C34.7759 23.031 32.42 25.8439 31.541 26.9339Z" fill="#484C57"/>
</svg>
