<svg width="79" height="43" viewBox="0 0 79 43" fill="none" xmlns="http://www.w3.org/2000/svg">
<path d="M78.8127 36.0196L74.4802 31.7221H75.4068C75.6572 31.7221 75.8826 31.5731 75.9828 31.3495C76.083 31.1259 76.0329 30.8527 75.8576 30.6788L71.525 26.3813H74.2047C74.4551 26.3813 74.6805 26.2322 74.7807 26.0087C74.8809 25.7851 74.8308 25.5118 74.6555 25.338L70.1977 20.8914H72.8774C73.1278 20.8914 73.3532 20.7423 73.4534 20.5188C73.5536 20.2952 73.5035 20.022 73.3282 19.8481L68.9956 15.5505H70.6234C70.8488 15.5505 71.0492 15.4263 71.1493 15.2525C71.2495 15.0786 71.2746 14.8302 71.1744 14.6314L63.5611 0.322935C63.4359 0.124206 63.2355 0 63.0101 0C62.7847 0 62.5593 0.124206 62.4592 0.322935L54.6205 14.6314C54.5203 14.8302 54.5203 15.0537 54.6205 15.2525C54.7457 15.4512 54.946 15.5505 55.1464 15.5505H57.3002L53.8191 19.0035H9.44152C9.09091 19.0035 8.81543 19.2767 8.81543 19.6245V41.1866C8.81543 41.5344 9.09091 41.8076 9.44152 41.8076H15.5272H51.6152H57.8511H65.3392C65.6898 41.8076 65.9653 41.5344 65.9653 41.1866V37.063H78.362C78.6124 37.063 78.8378 36.9139 78.938 36.6903C79.0632 36.4668 78.9881 36.1935 78.8127 36.0196ZM26.3711 40.5656H16.1533V26.2819H26.3711V40.5656ZM39.1685 40.5656H27.6483V26.2819H39.1685V40.5656ZM50.9891 40.5656H40.4207V26.2819H50.9891V40.5656ZM57.225 40.5656H52.2413V25.6609C52.2413 25.3131 51.9658 25.0399 51.6152 25.0399H15.5272C15.1765 25.0399 14.9011 25.3131 14.9011 25.6609V40.5656H10.0676V20.2455H57.225V40.5656ZM60.4807 40.5656H58.4772V37.063H60.4807V40.5656ZM64.7131 40.5656H61.7329V37.063H64.7131V40.5656ZM65.3392 35.8458H61.1068H58.4772V19.6245C58.4772 19.2767 58.2017 19.0035 57.8511 19.0035H55.5972L59.2786 15.3518C59.4539 15.1779 59.504 14.9047 59.4038 14.6811C59.3037 14.4575 59.0783 14.3085 58.8278 14.3085H56.2233L63.0101 1.93761L69.5716 14.2836H67.4679C67.2175 14.2836 66.9921 14.4327 66.8919 14.6563C66.7917 14.8798 66.8418 15.1531 67.0171 15.327L71.3497 19.6245H68.6951C68.4446 19.6245 68.2192 19.7735 68.1191 19.9971C68.0189 20.2207 68.069 20.4939 68.2443 20.6678L72.677 25.0647H69.9973C69.7469 25.0647 69.5215 25.2137 69.4213 25.4373C69.3212 25.6609 69.3712 25.9341 69.5466 26.108L73.8791 30.4055H72.9525C72.7021 30.4055 72.4767 30.5546 72.3765 30.7782C72.2763 31.0017 72.3264 31.275 72.5017 31.4489L76.8343 35.7464H65.3392V35.8458Z" fill="#484C57"/>
<path d="M2.6296 30.2812L1.07688 34.4048H0.626094C0.275481 34.4048 0 34.6781 0 35.0258V40.5903C0 40.938 0.275481 41.2113 0.626094 41.2113H1.35236V41.7329C1.35236 42.4285 1.92837 42.9998 2.6296 42.9998H3.85674C4.55797 42.9998 5.13397 42.4285 5.13397 41.7329V41.2113H7.8387V39.9692H1.25219V35.6469H7.8387V34.4048H2.42925L3.65639 31.1009H7.8387V29.8589H3.2056C2.95516 29.8837 2.72977 30.0328 2.6296 30.2812ZM4.38266 41.7329C4.38266 42.031 4.15727 42.2546 3.85674 42.2546H2.6296C2.32907 42.2546 2.10368 42.031 2.10368 41.7329V41.2113H4.38266V41.7329Z" fill="#484C57"/>
<path d="M2.20312 37.982C2.20312 38.7272 2.82922 39.3482 3.58053 39.3482C4.33184 39.3482 4.95794 38.7272 4.95794 37.982C4.95794 37.2368 4.33184 36.6157 3.58053 36.6157C2.82922 36.6157 2.20312 37.2119 2.20312 37.982ZM4.23167 37.982C4.23167 38.3298 3.95619 38.603 3.60558 38.603C3.25496 38.603 2.97948 38.3298 2.97948 37.982C2.97948 37.6342 3.25496 37.361 3.60558 37.361C3.95619 37.361 4.23167 37.6342 4.23167 37.982Z" fill="#484C57"/>
</svg>
