<svg width="68" height="46" viewBox="0 0 68 46" fill="none" xmlns="http://www.w3.org/2000/svg">
<g clip-path="url(#clip0)">
<path d="M67.8306 40.3531L63.6664 36.1603H64.557C64.7977 36.1603 65.0143 36.0149 65.1106 35.7967C65.2069 35.5786 65.1588 35.312 64.9903 35.1424L60.826 30.9495H63.4016C63.6423 30.9495 63.8589 30.8041 63.9552 30.586C64.0515 30.3679 64.0034 30.1013 63.8349 29.9316L59.5743 25.6418H62.1018C62.3425 25.6418 62.5591 25.4964 62.6554 25.2783C62.7517 25.0602 62.7035 24.7936 62.535 24.6239L58.3708 20.3584H59.9354C60.152 20.3584 60.3446 20.2372 60.4409 20.0676C60.5372 19.8979 60.5612 19.6555 60.4649 19.4617L53.6048 6.37419L54.4713 6.83467C54.5917 6.90738 54.7361 6.88315 54.8564 6.81044C54.9768 6.73773 55.0249 6.59231 55.0009 6.4469L54.6639 4.41107L56.1322 2.98114C56.2285 2.8842 56.2766 2.73878 56.2285 2.6176C56.1803 2.49642 56.0841 2.39948 55.9396 2.37524L53.9177 2.08441L53.003 0.242472C52.9308 0.121292 52.8104 0.048584 52.6901 0.048584C52.5697 0.048584 52.4253 0.121292 52.3772 0.242472L51.4625 2.08441L49.4405 2.37524C49.2961 2.39948 49.1998 2.49642 49.1517 2.6176C49.1035 2.73878 49.1517 2.8842 49.248 2.98114L50.7163 4.41107L50.3793 6.4469C50.3552 6.59231 50.4033 6.71349 50.5237 6.81044C50.5959 6.85891 50.6681 6.88315 50.7403 6.88315C50.7885 6.88315 50.8607 6.85891 50.9088 6.83467L51.6791 6.42266L44.6264 19.4859C44.5301 19.6798 44.5301 19.8979 44.6264 20.0918C44.7467 20.2857 44.9393 20.3826 45.1318 20.3826H47.2019L43.808 23.7514H1.1545C0.817513 23.7514 0.552734 24.018 0.552734 24.3573V45.3942C0.552734 45.7335 0.817513 46.0001 1.1545 46.0001H6.97964H41.6657H47.6593H54.8805C55.2175 46.0001 55.4823 45.7335 55.4823 45.3942V41.371H67.3973C67.638 41.371 67.8547 41.2256 67.951 41.0075C68.0472 40.7894 67.9991 40.5228 67.8306 40.3531ZM51.294 4.02329L50.2108 2.95691L51.7032 2.73878C51.8235 2.71455 51.9198 2.64184 51.9679 2.5449L52.6419 1.18768L53.3159 2.5449C53.3641 2.64184 53.4603 2.71455 53.5807 2.73878L55.0731 2.95691L53.9899 4.02329C53.8936 4.096 53.8695 4.21718 53.8936 4.33836L54.1584 5.841L52.8104 5.13815C52.7141 5.08968 52.5697 5.08968 52.4734 5.13815L51.1255 5.841L51.3903 4.33836C51.4384 4.24142 51.3903 4.12024 51.294 4.02329ZM1.75627 24.9632H47.0816V44.7883H42.2915V30.2467C42.2915 29.9074 42.0267 29.6408 41.6897 29.6408H6.97964C6.64265 29.6408 6.37787 29.9074 6.37787 30.2467V44.7883H1.75627V24.9632ZM29.7025 30.8526V44.7883H18.6299V30.8526H29.7025ZM7.58141 30.8526H17.4264V44.7883H7.58141V30.8526ZM30.906 44.7883V30.8526H41.0639V44.7883H30.906ZM48.261 44.7883V41.371H50.1867V44.7883H48.261ZM54.2787 44.7883H51.4143V41.371H54.2787V44.7883ZM54.8805 40.1592H50.8126H48.2851V24.3573C48.2851 24.018 48.0203 23.7514 47.6833 23.7514H45.517L49.0554 20.1887C49.2239 20.0191 49.272 19.7525 49.1757 19.5344C49.0795 19.3162 48.8628 19.1708 48.6221 19.1708H46.1188L52.6419 7.10127L58.9244 19.1466H56.9025C56.6618 19.1466 56.4451 19.292 56.3488 19.5101C56.2526 19.7282 56.3007 19.9948 56.4692 20.1645L60.6334 24.3573H58.0579C57.8172 24.3573 57.6005 24.5027 57.5042 24.7209C57.408 24.939 57.4561 25.2056 57.6246 25.3752L61.8851 29.665H59.3095C59.0688 29.665 58.8522 29.8104 58.7559 30.0286C58.6596 30.2467 58.7078 30.5133 58.8763 30.6829L63.0405 34.8758H62.1499C61.9092 34.8758 61.6926 35.0212 61.5963 35.2393C61.5 35.4574 61.5481 35.724 61.7166 35.8937L65.8809 40.0865H54.8805V40.1592Z" fill="#484C57"/>
<path d="M55.5554 14.9781C55.5554 14.2753 54.9777 13.6936 54.2797 13.6936C53.5816 13.6936 53.0039 14.2753 53.0039 14.9781C53.0039 15.681 53.5816 16.2626 54.2797 16.2626C54.9777 16.2626 55.5554 15.7052 55.5554 14.9781ZM54.2556 15.9233C53.7501 15.9233 53.3409 15.5113 53.3409 15.0024C53.3409 14.4934 53.7501 14.0814 54.2556 14.0814C54.7611 14.0814 55.1703 14.4934 55.1703 15.0024C55.1703 15.5113 54.7851 15.9233 54.2556 15.9233Z" fill="#484C57"/>
<path d="M50.765 19.6799C51.4631 19.6799 52.0408 19.0982 52.0408 18.3954C52.0408 17.6925 51.4631 17.1108 50.765 17.1108C50.067 17.1108 49.4893 17.6925 49.4893 18.3954C49.4893 19.0982 50.067 19.6799 50.765 19.6799ZM50.765 17.4501C51.2705 17.4501 51.6797 17.8622 51.6797 18.3711C51.6797 18.8801 51.2705 19.2921 50.765 19.2921C50.2595 19.2921 49.8503 18.8801 49.8503 18.3711C49.8503 17.8622 50.2595 17.4501 50.765 17.4501Z" fill="#484C57"/>
<path d="M55.002 23.4364C55.002 24.1392 55.5797 24.7209 56.2777 24.7209C56.9758 24.7209 57.5535 24.1392 57.5535 23.4364C57.5535 22.7335 56.9758 22.1519 56.2777 22.1519C55.5797 22.1519 55.002 22.7335 55.002 23.4364ZM56.2777 22.5154C56.7832 22.5154 57.1924 22.9274 57.1924 23.4364C57.1924 23.9453 56.7832 24.3573 56.2777 24.3573C55.7722 24.3573 55.363 23.9453 55.363 23.4364C55.363 22.9274 55.7722 22.5154 56.2777 22.5154Z" fill="#484C57"/>
<path d="M51.1508 26.0054C50.4527 26.0054 49.875 26.587 49.875 27.2899C49.875 27.9927 50.4527 28.5744 51.1508 28.5744C51.8488 28.5744 52.4265 27.9927 52.4265 27.2899C52.4265 26.587 51.8729 26.0054 51.1508 26.0054ZM51.1508 28.2351C50.6453 28.2351 50.2361 27.8231 50.2361 27.3141C50.2361 26.8052 50.6453 26.3931 51.1508 26.3931C51.6562 26.3931 52.0654 26.8052 52.0654 27.3141C52.0654 27.8231 51.6803 28.2351 51.1508 28.2351Z" fill="#484C57"/>
<path d="M56.1566 29.7378C55.4586 29.7378 54.8809 30.3195 54.8809 31.0223C54.8809 31.7252 55.4586 32.3068 56.1566 32.3068C56.8547 32.3068 57.4324 31.7252 57.4324 31.0223C57.4324 30.3195 56.8547 29.7378 56.1566 29.7378ZM56.1566 31.9675C55.6511 31.9675 55.2419 31.5555 55.2419 31.0465C55.2419 30.5376 55.6511 30.1256 56.1566 30.1256C56.6621 30.1256 57.0713 30.5376 57.0713 31.0465C57.0713 31.5555 56.6621 31.9675 56.1566 31.9675Z" fill="#484C57"/>
<path d="M50.597 35.4092C49.899 35.4092 49.3213 35.9908 49.3213 36.6937C49.3213 37.3965 49.899 37.9782 50.597 37.9782C51.2951 37.9782 51.8728 37.3965 51.8728 36.6937C51.8728 35.9908 51.3192 35.4092 50.597 35.4092ZM50.597 37.6389C50.0916 37.6389 49.6824 37.2269 49.6824 36.7179C49.6824 36.209 50.0916 35.797 50.597 35.797C51.1025 35.797 51.5117 36.209 51.5117 36.7179C51.5117 37.2269 51.1025 37.6389 50.597 37.6389Z" fill="#484C57"/>
<path d="M2.35884 15.5356L1.94964 17.3533C1.9015 17.5472 2.02185 17.7411 2.21442 17.7895C2.23849 17.7895 2.26256 17.7895 2.28663 17.7895C2.45513 17.7895 2.59955 17.6684 2.64769 17.4987L3.20132 15.0509L3.89937 14.6631L5.24734 15.4386V16.2869L3.39389 17.9592C3.24946 18.1046 3.22539 18.3227 3.36982 18.4682C3.44203 18.5409 3.53831 18.5893 3.6346 18.5893C3.73088 18.5893 3.80309 18.5651 3.8753 18.4924L5.24734 17.2563V19.2679C5.24734 19.4618 5.41583 19.6315 5.6084 19.6315C5.80097 19.6315 5.96946 19.4618 5.96946 19.2679V17.2563L7.36557 18.5166C7.43778 18.5893 7.50999 18.6136 7.60628 18.6136C7.70256 18.6136 7.79884 18.5651 7.87106 18.4924C8.01548 18.347 7.99141 18.1046 7.84698 17.9834L5.96946 16.2869V15.4386L7.31743 14.6631L8.01548 15.0509L8.56911 17.4987C8.61725 17.6684 8.76167 17.7895 8.93017 17.7895C8.95424 17.7895 8.97831 17.7895 9.00238 17.7895C9.19495 17.7411 9.3153 17.5472 9.26716 17.3533L8.85796 15.5356L10.5911 16.5293C10.6392 16.5535 10.7114 16.5777 10.7596 16.5777C10.8799 16.5777 11.0003 16.505 11.0725 16.3839C11.1688 16.2142 11.0965 15.9961 10.928 15.8991L9.19495 14.9055L10.9521 14.2996C11.1447 14.2268 11.241 14.033 11.1688 13.8391C11.0965 13.6452 10.904 13.5482 10.7114 13.6209L8.3284 14.445L7.60628 14.033V12.603L8.30433 12.2153L10.6633 13.0635C10.7114 13.0878 10.7355 13.0878 10.7836 13.0878C10.928 13.0878 11.0725 12.9908 11.1206 12.8454C11.1928 12.6515 11.0965 12.4576 10.904 12.3849L9.14681 11.7548L10.904 10.8096C11.0725 10.7126 11.1447 10.4945 11.0484 10.3248C10.9521 10.1552 10.7355 10.0825 10.567 10.1794L8.80982 11.1489L9.24309 9.33117C9.29123 9.13728 9.17088 8.94339 8.97831 8.89492C8.78574 8.84645 8.59318 8.96763 8.54504 9.16151L7.96734 11.6094L7.24521 11.9971L5.96946 11.2458V10.3976L7.82291 8.72526C7.96734 8.57985 7.99141 8.36172 7.84698 8.21631C7.70256 8.07089 7.48592 8.04666 7.3415 8.19207L5.96946 9.42811V7.41652C5.96946 7.22263 5.80097 7.05298 5.6084 7.05298C5.41583 7.05298 5.24734 7.22263 5.24734 7.41652V9.42811L3.85123 8.16784C3.70681 8.02242 3.4661 8.04666 3.34575 8.19207C3.20132 8.33749 3.22539 8.57985 3.36982 8.70103L5.24734 10.3976V11.2458L3.94752 11.9971L3.20132 11.5851L2.64769 9.11304C2.59955 8.91915 2.40698 8.79797 2.21442 8.84645C2.02185 8.89492 1.9015 9.08881 1.94964 9.28269L2.38291 11.1004L0.625746 10.131C0.45725 10.034 0.240613 10.1067 0.14433 10.2764C0.0480465 10.446 0.120259 10.6641 0.288754 10.7611L2.04592 11.7063L0.288754 12.3607C0.096188 12.4334 -9.51442e-05 12.6273 0.0721172 12.8212C0.120259 12.9666 0.264684 13.0635 0.409108 13.0635C0.45725 13.0635 0.481321 13.0635 0.529462 13.0393L2.8884 12.191L3.61052 12.603V13.9845L2.84026 14.4207L0.481321 13.6209C0.288754 13.5482 0.096188 13.6694 0.0239757 13.8391C-0.0482367 14.033 0.0480465 14.2268 0.240613 14.2996L1.99778 14.9055L0.264684 15.8991C0.096188 15.9961 0.0239756 16.2142 0.120259 16.3839C0.192471 16.505 0.312825 16.5777 0.433179 16.5777C0.481321 16.5777 0.553533 16.5535 0.601675 16.5293L2.35884 15.5356ZM4.33265 12.5788L5.6084 11.8275L6.88415 12.5788V14.0814L5.6084 14.8327L4.33265 14.0814V12.5788Z" fill="#484C57"/>
</g>
<defs>
<clipPath id="clip0">
<rect width="68" height="46" fill="white"/>
</clipPath>
</defs>
</svg>
