<svg width="79" height="43" viewBox="0 0 79 43" fill="none" xmlns="http://www.w3.org/2000/svg">
<path d="M78.8237 36.0197L74.4919 31.7221H75.4184C75.6687 31.7221 75.8941 31.5731 75.9943 31.3495C76.0944 31.1259 76.0443 30.8527 75.8691 30.6788L71.5372 26.3813H74.2165C74.4668 26.3813 74.6922 26.2322 74.7924 26.0087C74.8925 25.7851 74.8424 25.5119 74.6672 25.338L70.2352 20.9411H72.8643C73.1147 20.9411 73.3401 20.792 73.4402 20.5685C73.5404 20.3449 73.4903 20.0716 73.315 19.8978L68.9832 15.6002H70.6108C70.8361 15.6002 71.0364 15.476 71.1366 15.3021C71.2368 15.1283 71.2618 14.8798 71.1617 14.6811L63.5497 0.322935C63.4495 0.124206 63.2242 0 62.9988 0C62.7734 0 62.5481 0.124206 62.4479 0.322935L54.6106 14.6314C54.5104 14.8302 54.5104 15.0537 54.6106 15.2525C54.7358 15.4512 54.9361 15.5506 55.1364 15.5506H57.2898L53.8093 19.0035H9.43946C9.08891 19.0035 8.81348 19.2767 8.81348 19.6245V41.1866C8.81348 41.5344 9.08891 41.8076 9.43946 41.8076H15.524H51.6059H57.8407H65.3275C65.678 41.8076 65.9534 41.5344 65.9534 41.1866V37.063H78.373C78.6234 37.063 78.8487 36.9139 78.9489 36.6904C79.0491 36.4668 78.999 36.1935 78.8237 36.0197ZM26.3661 40.5656H16.15V26.2819H26.3912V40.5656H26.3661ZM39.1613 40.5656H27.6431V26.2819H39.1613V40.5656ZM50.9799 40.5656H40.4132V26.2819H50.9799V40.5656ZM57.2147 40.5656H52.2318V25.6609C52.2318 25.3131 51.9564 25.0399 51.6059 25.0399H15.524C15.1735 25.0399 14.8981 25.3131 14.8981 25.6609V40.5656H10.0654V20.2455H57.2147V40.5656ZM60.4698 40.5656H58.4667V37.063H60.4698V40.5656ZM64.7015 40.5656H61.7218V37.063H64.7015V40.5656ZM65.3275 35.8458H61.0958H58.4667V19.6245C58.4667 19.2767 58.1912 19.0035 57.8407 19.0035H55.5871L59.2679 15.3518C59.4432 15.1779 59.4933 14.9047 59.3931 14.6811C59.293 14.4575 59.0676 14.3085 58.8172 14.3085H56.2131L62.9988 1.93761L69.5591 14.2837H67.4558C67.2054 14.2837 66.9801 14.4327 66.8799 14.6563C66.7797 14.8798 66.8298 15.1531 67.0051 15.327L71.362 19.6493H68.6827C68.4323 19.6493 68.207 19.7984 68.1068 20.022C68.0067 20.2455 68.0568 20.5188 68.232 20.6927L72.664 25.0896H69.9848C69.7344 25.0896 69.509 25.2386 69.4089 25.4622C69.3087 25.6857 69.3588 25.959 69.5341 26.1329L73.8659 30.4304H72.9394C72.689 30.4304 72.4637 30.5794 72.3635 30.803C72.2634 31.0266 72.3135 31.2998 72.4887 31.4737L76.8205 35.7712H65.3275V35.8458Z" fill="#484C57"/>
<path d="M2.62914 30.2812L1.0767 34.4048H0.625986C0.275434 34.4048 0 34.6781 0 35.0258V40.5903C0 40.938 0.275434 41.2113 0.625986 41.2113H1.35213V41.7329C1.35213 42.4285 1.92804 42.9998 2.62914 42.9998H3.85607C4.55718 42.9998 5.13308 42.4285 5.13308 41.7329V41.2113H7.86238V39.9692H1.25197V35.6469H7.83734V34.4048H2.42882L3.65576 31.1009H7.83734V29.8589H3.23009C2.95465 29.8837 2.7293 30.0328 2.62914 30.2812ZM2.10331 41.2113H4.3819V41.7329C4.3819 42.031 4.15654 42.2546 3.85607 42.2546H2.62914C2.32867 42.2546 2.10331 42.031 2.10331 41.7329V41.2113Z" fill="#484C57"/>
<path d="M2.22852 37.982C2.22852 38.7272 2.8545 39.3482 3.60568 39.3482C4.35687 39.3482 4.98285 38.7272 4.98285 37.982C4.98285 37.2368 4.35687 36.6157 3.60568 36.6157C2.8545 36.6157 2.22852 37.2119 2.22852 37.982ZM4.23167 37.982C4.23167 38.3298 3.95624 38.603 3.60568 38.603C3.25513 38.603 2.9797 38.3298 2.9797 37.982C2.9797 37.6342 3.25513 37.361 3.60568 37.361C3.95624 37.361 4.23167 37.6342 4.23167 37.982Z" fill="#484C57"/>
<path d="M0.35012 3.15508C0.625554 3.62706 0.900988 4.12388 1.17642 4.59587C1.27658 4.76975 1.37674 4.81944 1.57705 4.79459C1.70225 4.76975 1.82745 4.76975 1.95264 4.74491C2.07784 4.72007 2.15296 4.74491 2.25312 4.84428C3.45501 6.03665 4.6569 7.22903 5.85879 8.4214C5.88383 8.44624 5.93391 8.47108 6.00903 8.52077C5.93391 8.57045 5.90887 8.59529 5.88383 8.62013C5.50824 8.99275 5.50824 9.41505 5.85879 9.8125C6.10919 10.1106 6.38462 10.2348 6.76021 10.1354C6.81029 10.1354 6.86037 10.1603 6.91045 10.1851C7.03565 10.2845 7.1358 10.3839 7.23596 10.5081C7.28604 10.5577 7.31108 10.6323 7.31108 10.6819C7.31108 11.0794 7.46132 11.4023 7.73675 11.6756C8.86352 12.7934 9.96526 13.9113 11.092 15.0043C11.2673 15.1534 11.4676 15.2776 11.6679 15.4018C11.7931 15.4763 11.9183 15.5011 12.0435 15.526C12.2689 15.526 12.4942 15.526 12.6946 15.526L12.7196 15.5011C13.1202 15.4266 13.4457 15.2279 13.7212 14.9049C14.272 14.2342 14.272 13.1661 13.6461 12.5699C12.4942 11.4272 11.3424 10.2845 10.1906 9.14179C9.9903 8.94307 9.73991 8.79402 9.43943 8.79402C9.18904 8.79402 9.01376 8.71949 8.88856 8.52077C8.86352 8.47108 8.81345 8.44624 8.78841 8.4214C8.68825 8.34688 8.68825 8.27235 8.71329 8.14815C8.76337 7.92458 8.73833 7.70101 8.58809 7.52712C8.48793 7.40291 8.36274 7.30355 8.23754 7.20419C7.96211 7.00546 7.56147 7.0303 7.28604 7.25387C7.21092 7.30355 7.1358 7.37807 7.06069 7.4526C7.03565 7.40291 6.98557 7.37807 6.96053 7.35323C5.78368 6.1857 4.63186 5.04301 3.45501 3.87547C3.30477 3.72643 3.17958 3.60222 3.27973 3.35381C3.30477 3.27928 3.30477 3.20476 3.30477 3.13024C3.32981 2.85699 3.30477 2.83214 3.07942 2.6831C2.42839 2.2608 1.75233 1.88818 1.07626 1.49072C1.02618 1.49072 0.976106 1.49072 0.926027 1.49072C0.850909 1.5404 0.775791 1.59009 0.725712 1.63977C0.525396 1.8385 0.325081 2.03723 0.124765 2.23596C-0.0254711 2.385 -0.0254711 2.48437 0.0746866 2.6831C0.149805 2.83214 0.249963 3.00603 0.35012 3.15508ZM7.5114 7.77553C7.73675 7.55196 7.83691 7.55196 8.03722 7.77553C8.06226 7.80037 8.11234 7.85006 8.13738 7.8749C8.23754 7.97426 8.23754 8.07363 8.16242 8.19783C8.06226 8.37172 8.06226 8.47108 8.2125 8.59529C8.41282 8.79402 8.61313 8.99275 8.81345 9.19148C8.88856 9.24116 9.01376 9.29084 9.08888 9.29084C9.38935 9.266 9.63975 9.36536 9.8651 9.56409C10.9668 10.6571 12.0686 11.7501 13.1703 12.8431C13.4207 13.0915 13.5709 13.3896 13.5709 13.7622C13.5459 14.2591 13.3205 14.6565 12.8448 14.8553C12.3941 15.054 11.9434 14.9795 11.5928 14.6565C11.092 14.2094 10.6413 13.7374 10.1656 13.2654C9.48951 12.6196 8.83848 11.9488 8.16242 11.303C7.93707 11.0794 7.78683 10.8062 7.86195 10.4832C7.88699 10.4087 7.81187 10.3093 7.76179 10.2348C7.56147 10.0361 7.36116 9.83735 7.16084 9.63862C7.03565 9.51441 6.91045 9.48957 6.76021 9.58893C6.63502 9.66346 6.50982 9.66346 6.40966 9.56409C6.08415 9.29084 6.08415 9.19148 6.38462 8.89338C6.76021 8.52077 7.1358 8.14815 7.5114 7.77553ZM1.05122 2.13659C1.60209 2.45953 2.12792 2.75762 2.67879 3.08056C2.72887 3.1054 2.72887 3.20476 2.72887 3.25444C2.72887 3.37865 2.70383 3.5277 2.67879 3.6519C2.65375 3.77611 2.70383 3.87547 2.77894 3.95C3.63029 4.79459 4.48163 5.63919 5.30793 6.45895C5.75864 6.90609 6.20935 7.35323 6.68509 7.80037C6.58494 7.89974 6.48478 7.9991 6.35958 8.12331C6.23439 7.97426 6.10919 7.85005 5.95895 7.70101C4.83218 6.58316 3.68036 5.46531 2.57863 4.32261C2.42839 4.17357 2.27816 4.09904 2.0528 4.14873C1.9276 4.17357 1.75233 4.24809 1.65217 4.17357C1.55201 4.12388 1.50193 3.95 1.42682 3.85063C1.17642 3.40349 0.926027 2.98119 0.650593 2.53405C0.775791 2.40984 0.900988 2.2608 1.05122 2.13659Z" fill="#484C57"/>
<path d="M7.41138 6.70724C7.46146 6.6824 7.51154 6.63272 7.53658 6.58303C7.76193 6.35946 7.96225 6.16073 8.1876 5.93716C8.36288 5.76328 8.38792 5.66391 8.26272 5.44034C8.11248 5.16709 7.96225 4.89384 7.88713 4.5709C7.76193 3.97471 7.91217 3.47789 8.36288 3.08043C8.83863 2.65813 9.41453 2.36004 10.0405 2.16131C10.2909 2.08679 10.5663 2.06195 10.8167 2.01226C10.8167 2.03711 10.8167 2.03711 10.8418 2.06195C10.8167 2.08679 10.8167 2.11163 10.7917 2.11163C10.4912 2.40972 10.1657 2.73266 9.86524 3.03075C9.48965 3.40337 9.48965 3.90019 9.86524 4.27281C10.341 4.74479 10.8167 5.21677 11.2925 5.68875C11.6681 6.06137 12.1689 6.06137 12.5445 5.68875C12.7448 5.49002 12.9201 5.31614 13.1204 5.11741C13.2706 4.96836 13.3958 4.84415 13.521 4.69511C13.521 4.69511 13.546 4.69511 13.546 4.71995C13.521 4.869 13.521 5.01804 13.496 5.16709C13.3457 5.88748 13.0202 6.53335 12.5445 7.1047C12.1188 7.60152 11.593 7.77541 10.967 7.60152C10.6665 7.527 10.3911 7.37795 10.0906 7.25374C9.94036 7.17922 9.81516 7.15438 9.68997 7.27859C9.53973 7.42763 9.38949 7.57668 9.23926 7.72573C9.11406 7.84993 9.1391 8.02382 9.23926 8.12318C9.33941 8.22255 9.51469 8.22255 9.63989 8.09834C9.71501 8.02382 9.79012 7.9493 9.86524 7.87477C9.91532 7.80025 9.9654 7.80025 10.0656 7.84993C10.316 7.9493 10.5413 8.0735 10.7917 8.12318C11.643 8.34676 12.3692 8.12318 12.9451 7.47731C13.4208 6.95565 13.7464 6.33462 13.9467 5.63907C14.1219 5.11741 14.1971 4.5709 14.0468 4.0244C13.9717 3.7263 13.7213 3.65178 13.496 3.87535C13.0452 4.32249 12.5945 4.76963 12.1188 5.24161C11.9435 5.4155 11.7682 5.4155 11.618 5.24161C11.1673 4.79447 10.7166 4.34733 10.2909 3.92503C10.0906 3.7263 10.0906 3.57726 10.2909 3.37853C10.7416 2.93139 11.1923 2.4594 11.6681 2.01226C11.8434 1.83838 11.7682 1.51544 11.5178 1.4906C11.4678 1.4906 11.4177 1.46576 11.3676 1.44092C11.0671 1.44092 10.7667 1.44092 10.4912 1.44092C10.4662 1.44092 10.4662 1.46576 10.4411 1.46576C9.48965 1.63965 8.63831 2.03711 7.93721 2.68297C7.53658 3.05559 7.28618 3.55241 7.28618 4.09892C7.28618 4.5709 7.41138 4.9932 7.63673 5.39066C7.71185 5.51486 7.68681 5.56455 7.58665 5.66391C7.38634 5.8378 7.21106 6.03653 7.03579 6.23526C6.93563 6.33462 6.96067 6.50851 7.03579 6.60787C7.13594 6.78176 7.28618 6.78176 7.41138 6.70724Z" fill="#484C57"/>
<path d="M6.66014 11.1293C6.78534 11.0051 6.78534 10.8312 6.68518 10.707C6.55999 10.5828 6.38471 10.6076 6.25951 10.7318C5.934 11.0796 5.58345 11.4025 5.25794 11.7503C5.15778 11.8497 5.13274 11.9739 5.15778 12.0981C5.28297 12.4458 5.25794 12.7936 5.20786 13.1414C4.88234 14.6319 3.35494 15.3523 2.00281 14.7809C1.12643 14.4083 0.550523 13.5389 0.625642 12.5204C0.70076 11.5764 1.20155 10.9057 2.07793 10.5331C2.55368 10.3344 3.02943 10.3344 3.53022 10.4337C3.63037 10.4586 3.75557 10.4089 3.80565 10.3592C4.2814 9.88721 4.75715 9.41523 5.2329 8.94325C5.33305 8.81904 5.33305 8.67 5.20786 8.54579C5.1077 8.42159 4.9825 8.42159 4.83226 8.54579C4.78219 8.57063 4.75715 8.62031 4.73211 8.64515C4.35652 9.01777 3.95589 9.39039 3.58029 9.78785C3.50518 9.86237 3.43006 9.88721 3.3299 9.86237C2.57872 9.71332 1.87761 9.88721 1.27667 10.3344C0.350208 11.0051 -0.0754623 11.8993 0.0497348 13.042C0.199971 14.1599 0.825957 14.93 1.87761 15.3523C2.12801 15.4516 2.40344 15.4765 2.67887 15.551C2.85415 15.551 3.00439 15.551 3.17966 15.551C3.2047 15.551 3.2047 15.5262 3.22974 15.5262C3.95588 15.4516 4.58187 15.1287 5.08266 14.5822C5.68361 13.9115 5.934 13.1166 5.73368 12.2223C5.70864 12.1229 5.73368 12.0732 5.8088 11.9987C6.08424 11.7006 6.38471 11.4025 6.66014 11.1293Z" fill="#484C57"/>
<path d="M3.50585 11.1783C3.43073 11.1038 3.33058 11.079 3.2805 11.0293C3.20538 11.0541 3.20538 11.0541 3.18034 11.0541C2.75467 11.1783 2.329 11.3025 1.90333 11.4019C1.77813 11.4516 1.67797 11.5261 1.65294 11.6503C1.52774 12.0726 1.42758 12.4701 1.30238 12.8924C1.2523 13.0166 1.27734 13.1408 1.3775 13.2402C1.70301 13.5631 2.00349 13.886 2.329 14.1841C2.40412 14.2586 2.50428 14.3083 2.60443 14.2835C3.05514 14.1593 3.50585 14.0351 3.93152 13.9109C4.05672 13.886 4.13184 13.7867 4.18192 13.6625C4.28207 13.2402 4.38223 12.8427 4.50743 12.4204C4.55751 12.2714 4.50743 12.172 4.40727 12.0726C4.1068 11.7745 3.80633 11.4516 3.50585 11.1783ZM3.88144 12.5943C3.83136 12.8179 3.75625 13.0414 3.70617 13.265C3.68113 13.3644 3.65609 13.3892 3.55593 13.414C3.2805 13.4886 3.00506 13.5631 2.72963 13.6376C2.67955 13.6376 2.62947 13.6376 2.60443 13.6128C2.37908 13.3892 2.15372 13.1905 1.95341 12.9669C1.92837 12.9421 1.90333 12.8675 1.92837 12.8427C2.00349 12.5446 2.07861 12.2714 2.15372 11.9981C2.15372 11.9484 2.2038 11.9236 2.25388 11.8987C2.55435 11.8242 2.82979 11.7497 3.13026 11.6752C3.1553 11.6752 3.20538 11.6752 3.23042 11.7C3.45577 11.9236 3.68113 12.1471 3.90648 12.3707C3.93152 12.3956 3.93152 12.4204 3.95656 12.4204C3.90648 12.4701 3.88144 12.5446 3.88144 12.5943Z" fill="#484C57"/>
<path d="M12.3448 13.3648C11.218 12.2469 10.0912 11.1291 8.96446 10.0112C8.83926 10.1354 8.71406 10.2596 8.58887 10.3838C9.71564 11.5017 10.8424 12.6195 11.9692 13.7374C12.0944 13.6132 12.2196 13.489 12.3448 13.3648Z" fill="#484C57"/>
</svg>
