<svg width="50" height="48" viewBox="0 0 50 48" fill="none" xmlns="http://www.w3.org/2000/svg">
<path d="M49.3696 24.8813H0.630358C0.277358 24.8813 0 25.1584 0 25.5109V47.3703C0 47.7229 0.277358 47.9999 0.630358 47.9999H6.75744H43.0913H49.3696C49.7226 47.9999 50 47.7229 50 47.3703V25.5109C50 25.1584 49.6974 24.8813 49.3696 24.8813ZM30.5345 32.2602V46.7407H18.936V32.2602H30.5345ZM17.6752 46.7407H7.3878V32.2602H14.473H17.7005V46.7407H17.6752ZM31.7953 46.7407V32.2602H42.4357V46.7407H31.7953ZM48.7393 46.7407H43.7216V31.6306C43.7216 31.278 43.4443 31.001 43.0913 31.001H6.75744C6.40444 31.001 6.12708 31.278 6.12708 31.6306V46.7407H1.26072V26.1405H48.7393V46.7407Z" fill="#484C57"/>
<path d="M17.2471 20.7765H19.2642L24.6097 15.4376H25.946L31.3671 20.8521H33.4851L27.3328 14.7072C28.2405 14.0777 28.8457 13.0451 28.8457 11.8615C28.8457 10.1994 27.6858 8.81427 26.1225 8.4617V5.91816H27.5345C27.9379 5.91816 28.2657 5.61595 28.2909 5.21301L28.6692 0.83106C28.6944 0.629591 28.6187 0.402938 28.4674 0.251836C28.3162 0.100735 28.1144 0 27.9127 0H22.416C22.2143 0 21.9874 0.100735 21.8613 0.251836C21.71 0.402938 21.6344 0.629591 21.6596 0.83106L22.0378 5.21301C22.063 5.61595 22.3908 5.91816 22.7942 5.91816H24.6097V9.16685C24.6097 9.59497 24.9627 9.92236 25.3661 9.92236C26.4503 9.92236 27.3328 10.8038 27.3328 11.8615C27.3328 12.9192 26.4503 13.8258 25.3661 13.8258C24.5088 13.8258 23.7524 13.2718 23.5002 12.4659C23.3741 12.063 22.9455 11.8363 22.5421 11.9622C22.1386 12.0881 21.9117 12.5163 22.0378 12.9192C22.2395 13.5992 22.6681 14.1532 23.1724 14.5813H23.0968L17.2471 20.7765ZM23.2481 1.51102H27.1059L26.8537 4.38195H23.5002L23.2481 1.51102Z" fill="#484C57"/>
<path d="M33.9893 32.2603V46.7408H17.0957L14.4482 32.2603" fill="#FEFEFE"/>
<path d="M32.0218 39.035H18.3052C17.9522 39.035 17.6748 38.758 17.6748 38.4054V22.0612C17.6748 21.7087 17.9522 21.4316 18.3052 21.4316H32.0218C32.3748 21.4316 32.6521 21.7087 32.6521 22.0612V38.4054C32.6521 38.7328 32.3495 39.035 32.0218 39.035ZM18.9355 37.7758H31.3662V22.6908H18.9355V37.7758Z" fill="#484C57"/>
<path d="M32.0221 21.4309C32.3751 21.4309 32.6525 21.7079 32.6525 22.0605V38.4047C32.6525 38.7573 32.3751 39.0343 32.0221 39.0343H18.3055C17.9525 39.0343 17.6752 38.7573 17.6752 38.4047V22.0605C17.6752 21.7079 17.9525 21.4309 18.3055 21.4309H32.0221ZM18.9359 37.7751H31.3666V22.6901H18.9359V37.7751ZM32.0221 20.9272H18.3055C17.6752 20.9272 17.1709 21.4309 17.1709 22.0605V38.4047C17.1709 39.0343 17.6752 39.538 18.3055 39.538H32.0221C32.6525 39.538 33.1568 39.0343 33.1568 38.4047V22.0605C33.1568 21.4309 32.6273 20.9272 32.0221 20.9272ZM19.4402 23.1938H30.8623V37.2714H19.4402V23.1938Z" fill="white"/>
</svg>
