<svg width="56" height="50" viewBox="0 0 56 50" fill="none" xmlns="http://www.w3.org/2000/svg">
<path d="M18.7209 36.516L7.10778 48.0876L1.96806 42.9663L20.8029 24.1989L21.7462 25.1389C21.9089 25.3009 22.1041 25.3658 22.3318 25.3658C22.5595 25.3658 22.7547 25.2685 22.9173 25.1389L32.6437 15.4472C32.8064 15.2852 32.8715 15.0907 32.8715 14.8638C32.8715 14.6369 32.7739 14.4424 32.6437 14.2803L31.863 13.5024L38.5317 6.85766L43.3461 2.06047L49.0063 7.70041L50.2749 10.8121C50.4376 11.2335 50.9255 11.428 51.3159 11.2659C51.7388 11.1038 51.934 10.6176 51.7713 10.1962L50.4701 6.92249C50.4376 6.82525 50.3725 6.72801 50.2749 6.66318L43.8991 0.374964C43.6063 0.0832429 43.0533 0.0832429 42.7605 0.374964L41.5895 1.54185C36.2871 -1.40778 32.8389 0.763926 32.6763 0.861166C32.4811 0.99082 32.351 1.21771 32.3184 1.44461C32.2859 1.6715 32.3835 1.93081 32.5462 2.09288L36.775 6.30663L30.692 12.368L22.8848 4.58872C22.6245 4.32941 22.2342 4.26458 21.9089 4.45906C21.5836 4.65354 21.4209 5.01009 21.5185 5.36664L24.186 15.901L18.9161 21.1844C18.5908 21.5086 18.5908 22.0272 18.9161 22.3189L19.6643 23.0644L0.243974 42.3828C-0.0813247 42.707 -0.0813247 43.2256 0.243974 43.5173L6.52224 49.7731C6.68489 49.9352 6.88007 50 7.10778 50C7.33549 50 7.53067 49.9028 7.69332 49.7731L19.8595 37.6505C20.1848 37.3263 20.1848 36.8077 19.8595 36.516C19.5667 36.1919 19.0462 36.1919 18.7209 36.516ZM34.563 1.80116C35.669 1.50944 37.6859 1.34737 40.3859 2.74115L37.9461 5.17216L34.563 1.80116ZM25.6823 16.7114C25.8775 16.5169 25.9751 16.2252 25.9101 15.9334L23.8281 7.83006L30.9197 14.8638L22.3318 23.4209L21.3884 22.481L20.6402 21.7354L25.6823 16.7114Z" fill="#484C57"/>
<path d="M55.9679 23.6802L52.8451 13.4376C52.715 13.0162 52.2595 12.7569 51.8366 12.8865C51.4138 13.0162 51.1535 13.47 51.2836 13.8914L53.4631 21.0223L44.55 12.141C44.2572 11.8493 43.7042 11.8493 43.4114 12.141L36.9705 18.5589L36.0271 17.6189C35.7018 17.2948 35.1813 17.2948 34.8886 17.6189L25.1296 27.343C24.967 27.505 24.9019 27.6995 24.9019 27.9264C24.9019 28.1533 24.9995 28.3478 25.1296 28.5098L26.0404 29.4174L21.161 34.247C20.8357 34.5712 20.8357 35.0898 21.161 35.3815C21.3236 35.5436 21.5188 35.6084 21.7465 35.6084C21.9742 35.6084 22.1694 35.5436 22.332 35.3815L27.179 30.5519L27.9597 31.3298C28.1224 31.4919 28.3175 31.5567 28.5452 31.5567C28.773 31.5567 28.9681 31.4919 29.1308 31.3298L34.4332 26.0464L45.0054 28.7043C45.3632 28.8016 45.721 28.6395 45.9162 28.3154C46.1114 27.9912 46.0463 27.6023 45.7861 27.343L38.1416 19.7258L44.0295 13.8589L54.6667 24.4582C54.8294 24.6202 55.0246 24.685 55.2523 24.685C55.3824 24.685 55.5451 24.6526 55.6752 24.5554C55.9354 24.4257 56.0655 24.0368 55.9679 23.6802ZM34.3681 24.3609C34.0753 24.2961 33.7826 24.3609 33.5874 24.5878L28.5127 29.6119L26.8212 27.9264L35.4091 19.3692L42.468 26.403L34.3681 24.3609Z" fill="#484C57"/>
<path d="M41.8494 11.2335C42.0445 11.2335 42.2722 11.1687 42.4349 11.0066C42.7602 10.6825 42.7602 10.1638 42.4349 9.87211L40.4831 7.92731C40.1578 7.60317 39.6373 7.60317 39.3446 7.92731C39.0193 8.25144 39.0193 8.77006 39.3446 9.06178L41.2964 11.0066C41.4265 11.1687 41.6542 11.2335 41.8494 11.2335Z" fill="#484C57"/>
<path d="M39.3123 13.7617C39.5074 13.7617 39.7351 13.6969 39.8978 13.5348C40.2231 13.2106 40.2231 12.692 39.8978 12.4003L37.946 10.4555C37.6207 10.1314 37.1002 10.1314 36.8075 10.4555C36.4822 10.7796 36.4822 11.2983 36.8075 11.59L38.7592 13.5348C38.8894 13.6969 39.1171 13.7617 39.3123 13.7617Z" fill="#484C57"/>
<path d="M34.2049 12.9838C33.8796 13.3079 33.8796 13.8266 34.2049 14.1183L36.1567 16.0631C36.3194 16.2252 36.5145 16.29 36.7422 16.29C36.97 16.29 37.1651 16.2252 37.3278 16.0631C37.6531 15.739 37.6531 15.2203 37.3278 14.9286L35.376 12.9838C35.0182 12.6921 34.5302 12.6921 34.2049 12.9838Z" fill="#484C57"/>
<path d="M20.4451 26.9216C20.1198 27.2457 20.1198 27.7643 20.4451 28.056L22.3969 30.0008C22.5596 30.1629 22.7548 30.2277 22.9825 30.2277C23.2102 30.2277 23.4054 30.1629 23.568 30.0008C23.8933 29.6767 23.8933 29.1581 23.568 28.8664L21.6162 26.9216C21.2584 26.5974 20.7379 26.5974 20.4451 26.9216Z" fill="#484C57"/>
<path d="M21.0306 31.3623L19.0788 29.4175C18.7535 29.0934 18.233 29.0934 17.9403 29.4175C17.615 29.7417 17.615 30.2603 17.9403 30.552L19.8921 32.4968C20.0547 32.6589 20.2499 32.7237 20.4776 32.7237C20.7053 32.7237 20.9005 32.6589 21.0631 32.4968C21.3559 32.2051 21.3559 31.6865 21.0306 31.3623Z" fill="#484C57"/>
<path d="M17.907 35.2844C18.1022 35.2844 18.3299 35.2196 18.4925 35.0575C18.8178 34.7334 18.8178 34.2147 18.4925 33.923L16.5407 31.9782C16.2154 31.6541 15.6949 31.6541 15.4022 31.9782C15.0769 32.3023 15.0769 32.821 15.4022 33.1127L17.354 35.0575C17.4841 35.2196 17.7118 35.2844 17.907 35.2844Z" fill="#484C57"/>
<path d="M15.4031 37.7801C15.5983 37.7801 15.826 37.7153 15.9886 37.5532C16.3139 37.2291 16.3139 36.7105 15.9886 36.4187L14.0368 34.4739C13.7115 34.1498 13.191 34.1498 12.8983 34.4739C12.573 34.7981 12.573 35.3167 12.8983 35.6084L14.8501 37.5532C14.9802 37.7153 15.2079 37.7801 15.4031 37.7801Z" fill="#484C57"/>
<path d="M12.866 40.3084C13.0611 40.3084 13.2889 40.2436 13.4515 40.0815C13.7768 39.7574 13.7768 39.2388 13.4515 38.9471L11.4997 37.0023C11.1744 36.6781 10.6539 36.6781 10.3612 37.0023C10.0359 37.3264 10.0359 37.845 10.3612 38.1367L12.313 40.0815C12.4431 40.2436 12.6708 40.3084 12.866 40.3084Z" fill="#484C57"/>
<path d="M10.3279 42.869C10.5231 42.869 10.7508 42.8042 10.9134 42.6421C11.2387 42.318 11.2387 41.7993 10.9134 41.5076L8.96162 39.5628C8.63632 39.2387 8.11584 39.2387 7.82308 39.5628C7.49778 39.8869 7.49778 40.4056 7.82308 40.6973L9.77487 42.6421C9.90499 42.7717 10.1002 42.869 10.3279 42.869Z" fill="#484C57"/>
<path d="M5.28597 42.0263C4.96067 42.3504 4.96067 42.8691 5.28597 43.1608L7.23776 45.1056C7.40041 45.2677 7.59559 45.3325 7.8233 45.3325C8.05101 45.3325 8.24619 45.2677 8.40883 45.1056C8.73413 44.7814 8.73413 44.2628 8.40883 43.9711L6.45704 42.0263C6.09921 41.7022 5.57874 41.7022 5.28597 42.0263Z" fill="#484C57"/>
</svg>
