<svg width="40" height="40" viewBox="0 0 40 40" fill="none" xmlns="http://www.w3.org/2000/svg">
<path d="M39.9999 39.3726C39.8443 39.7638 39.591 40.029 39.1377 39.9976C39.031 39.9886 38.9199 39.9571 38.8177 39.9166C36.5199 38.9455 34.2266 37.9699 31.9332 36.9942C31.7421 36.9133 31.5644 36.8054 31.3688 36.7335C30.7421 36.5042 30.3421 35.9871 29.8888 35.5375C28.0977 33.7391 26.311 31.9317 24.5199 30.1333C22.1288 27.7324 19.7422 25.327 17.3511 22.9261C14.8933 20.4533 12.4355 17.985 9.97775 15.5122C7.49776 13.0214 5.02221 10.5261 2.54222 8.03528C1.88444 7.37436 1.23555 6.70895 0.564443 6.06152C0.275555 5.77827 0.111111 5.44107 0 5.0679C0 4.90155 0 4.73969 0 4.57334C0.106666 4.05629 0.426666 3.69211 0.786665 3.33243C1.71111 2.41524 2.62222 1.48456 3.53777 0.558379C4.23999 -0.151994 5.20443 -0.160986 5.90665 0.544891C7.87998 2.52315 9.84442 4.5014 11.8133 6.48415C14.88 9.56843 17.9466 12.6527 21.0133 15.737C23.4666 18.2008 25.9199 20.6646 28.3733 23.133C30.8888 25.6597 33.4044 28.1955 35.9199 30.7178C36.311 31.1089 36.5199 31.6035 36.751 32.0891C37.8043 34.3146 38.8399 36.5491 39.8799 38.7791C39.9154 38.8601 39.9555 38.9365 39.9954 39.0174C39.9999 39.1298 39.9999 39.2512 39.9999 39.3726ZM34.3466 31.4102C26.0355 23.07 17.7111 14.7119 9.39553 6.36725C8.35109 7.42382 7.31554 8.4669 6.27109 9.52347C14.5911 17.8726 22.9199 26.2307 31.2266 34.5709C32.2755 33.5053 33.3066 32.4622 34.3466 31.4102ZM1.65777 4.78915C2.82221 5.96711 3.97777 7.14057 5.11554 8.28706C6.12887 7.26196 7.15998 6.21888 8.1822 5.1848C7.03554 4.02482 5.87554 2.85136 4.72443 1.68688C3.70666 2.72097 2.67555 3.76405 1.65777 4.78915ZM37.6221 37.6776C36.8399 36.0051 36.0843 34.4045 35.3466 32.8264C34.4355 33.7481 33.5421 34.6473 32.6444 35.5555C34.271 36.2479 35.9155 36.9493 37.6221 37.6776Z" fill="#484C57"/>
<path d="M34.6578 10.9934C35.1333 10.5123 35.6 10.0447 36.0889 9.55013C35.9066 9.37029 35.7066 9.17247 35.5111 8.97464C35.0489 8.50705 34.5866 8.04396 34.1333 7.57188C33.9644 7.39653 33.9733 7.2077 34.1289 7.05933C34.2889 6.90197 34.4755 6.91995 34.6711 7.11778C35.2666 7.72025 35.8666 8.32272 36.4622 8.92518C36.5022 8.96565 36.5466 9.00611 36.5955 9.05107C37.1689 8.4531 37.7422 7.85962 38.3066 7.27064C36.4177 5.36433 34.4978 3.42654 32.5689 1.47976C28.7778 5.31937 24.9556 9.19045 21.1467 13.048C20.7867 12.6884 20.4667 12.3646 20.1289 12.0274C20.1689 11.9825 20.2222 11.924 20.2756 11.8656C24.0133 8.08443 27.7511 4.29877 31.4933 0.517607C32.1778 -0.174782 33.0044 -0.170286 33.68 0.517607C35.5289 2.40594 37.3777 4.28078 39.2355 6.15113C39.6844 6.60523 39.8977 7.11328 39.68 7.73374C39.5955 7.97203 39.4355 8.19683 39.2577 8.37667C37.5644 10.1076 35.8577 11.8251 34.1555 13.5471C32.0978 15.6288 30.04 17.7104 27.9822 19.7966C27.9467 19.8326 27.9067 19.864 27.8756 19.8955C27.5422 19.5628 27.2178 19.2391 26.88 18.8974C27.0089 18.7805 27.1378 18.6681 27.3022 18.5197C26.9022 18.1286 26.5289 17.7689 26.16 17.4047C25.88 17.1259 25.6044 16.8427 25.3244 16.5639C25.1422 16.3796 25.12 16.1638 25.2711 16.0109C25.4267 15.8536 25.6267 15.8671 25.8178 16.0604C26.4578 16.7033 27.0978 17.3462 27.72 17.9757C28.4667 17.2204 29.2133 16.4695 29.9822 15.6872C29.5644 15.2691 29.1067 14.824 28.6578 14.3699C27.8978 13.6056 27.1378 12.8367 26.3822 12.0679C26.2133 11.8971 26.2089 11.6812 26.3644 11.5329C26.52 11.38 26.7067 11.3935 26.8889 11.5823C28.0311 12.7333 29.1733 13.8888 30.3155 15.0443C30.3733 15.1027 30.4267 15.1657 30.4711 15.2151C31 14.6801 31.5111 14.1631 32.0444 13.6235C31.52 13.0975 30.9822 12.558 30.4489 12.0229C30.3378 11.9105 30.2267 11.8026 30.12 11.6902C29.9422 11.5014 29.9333 11.2856 30.0889 11.1372C30.24 10.9934 30.4355 11.0068 30.6178 11.1912C31.2044 11.7847 31.7911 12.3781 32.3778 12.9716C32.4355 13.0301 32.4933 13.084 32.5422 13.1335C33.08 12.5894 33.6044 12.0544 34.1778 11.4744C34.04 11.353 33.88 11.2227 33.7378 11.0788C33.2355 10.5797 32.7422 10.0762 32.2444 9.56812C32.0444 9.3658 32.0355 9.15898 32.2 9.00162C32.36 8.85325 32.5466 8.87573 32.7466 9.07805C33.3244 9.66703 33.9066 10.256 34.4844 10.845C34.5555 10.8944 34.6133 10.9484 34.6578 10.9934Z" fill="#484C57"/>
<path d="M12.1333 20.1299C12.4667 20.4626 12.7867 20.7863 13.1022 21.1055C9.27557 24.9721 5.45335 28.8387 1.63114 32.7008C3.58669 34.6656 5.51558 36.6033 7.42224 38.5187C7.96446 37.9701 8.54668 37.3812 9.16001 36.7607C8.87557 36.482 8.56446 36.1852 8.25779 35.884C7.92446 35.5513 7.59557 35.2186 7.26668 34.8814C7.07113 34.679 7.04446 34.4632 7.19557 34.3104C7.35557 34.1485 7.55557 34.1665 7.75557 34.3733C8.39112 35.0162 9.02223 35.6547 9.63557 36.2796C10.1067 35.7986 10.5733 35.322 11.0533 34.8364C11.0311 34.8139 10.9778 34.751 10.9245 34.697C10.3422 34.108 9.76445 33.5191 9.18223 32.9346C9.05779 32.8087 8.97334 32.6783 9.04001 32.494C9.13779 32.2287 9.43112 32.1882 9.65334 32.4085C10.1156 32.8716 10.5778 33.3392 11.0356 33.8068C11.2178 33.9911 11.3867 34.189 11.5467 34.3598C12.1067 33.7933 12.6356 33.2583 13.2 32.6873C13.0667 32.5659 12.9067 32.4355 12.76 32.2872C12.2667 31.7926 11.7733 31.2935 11.2844 30.7945C11.08 30.5877 11.0622 30.3853 11.2222 30.2235C11.3778 30.0706 11.5956 30.0976 11.7911 30.2909C12.4267 30.9294 13.0622 31.5678 13.68 32.1927C14.1911 31.6757 14.6978 31.1542 15.2355 30.6101C14.9911 30.3673 14.7156 30.0976 14.4489 29.8278C13.5289 28.8971 12.6044 27.9665 11.6933 27.0268C11.6 26.9279 11.5156 26.748 11.5333 26.6222C11.5733 26.3299 11.9289 26.2715 12.1556 26.5008C12.6756 27.0223 13.1956 27.5483 13.7111 28.0744C14.3378 28.7083 14.9689 29.3467 15.5955 29.9807C15.6489 30.0346 15.68 30.1021 15.7155 30.147C16.4933 29.3602 17.2311 28.6094 17.9867 27.8451C17.9644 27.8226 17.9244 27.7731 17.88 27.7237C17.28 27.1122 16.6755 26.5053 16.0755 25.8938C15.8622 25.678 15.8978 25.3992 16.1422 25.2823C16.3244 25.1969 16.4667 25.2778 16.5955 25.4082C17.2044 26.0287 17.8178 26.6491 18.4311 27.2696C18.4578 27.2966 18.48 27.328 18.5333 27.3865C18.6489 27.2426 18.7555 27.1077 18.8489 26.9818C19.2 27.337 19.52 27.6607 19.8578 28.0069C19.8311 28.0384 19.7778 28.0969 19.7244 28.1508C15.9955 31.923 12.2578 35.6862 8.54668 39.4763C7.87557 40.1597 6.91113 40.1147 6.31558 39.4943C4.4578 37.57 2.56003 35.6862 0.68448 33.7798C0.0755924 33.1684 0.071148 32.3231 0.680035 31.7072C4.47114 27.8676 8.26224 24.0324 12.0533 20.1973C12.0756 20.1793 12.0978 20.1614 12.1333 20.1299Z" fill="#484C57"/>
</svg>
