<svg width="40" height="40" viewBox="0 0 40 40" fill="none" xmlns="http://www.w3.org/2000/svg">
<path d="M39.8567 19.9625L34.9728 15.0388V3.90688C34.9728 3.60717 34.7392 3.37169 34.4419 3.37169H29.4519C29.1546 3.37169 28.921 3.60717 28.921 3.90688V8.74498L20.3849 0.160557C20.1725 -0.0535189 19.8328 -0.0535189 19.6417 0.160557L0.14864 19.8341C0.0637027 19.9411 0 20.0696 0 20.2194C0 20.3693 0.0637027 20.4977 0.14864 20.6048L1.84738 22.296C2.05972 22.51 2.37823 22.51 2.59058 22.296L5.03252 19.8341V39.4648C5.03252 39.7645 5.26609 40 5.56337 40H34.4207C34.718 40 34.9516 39.7645 34.9516 39.4648V19.9625L37.3935 22.4244C37.4997 22.5314 37.6271 22.5743 37.7757 22.5743C37.9244 22.5743 38.0518 22.5314 38.1579 22.4244L39.8567 20.7118C40.0478 20.4977 40.0478 20.1552 39.8567 19.9625ZM6.09423 38.9296V18.7637L20.0027 4.65614L33.8474 18.7209C33.8474 18.7637 33.8686 18.8065 33.8898 18.8493V38.9296H6.09423ZM37.7757 21.2898L34.9516 18.4212C34.9303 18.3142 34.8879 18.2285 34.8029 18.1643L20.3849 3.52154C20.1938 3.32887 19.8328 3.32887 19.6417 3.52154L5.20239 18.1643L2.2296 21.1614L1.27405 20.2194L20.0027 1.29516L29.0697 10.3934C29.2183 10.5432 29.4519 10.586 29.643 10.5004C29.8341 10.4148 29.9615 10.2221 29.9615 10.008V4.42066H33.8898V15.2529C33.8898 15.4027 33.9535 15.5312 34.0385 15.6382L38.71 20.3479L37.7757 21.2898Z" fill="#484C57"/>
<path d="M28.1775 16.8369H11.6148C11.3176 16.8369 11.084 17.0724 11.084 17.3721V23.3662C11.084 23.6659 11.3176 23.9014 11.6148 23.9014H27.6679V25.0146L19.8325 26.0422C19.5777 26.085 19.3653 26.299 19.3653 26.5773V29.553H18.2824C17.9851 29.553 17.7515 29.7885 17.7515 30.0882V37.3453C17.7515 37.645 17.9851 37.8805 18.2824 37.8805H20.9154C21.2127 37.8805 21.4463 37.645 21.4463 37.3453V30.0882C21.4463 29.7885 21.2127 29.553 20.9154 29.553H20.427V27.0483L28.2625 26.0207C28.5173 25.9779 28.7296 25.7639 28.7296 25.4856V23.3662V17.3721C28.7084 17.0724 28.4748 16.8369 28.1775 16.8369ZM20.3846 36.7887H18.8132V30.602H20.3846V36.7887ZM12.1457 17.9073H27.6679V22.831H12.1457V17.9073Z" fill="#484C57"/>
</svg>
