<svg width="17" height="17" viewBox="0 0 17 17" fill="none" xmlns="http://www.w3.org/2000/svg">
<path d="M0.0304561 8.49193C0.0304561 7.09846 -0.0196362 5.69998 0.0404746 4.31152C0.13565 2.096 2.09927 0.141125 4.31335 0.0358629C5.48551 -0.0192745 6.66769 0.0108004 7.83985 0.00578792C9.30255 0.000775435 10.7602 -0.00423705 12.2229 0.00578792C13.871 0.0158129 15.1884 0.692499 16.1502 2.03585C16.7413 2.86291 16.9967 3.80024 16.9967 4.81277C16.9967 7.26888 17.0067 9.725 16.9917 12.1761C16.9817 14.527 15.499 16.4217 13.2398 16.8728C12.4984 17.0232 11.712 16.9881 10.9456 16.9931C8.9519 17.0082 6.95823 16.9931 4.96455 16.9981C2.61021 17.0082 0.746776 15.6548 0.165705 13.4543C0.0504931 13.0082 0.0204377 12.532 0.0104192 12.0658C-0.00961773 10.8729 0.00540997 9.67989 0.00540997 8.48191C0.0154284 8.49193 0.0204377 8.49193 0.0304561 8.49193ZM8.48103 13.2137C11.0908 13.2187 13.1997 11.1285 13.2097 8.52201C13.2198 5.90549 11.1259 3.79022 8.52611 3.7852C5.89627 3.78019 3.78738 5.8704 3.78738 8.48692C3.78237 11.1034 5.87623 13.2087 8.48103 13.2137ZM15.1032 2.82782C15.0982 2.31655 14.6724 1.8955 14.1565 1.8955C13.6456 1.8955 13.2148 2.32657 13.2148 2.83283C13.2148 3.35413 13.6606 3.79022 14.1765 3.78019C14.6825 3.77518 15.1082 3.33909 15.1032 2.82782Z" fill="white"/>
<path d="M5.67091 8.50797C5.6659 6.94407 6.93825 5.6709 8.50113 5.6709C10.054 5.6709 11.3163 6.92402 11.3313 8.4829C11.3464 10.0368 10.074 11.325 8.51115 11.335C6.95328 11.345 5.67592 10.0719 5.67091 8.50797Z" fill="white"/>
</svg>
