<svg width="17" height="17" viewBox="0 0 17 17" fill="none" xmlns="http://www.w3.org/2000/svg">
<path d="M0.804312 8.50241C0.804312 7.47043 0.804312 6.43846 0.804312 5.40648C0.807811 3.08716 2.41733 1.20162 4.70914 0.855299C5.12202 0.792331 5.54539 0.806324 5.96527 0.806324C7.88269 0.802826 9.80012 0.795829 11.7175 0.806324C13.8169 0.820317 15.6574 2.32805 16.0877 4.38151C16.1507 4.68585 16.1927 5.00419 16.1927 5.31553C16.1997 7.47043 16.2067 9.62884 16.1927 11.7837C16.1787 13.8827 14.5237 15.8032 12.4488 16.1145C11.8645 16.202 11.2627 16.1915 10.6714 16.195C8.92188 16.2055 7.1724 16.1985 5.42643 16.1985C4.06533 16.1985 2.91068 15.7052 1.99046 14.7048C1.23468 13.8757 0.828805 12.8927 0.81131 11.7697C0.790316 10.6818 0.807811 9.59036 0.804312 8.50241ZM1.5041 8.48142C1.5041 9.08311 1.5006 9.68131 1.5041 10.283C1.5076 10.8882 1.48311 11.4969 1.54259 12.0986C1.72104 13.9876 3.38304 15.4849 5.28297 15.4919C7.40683 15.4989 9.5272 15.4989 11.6511 15.4954C13.7924 15.4884 15.4929 13.7917 15.4999 11.6473C15.5069 9.53788 15.5034 7.42496 15.4964 5.31553C15.4964 5.05666 15.4649 4.7908 15.4089 4.53543C15.0241 2.74434 13.4705 1.50247 11.6161 1.50247C9.65666 1.50247 7.69725 1.49897 5.73783 1.50597C5.40193 1.50597 5.05904 1.50597 4.72664 1.56194C2.81271 1.89077 1.5076 3.45797 1.5041 5.40648C1.5041 6.43146 1.5041 7.45644 1.5041 8.48142Z" fill="white"/>
<path d="M4.65239 8.48547C4.66639 6.33056 6.39837 4.64092 8.58521 4.65142C10.6426 4.66191 12.3676 6.43201 12.3536 8.51345C12.3361 10.6579 10.6006 12.365 8.45575 12.3475C6.35638 12.33 4.64189 10.5844 4.65239 8.48547ZM11.6503 8.49946C11.6433 6.73636 10.2402 5.34406 8.47325 5.34756C6.75176 5.35456 5.34169 6.77833 5.35218 8.49946C5.36268 10.2696 6.76576 11.6479 8.55372 11.6409C10.2472 11.6374 11.6573 10.2066 11.6503 8.49946Z" fill="white"/>
<path d="M13.3996 4.30666C13.3996 4.69146 13.0777 5.0063 12.6963 5.0028C12.3114 4.9993 11.9965 4.68097 12 4.29966C12.0035 3.91486 12.3184 3.60352 12.7033 3.60352C13.0882 3.60352 13.4031 3.92185 13.3996 4.30666Z" fill="white"/>
</svg>
