<svg width="157" height="37" viewBox="0 0 157 37" fill="none" xmlns="http://www.w3.org/2000/svg">
<path d="M49.0328 6.28937V8.78248L49.3468 8.47084C49.4895 8.32918 49.8034 8.07421 50.2886 7.76257C50.7738 7.4226 51.259 7.13929 51.8012 6.85599C52.3435 6.60101 52.9999 6.34603 53.8276 6.11939C54.6552 5.89274 55.4829 5.77942 56.3106 5.77942C59.2217 5.77942 61.562 6.71433 63.3885 8.61249C65.1866 10.5106 66.0998 13.0604 66.0998 16.2618V30.2005H61.0768V16.2618C61.0768 14.5336 60.5345 13.1171 59.4214 11.9838C58.3084 10.8506 56.9385 10.284 55.3117 10.284C53.3995 10.284 51.8868 10.9073 50.7452 12.1255C49.6036 13.3437 49.0328 15.0719 49.0328 17.2817V30.2288H44.0098V6.28937H49.0328Z" fill="#484C57"/>
<path d="M85.6783 30.2005V27.7074L85.3644 28.019C85.2217 28.1607 84.9077 28.4157 84.4511 28.7273C83.9945 29.0673 83.4807 29.3506 82.9385 29.6339C82.3962 29.8889 81.7113 30.1438 80.9121 30.3422C80.0845 30.5405 79.2568 30.6538 78.4006 30.6538C75.4895 30.6538 73.1492 29.7189 71.3226 27.8207C69.5246 25.9226 68.6113 23.4011 68.6113 20.1998V6.28937H73.6344V20.2281C73.6344 21.9563 74.1767 23.3728 75.2897 24.506C76.4028 25.6393 77.7727 26.2059 79.3995 26.2059C81.3117 26.2059 82.8243 25.5826 83.9659 24.3644C85.1075 23.1461 85.6783 21.418 85.6783 19.2082V6.28937H90.7014V30.2005H85.6783Z" fill="#484C57"/>
<path d="M124.351 30.2005V16.2618C124.351 14.307 123.894 12.8054 122.981 11.7855C122.068 10.7656 120.84 10.2557 119.328 10.2557C117.758 10.2557 116.445 10.8789 115.389 12.1255C114.333 13.3721 113.82 15.0719 113.82 17.2534V30.2005H108.797V16.2618C108.797 14.307 108.34 12.8054 107.427 11.7855C106.513 10.7656 105.286 10.2557 103.773 10.2557C102.204 10.2557 100.891 10.8789 99.835 12.1255C98.779 13.3721 98.2652 15.0719 98.2652 17.2534V30.2005H93.2422V6.28937H98.2652V8.78248C98.465 8.55583 98.7219 8.27252 99.0929 7.93255C99.4354 7.59259 100.177 7.16762 101.291 6.60101C102.404 6.06273 103.574 5.77942 104.772 5.77942C105.743 5.77942 106.656 5.92107 107.541 6.17605C108.426 6.43103 109.111 6.77099 109.624 7.16762C110.138 7.56425 110.595 7.96088 110.994 8.35752C111.365 8.75415 111.651 9.09411 111.822 9.34909L112.079 9.74572C112.136 9.66073 112.25 9.51908 112.421 9.32076C112.564 9.15078 112.906 8.81081 113.42 8.35752C113.934 7.87589 114.476 7.47926 115.075 7.13929C115.675 6.79933 116.445 6.48769 117.387 6.20438C118.329 5.92107 119.328 5.77942 120.355 5.77942C123.152 5.77942 125.378 6.65767 126.977 8.44251C128.575 10.2273 129.403 12.8338 129.403 16.2618V30.2005H124.351Z" fill="#484C57"/>
<path d="M135.624 26.9708C133.141 24.506 131.885 21.588 131.885 18.2449C131.885 14.9019 133.141 11.9838 135.624 9.49074C138.107 6.99764 141.046 5.77942 144.442 5.77942C147.839 5.77942 150.75 7.02597 153.261 9.49074C155.744 11.9838 157 14.8736 157 18.2449C157 21.6163 155.744 24.506 153.261 26.9708C150.778 29.4356 147.839 30.6821 144.442 30.6821C141.046 30.6821 138.107 29.4639 135.624 26.9708ZM149.722 23.9111C151.206 22.3812 151.949 20.4831 151.949 18.2449C151.949 16.0068 151.206 14.137 149.722 12.5788C148.238 11.0489 146.469 10.2557 144.442 10.2557C142.416 10.2557 140.618 11.0206 139.134 12.5788C137.65 14.1087 136.879 16.0068 136.879 18.2449C136.879 20.4831 137.621 22.3529 139.134 23.9111C140.618 25.4409 142.388 26.2342 144.442 26.2342C146.497 26.2342 148.238 25.4409 149.722 23.9111Z" fill="#484C57"/>
<path d="M13.0714 4.92954V6.94103L0 8.92418V30.1722H39.9277V0L13.0714 4.92954ZM26.1428 29.4923H0.713504V9.51912L26.1428 5.60948V29.4923ZM34.819 29.4923H26.8277V9.66078L34.819 11.219V29.4923ZM39.2142 29.4923H35.5325V10.6524L26.8563 8.95251V4.78789L13.7849 6.79937V5.49616L39.2142 0.849922V29.4923Z" fill="#484C57"/>
<path d="M0 33.6009H0.799124L1.36993 35.8957L1.99781 33.6009H2.59715L3.22504 35.8957L3.79584 33.6009H4.59496L3.71022 36.8873H2.85401L2.31175 34.9608L1.76949 36.8873H0.913285L0 33.6009Z" fill="#484C57"/>
<path d="M4.65039 35.2434C4.65039 34.2802 5.42097 33.5436 6.3628 33.5436C7.30462 33.5436 8.07521 34.2802 8.07521 35.2434C8.07521 36.2067 7.30462 36.9433 6.3628 36.9433C5.42097 36.9433 4.65039 36.2067 4.65039 35.2434ZM7.33316 35.2434C7.33316 34.6485 6.90506 34.2802 6.3628 34.2802C5.82054 34.2802 5.39243 34.6768 5.39243 35.2434C5.39243 35.8384 5.82054 36.2067 6.3628 36.2067C6.90506 36.2067 7.33316 35.8384 7.33316 35.2434Z" fill="#484C57"/>
<path d="M8.39062 35.2434C8.39062 34.2802 9.16121 33.5436 10.103 33.5436C11.0449 33.5436 11.8154 34.2802 11.8154 35.2434C11.8154 36.2067 11.0449 36.9433 10.103 36.9433C9.16121 36.9433 8.39062 36.2067 8.39062 35.2434ZM11.0734 35.2434C11.0734 34.6485 10.6453 34.2802 10.103 34.2802C9.56077 34.2802 9.13267 34.6768 9.13267 35.2434C9.13267 35.8384 9.56077 36.2067 10.103 36.2067C10.6453 36.2067 11.0734 35.8384 11.0734 35.2434Z" fill="#484C57"/>
<path d="M15.1552 35.2434C15.1552 36.1783 14.4703 36.8866 13.557 36.8866H12.2441V33.6002H13.557C14.4703 33.6002 15.1552 34.3085 15.1552 35.2434ZM14.4417 35.2434C14.4417 34.6768 14.0707 34.3368 13.557 34.3368H12.9862V36.1783H13.557C14.0707 36.15 14.4417 35.81 14.4417 35.2434Z" fill="#484C57"/>
<path d="M17.6674 36.15V36.8583H15.584V33.5719H17.6389V34.2802H16.3546V34.8185H17.5247V35.5267H16.3546V36.1217H17.6674V36.15Z" fill="#484C57"/>
<path d="M20.6909 33.6002V36.8866H20.1201L18.8358 35.1018V36.8866H18.0938V33.6002H18.6646L19.9489 35.3851V33.6002H20.6909Z" fill="#484C57"/>
<path d="M24.9744 33.6002V36.8866H24.2324V35.5834H23.2049V36.8866H22.4629V33.6002H23.2049V34.8468H24.2324V33.6002H24.9744Z" fill="#484C57"/>
<path d="M25.4004 35.2434C25.4004 34.2802 26.171 33.5436 27.1128 33.5436C28.0546 33.5436 28.8252 34.2802 28.8252 35.2434C28.8252 36.2067 28.0546 36.9433 27.1128 36.9433C26.171 36.9433 25.4004 36.2067 25.4004 35.2434ZM28.0832 35.2434C28.0832 34.6485 27.6551 34.2802 27.1128 34.2802C26.5705 34.2802 26.1424 34.6768 26.1424 35.2434C26.1424 35.8384 26.5705 36.2067 27.1128 36.2067C27.6551 36.2067 28.0832 35.8384 28.0832 35.2434Z" fill="#484C57"/>
<path d="M29.2246 35.8385V33.6287H29.9667V35.7818C29.9667 36.0368 30.0808 36.2351 30.4804 36.2351C30.8799 36.2351 30.9941 36.0368 30.9941 35.7818V33.6287H31.7361V35.8385C31.7361 36.5467 31.1939 36.9717 30.4518 36.9717C29.7669 36.9434 29.2246 36.5184 29.2246 35.8385Z" fill="#484C57"/>
<path d="M32.1367 36.15L32.7931 35.7817C32.9073 36.065 33.1071 36.235 33.4781 36.235C33.8491 36.235 33.9347 36.0933 33.9347 35.98C33.9347 35.7817 33.735 35.6967 33.2498 35.555C32.7646 35.4134 32.2794 35.1867 32.2794 34.5635C32.2794 33.9402 32.8217 33.5719 33.3925 33.5719C33.9347 33.5719 34.3628 33.8269 34.5912 34.3085L33.9633 34.6768C33.8491 34.4502 33.7064 34.3085 33.3925 34.3085C33.1642 34.3085 33.05 34.4218 33.05 34.5635C33.05 34.7051 33.1356 34.8185 33.6493 34.9601C34.1631 35.1018 34.7053 35.2717 34.7053 35.98C34.7053 36.6033 34.1916 36.9999 33.4781 36.9999C32.7646 36.9433 32.3365 36.6316 32.1367 36.15Z" fill="#484C57"/>
<path d="M37.1303 36.15V36.8583H35.0469V33.5719H37.1018V34.2802H35.8175V34.8185H36.9876V35.5267H35.8175V36.1217H37.1303V36.15Z" fill="#484C57"/>
<path d="M37.3887 36.15L38.0451 35.7817C38.1593 36.065 38.359 36.235 38.7301 36.235C39.1011 36.235 39.1867 36.0933 39.1867 35.98C39.1867 35.7817 38.9869 35.6967 38.5017 35.555C38.0166 35.4134 37.5314 35.1867 37.5314 34.5635C37.5314 33.9402 38.0736 33.5719 38.6444 33.5719C39.1867 33.5719 39.6148 33.8269 39.8431 34.3085L39.2152 34.6768C39.1011 34.4502 38.9584 34.3085 38.6444 34.3085C38.4161 34.3085 38.302 34.4218 38.302 34.5635C38.302 34.7051 38.3876 34.8185 38.9013 34.9601C39.415 35.1018 39.9573 35.2717 39.9573 35.98C39.9573 36.6033 39.4436 36.9999 38.7301 36.9999C38.0166 36.9433 37.5599 36.6316 37.3887 36.15Z" fill="#484C57"/>
</svg>
