<svg width="205" height="48" viewBox="0 0 205 48" fill="none" xmlns="http://www.w3.org/2000/svg">
<path d="M63.7223 8.15924V11.3935L64.1303 10.9893C64.3158 10.8055 64.7238 10.4747 65.3543 10.0704C65.9849 9.62938 66.6154 9.26185 67.3202 8.89431C68.0249 8.56353 68.878 8.23275 69.9536 7.93872C71.0293 7.64469 72.1049 7.49768 73.1805 7.49768C76.9638 7.49768 80.0053 8.71054 82.3791 11.173C84.7158 13.6355 85.9027 16.9433 85.9027 21.0965V39.1791H79.3747V21.0965C79.3747 18.8545 78.67 17.0168 77.2234 15.5467C75.7769 14.0765 73.9965 13.3415 71.8823 13.3415C69.3973 13.3415 67.4314 14.1501 65.9478 15.7305C64.4642 17.3109 63.7223 19.5528 63.7223 22.4196V39.2159H57.1943V8.15924H63.7223Z" fill="white"/>
<path d="M111.347 39.1791V35.9448L110.939 36.3491C110.754 36.5329 110.346 36.8637 109.752 37.268C109.159 37.709 108.491 38.0765 107.787 38.4441C107.082 38.7749 106.192 39.1056 105.153 39.3629C104.078 39.6202 103.002 39.7672 101.889 39.7672C98.1059 39.7672 95.0644 38.5543 92.6906 36.0919C90.3539 33.6294 89.167 30.3583 89.167 26.2052V8.15924H95.695V26.2419C95.695 28.4839 96.3997 30.3216 97.8463 31.7917C99.2928 33.2618 101.073 33.9969 103.187 33.9969C105.672 33.9969 107.638 33.1883 109.122 31.6079C110.606 30.0275 111.347 27.7856 111.347 24.9188V8.15924H117.875V39.1791H111.347Z" fill="white"/>
<path d="M161.605 39.1791V21.0965C161.605 18.5605 161.011 16.6125 159.824 15.2894C158.638 13.9663 157.043 13.3047 155.077 13.3047C153.037 13.3047 151.331 14.1133 149.958 15.7305C148.586 17.3476 147.918 19.5528 147.918 22.3828V39.1791H141.39V21.0965C141.39 18.5605 140.797 16.6125 139.61 15.2894C138.423 13.9663 136.828 13.3047 134.862 13.3047C132.822 13.3047 131.116 14.1133 129.744 15.7305C128.371 17.3476 127.704 19.5528 127.704 22.3828V39.1791H121.176V8.15924H127.704V11.3935C127.963 11.0995 128.297 10.732 128.779 10.2909C129.225 9.8499 130.189 9.2986 131.635 8.56353C133.082 7.86522 134.603 7.49768 136.161 7.49768C137.422 7.49768 138.608 7.68145 139.758 8.01223C140.908 8.34301 141.798 8.78405 142.466 9.2986C143.134 9.81315 143.727 10.3277 144.246 10.8422C144.728 11.3568 145.099 11.7978 145.322 12.1286L145.656 12.6432C145.73 12.5329 145.878 12.3491 146.101 12.0919C146.286 11.8713 146.731 11.4303 147.399 10.8422C148.067 10.2174 148.771 9.70289 149.55 9.26185C150.329 8.82081 151.331 8.41652 152.555 8.04898C153.779 7.68145 155.077 7.49768 156.412 7.49768C160.047 7.49768 162.94 8.63704 165.017 10.9525C167.094 13.268 168.17 16.6493 168.17 21.0965V39.1791H161.605Z" fill="white"/>
<path d="M176.256 34.9893C173.029 31.7917 171.397 28.0061 171.397 23.6692C171.397 19.3323 173.029 15.5467 176.256 12.3124C179.483 9.07808 183.304 7.49768 187.717 7.49768C192.131 7.49768 195.915 9.11483 199.179 12.3124C202.405 15.5467 204.037 19.2955 204.037 23.6692C204.037 28.0429 202.405 31.7917 199.179 34.9893C195.952 38.1868 192.131 39.804 187.717 39.804C183.304 39.804 179.483 38.2236 176.256 34.9893ZM194.579 31.0199C196.508 29.0352 197.472 26.5727 197.472 23.6692C197.472 20.7657 196.508 18.3399 194.579 16.3185C192.651 14.3338 190.351 13.3047 187.717 13.3047C185.084 13.3047 182.747 14.2971 180.819 16.3185C178.89 18.3032 177.888 20.7657 177.888 23.6692C177.888 26.5727 178.853 28.9984 180.819 31.0199C182.747 33.0046 185.047 34.0337 187.717 34.0337C190.388 34.0337 192.651 33.0046 194.579 31.0199Z" fill="white"/>
<path d="M16.9876 6.3951V9.00459L0 11.5773V39.1424H51.8902V0L16.9876 6.3951ZM33.9753 38.2603H0.927273V12.3492L33.9753 7.27718V38.2603ZM45.2509 38.2603H34.8655V12.5329L45.2509 14.5544V38.2603ZM50.9629 38.2603H46.1782V13.8193L34.9025 11.6141V6.21133L17.9149 8.82083V7.13017L50.9629 1.1026V38.2603Z" fill="white"/>
<path d="M0 43.5897H1.03855L1.78036 46.5667L2.59636 43.5897H3.37527L4.19127 46.5667L4.93309 43.5897H5.97164L4.82182 47.8531H3.70909L3.00436 45.3538L2.29964 47.8531H1.18691L0 43.5897Z" fill="white"/>
<path d="M6.0459 45.7213C6.0459 44.4716 7.04735 43.5161 8.27135 43.5161C9.49535 43.5161 10.4968 44.4716 10.4968 45.7213C10.4968 46.9709 9.49535 47.9265 8.27135 47.9265C7.04735 47.9265 6.0459 46.9709 6.0459 45.7213ZM9.53244 45.7213C9.53244 44.9494 8.97608 44.4716 8.27135 44.4716C7.56663 44.4716 7.01026 44.9862 7.01026 45.7213C7.01026 46.4931 7.56663 46.9709 8.27135 46.9709C8.97608 46.9709 9.53244 46.4931 9.53244 45.7213Z" fill="white"/>
<path d="M10.9053 45.7213C10.9053 44.4716 11.9067 43.5161 13.1307 43.5161C14.3547 43.5161 15.3562 44.4716 15.3562 45.7213C15.3562 46.9709 14.3547 47.9265 13.1307 47.9265C11.9067 47.9265 10.9053 46.9709 10.9053 45.7213ZM14.3918 45.7213C14.3918 44.9494 13.8355 44.4716 13.1307 44.4716C12.426 44.4716 11.8696 44.9862 11.8696 45.7213C11.8696 46.4931 12.426 46.9709 13.1307 46.9709C13.8355 46.9709 14.3918 46.4931 14.3918 45.7213Z" fill="white"/>
<path d="M19.6954 45.7214C19.6954 46.9342 18.8052 47.8531 17.6183 47.8531H15.9121V43.5897H17.6183C18.8052 43.5897 19.6954 44.5085 19.6954 45.7214ZM18.7681 45.7214C18.7681 44.9863 18.2859 44.5453 17.6183 44.5453H16.8765V46.9342H17.6183C18.2859 46.8975 18.7681 46.4564 18.7681 45.7214Z" fill="white"/>
<path d="M22.9596 46.8975V47.8163H20.252V43.5529H22.9225V44.4718H21.2534V45.1701H22.7741V46.0889H21.2534V46.8607H22.9596V46.8975Z" fill="white"/>
<path d="M26.8909 43.5897V47.8531H26.1491L24.48 45.5376V47.8531H23.5156V43.5897H24.2574L25.9265 45.9051V43.5897H26.8909Z" fill="white"/>
<path d="M32.4544 43.5897V47.8531H31.4901V46.1624H30.1548V47.8531H29.1904V43.5897H30.1548V45.2068H31.4901V43.5897H32.4544Z" fill="white"/>
<path d="M33.0107 45.7213C33.0107 44.4716 34.0122 43.5161 35.2362 43.5161C36.4602 43.5161 37.4617 44.4716 37.4617 45.7213C37.4617 46.9709 36.4602 47.9265 35.2362 47.9265C34.0122 47.9265 33.0107 46.9709 33.0107 45.7213ZM36.4973 45.7213C36.4973 44.9494 35.9409 44.4716 35.2362 44.4716C34.5315 44.4716 33.9751 44.9862 33.9751 45.7213C33.9751 46.4931 34.5315 46.9709 35.2362 46.9709C35.9409 46.9709 36.4973 46.4931 36.4973 45.7213Z" fill="white"/>
<path d="M37.9814 46.4932V43.6265H38.9458V46.4197C38.9458 46.7505 39.0942 47.0078 39.6134 47.0078C40.1327 47.0078 40.2811 46.7505 40.2811 46.4197V43.6265H41.2454V46.4932C41.2454 47.4121 40.5407 47.9634 39.5764 47.9634C38.6862 47.9266 37.9814 47.3753 37.9814 46.4932Z" fill="white"/>
<path d="M41.7646 46.8975L42.6177 46.4197C42.7661 46.7872 43.0257 47.0077 43.5079 47.0077C43.9901 47.0077 44.1014 46.824 44.1014 46.677C44.1014 46.4197 43.8417 46.3094 43.2112 46.1257C42.5806 45.9419 41.9501 45.6479 41.9501 44.8393C41.9501 44.0307 42.6548 43.5529 43.3966 43.5529C44.1014 43.5529 44.6577 43.8837 44.9545 44.5085L44.1385 44.9863C43.9901 44.6923 43.8046 44.5085 43.3966 44.5085C43.0999 44.5085 42.9516 44.6555 42.9516 44.8393C42.9516 45.0231 43.0628 45.1701 43.7305 45.3538C44.3981 45.5376 45.1028 45.7581 45.1028 46.677C45.1028 47.4855 44.4352 48.0001 43.5079 48.0001C42.5806 47.9266 42.0243 47.5223 41.7646 46.8975Z" fill="white"/>
<path d="M48.2555 46.8975V47.8163H45.5479V43.5529H48.2184V44.4718H46.5493V45.1701H48.07V46.0889H46.5493V46.8607H48.2555V46.8975Z" fill="white"/>
<path d="M48.5889 46.8975L49.442 46.4197C49.5903 46.7872 49.85 47.0077 50.3321 47.0077C50.8143 47.0077 50.9256 46.824 50.9256 46.677C50.9256 46.4197 50.666 46.3094 50.0354 46.1257C49.4049 45.9419 48.7743 45.6479 48.7743 44.8393C48.7743 44.0307 49.479 43.5529 50.2209 43.5529C50.9256 43.5529 51.482 43.8837 51.7787 44.5085L50.9627 44.9863C50.8143 44.6923 50.6289 44.5085 50.2209 44.5085C49.9241 44.5085 49.7758 44.6555 49.7758 44.8393C49.7758 45.0231 49.887 45.1701 50.5547 45.3538C51.2223 45.5376 51.927 45.7581 51.927 46.677C51.927 47.4855 51.2594 48.0001 50.3321 48.0001C49.4049 47.9266 48.8114 47.5223 48.5889 46.8975Z" fill="white"/>
</svg>
