<svg width="23" height="35" viewBox="0 0 23 35" fill="none" xmlns="http://www.w3.org/2000/svg">
<path d="M11.5417 34.9999C14.3014 34.9999 16.5386 34.179 16.5386 33.1662C16.5386 32.1535 14.3014 31.3325 11.5417 31.3325C8.78207 31.3325 6.54492 32.1535 6.54492 33.1662C6.54492 34.179 8.78207 34.9999 11.5417 34.9999Z" fill="url(#paint0_radial)"/>
<path d="M22.9843 11.3211C22.9843 5.10249 17.8263 0 11.54 0C5.17307 0 0.0150591 5.10249 0.0150591 11.3211C0.0150591 11.3211 -0.468504 15.2277 4.04475 21.6856C6.0596 24.5557 11.54 33.1662 11.54 33.1662C11.54 33.1662 16.9398 24.6355 19.0352 21.6856C23.4679 15.3075 22.9843 11.3211 22.9843 11.3211Z" fill="#484C57"/>
<path d="M19.263 14.7102C21.0325 10.4785 19.0006 5.62574 14.7246 3.8712C10.4486 2.11667 5.54773 4.12478 3.77821 8.35645C2.00869 12.5881 4.04061 17.4409 8.31661 19.1954C12.5926 20.95 17.4935 18.9419 19.263 14.7102Z" fill="white"/>
<path d="M22.9838 11.3209C22.9838 10.1251 22.8226 8.92916 22.4196 7.81299C22.4196 8.05217 22.4196 8.29135 22.4196 8.53053C22.4196 15.8654 16.3751 21.8448 8.96045 21.8448C6.9456 21.8448 5.01135 21.3665 3.23828 20.5692C3.48006 20.8881 3.72184 21.2867 3.96363 21.6854C5.97847 24.5555 11.4589 33.166 11.4589 33.166C11.4589 33.166 16.8586 24.6353 18.9541 21.6854C23.4673 15.3073 22.9838 11.3209 22.9838 11.3209Z" fill="#484C57"/>
<path d="M3.39803 11.879C3.39803 7.41433 7.02476 3.82664 11.538 3.82664C16.0513 3.82664 19.678 7.41433 19.678 11.879C19.678 12.9154 19.4362 13.8722 19.1138 14.8289C19.5168 13.7924 19.7586 12.756 19.7586 11.5601C19.7586 7.01569 16.0513 3.26855 11.3768 3.26855C6.86357 3.26855 3.15625 7.01569 3.15625 11.5601C3.15625 13.8722 4.12338 16.0248 5.73525 17.5396C4.28456 16.1045 3.39803 14.1113 3.39803 11.879Z" fill="#484C57"/>
<defs>
<radialGradient id="paint0_radial" cx="0" cy="0" r="1" gradientUnits="userSpaceOnUse" gradientTransform="translate(11.5126 33.152) scale(4.99797 1.86573)">
<stop stop-color="#A09F9F"/>
<stop offset="0.1846" stop-color="#ABAAAA"/>
<stop offset="0.9337" stop-color="#F7F7F7" stop-opacity="0"/>
<stop offset="1" stop-color="white" stop-opacity="0"/>
</radialGradient>
</defs>
</svg>
