<svg width="374" height="230" viewBox="0 0 374 230" fill="none" xmlns="http://www.w3.org/2000/svg">
<path d="M237.469 164.844H158.719V141.719H237.469V164.844ZM152.469 56.25C152.469 39.7917 156.74 26.3021 165.281 15.7812C173.927 5.26042 185.125 0 198.875 0C212.729 0 223.927 5.20833 232.469 15.625C241.115 25.9375 245.438 39.7917 245.438 57.1875V66.7188C245.438 83.2812 241.167 96.7708 232.625 107.188C224.188 117.604 213.042 122.812 199.188 122.812C185.125 122.812 173.823 117.604 165.281 107.188C156.74 96.6667 152.469 82.9167 152.469 65.9375V56.25ZM178.406 66.7188C178.406 76.6146 180.229 84.6354 183.875 90.7812C187.625 96.9271 192.729 100 199.188 100C205.438 100 210.385 96.9792 214.031 90.9375C217.677 84.8958 219.5 76.7708 219.5 66.5625V56.25C219.5 46.0417 217.625 37.9688 213.875 32.0312C210.125 26.0938 205.125 23.125 198.875 23.125C192.729 23.125 187.781 26.0938 184.031 32.0312C180.281 37.9688 178.406 46.25 178.406 56.875V66.7188ZM139.031 230H90.2812L44.6562 82.6562V230H0.125V2.5H48.875L94.6562 150V2.5H139.031V230Z" fill="#DDE7E9"/>
<path d="M373.25 230H328.875V56.25L285.594 72.9688V36.0938L368.562 2.1875H373.25V230Z" fill="#DDE7E9"/>
</svg>
