<svg width="399" height="199" viewBox="0 0 399 199" fill="none" xmlns="http://www.w3.org/2000/svg">
<path d="M42.0515 79.8233V199H0V3.62833H38.7534L130.277 123.363V3.62833H172.329V199H133.575L42.0515 79.8233ZM236.918 102.989C222.809 102.989 210.899 98.058 201.188 88.1964C191.66 78.5208 186.896 66.2403 186.896 51.3548C186.896 36.6554 191.66 24.468 201.188 14.7924C210.899 4.93081 222.809 0 236.918 0C251.027 0 262.937 4.93081 272.648 14.7924C282.359 24.654 287.215 36.8415 287.215 51.3548C287.215 66.4264 282.451 78.7999 272.923 88.4755C263.395 98.151 251.393 102.989 236.918 102.989ZM283.367 150.436H190.469V116.386H283.367V150.436ZM236.918 34.0505C232.154 34.0505 228.123 35.7251 224.825 39.0743C221.526 42.4236 219.877 46.5171 219.877 51.3548C219.877 56.1926 221.526 60.2861 224.825 63.6353C228.123 66.9846 232.154 68.6592 236.918 68.6592C241.682 68.6592 245.713 66.9846 249.011 63.6353C252.309 60.2861 253.958 56.1926 253.958 51.3548C253.958 46.5171 252.309 42.4236 249.011 39.0743C245.713 35.7251 241.682 34.0505 236.918 34.0505Z" fill="#DDE7E9"/>
<path d="M357.223 53.8668L325.891 68.9383L309.4 32.3759L369.042 3.62833H399V199H357.223V53.8668Z" fill="#DDE7E9"/>
</svg>
