<svg width="53" height="53" viewBox="0 0 53 53" fill="none" xmlns="http://www.w3.org/2000/svg">
<mask id="mask0" mask-type="alpha" maskUnits="userSpaceOnUse" x="0" y="0" width="53" height="53">
<path d="M53 16.4048H43.5203V16.8254L44.3821 36.5952H52.1382L52.5691 37.4365L47.3984 45.8492L35.7642 53H24.561L16.8049 51.3175L10.3415 47.9524L1.29268 40.8016L0 29.8651L2.58537 16.4048L8.18699 7.15079L16.374 0H29.7317L46.9675 4.62698L53 16.4048Z" fill="#C4C4C4"/>
</mask>
<g mask="url(#mask0)">
<path d="M51.1376 26.9206C51.1376 39.5875 40.6118 49.8968 27.5766 49.8968C14.5414 49.8968 4.01562 39.5875 4.01562 26.9206C4.01562 14.2538 14.5414 3.94446 27.5766 3.94446C40.6118 3.94446 51.1376 14.2538 51.1376 26.9206Z" stroke="white" stroke-width="2"/>
</g>
<path d="M21.1133 35.7539V18.0873L37.4873 26.9206L21.1133 35.7539Z" fill="white"/>
</svg>
