<svg width="62" height="62" viewBox="0 0 62 62" fill="none" xmlns="http://www.w3.org/2000/svg">
<mask id="mask0" mask-type="alpha" maskUnits="userSpaceOnUse" x="0" y="0" width="62" height="62">
<path d="M62 19.1905H50.9106V19.6825L51.9187 42.8095H60.9919L61.4959 43.7937L55.4472 53.6349L41.8374 62H28.7317L19.6585 60.0317L12.0976 56.0952L1.5122 47.7302L0 34.9365L3.02439 19.1905L9.57724 8.36508L19.1545 0H34.7805L54.9431 5.4127L62 19.1905Z" fill="#C4C4C4"/>
</mask>
<g mask="url(#mask0)">
<path d="M59.9908 31.4921C59.9908 46.4075 47.5977 58.5397 32.2591 58.5397C16.9204 58.5397 4.52734 46.4075 4.52734 31.4921C4.52734 16.5767 16.9204 4.44446 32.2591 4.44446C47.5977 4.44446 59.9908 16.5767 59.9908 31.4921Z" stroke="white" stroke-width="2"/>
</g>
<path d="M24.6992 41.8254V21.1587L43.8537 31.492L24.6992 41.8254Z" fill="white"/>
</svg>
