<svg width="36" height="36" viewBox="0 0 36 36" fill="none" xmlns="http://www.w3.org/2000/svg">
<mask id="mask0" mask-type="alpha" maskUnits="userSpaceOnUse" x="0" y="0" width="36" height="36">
<path d="M36 11.1429H29.561V11.4286L30.1463 24.8571H35.4146L35.7073 25.4286L32.1951 31.1429L24.2927 36H16.6829L11.4146 34.8571L7.02439 32.5714L0.878049 27.7143L0 20.2857L1.7561 11.1429L5.56098 4.85714L11.122 0H20.1951L31.9024 3.14286L36 11.1429Z" fill="#C4C4C4"/>
</mask>
<g mask="url(#mask0)">
<path d="M34.4137 18.2855C34.4137 26.705 27.4151 33.5712 18.7308 33.5712C10.0465 33.5712 3.04785 26.705 3.04785 18.2855C3.04785 9.86598 10.0465 2.99976 18.7308 2.99976C27.4151 2.99976 34.4137 9.86598 34.4137 18.2855Z" stroke="#484C57" stroke-width="2"/>
</g>
<path d="M14.3408 24.2856V12.2856L25.4628 18.2856L14.3408 24.2856Z" fill="#484C57"/>
</svg>
