<svg width="883" height="196" viewBox="0 0 883 196" fill="none" xmlns="http://www.w3.org/2000/svg">
<path d="M132.686 129.837C131.726 151.586 125.619 168.05 114.366 179.23C103.113 190.41 87.2357 196 66.7353 196C45.1881 196 28.6569 188.925 17.1418 174.775C5.71394 160.538 0 140.275 0 113.984V81.885C0 55.6818 5.93203 35.5053 17.7961 21.3556C29.6601 7.11854 46.1477 0 67.2587 0C88.0208 0 103.767 5.80838 114.497 17.4251C125.314 29.0419 131.464 45.7246 132.947 67.4733H94.3454C93.9965 54.0223 91.9028 44.7638 88.0645 39.6979C84.3133 34.5446 77.3781 31.9679 67.2587 31.9679C56.9649 31.9679 49.6807 35.5927 45.4062 42.8422C41.1316 50.0045 38.8635 61.8396 38.6018 78.3476V114.377C38.6018 133.331 40.6955 146.345 44.8828 153.42C49.1573 160.495 56.4415 164.032 66.7353 164.032C76.8547 164.032 83.8335 161.586 87.6719 156.695C91.5103 151.717 93.6912 142.764 94.2146 129.837H132.686Z" fill="#DDE7E9"/>
<path d="M254.772 110.84H194.841V161.412H265.764V193.38H156.37V2.62032H265.502V34.7193H194.841V79.7888H254.772V110.84Z" fill="#DDE7E9"/>
<path d="M326.48 126.299V193.38H288.009V2.62032H352.912C371.755 2.62032 386.76 8.47237 397.926 20.1765C409.179 31.8806 414.806 47.0784 414.806 65.7701C414.806 84.4617 409.266 99.2228 398.187 110.053C387.109 120.884 371.755 126.299 352.127 126.299H326.48ZM326.48 94.2005H352.912C360.24 94.2005 365.91 91.7986 369.923 86.9947C373.936 82.1907 375.942 75.2032 375.942 66.0321C375.942 56.5116 373.892 48.9563 369.792 43.3663C365.692 37.6889 360.196 34.8066 353.305 34.7193H326.48V94.2005Z" fill="#DDE7E9"/>
<path d="M440.584 193.38V2.62032H499.468C519.358 2.62032 534.45 7.07487 544.743 15.984C555.125 24.8057 560.315 37.7763 560.315 54.8957C560.315 64.5909 558.178 72.9323 553.903 79.9198C549.629 86.9073 543.784 92.0169 536.369 95.2487C544.918 97.6943 551.504 102.629 556.128 110.053C560.751 117.39 563.063 126.474 563.063 137.305C563.063 155.822 557.96 169.797 547.753 179.23C537.634 188.663 522.935 193.38 503.655 193.38H440.584ZM479.055 110.447V161.412H503.655C510.547 161.412 515.781 159.272 519.358 154.992C522.935 150.712 524.723 144.642 524.723 136.781C524.723 119.661 518.529 110.883 506.142 110.447H479.055ZM479.055 82.4091H499.076C514.167 82.4091 521.713 74.5918 521.713 58.9572C521.713 50.3102 519.969 44.1087 516.479 40.3529C512.99 36.5971 507.319 34.7193 499.468 34.7193H479.055V82.4091Z" fill="#DDE7E9"/>
<path d="M684.364 2.62032H722.835V193.38H684.364V67.0802L628.228 193.38H589.626V2.62032H628.228V129.051L684.364 2.62032Z" fill="#DDE7E9"/>
<path d="M882.738 129.837C881.779 151.586 875.672 168.05 864.419 179.23C853.165 190.41 837.288 196 816.788 196C795.241 196 778.71 188.925 767.195 174.775C755.767 160.538 750.053 140.275 750.053 113.984V81.885C750.053 55.6818 755.985 35.5053 767.849 21.3556C779.713 7.11854 796.2 0 817.312 0C838.074 0 853.82 5.80838 864.55 17.4251C875.367 29.0419 881.517 45.7246 883 67.4733H844.398C844.049 54.0223 841.956 44.7638 838.117 39.6979C834.366 34.5446 827.431 31.9679 817.312 31.9679C807.018 31.9679 799.734 35.5927 795.459 42.8422C791.184 50.0045 788.916 61.8396 788.655 78.3476V114.377C788.655 133.331 790.748 146.345 794.936 153.42C799.21 160.495 806.494 164.032 816.788 164.032C826.907 164.032 833.886 161.586 837.725 156.695C841.563 151.717 843.744 142.764 844.267 129.837H882.738Z" fill="#DDE7E9"/>
</svg>
