<svg width="923" height="205" viewBox="0 0 923 205" fill="none" xmlns="http://www.w3.org/2000/svg">
<path d="M138.696 135.799C137.693 158.546 131.31 175.766 119.547 187.46C107.784 199.153 91.1875 205 69.7584 205C47.2351 205 29.9551 197.6 17.9183 182.801C5.97278 167.91 0 146.716 0 119.218V85.6451C0 58.2386 6.20075 37.1357 18.6023 22.3362C31.0038 7.44541 48.2382 0 70.3056 0C92.0082 0 108.468 6.07509 119.684 18.2253C130.991 30.3754 137.42 47.8242 138.97 70.5715H98.6193C98.2545 56.5029 96.066 46.8193 92.0538 41.5207C88.1327 36.1308 80.8833 33.4358 70.3056 33.4358C59.5454 33.4358 51.9313 37.2271 47.4631 44.8095C42.9949 52.3006 40.624 64.6791 40.3505 81.9452V119.629C40.3505 139.453 42.539 153.065 46.916 160.465C51.3842 167.864 58.9983 171.564 69.7584 171.564C80.3362 171.564 87.6312 169.006 91.6434 163.89C95.6557 158.683 97.9354 149.319 98.4825 135.799H138.696Z" fill="#DDE7E9"/>
<path d="M266.313 115.929H203.667V168.824H277.803V202.259H163.454V2.74064H277.529V36.3135H203.667V83.4525H266.313V115.929Z" fill="#DDE7E9"/>
<path d="M341.269 132.099V202.259H301.056V2.74064H368.899C388.596 2.74064 404.28 8.86141 415.952 21.1029C427.715 33.3445 433.597 49.2402 433.597 68.7901C433.597 88.34 427.806 103.779 416.225 115.107C404.645 126.435 388.596 132.099 368.078 132.099H341.269ZM341.269 98.5261H368.899C376.559 98.5261 382.486 96.0138 386.681 90.9893C390.875 85.9648 392.973 78.6564 392.973 69.0642C392.973 59.1065 390.83 51.2043 386.544 45.3576C382.258 39.4196 376.513 36.4049 369.309 36.3135H341.269V98.5261Z" fill="#DDE7E9"/>
<path d="M460.543 202.259V2.74064H522.094C542.885 2.74064 558.66 7.39973 569.42 16.7179C580.272 25.9447 585.697 39.5109 585.697 57.4164C585.697 67.5568 583.463 76.2812 578.995 83.5896C574.527 90.8979 568.417 96.2422 560.666 99.6223C569.603 102.18 576.487 107.342 581.32 115.107C586.153 122.781 588.57 132.282 588.57 143.61C588.57 162.977 583.235 177.594 572.566 187.46C561.989 197.326 546.624 202.259 526.471 202.259H460.543ZM500.756 115.518V168.824H526.471C533.675 168.824 539.146 166.585 542.885 162.109C546.624 157.633 548.493 151.283 548.493 143.061C548.493 125.156 542.019 115.975 529.07 115.518H500.756ZM500.756 86.1932H521.684C537.459 86.1932 545.347 78.0169 545.347 61.6644C545.347 52.6203 543.523 46.1341 539.876 42.2059C536.228 38.2776 530.301 36.3135 522.094 36.3135H500.756V86.1932Z" fill="#DDE7E9"/>
<path d="M715.366 2.74064H755.58V202.259H715.366V70.1604L656.687 202.259H616.336V2.74064H656.687V134.977L715.366 2.74064Z" fill="#DDE7E9"/>
<path d="M922.726 135.799C921.723 158.546 915.34 175.766 903.577 187.46C891.814 199.153 875.218 205 853.789 205C831.265 205 813.985 197.6 801.949 182.801C790.003 167.91 784.03 146.716 784.03 119.218V85.6451C784.03 58.2386 790.231 37.1357 802.633 22.3362C815.034 7.44541 832.268 0 854.336 0C876.038 0 892.498 6.07509 903.714 18.2253C915.021 30.3754 921.45 47.8242 923 70.5715H882.65C882.285 56.5029 880.096 46.8193 876.084 41.5207C872.163 36.1308 864.914 33.4358 854.336 33.4358C843.576 33.4358 835.962 37.2271 831.493 44.8095C827.025 52.3006 824.654 64.6791 824.381 81.9452V119.629C824.381 139.453 826.569 153.065 830.946 160.465C835.414 167.864 843.029 171.564 853.789 171.564C864.366 171.564 871.661 169.006 875.674 163.89C879.686 158.683 881.966 149.319 882.513 135.799H922.726Z" fill="#DDE7E9"/>
</svg>
