<svg width="998" height="338" viewBox="0 0 998 338" fill="none" xmlns="http://www.w3.org/2000/svg">
<path d="M45.2139 92.6416H31.7764V155H0.912109V2.14844H31.7764V63.2471H42.1694L68.7295 2.14844H106.312L68.9395 73.3252L110.512 155H73.7686L45.2139 92.6416Z" fill="#DDE7E9"/>
<path d="M223.366 92.3267C223.366 112.833 218.502 128.755 208.773 140.093C199.115 151.431 185.678 157.1 168.461 157.1C151.314 157.1 137.842 151.501 128.043 140.303C118.245 129.035 113.276 113.288 113.136 93.0615V66.9214C113.136 45.9253 118 29.5483 127.729 17.7905C137.457 5.96273 150.964 0.0488281 168.251 0.0488281C185.258 0.0488281 198.66 5.85775 208.458 17.4756C218.257 29.0234 223.226 45.2604 223.366 66.1865V92.3267ZM192.396 66.7114C192.396 52.924 190.437 42.6709 186.518 35.9521C182.598 29.2334 176.509 25.874 168.251 25.874C160.062 25.874 154.009 29.1284 150.089 35.6372C146.17 42.076 144.14 51.9092 144 65.1367V92.3267C144 105.694 145.995 115.562 149.984 121.931C153.974 128.23 160.132 131.379 168.461 131.379C176.509 131.379 182.493 128.3 186.413 122.141C190.332 115.912 192.326 106.289 192.396 93.2715V66.7114Z" fill="#DDE7E9"/>
<path d="M285.829 2.14844L314.699 112.693L343.463 2.14844H383.776V155H352.807V113.638L355.641 49.9146L325.092 155H304.096L273.546 49.9146L276.381 113.638V155H245.517V2.14844H285.829Z" fill="#DDE7E9"/>
<path d="M515.946 155H485.082V27.8687H439.73V155H408.866V2.14844H515.946V155Z" fill="#DDE7E9"/>
<path d="M648.117 2.14844V155H617.147V27.8687H588.803L586.703 82.0386C585.863 99.8853 583.834 114.058 580.614 124.556C577.465 134.984 572.811 142.647 566.652 147.546C560.563 152.445 552.34 154.93 541.981 155H534.423V129.385L537.992 129.07C544.431 128.3 549.05 124.101 551.85 116.472C554.719 108.774 556.504 95.1961 557.204 75.7397L559.198 2.14844H648.117Z" fill="#DDE7E9"/>
<path d="M751.942 88.8623H703.861V129.385H760.761V155H672.997V2.14844H760.551V27.8687H703.861V63.9819H751.942V88.8623Z" fill="#DDE7E9"/>
<path d="M823.119 92.6416H809.682V155H778.817V2.14844H809.682V63.2471H820.075L846.635 2.14844H884.218L846.845 73.3252L888.417 155H851.674L823.119 92.6416Z" fill="#DDE7E9"/>
<path d="M997.282 104.084C996.512 121.511 991.613 134.704 982.584 143.662C973.556 152.62 960.819 157.1 944.372 157.1C927.085 157.1 913.822 151.431 904.584 140.093C895.416 128.685 890.832 112.448 890.832 91.3818V65.6616C890.832 44.6655 895.591 28.4985 905.109 17.1606C914.627 5.75277 927.855 0.0488281 944.792 0.0488281C961.448 0.0488281 974.081 4.70296 982.689 14.0112C991.368 23.3195 996.302 36.687 997.492 54.1138H966.522C966.242 43.3358 964.563 35.9172 961.483 31.8579C958.474 27.7287 952.91 25.6641 944.792 25.6641C936.533 25.6641 930.689 28.5685 927.26 34.3774C923.83 40.1164 922.011 49.5996 921.801 62.8271V91.6968C921.801 106.884 923.48 117.312 926.84 122.981C930.269 128.65 936.113 131.484 944.372 131.484C952.49 131.484 958.089 129.525 961.168 125.605C964.248 121.616 965.998 114.443 966.417 104.084H997.282Z" fill="#DDE7E9"/>
<path d="M472.274 250.071L492.851 182.148H526.024L484.137 304.976C479.378 317.153 474.234 325.517 468.705 330.066C463.246 334.615 456.667 336.995 448.969 337.205H445.609L438.261 336.785L437.736 311.169C438.436 311.449 440.71 311.589 444.56 311.589C448.479 311.589 451.418 310.715 453.378 308.965C455.408 307.215 457.157 303.296 458.627 297.207L460.097 291.643L416.425 182.148H449.494L472.274 250.071Z" fill="#DDE7E9"/>
<path d="M641.608 284.084C640.838 301.511 635.939 314.704 626.911 323.662C617.882 332.62 605.145 337.1 588.698 337.1C571.411 337.1 558.148 331.431 548.91 320.093C539.742 308.685 535.158 292.448 535.158 271.382V245.662C535.158 224.666 539.917 208.499 549.435 197.161C558.953 185.753 572.181 180.049 589.118 180.049C605.775 180.049 618.407 184.703 627.016 194.011C635.694 203.32 640.628 216.687 641.818 234.114H610.849C610.569 223.336 608.889 215.917 605.81 211.858C602.8 207.729 597.236 205.664 589.118 205.664C580.859 205.664 575.015 208.569 571.586 214.377C568.157 220.116 566.337 229.6 566.127 242.827V271.697C566.127 286.884 567.807 297.312 571.166 302.981C574.595 308.65 580.439 311.484 588.698 311.484C596.816 311.484 602.415 309.525 605.495 305.605C608.574 301.616 610.324 294.443 610.744 284.084H641.608Z" fill="#DDE7E9"/>
<path d="M767.794 182.148V335H736.825V207.869H708.48L706.381 262.039C705.541 279.885 703.511 294.058 700.292 304.556C697.143 314.984 692.488 322.647 686.33 327.546C680.241 332.445 672.017 334.93 661.659 335H654.101V309.385L657.67 309.07C664.109 308.3 668.728 304.101 671.527 296.472C674.397 288.774 676.181 275.196 676.881 255.74L678.876 182.148H767.794Z" fill="#DDE7E9"/>
<path d="M840.966 250.071L861.542 182.148H894.716L852.829 304.976C848.07 317.153 842.925 325.517 837.396 330.066C831.938 334.615 825.359 336.995 817.66 337.205H814.301L806.952 336.785L806.427 311.169C807.127 311.449 809.402 311.589 813.251 311.589C817.17 311.589 820.11 310.715 822.069 308.965C824.099 307.215 825.849 303.296 827.318 297.207L828.788 291.643L785.116 182.148H818.185L840.966 250.071Z" fill="#DDE7E9"/>
<path d="M997.177 207.869H942.272V335H911.408V182.148H997.177V207.869Z" fill="#DDE7E9"/>
</svg>
