<svg width="1038" height="123" viewBox="0 0 1038 123" fill="none" xmlns="http://www.w3.org/2000/svg">
<path d="M84.399 121.275H60.1787V70.0862H24.3029V121.275H0V1.64329H24.3029V50.0381H60.1787V1.64329H84.399V121.275Z" fill="#DDE7E9"/>
<path d="M161.937 96.7896H128.789L122.341 121.275H96.6331L134.245 1.64329H156.481L194.341 121.275H168.385L161.937 96.7896ZM134.079 76.6593H156.564L145.322 34.016L134.079 76.6593Z" fill="#DDE7E9"/>
<path d="M230.051 1.64329V101.226H254.52V1.64329H278.822V101.226H302.96V1.64329H327.263V121.275H205.666V1.64329H230.051Z" fill="#DDE7E9"/>
<path d="M405.628 1.64329H429.931V121.275H405.628V42.0681L370.165 121.275H345.78V1.64329H370.165V80.9319L405.628 1.64329Z" fill="#DDE7E9"/>
<path d="M526.398 54.8036L542.6 1.64329H568.722L535.739 97.7756C531.992 107.307 527.941 113.852 523.588 117.413C519.289 120.973 514.109 122.836 508.047 123H505.402L499.616 122.671L499.202 102.623C499.753 102.842 501.544 102.952 504.575 102.952C507.661 102.952 509.976 102.267 511.519 100.898C513.117 99.5284 514.495 96.4609 515.652 91.6954L516.809 87.3407L482.422 1.64329H508.46L526.398 54.8036Z" fill="#DDE7E9"/>
<path d="M659.734 81.4249C659.128 95.0641 655.27 105.389 648.161 112.401C641.052 119.412 631.022 122.918 618.072 122.918C604.46 122.918 594.017 118.481 586.742 109.607C579.523 100.679 575.914 87.9706 575.914 71.483V51.3527C575.914 34.9198 579.661 22.2665 587.156 13.3928C594.65 4.46426 605.066 0 618.402 0C631.518 0 641.465 3.64262 648.244 10.9279C655.077 18.2131 658.962 28.6754 659.899 42.3146H635.514C635.293 33.8791 633.971 28.0728 631.546 24.8958C629.176 21.664 624.795 20.0481 618.402 20.0481C611.899 20.0481 607.298 22.3213 604.598 26.8677C601.897 31.3594 600.464 38.7816 600.299 49.1343V71.7295C600.299 83.6159 601.622 91.7776 604.267 96.2144C606.967 100.651 611.569 102.87 618.072 102.87C624.464 102.87 628.873 101.336 631.298 98.2685C633.723 95.1463 635.1 89.5317 635.431 81.4249H659.734Z" fill="#DDE7E9"/>
<path d="M759.095 1.64329V121.275H734.709V21.7735H712.39L710.737 64.1703C710.076 78.1383 708.477 89.2305 705.943 97.4469C703.463 105.609 699.798 111.607 694.948 115.441C690.154 119.275 683.679 121.22 675.522 121.275H669.571V101.226L672.381 100.98C677.451 100.377 681.088 97.0909 683.293 91.1202C685.552 85.0949 686.958 74.4683 687.509 59.2405L689.079 1.64329H759.095Z" fill="#DDE7E9"/>
<path d="M816.711 54.8036L832.913 1.64329H859.034L826.052 97.7756C822.305 107.307 818.254 113.852 813.9 117.413C809.602 120.973 804.422 122.836 798.36 123H795.715L789.928 122.671L789.515 102.623C790.066 102.842 791.857 102.952 794.888 102.952C797.974 102.952 800.289 102.267 801.832 100.898C803.43 99.5284 804.807 96.4609 805.965 91.6954L807.122 87.3407L772.734 1.64329H798.773L816.711 54.8036Z" fill="#DDE7E9"/>
<path d="M939.714 21.7735H896.481V121.275H872.178V1.64329H939.714V21.7735Z" fill="#DDE7E9"/>
<path d="M1013.7 1.64329H1038V121.275H1013.7V42.0681L978.235 121.275H953.849V1.64329H978.235V80.9319L1013.7 1.64329Z" fill="#DDE7E9"/>
</svg>
