<svg width="76" height="41" viewBox="0 0 76 41" fill="none" xmlns="http://www.w3.org/2000/svg">
<path d="M75.8209 34.3443L71.6752 30.2467H72.5619C72.8015 30.2467 73.0172 30.1046 73.1131 29.8914C73.2089 29.6782 73.161 29.4177 72.9932 29.2519L68.8475 25.1542H71.4116C71.6513 25.1542 71.8669 25.0121 71.9628 24.799C72.0586 24.5858 72.0107 24.3252 71.843 24.1594L67.5775 19.9197H70.1416C70.3812 19.9197 70.5969 19.7776 70.6927 19.5644C70.7886 19.3512 70.7407 19.0907 70.5729 18.9249L66.4272 14.8273H67.9848C68.2005 14.8273 68.3922 14.7088 68.4881 14.543C68.5839 14.3772 68.6079 14.1404 68.512 13.9509L61.2271 0.307914C61.1073 0.118429 60.9156 0 60.6999 0C60.4842 0 60.2686 0.118429 60.1727 0.307914L52.6721 13.9509C52.5763 14.1404 52.5763 14.3536 52.6721 14.543C52.7919 14.7325 52.9837 14.8273 53.1754 14.8273H55.2362L51.9053 18.1196H9.44186C9.10637 18.1196 8.84277 18.3801 8.84277 18.7117V39.2709C8.84277 39.6025 9.10637 39.8631 9.44186 39.8631H15.265H49.7965H55.7634H62.9285C63.264 39.8631 63.5276 39.6025 63.5276 39.2709V35.3391H75.3896C75.6292 35.3391 75.8449 35.197 75.9407 34.9838C76.0606 34.7706 75.9887 34.5101 75.8209 34.3443ZM25.6412 38.6788H15.8641V25.0595H25.6412V38.6788ZM37.8866 38.6788H26.8634V25.0595H37.8866V38.6788ZM49.1974 38.6788H39.0848V25.0595H49.1974V38.6788ZM55.1643 38.6788H50.3956V24.4674C50.3956 24.1358 50.132 23.8752 49.7965 23.8752H15.265C14.9295 23.8752 14.6659 24.1358 14.6659 24.4674V38.6788H10.041V19.3039H55.1643V38.6788ZM58.2796 38.6788H56.3625V35.3391H58.2796V38.6788ZM62.3294 38.6788H59.4778V35.3391H62.3294V38.6788ZM62.9285 34.1785H58.8787H56.3625V18.7117C56.3625 18.3801 56.0989 18.1196 55.7634 18.1196H53.6067L57.1293 14.6378C57.2971 14.472 57.345 14.2114 57.2492 13.9983C57.1533 13.7851 56.9376 13.643 56.698 13.643H54.2058L60.6999 1.84749L66.9784 13.6193H64.9654C64.7258 13.6193 64.5101 13.7614 64.4143 13.9746C64.3184 14.1877 64.3663 14.4483 64.5341 14.6141L68.6798 18.7117H66.1397C65.9 18.7117 65.6843 18.8538 65.5885 19.067C65.4926 19.2802 65.5406 19.5407 65.7083 19.7065L69.9499 23.8989H67.3858C67.1461 23.8989 66.9304 24.041 66.8346 24.2542C66.7387 24.4674 66.7867 24.7279 66.9544 24.8937L71.1001 28.9913H70.2135C69.9738 28.9913 69.7582 29.1334 69.6623 29.3466C69.5664 29.5598 69.6144 29.8203 69.7821 29.9861L73.9278 34.0838H62.9285V34.1785Z" fill="#484C57"/>
<path d="M6.9974 11.4162C8.81863 11.4162 10.3044 9.94765 10.3044 8.14754C10.3044 6.34742 8.81863 4.87891 6.9974 4.87891C5.17617 4.87891 3.69043 6.34742 3.69043 8.14754C3.69043 9.94765 5.17617 11.4162 6.9974 11.4162ZM6.9974 5.58948C8.43521 5.58948 9.60943 6.75008 9.60943 8.17122C9.60943 9.59237 8.43521 10.753 6.9974 10.753C5.55959 10.753 4.38537 9.59237 4.38537 8.17122C4.38537 6.72639 5.55959 5.58948 6.9974 5.58948Z" fill="#484C57"/>
<path d="M6.80574 4.0737C6.99745 4.0737 7.1652 3.9079 7.1652 3.71841V1.77618C7.1652 1.5867 6.99745 1.4209 6.80574 1.4209C6.61403 1.4209 6.44629 1.5867 6.44629 1.77618V3.7421C6.44629 3.93159 6.61403 4.0737 6.80574 4.0737Z" fill="#484C57"/>
<path d="M6.44629 12.577V14.5429C6.44629 14.7324 6.61403 14.8982 6.80574 14.8982C6.99745 14.8982 7.1652 14.7324 7.1652 14.5429V12.577C7.1652 12.3875 6.99745 12.2217 6.80574 12.2217C6.61403 12.2217 6.44629 12.3875 6.44629 12.577Z" fill="#484C57"/>
<path d="M9.96811 5.3767C10.064 5.3767 10.1598 5.35301 10.2078 5.28196L11.5976 3.90819C11.7414 3.76607 11.7414 3.5529 11.5976 3.41078C11.4539 3.26867 11.2382 3.26867 11.0944 3.41078L9.70452 4.78456C9.56073 4.92667 9.56073 5.13984 9.70452 5.28196C9.77641 5.35301 9.87226 5.3767 9.96811 5.3767Z" fill="#484C57"/>
<path d="M3.403 11.0377L2.01311 12.4115C1.86933 12.5536 1.86933 12.7668 2.01311 12.9089C2.085 12.98 2.18085 13.0037 2.25275 13.0037C2.3486 13.0037 2.44445 12.98 2.49238 12.9089L3.88227 11.5351C4.02605 11.393 4.02605 11.1799 3.88227 11.0377C3.76245 10.8956 3.52281 10.8956 3.403 11.0377Z" fill="#484C57"/>
<path d="M10.9268 8.14777C10.9268 8.33725 11.0945 8.50305 11.2862 8.50305H13.2752C13.4669 8.50305 13.6346 8.33725 13.6346 8.14777C13.6346 7.95828 13.4669 7.79248 13.2752 7.79248H11.2862C11.0945 7.81617 10.9268 7.95828 10.9268 8.14777Z" fill="#484C57"/>
<path d="M2.68392 8.14777C2.68392 7.95828 2.51617 7.79248 2.32447 7.79248H0.359453C0.167745 7.81617 0 7.95828 0 8.14777C0 8.33725 0.167745 8.50305 0.359453 8.50305H2.34843C2.51617 8.50305 2.68392 8.33725 2.68392 8.14777Z" fill="#484C57"/>
<path d="M9.72893 11.0377C9.58515 11.1799 9.58515 11.393 9.72893 11.5351L11.1188 12.9089C11.1907 12.98 11.2866 13.0037 11.3585 13.0037C11.4543 13.0037 11.5502 12.98 11.5981 12.9089C11.7419 12.7668 11.7419 12.5536 11.5981 12.4115L10.2082 11.0377C10.0884 10.8956 9.84875 10.8956 9.72893 11.0377Z" fill="#484C57"/>
<path d="M3.40352 5.28196C3.47541 5.35301 3.57127 5.3767 3.64316 5.3767C3.71505 5.3767 3.83487 5.35301 3.88279 5.28196C4.02657 5.13984 4.02657 4.92667 3.88279 4.78456L2.49291 3.41078C2.34913 3.26867 2.13345 3.26867 1.98967 3.41078C1.84589 3.5529 1.84589 3.76607 1.98967 3.90819L3.40352 5.28196Z" fill="#484C57"/>
<path d="M2.9234 28.8729L1.43766 32.8047H1.00632C0.670826 32.8047 0.407227 33.0652 0.407227 33.3968V38.7024C0.407227 39.034 0.670826 39.2946 1.00632 39.2946H1.70126V39.792C1.70126 40.4552 2.25242 41 2.9234 41H4.09762C4.7686 41 5.31976 40.4552 5.31976 39.792V39.2946H7.90782V38.1103H1.6054V33.989H7.90782V32.8047H2.73169L3.90591 29.6545H7.90782V28.4702H3.47456C3.23493 28.4939 3.01926 28.636 2.9234 28.8729ZM4.60085 39.792C4.60085 40.0762 4.38518 40.2894 4.09762 40.2894H2.9234C2.63584 40.2894 2.42017 40.0762 2.42017 39.792V39.2946H4.60085V39.792Z" fill="#484C57"/>
<path d="M2.51562 36.2153C2.51562 36.9259 3.11471 37.518 3.83362 37.518C4.55253 37.518 5.15162 36.9259 5.15162 36.2153C5.15162 35.5047 4.55253 34.9126 3.83362 34.9126C3.11471 34.9126 2.51562 35.4811 2.51562 36.2153ZM4.45667 36.2153C4.45667 36.5469 4.19307 36.8075 3.85758 36.8075C3.52209 36.8075 3.2585 36.5469 3.2585 36.2153C3.2585 35.8837 3.52209 35.6232 3.85758 35.6232C4.19307 35.6232 4.45667 35.8837 4.45667 36.2153Z" fill="#484C57"/>
</svg>
