<svg width="100" height="32" viewBox="0 0 100 32" fill="none" xmlns="http://www.w3.org/2000/svg">
<path d="M65.2508 11.3035H77.6523C77.9041 11.3035 78.1559 11.1739 78.3133 10.9472L80.7055 7.22253C80.9258 6.86626 80.8628 6.41282 80.5481 6.15371L76.0155 2.42903C75.8896 2.29948 75.7008 2.26709 75.5119 2.26709H65.2508C64.8101 2.26709 64.4639 2.62336 64.4639 3.0768V10.5262C64.4639 10.9472 64.8101 11.3035 65.2508 11.3035ZM66.0377 3.85413H75.2286L78.9743 6.93104L77.2116 9.68406H66.0062V3.85413H66.0377Z" fill="#484C57"/>
<path d="M75.8889 6.47754C75.4168 6.47754 75.0391 6.8662 75.0391 7.35203C75.0391 7.83786 75.4168 8.22652 75.8889 8.22652C76.3611 8.22652 76.7388 7.83786 76.7388 7.35203C76.7388 6.8662 76.3611 6.47754 75.8889 6.47754Z" fill="#484C57"/>
<path d="M65.2508 21.7324H85.4898C85.7416 21.7324 85.9934 21.6028 86.1508 21.3761L88.5115 17.6838C88.7318 17.3275 88.6689 16.8741 88.3541 16.615L83.853 12.9227C83.7271 12.7931 83.5383 12.7607 83.3494 12.7607H65.2508C64.8101 12.7607 64.4639 13.117 64.4639 13.5705V20.955C64.4639 21.3761 64.8101 21.7324 65.2508 21.7324ZM66.0377 14.3478H83.0661L86.7803 17.3923L85.0491 20.1129H66.0377V14.3478Z" fill="#484C57"/>
<path d="M83.8508 16.3887C83.3787 16.3887 83.001 16.7773 83.001 17.2632C83.001 17.749 83.3787 18.1377 83.8508 18.1377C84.323 18.1377 84.7007 17.749 84.7007 17.2632C84.7007 16.7773 84.2915 16.3887 83.8508 16.3887Z" fill="#484C57"/>
<path d="M96.7245 26.8829L92.192 23.223C92.0661 23.1258 91.8772 23.061 91.7199 23.061H65.2801C64.8394 23.061 64.4932 23.4173 64.4932 23.8707V31.1906C64.4932 31.644 64.8394 32.0003 65.2801 32.0003H93.8602C94.112 32.0003 94.3638 31.8707 94.5212 31.644L96.9134 27.9841C97.1022 27.5954 97.0393 27.142 96.7245 26.8829ZM93.4196 30.3485H66.0355V24.6481H91.4051L95.1507 27.6602L93.4196 30.3485Z" fill="#484C57"/>
<path d="M92.0686 28.0483C92.538 28.0483 92.9185 27.6568 92.9185 27.1738C92.9185 26.6908 92.538 26.2993 92.0686 26.2993C91.5992 26.2993 91.2188 26.6908 91.2188 27.1738C91.2188 27.6568 91.5992 28.0483 92.0686 28.0483Z" fill="#484C57"/>
<path d="M90.8396 3.23885C91.2803 3.23885 91.6265 2.88258 91.6265 2.42914V0.809713C91.6265 0.356274 91.2803 0 90.8396 0C90.399 0 90.0527 0.356274 90.0527 0.809713V2.42914C90.0527 2.88258 90.399 3.23885 90.8396 3.23885Z" fill="#484C57"/>
<path d="M90.0518 16.4855V18.1049C90.0518 18.5584 90.398 18.9146 90.8387 18.9146C91.2793 18.9146 91.6256 18.5584 91.6256 18.1049V16.4855C91.6256 16.0321 91.2793 15.6758 90.8387 15.6758C90.398 15.6758 90.0518 16.0321 90.0518 16.4855Z" fill="#484C57"/>
<path d="M93.7033 3.9836C93.8292 4.04838 93.9551 4.08077 94.081 4.08077C94.3643 4.08077 94.6161 3.91882 94.7735 3.65972L95.5289 2.23462C95.7492 1.84596 95.5918 1.36013 95.2141 1.13341C94.8364 0.906692 94.3643 1.06863 94.1439 1.4573L93.3885 2.88239C93.1997 3.30344 93.3256 3.78927 93.7033 3.9836Z" fill="#484C57"/>
<path d="M96.6325 6.54227C96.7899 6.54227 96.9158 6.50988 97.0417 6.41272L98.3637 5.57062C98.7414 5.3439 98.8359 4.82568 98.6155 4.46941C98.3952 4.08074 97.8916 3.98358 97.5453 4.2103L96.2234 5.0524C95.8457 5.27912 95.7512 5.79734 95.9716 6.15361C96.0975 6.41272 96.3493 6.54227 96.6325 6.54227Z" fill="#484C57"/>
<path d="M99.2132 8.48584L97.6394 8.51823C97.1988 8.51823 96.8525 8.90689 96.8525 9.32794C96.8525 9.78138 97.1988 10.1377 97.6394 10.1377L99.2132 10.1053C99.6539 10.1053 100 9.7166 100 9.29555C100 8.8745 99.6539 8.48584 99.2132 8.48584Z" fill="#484C57"/>
<path d="M93.7036 14.7045C93.3258 14.9312 93.1685 15.4171 93.3888 15.8057L94.1442 17.2308C94.3016 17.4899 94.5534 17.6519 94.8367 17.6519C94.9626 17.6519 95.0885 17.6195 95.2144 17.5547C95.5921 17.328 95.7495 16.8422 95.5292 16.4535L94.7737 15.0284C94.5849 14.6397 94.1127 14.5102 93.7036 14.7045Z" fill="#484C57"/>
<path d="M98.3637 13.1496L97.0417 12.3075C96.664 12.0807 96.1919 12.1779 95.9716 12.5666C95.7512 12.9552 95.8457 13.4411 96.2234 13.6678L97.5453 14.5099C97.6713 14.6071 97.8286 14.6394 97.9545 14.6394C98.2063 14.6394 98.4896 14.5099 98.6155 14.2508C98.8673 13.8621 98.7414 13.3763 98.3637 13.1496Z" fill="#484C57"/>
<path d="M96.0329 9.45755C96.0329 6.51019 93.7036 4.08105 90.8079 4.08105C90.5246 4.08105 90.2413 4.11344 89.958 4.14583V5.83003C90.2413 5.76526 90.5246 5.73287 90.8079 5.73287C92.8223 5.73287 94.4591 7.41707 94.4591 9.48994C94.4591 11.5628 92.8223 13.247 90.8079 13.247C90.5246 13.247 90.2413 13.2146 89.958 13.1498V14.8017C90.2413 14.834 90.5246 14.8664 90.8079 14.8664C93.7036 14.8017 96.0329 12.4049 96.0329 9.45755Z" fill="#484C57"/>
<path d="M61.6299 2.23438H0.786899C0.346235 2.23438 0 2.62304 0 3.04409V31.1573C0 31.6108 0.346235 31.967 0.786899 31.967H8.43555H53.7924H61.6299C62.0706 31.967 62.4168 31.6108 62.4168 31.1573V3.04409C62.4168 2.62304 62.0391 2.23438 61.6299 2.23438ZM38.1174 11.7242V30.3476H23.6384V11.7242H38.1174ZM22.0646 30.3476H9.22245V11.7242H22.0961V30.3476H22.0646ZM39.6912 30.3476V11.7242H52.974V30.3476H39.6912ZM60.843 30.3476H54.5793V10.9145C54.5793 10.4611 54.2331 10.1048 53.7924 10.1048H8.43555C7.99489 10.1048 7.64865 10.4611 7.64865 10.9145V30.3476H1.5738V3.8538H60.843V30.3476Z" fill="#484C57"/>
</svg>
