<svg width="72" height="23" viewBox="0 0 72 23" fill="none" xmlns="http://www.w3.org/2000/svg">
<path d="M46.9806 8.12432H55.9098C56.0911 8.12432 56.2724 8.0312 56.3857 7.86825L58.1081 5.19113C58.2668 4.93506 58.2214 4.60915 57.9948 4.42291L54.7313 1.74579C54.6407 1.65267 54.5047 1.62939 54.3687 1.62939H46.9806C46.6634 1.62939 46.4141 1.88547 46.4141 2.21138V7.56562C46.4141 7.86825 46.6634 8.12432 46.9806 8.12432ZM47.5472 2.77008H54.1648L56.8617 4.98161L55.5925 6.96035H47.5245V2.77008H47.5472Z" fill="#484C57"/>
<path d="M54.6402 4.65576C54.3003 4.65576 54.0283 4.93511 54.0283 5.2843C54.0283 5.63349 54.3003 5.91284 54.6402 5.91284C54.9802 5.91284 55.2521 5.63349 55.2521 5.2843C55.2521 4.93511 54.9802 4.65576 54.6402 4.65576Z" fill="#484C57"/>
<path d="M46.9806 15.6202H61.5529C61.7342 15.6202 61.9155 15.5271 62.0288 15.3642L63.7285 12.7103C63.8872 12.4543 63.8418 12.1283 63.6152 11.9421L60.3744 9.28827C60.2837 9.19515 60.1478 9.17188 60.0118 9.17188H46.9806C46.6634 9.17188 46.4141 9.42795 46.4141 9.75386V15.0615C46.4141 15.3642 46.6634 15.6202 46.9806 15.6202ZM47.5472 10.3126H59.8078L62.4821 12.5008L61.2356 14.4563H47.5472V10.3126Z" fill="#484C57"/>
<path d="M60.3736 11.7793C60.0337 11.7793 59.7617 12.0586 59.7617 12.4078C59.7617 12.757 60.0337 13.0364 60.3736 13.0364C60.7136 13.0364 60.9855 12.757 60.9855 12.4078C60.9855 12.0586 60.6909 11.7793 60.3736 11.7793Z" fill="#484C57"/>
<path d="M69.6423 19.3222L66.3789 16.6916C66.2882 16.6218 66.1523 16.5752 66.0389 16.5752H47.0021C46.6848 16.5752 46.4355 16.8313 46.4355 17.1572V22.4183C46.4355 22.7442 46.6848 23.0003 47.0021 23.0003H67.58C67.7613 23.0003 67.9426 22.9072 68.0559 22.7442L69.7783 20.1137C69.9143 19.8343 69.869 19.5084 69.6423 19.3222ZM67.2627 21.813H47.546V17.7159H65.8123L68.5092 19.8809L67.2627 21.813Z" fill="#484C57"/>
<path d="M66.2896 20.1599C66.6276 20.1599 66.9015 19.8785 66.9015 19.5314C66.9015 19.1842 66.6276 18.9028 66.2896 18.9028C65.9517 18.9028 65.6777 19.1842 65.6777 19.5314C65.6777 19.8785 65.9517 20.1599 66.2896 20.1599Z" fill="#484C57"/>
<path d="M65.4054 2.32793C65.7227 2.32793 65.972 2.07186 65.972 1.74595V0.581983C65.972 0.256072 65.7227 0 65.4054 0C65.0882 0 64.8389 0.256072 64.8389 0.581983V1.74595C64.8389 2.07186 65.0882 2.32793 65.4054 2.32793Z" fill="#484C57"/>
<path d="M64.8379 11.8491V13.013C64.8379 13.3389 65.0872 13.595 65.4045 13.595C65.7217 13.595 65.971 13.3389 65.971 13.013V11.8491C65.971 11.5232 65.7217 11.2671 65.4045 11.2671C65.0872 11.2671 64.8379 11.5232 64.8379 11.8491Z" fill="#484C57"/>
<path d="M67.4668 2.86329C67.5575 2.90985 67.6481 2.93313 67.7388 2.93313C67.9428 2.93313 68.1241 2.81674 68.2374 2.6305L68.7813 1.60621C68.9399 1.32686 68.8266 0.977671 68.5547 0.814716C68.2827 0.651761 67.9428 0.768157 67.7841 1.04751L67.2402 2.0718C67.1042 2.37443 67.1949 2.72362 67.4668 2.86329Z" fill="#484C57"/>
<path d="M69.5758 4.70214C69.6891 4.70214 69.7798 4.67886 69.8704 4.60902L70.8223 4.00376C71.0942 3.84081 71.1622 3.46834 71.0036 3.21226C70.8449 2.93291 70.4823 2.86307 70.2331 3.02603L69.2812 3.63129C69.0093 3.79425 68.9413 4.16672 69.0999 4.42279C69.1906 4.60902 69.3719 4.70214 69.5758 4.70214Z" fill="#484C57"/>
<path d="M71.4341 6.09912L70.3009 6.1224C69.9837 6.1224 69.7344 6.40175 69.7344 6.70438C69.7344 7.03029 69.9837 7.28637 70.3009 7.28637L71.4341 7.26309C71.7514 7.26309 72.0007 6.98373 72.0007 6.6811C72.0007 6.37847 71.7514 6.09912 71.4341 6.09912Z" fill="#484C57"/>
<path d="M67.4671 10.5691C67.1952 10.732 67.0818 11.0812 67.2405 11.3606L67.7844 12.3848C67.8977 12.5711 68.079 12.6875 68.283 12.6875C68.3736 12.6875 68.4643 12.6642 68.5549 12.6176C68.8269 12.4547 68.9402 12.1055 68.7816 11.8261L68.2376 10.8018C68.1017 10.5225 67.7617 10.4294 67.4671 10.5691Z" fill="#484C57"/>
<path d="M70.8223 9.45112L69.8704 8.84585C69.5985 8.6829 69.2585 8.75274 69.0999 9.03209C68.9413 9.31144 69.0093 9.66063 69.2812 9.82359L70.2331 10.4288C70.3237 10.4987 70.437 10.522 70.5277 10.522C70.709 10.522 70.9129 10.4288 71.0036 10.2426C71.1849 9.96326 71.0942 9.61407 70.8223 9.45112Z" fill="#484C57"/>
<path d="M69.1444 6.79747C69.1444 4.67905 67.4674 2.93311 65.3824 2.93311C65.1784 2.93311 64.9745 2.95638 64.7705 2.97966V4.19019C64.9745 4.14363 65.1784 4.12035 65.3824 4.12035C66.8328 4.12035 68.0113 5.33087 68.0113 6.82075C68.0113 8.31062 66.8328 9.52115 65.3824 9.52115C65.1784 9.52115 64.9745 9.49787 64.7705 9.45131V10.6386C64.9745 10.6618 65.1784 10.6851 65.3824 10.6851C67.4674 10.6386 69.1444 8.91589 69.1444 6.79747Z" fill="#484C57"/>
<path d="M44.3739 1.60596H0.566572C0.249292 1.60596 0 1.88531 0 2.18794V22.3944C0 22.7203 0.249292 22.9764 0.566572 22.9764H6.07365H38.7309H44.3739C44.6912 22.9764 44.9405 22.7203 44.9405 22.3944V2.18794C44.9405 1.88531 44.6686 1.60596 44.3739 1.60596ZM27.4448 8.42679V21.8124H17.0198V8.42679H27.4448ZM15.8867 21.8124H6.64023V8.42679H15.9093V21.8124H15.8867ZM28.5779 21.8124V8.42679H38.1416V21.8124H28.5779ZM43.8074 21.8124H39.2974V7.84481C39.2974 7.5189 39.0482 7.26283 38.7309 7.26283H6.07365C5.75637 7.26283 5.50708 7.5189 5.50708 7.84481V21.8124H1.13314V2.76992H43.8074V21.8124Z" fill="#484C57"/>
</svg>
