<svg width="68" height="48" viewBox="0 0 68 48" fill="none" xmlns="http://www.w3.org/2000/svg">
<path d="M45.1644 26.4136H0.576665C0.253733 26.4136 0 26.6714 0 26.9995V47.3432C0 47.6713 0.253733 47.9291 0.576665 47.9291H6.18185H39.4208H45.1644C45.4873 47.9291 45.7411 47.6713 45.7411 47.3432V26.9995C45.7411 26.6714 45.4643 26.4136 45.1644 26.4136ZM27.9336 33.2573V46.7338H17.323V33.2573H27.9336ZM16.1697 46.7338H6.75851V33.2573H16.1927V46.7338H16.1697ZM29.087 46.7338V33.2573H38.8211V46.7338H29.087ZM44.5877 46.7338H39.9975V32.6714C39.9975 32.3432 39.7437 32.0854 39.4208 32.0854H6.18185C5.85891 32.0854 5.60518 32.3432 5.60518 32.6714V46.7338H1.15333V27.562H44.5877V46.7338Z" fill="#484C57"/>
<path d="M13.3789 25.6171H15.824L22.2826 19.0546H23.9203L30.4943 25.7342H33.0547L25.6042 18.164C26.7114 17.3905 27.4265 16.1015 27.4265 14.6484C27.4265 12.6093 26.0194 10.8984 24.1279 10.4765V7.28902H25.8349C26.3193 7.28902 26.7114 6.91403 26.7575 6.42184L27.2189 1.00781C27.2419 0.749996 27.1497 0.492185 26.9882 0.304686C26.8037 0.117187 26.5499 0 26.2962 0H19.6069C19.3532 0 19.0994 0.117187 18.938 0.304686C18.7534 0.492185 18.6842 0.749996 18.7073 1.00781L19.1686 6.42184C19.2148 6.91403 19.6069 7.28902 20.0913 7.28902H22.3057V11.2968C22.3057 11.8124 22.7209 12.2343 23.2283 12.2343C24.5431 12.2343 25.6042 13.3124 25.6042 14.6484C25.6042 15.9843 24.5431 17.0624 23.2283 17.0624C22.1903 17.0624 21.2907 16.3827 20.9678 15.3749C20.8063 14.8827 20.2989 14.6015 19.8145 14.7655C19.3301 14.9296 19.0533 15.4452 19.2148 15.9374C19.4685 16.7577 19.976 17.4608 20.5988 17.9765H20.4834L13.3789 25.6171ZM20.6218 1.87499H25.3043L25.0045 5.41403H20.9217L20.6218 1.87499Z" fill="#484C57"/>
<path d="M47.7715 42.7969V43.7812L48.8787 43.3359V47.9062H50.032V41.9062H49.9167L47.7715 42.7969Z" fill="#484C57"/>
<path d="M53.6296 43.9687C53.3989 43.9687 53.1683 44.0391 52.9376 44.2031L53.0529 42.9141H54.9675V41.9297H52.1072L51.8073 44.9766L52.7069 45.2109L52.7761 45.1172C52.8915 44.9766 53.0529 44.8828 53.2836 44.8828C53.5143 44.8828 53.6757 44.9766 53.7911 45.1406C53.9064 45.3047 53.9756 45.5859 53.9756 45.9141C53.9756 46.2891 53.9295 46.5469 53.8141 46.7344C53.7219 46.9219 53.5604 47.0156 53.3759 47.0156C53.2144 47.0156 53.076 46.9453 52.9837 46.8047C52.8915 46.664 52.8223 46.4766 52.7992 46.2187H51.6689C51.6689 46.5469 51.7381 46.8516 51.8996 47.1328C52.0611 47.3906 52.2687 47.6015 52.5224 47.7656C52.7761 47.9297 53.076 48 53.3759 48C53.9064 48 54.3216 47.8125 54.6215 47.4609C54.9444 47.0859 55.0828 46.6172 55.0828 46.0078C55.0828 45.375 54.9444 44.8828 54.6907 44.5312C54.4831 44.1562 54.114 43.9687 53.6296 43.9687Z" fill="#484C57"/>
<path d="M57.5976 41.8354C57.044 41.8354 56.6288 42.0464 56.3289 42.4917C56.029 42.937 55.8906 43.5698 55.8906 44.3901V45.5151C55.8906 46.312 56.0521 46.9214 56.352 47.3432C56.6518 47.7651 57.067 47.976 57.5976 47.976C58.1512 47.976 58.5664 47.7651 58.8662 47.3198C59.1661 46.8745 59.3045 46.2417 59.3045 45.4214V44.3432C59.3045 43.5464 59.143 42.9136 58.8662 42.4917C58.5664 42.0464 58.1512 41.8354 57.5976 41.8354ZM58.1742 45.6792C58.1742 46.1245 58.1281 46.476 58.0358 46.687C57.9436 46.8979 57.8052 47.0151 57.6206 47.0151C57.413 47.0151 57.2746 46.8979 57.1824 46.6636C57.0901 46.4292 57.044 46.0776 57.044 45.5854V44.0854C57.067 43.2183 57.2516 42.7964 57.6206 42.7964C57.8052 42.7964 57.9666 42.9136 58.0589 43.1479C58.1512 43.3823 58.1973 43.7339 58.1973 44.2026V45.6792H58.1742Z" fill="#484C57"/>
<path d="M63.9407 46.2422L62.8335 41.9297H61.2881V47.9062H62.4645V46.289L62.3722 43.7812L63.5486 47.9062H64.3559L65.5323 43.7812L65.417 46.289V47.9062H66.6165V41.9297H65.0479L63.9407 46.2422Z" fill="#484C57"/>
<path d="M67.401 41.5788L67.6318 41.2271C67.7703 41.063 67.8626 40.9223 67.9088 40.8285C67.9549 40.7113 67.978 40.6175 67.978 40.5002C67.978 40.3361 67.9319 40.1954 67.8395 40.1016C67.7472 40.0078 67.6087 39.9609 67.4471 39.9609C67.3317 39.9609 67.2394 39.9844 67.1471 40.0313C67.0548 40.0782 66.9855 40.1485 66.9394 40.2658C66.8932 40.3595 66.8701 40.4768 66.8701 40.594H67.2394C67.2394 40.5002 67.2625 40.4064 67.2856 40.3595C67.3317 40.3127 67.3779 40.2658 67.4241 40.2658C67.4702 40.2658 67.5164 40.2892 67.5395 40.3361C67.5626 40.383 67.5856 40.4533 67.5856 40.5237C67.5856 40.594 67.5626 40.6409 67.5395 40.7113C67.5164 40.7816 67.4702 40.852 67.401 40.9457L66.8932 41.6023V41.8602H68.0011V41.5554H67.401V41.5788Z" fill="#484C57"/>
</svg>
