<svg width="94" height="66" viewBox="0 0 94 66" fill="none" xmlns="http://www.w3.org/2000/svg">
<path d="M62.4322 36.3188H0.797143C0.350743 36.3188 0 36.6733 0 37.1245V65.097C0 65.5482 0.350743 65.9027 0.797143 65.9027H8.54537H54.4927H62.4322C62.8786 65.9027 63.2294 65.5482 63.2294 65.097V37.1245C63.2294 36.6733 62.8467 36.3188 62.4322 36.3188ZM38.6136 45.729V64.2591H23.9462V45.729H38.6136ZM22.3519 64.2591H9.34251V45.729H22.3838V64.2591H22.3519ZM40.2079 64.2591V45.729H53.6636V64.2591H40.2079ZM61.6351 64.2591H55.2898V44.9233C55.2898 44.4721 54.9391 44.1176 54.4927 44.1176H8.54537C8.09897 44.1176 7.74823 44.4721 7.74823 44.9233V64.2591H1.59429V37.8979H61.6351V64.2591Z" fill="#484C57"/>
<path d="M18.4941 35.2234H21.874L30.802 26.2001H33.0659L42.1533 35.3846H45.6926L35.3936 24.9755C36.9241 23.912 37.9125 22.1395 37.9125 20.1415C37.9125 17.3378 35.9675 14.9853 33.3529 14.4052V10.0224H35.7124C36.382 10.0224 36.9241 9.50679 36.9878 8.83003L37.6256 1.38574C37.6574 1.03124 37.5299 0.676754 37.3067 0.418943C37.0516 0.161132 36.7009 0 36.3501 0H27.1033C26.7525 0 26.4018 0.161132 26.1786 0.418943C25.9235 0.676754 25.8279 1.03124 25.8597 1.38574L26.4975 8.83003C26.5612 9.50679 27.1033 10.0224 27.7729 10.0224H30.8339V15.5331C30.8339 16.2421 31.4078 16.8222 32.1093 16.8222C33.9268 16.8222 35.3936 18.3046 35.3936 20.1415C35.3936 21.9784 33.9268 23.4608 32.1093 23.4608C30.6745 23.4608 29.4309 22.5263 28.9845 21.1405C28.7613 20.4638 28.0599 20.077 27.3903 20.3026C26.7207 20.5282 26.338 21.2372 26.5612 21.9139C26.912 23.0419 27.6135 24.0087 28.4744 24.7176H28.3149L18.4941 35.2234ZM28.5063 2.57811H34.979L34.5645 7.4443H28.9208L28.5063 2.57811Z" fill="#484C57"/>
<path d="M66.0361 58.8457V60.1992L67.5666 59.5869V65.8711H69.1609V57.6211H69.0015L66.0361 58.8457Z" fill="#484C57"/>
<path d="M74.1341 60.457C73.8153 60.457 73.4964 60.5537 73.1775 60.7793L73.337 59.0068H75.9835V57.6533H72.0297L71.6151 61.8428L72.8587 62.165L72.9543 62.0361C73.1138 61.8428 73.337 61.7139 73.6558 61.7139C73.9747 61.7139 74.1979 61.8428 74.3573 62.0684C74.5167 62.2939 74.6124 62.6807 74.6124 63.1318C74.6124 63.6474 74.5486 64.0019 74.3892 64.2597C74.2617 64.5176 74.0385 64.6465 73.7834 64.6465C73.5602 64.6465 73.3689 64.5498 73.2413 64.3564C73.1138 64.1631 73.0181 63.9053 72.9862 63.5508H71.4238C71.4238 64.0019 71.5195 64.4209 71.7427 64.8076C71.9659 65.1621 72.2529 65.4521 72.6036 65.6777C72.9543 65.9033 73.3689 66 73.7834 66C74.5167 66 75.0907 65.7422 75.5052 65.2588C75.9516 64.7431 76.1429 64.0986 76.1429 63.2607C76.1429 62.3906 75.9516 61.7139 75.6009 61.2305C75.3139 60.7148 74.8037 60.457 74.1341 60.457Z" fill="#484C57"/>
<path d="M79.6183 57.5239C78.8531 57.5239 78.2791 57.814 77.8646 58.4263C77.4501 59.0386 77.2588 59.9087 77.2588 61.0366V62.5835C77.2588 63.6792 77.482 64.5171 77.8965 65.0971C78.311 65.6772 78.885 65.9672 79.6183 65.9672C80.3836 65.9672 80.9575 65.6772 81.3721 65.0649C81.7866 64.4526 81.9779 63.5825 81.9779 62.4546V60.9721C81.9779 59.8765 81.7547 59.0063 81.3721 58.4263C80.9575 57.814 80.3836 57.5239 79.6183 57.5239ZM80.4155 62.8091C80.4155 63.4214 80.3517 63.9048 80.2242 64.1948C80.0966 64.4848 79.9053 64.646 79.6502 64.646C79.3633 64.646 79.1719 64.4848 79.0444 64.1626C78.9168 63.8403 78.8531 63.3569 78.8531 62.6801V60.6177C78.885 59.4253 79.1401 58.8452 79.6502 58.8452C79.9053 58.8452 80.1285 59.0063 80.2561 59.3286C80.3836 59.6509 80.4474 60.1343 80.4474 60.7788V62.8091H80.4155Z" fill="#484C57"/>
<path d="M88.3866 63.583L86.8561 57.6533H84.7197V65.8711H86.3459V63.6474L86.2183 60.1992L87.8445 65.8711H88.9605L90.5867 60.1992L90.4273 63.6474V65.8711H92.0853V57.6533H89.9171L88.3866 63.583Z" fill="#484C57"/>
<path d="M93.1704 57.1709L93.4894 56.6873C93.6809 56.4616 93.8085 56.2682 93.8723 56.1392C93.9361 55.978 93.968 55.849 93.968 55.6878C93.968 55.4621 93.9042 55.2687 93.7766 55.1397C93.649 55.0108 93.4575 54.9463 93.2342 54.9463C93.0746 54.9463 92.947 54.9785 92.8194 55.043C92.6918 55.1075 92.5961 55.2042 92.5322 55.3654C92.4684 55.4944 92.4365 55.6556 92.4365 55.8168H92.947C92.947 55.6878 92.9789 55.5589 93.0108 55.4944C93.0746 55.4299 93.1385 55.3654 93.2023 55.3654C93.2661 55.3654 93.3299 55.3977 93.3618 55.4621C93.3937 55.5266 93.4256 55.6233 93.4256 55.7201C93.4256 55.8168 93.3937 55.8813 93.3618 55.978C93.3299 56.0747 93.2661 56.1714 93.1704 56.3004L92.4684 57.2031V57.5578H93.9999V57.1387H93.1704V57.1709Z" fill="#484C57"/>
</svg>
