<svg width="70" height="66" viewBox="0 0 70 66" fill="none" xmlns="http://www.w3.org/2000/svg">
<path d="M69.1175 34.2119H0.882501C0.388301 34.2119 0 34.5928 0 35.0776V65.1343C0 65.6191 0.388301 66 0.882501 66H9.46041H60.3278H69.1175C69.6117 66 70 65.6191 70 65.1343V35.0776C70 34.5928 69.5764 34.2119 69.1175 34.2119ZM42.7484 44.3578V64.2686H26.5103V44.3578H42.7484ZM24.7453 64.2686H10.3429V44.3578H20.2622H24.7806V64.2686H24.7453ZM44.5134 64.2686V44.3578H59.41V64.2686H44.5134ZM68.235 64.2686H61.2103V43.4921C61.2103 43.0073 60.822 42.6264 60.3278 42.6264H9.46041C8.96621 42.6264 8.57791 43.0073 8.57791 43.4921V64.2686H1.765V35.9433H68.235V64.2686Z" fill="#484C57"/>
<path d="M24.1426 28.5677H26.9666L34.4502 21.2267H36.3211L43.9106 28.6716H46.8758L38.2626 20.2225C39.5334 19.3568 40.3806 17.937 40.3806 16.3096C40.3806 14.0241 38.7568 12.1196 36.5682 11.6348V8.13746H38.545C39.1098 8.13746 39.5687 7.72193 39.604 7.16789L40.1335 1.14271C40.1688 0.865688 40.0629 0.55404 39.8511 0.346275C39.6393 0.13851 39.3569 0 39.0745 0H31.3791C31.0967 0 30.779 0.13851 30.6025 0.346275C30.3907 0.55404 30.2848 0.865688 30.3201 1.14271L30.8496 7.16789C30.8849 7.72193 31.3438 8.13746 31.9086 8.13746H34.4502V12.6044C34.4502 13.1931 34.9444 13.6432 35.5092 13.6432C37.0271 13.6432 38.2626 14.8552 38.2626 16.3096C38.2626 17.7639 37.0271 19.0105 35.5092 19.0105C34.309 19.0105 33.25 18.2487 32.897 17.1406C32.7205 16.5866 32.1204 16.2749 31.5556 16.4481C30.9908 16.6212 30.6731 17.2099 30.8496 17.7639C31.132 18.6989 31.7321 19.4607 32.4381 20.0493H32.3322L24.1426 28.5677ZM32.544 2.07765H37.9449L37.5919 6.02519H32.897L32.544 2.07765Z" fill="#484C57"/>
<path d="M47.5821 44.3579V64.2687H23.9311L20.2246 44.3579" fill="#FEFEFE"/>
<path d="M44.8318 53.6729H25.6286C25.1344 53.6729 24.7461 53.292 24.7461 52.8072V30.3339C24.7461 29.8492 25.1344 29.4683 25.6286 29.4683H44.8318C45.326 29.4683 45.7143 29.8492 45.7143 30.3339V52.8072C45.7143 53.2574 45.2907 53.6729 44.8318 53.6729ZM26.5111 51.9415H43.914V31.1996H26.5111V51.9415Z" fill="#484C57"/>
<path d="M44.8347 29.4675C45.3289 29.4675 45.7172 29.8484 45.7172 30.3331V52.8064C45.7172 53.2912 45.3289 53.6721 44.8347 53.6721H25.6315C25.1373 53.6721 24.749 53.2912 24.749 52.8064V30.3331C24.749 29.8484 25.1373 29.4675 25.6315 29.4675H44.8347ZM26.514 51.9407H43.9169V31.1988H26.514V51.9407ZM44.8347 28.7749H25.6315C24.749 28.7749 24.043 29.4675 24.043 30.3331V52.8064C24.043 53.6721 24.749 54.3646 25.6315 54.3646H44.8347C45.7172 54.3646 46.4232 53.6721 46.4232 52.8064V30.3331C46.4232 29.4675 45.6819 28.7749 44.8347 28.7749ZM27.22 31.8914H43.2109V51.2482H27.22V31.8914Z" fill="white"/>
</svg>
