<svg width="104" height="56" viewBox="0 0 104 56" fill="none" xmlns="http://www.w3.org/2000/svg">
<path d="M103.755 46.9093L98.0824 41.3125H99.2957C99.6236 41.3125 99.9188 41.1184 100.05 40.8273C100.181 40.5361 100.116 40.1802 99.886 39.9538L94.2129 34.357H97.7217C98.0496 34.357 98.3447 34.1629 98.4759 33.8717C98.6071 33.5806 98.5415 33.2247 98.3119 32.9983L92.475 27.2074H95.9837C96.3116 27.2074 96.6068 27.0133 96.7379 26.7221C96.8691 26.431 96.8035 26.0751 96.574 25.8486L90.9009 20.2519H93.0324C93.3276 20.2519 93.5899 20.0901 93.721 19.8637C93.8522 19.6372 93.885 19.3137 93.7538 19.0549L83.785 0.420566C83.6211 0.161756 83.3587 0 83.0636 0C82.7685 0 82.4734 0.161756 82.3422 0.420566L72.0783 19.0549C71.9471 19.3137 71.9471 19.6049 72.0783 19.8637C72.2422 20.1225 72.5046 20.2519 72.7669 20.2519H75.587L71.0289 24.7487H12.9214C12.4623 24.7487 12.1016 25.1046 12.1016 25.5575V53.6384C12.1016 54.0913 12.4623 54.4471 12.9214 54.4471H20.8898H68.1432H76.3084H86.1133C86.5724 54.4471 86.9331 54.0913 86.9331 53.6384V48.2681H103.165C103.493 48.2681 103.788 48.0739 103.919 47.7828C104.083 47.4916 103.985 47.1358 103.755 46.9093ZM35.0888 52.8296H21.7096V34.2276H35.0888V52.8296ZM51.8456 52.8296H36.7612V34.2276H51.8456V52.8296ZM67.3234 52.8296H53.4852V34.2276H67.3234V52.8296ZM75.4886 52.8296H68.963V33.4188C68.963 32.9659 68.6023 32.6101 68.1432 32.6101H20.8898C20.4308 32.6101 20.07 32.9659 20.07 33.4188V52.8296H13.7412V26.3663H75.4886V52.8296ZM79.7516 52.8296H77.1283V48.2681H79.7516V52.8296ZM85.2935 52.8296H81.3912V48.2681H85.2935V52.8296ZM86.1133 46.6828H80.5714H77.1283V25.5575C77.1283 25.1046 76.7675 24.7487 76.3084 24.7487H73.3572L78.1776 19.9931C78.4072 19.7666 78.4727 19.4107 78.3416 19.1196C78.2104 18.8284 77.9153 18.6343 77.5873 18.6343H74.177L83.0636 2.5234L91.6552 18.602H88.9006C88.5727 18.602 88.2776 18.7961 88.1464 19.0872C88.0152 19.3784 88.0808 19.7343 88.3104 19.9607L93.9834 25.5575H90.5074C90.1795 25.5575 89.8844 25.7516 89.7532 26.0428C89.622 26.3339 89.6876 26.6898 89.9172 26.9162L95.7214 32.6424H92.2126C91.8847 32.6424 91.5896 32.8365 91.4584 33.1277C91.3272 33.4188 91.3928 33.7747 91.6224 34.0012L97.2954 39.5979H96.0821C95.7542 39.5979 95.459 39.792 95.3279 40.0832C95.1967 40.3744 95.2623 40.7302 95.4918 40.9567L101.165 46.5534H86.1133V46.6828Z" fill="#484C57"/>
<path d="M9.57609 15.593C12.0683 15.593 14.1014 13.5872 14.1014 11.1285C14.1014 8.66984 12.0683 6.66406 9.57609 6.66406C7.08389 6.66406 5.05078 8.66984 5.05078 11.1285C5.05078 13.5872 7.08389 15.593 9.57609 15.593ZM9.57609 7.6346C11.5436 7.6346 13.1504 9.21981 13.1504 11.1609C13.1504 13.102 11.5436 14.6872 9.57609 14.6872C7.60856 14.6872 6.00175 13.102 6.00175 11.1609C6.00175 9.18746 7.60856 7.6346 9.57609 7.6346Z" fill="#484C57"/>
<path d="M9.31127 5.56426C9.57312 5.56426 9.80223 5.3378 9.80223 5.07899V2.42619C9.80223 2.16738 9.57312 1.94092 9.31127 1.94092C9.04943 1.94092 8.82031 2.16738 8.82031 2.42619V5.11134C8.82031 5.37015 9.04943 5.56426 9.31127 5.56426Z" fill="#484C57"/>
<path d="M8.82031 17.1781V19.8633C8.82031 20.1221 9.04943 20.3486 9.31127 20.3486C9.57312 20.3486 9.80223 20.1221 9.80223 19.8633V17.1781C9.80223 16.9193 9.57312 16.6929 9.31127 16.6929C9.04943 16.6929 8.82031 16.9193 8.82031 17.1781Z" fill="#484C57"/>
<path d="M13.6411 7.34392C13.7723 7.34392 13.9034 7.31157 13.969 7.21451L15.871 5.33814C16.0677 5.14403 16.0677 4.85287 15.871 4.65876C15.6742 4.46466 15.3791 4.46466 15.1823 4.65876L13.2804 6.53514C13.0836 6.72924 13.0836 7.02041 13.2804 7.21451C13.3788 7.31157 13.5099 7.34392 13.6411 7.34392Z" fill="#484C57"/>
<path d="M4.65693 15.0758L2.75499 16.9521C2.55823 17.1462 2.55823 17.4374 2.75499 17.6315C2.85336 17.7286 2.98453 17.7609 3.08291 17.7609C3.21408 17.7609 3.34524 17.7286 3.41083 17.6315L5.31277 15.7551C5.50952 15.561 5.50952 15.2699 5.31277 15.0758C5.14881 14.8816 4.82089 14.8816 4.65693 15.0758Z" fill="#484C57"/>
<path d="M14.9521 11.1288C14.9521 11.3876 15.1817 11.6141 15.444 11.6141H18.1658C18.4281 11.6141 18.6577 11.3876 18.6577 11.1288C18.6577 10.87 18.4281 10.6436 18.1658 10.6436H15.444C15.1817 10.6759 14.9521 10.87 14.9521 11.1288Z" fill="#484C57"/>
<path d="M3.67271 11.1288C3.67271 10.87 3.44317 10.6436 3.18083 10.6436H0.491881C0.229545 10.6759 0 10.87 0 11.1288C0 11.3876 0.229545 11.6141 0.491881 11.6141H3.21362C3.44317 11.6141 3.67271 11.3876 3.67271 11.1288Z" fill="#484C57"/>
<path d="M13.3136 15.0758C13.1168 15.2699 13.1168 15.561 13.3136 15.7551L15.2155 17.6315C15.3139 17.7286 15.4451 17.7609 15.5434 17.7609C15.6746 17.7609 15.8058 17.7286 15.8714 17.6315C16.0681 17.4374 16.0681 17.1462 15.8714 16.9521L13.9694 15.0758C13.8055 14.8816 13.4775 14.8816 13.3136 15.0758Z" fill="#484C57"/>
<path d="M4.65651 7.21451C4.75489 7.31157 4.88606 7.34392 4.98444 7.34392C5.08281 7.34392 5.24677 7.31157 5.31236 7.21451C5.50911 7.02041 5.50911 6.72924 5.31236 6.53514L3.41042 4.65876C3.21366 4.46466 2.91854 4.46466 2.72178 4.65876C2.52503 4.85287 2.52503 5.14403 2.72178 5.33814L4.65651 7.21451Z" fill="#484C57"/>
<path d="M3.99981 39.4362L1.9667 44.8065H1.37644C0.917353 44.8065 0.556641 45.1624 0.556641 45.6153V52.862C0.556641 53.3149 0.917353 53.6708 1.37644 53.6708H2.32741V54.3501C2.32741 55.256 3.08163 56 3.99981 56H5.60662C6.5248 56 7.27902 55.256 7.27902 54.3501V53.6708H10.8206V52.0532H2.19624V46.4241H10.8206V44.8065H3.73747L5.34428 40.5038H10.8206V38.8862H4.75403C4.42611 38.9186 4.13098 39.1127 3.99981 39.4362ZM6.29525 54.3501C6.29525 54.7383 6.00013 55.0295 5.60662 55.0295H3.99981C3.6063 55.0295 3.31118 54.7383 3.31118 54.3501V53.6708H6.29525V54.3501Z" fill="#484C57"/>
<path d="M3.44141 49.4649C3.44141 50.4354 4.26121 51.2442 5.24497 51.2442C6.22873 51.2442 7.04853 50.4354 7.04853 49.4649C7.04853 48.4943 6.22873 47.6855 5.24497 47.6855C4.26121 47.6855 3.44141 48.462 3.44141 49.4649ZM6.09756 49.4649C6.09756 49.9178 5.73685 50.2736 5.27776 50.2736C4.81867 50.2736 4.45796 49.9178 4.45796 49.4649C4.45796 49.0119 4.81867 48.6561 5.27776 48.6561C5.73685 48.6561 6.09756 49.0119 6.09756 49.4649Z" fill="#484C57"/>
</svg>
