<svg width="19" height="13" viewBox="0 0 19 13" fill="none" xmlns="http://www.w3.org/2000/svg">
<path d="M11.0658 3.11601C11.0658 3.76624 11.0557 4.41646 11.0725 5.06669C11.0792 5.32272 11.1162 5.59093 11.1901 5.83071C11.3514 6.34682 11.7109 6.44842 12.0066 6.0339C12.4165 5.45683 12.813 4.85943 13.159 4.22546C13.6731 3.28263 14.0629 2.25446 14.4056 1.2019C14.4291 1.12469 14.4627 1.05154 14.4862 0.974324C14.6139 0.592316 14.8524 0.437887 15.1851 0.437887C15.9511 0.441951 16.7206 0.437887 17.4866 0.437887C17.7084 0.437887 17.9335 0.437887 18.1553 0.441951C18.2527 0.441951 18.3535 0.446015 18.4509 0.462271C18.9583 0.559805 19.0927 0.828023 18.9415 1.41729C18.75 2.16912 18.4039 2.82747 18.0276 3.45738C17.4564 4.41646 16.8684 5.35929 16.2871 6.31025C16.1897 6.47281 16.0956 6.64349 16.015 6.81824C15.8369 7.19618 15.8537 7.57006 16.0923 7.89924C16.3174 8.2081 16.5593 8.49664 16.8046 8.78111C17.4127 9.48417 18.0276 10.1832 18.5215 11.0122C18.6727 11.2642 18.8172 11.5324 18.9146 11.8209C18.9785 11.9997 18.9785 12.2314 18.9583 12.4305C18.9247 12.7475 18.7197 12.9873 18.4543 12.9873C17.4161 12.9995 16.3779 13.0117 15.3396 12.9791C14.7449 12.9629 14.2779 12.5727 13.8814 12.0607C13.4816 11.5405 13.0851 11.0163 12.6819 10.5001C12.5811 10.3701 12.4635 10.2563 12.3459 10.1507C11.9595 9.81741 11.5664 9.92307 11.3951 10.4514C11.2707 10.8334 11.2069 11.252 11.1363 11.6543C11.096 11.8859 11.0994 12.1298 11.0658 12.3655C11.0221 12.6784 10.8642 12.8897 10.6055 12.9263C10.2762 12.971 9.9402 13.0035 9.60757 12.9995C7.24888 12.9751 5.41435 11.7112 3.9763 9.51262C2.54496 7.32216 1.44626 4.89601 0.481955 2.37231C0.340838 2.00656 0.193 1.64487 0.0686825 1.27099C-0.0959548 0.78332 0.0350827 0.527293 0.465156 0.466334C0.623073 0.441951 0.78771 0.446015 0.945627 0.446015C1.70498 0.446015 2.46768 0.450079 3.22703 0.446015C3.58655 0.446015 3.84526 0.637019 3.99646 1.02716C4.27869 1.7424 4.52061 2.48204 4.8398 3.16884C5.23628 4.0182 5.68651 4.83505 6.13674 5.64783C6.26106 5.87135 6.44922 6.05422 6.63401 6.20865C6.89273 6.42404 7.13465 6.34276 7.24889 5.9892C7.34296 5.70066 7.41352 5.3918 7.4404 5.08295C7.5244 4.03039 7.53448 2.97784 7.38328 1.92934C7.30601 1.38478 7.03385 1.03528 6.58698 0.89711C6.26106 0.795512 6.2577 0.738617 6.47946 0.429759C6.70121 0.124965 6.98009 0.00304794 7.30264 0.00304794C8.30391 -0.00101598 9.30517 -0.00101598 10.3098 0.00304794C10.7835 0.00711186 11.0523 0.385056 11.0591 1.05154C11.0658 1.73834 11.0624 2.42921 11.0624 3.11601C11.0624 3.11601 11.0624 3.11601 11.0658 3.11601Z" fill="white"/>
</svg>
